<svg xmlns="http://www.w3.org/2000/svg" viewBox="0 0 17 39"><title>buttons up and down</title><g id="Layer_2" data-name="Layer 2"><g id="Layer_1-2" data-name="Layer 1"><path id="buttonDown" d="M8.5,23.417A7.083,7.083,0,1,1,1.417,30.5,7.092,7.092,0,0,1,8.5,23.417M8.5,22A8.5,8.5,0,1,0,17,30.5,8.5,8.5,0,0,0,8.5,22Z"/><path d="M8.5,33.208a.7.7,0,0,1-.425-.141l-4-3a.709.709,0,1,1,.85-1.134L8.5,31.614l3.575-2.681a.709.709,0,1,1,.85,1.134l-4,3A.7.7,0,0,1,8.5,33.208Z"/><path id="buttonUp" d="M8.5,1.417A7.083,7.083,0,1,1,1.417,8.5,7.092,7.092,0,0,1,8.5,1.417M8.5,0A8.5,8.5,0,1,0,17,8.5,8.5,8.5,0,0,0,8.5,0Z"/><path d="M12.5,10.208a.7.7,0,0,1-.424-.141L8.5,7.386,4.925,10.067a.709.709,0,0,1-.85-1.134l4-3a.708.708,0,0,1,.85,0l4,3a.708.708,0,0,1-.426,1.275Z"/></g></g></svg>