<svg id="Color" xmlns="http://www.w3.org/2000/svg" viewBox="0 0 798.744 665.11"><defs><style>.cls-1{fill:#160606;}.cls-2{fill:#c4d1d8;}.cls-3{fill:#9fa9ad;}.cls-4{fill:#31343c;}.cls-5{fill:#48505e;}.cls-6{fill:#7b8699;}.cls-7{fill:#a6a3c1;}.cls-8{fill:#230b0a;}.cls-9{fill:#e2f2cd;}.cls-10{fill:#ecba81;}.cls-11{fill:#f2c599;}.cls-12{fill:#c08154;}.cls-13{fill:#411b1f;}.cls-14{fill:#023f3c;}.cls-15{fill:#f3f3f3;}</style></defs><title>Frame 2</title><g id="Underline"><path class="cls-1" d="M796.714,622.88,659.254,403.31a13.205,13.205,0,0,0-11.2-6.2H569.374v1.17a51.911,51.911,0,0,1-10.26-1.17h10.26V379.14a154.331,154.331,0,0,0-28.65-89.81l-.09-.17a48.032,48.032,0,0,0,20.97-65.88c-.08.31-.16.61-.26.92v.02a25.006,25.006,0,0,1-23.97,17.89c-8.64,0-16.551-3.46-19.61-11.96-1.84-5.09-1.931-11.99.61-21.04,41-146-63-172-63-172-25.13-75.4-257-40-195,144,3.27,9.72,4.58,17.81,4.51,24.54v.03c-.29,25.63-20.59,31.43-28.51,31.43a27.884,27.884,0,0,1-19.93-8.34c-.19-.19-.38-.38-.56-.58a47.864,47.864,0,0,0-.51,6.92,46.953,46.953,0,0,0,22.37,40.03q-1.47,2.685-2.69,5.52l-.28-.13a154.632,154.632,0,0,0-35.4,98.61v17.97h-48.68a13.2,13.2,0,0,0-11.2,6.2L2.034,622.88a13.052,13.052,0,0,0-1.74,9.74,4.209,4.209,0,0,0,.12.48l-.04.01-.08,21.51a13.194,13.194,0,0,0,12.94,10.49h772.28c6.19,0,11.21-4.85,12.86-10,0,0,0-20.89.2-23.16a.776.776,0,0,1,.031-.2A12.989,12.989,0,0,0,796.714,622.88Zm-310.34-84.2.03.45c-.01-.01-.02,0-.03,0Zm-143-78.28v2.86A5.148,5.148,0,0,1,343.374,460.4Zm-32,142.47v2.52A10.118,10.118,0,0,1,311.374,602.87Zm117.8-323.43a1.858,1.858,0,0,1,.19-.11,1.087,1.087,0,0,0-.01.18C429.294,279.49,429.234,279.46,429.174,279.44ZM568.4,505.46l-.03.12v-6.24a32.689,32.689,0,0,1,.159,3.77A7.427,7.427,0,0,1,568.4,505.46Z" transform="translate(0 0)"/></g><g id="_Group_" data-name="&lt;Group&gt;"><path class="cls-2" d="M708.374,593.47h-.05a11.616,11.616,0,0,0-.97-4.62l-27.94-64.71a11.658,11.658,0,0,0-10.7-7.03h-9.87c5.67,0,8.21-7,5.53-12v-11.5h-.02a7.421,7.421,0,0,0-.9-3.54l-28.92-53.93a7.5,7.5,0,0,0-6.74-3.95l-42.44.74a7.5,7.5,0,0,0-7.03,9.72l.05.16v6.12h-.02a7.5,7.5,0,0,0-7.03,9.72l16.42,53.17a7.486,7.486,0,0,0,7.16,5.29h-96.92a11.646,11.646,0,0,0-11.61,12.57v9.45a11.644,11.644,0,0,0-11,12.55l5.15,64.71a11.642,11.642,0,0,0,11.61,10.72h207.52c8.37,0,14.71-8.98,8.72-24.21Zm-392-160.04v-11l.02-.08a9,9,0,0,0-8.71-11.24H176.424a9.014,9.014,0,0,0-7.73,4.39l-27.25,45.64a8.864,8.864,0,0,0-1.23,3.69h-.03l-9.74,16.31a9,9,0,0,0,7.68,13.61l158.55-1.18c4.02.02,5.59-7.09,6.62-11.15a8.69,8.69,0,0,0,1.08-2.4c.02-.06.04-.13.06-.2Zm140.02,29.5a.5.5,0,0,1-.02.12V452.11h-.02a4.752,4.752,0,0,0,.16-1.14l.71-26.43a5.29,5.29,0,0,0-5.28-5.43h-95.63a5.274,5.274,0,0,0-5.06,3.78l-5.46,18.37c-2.27.41-5.01,1.63-5.54,3.27l-7.86,23.93c-1.01,3.07,1.53,6.15,5.07,6.15h113.76c5.15-.5,5.15-3.5,5.29-11.66Zm-.02,145.67v-11a10.137,10.137,0,0,0,.67-3.95l-3.36-107.78a10.077,10.077,0,0,0-10.08-9.76h-94.44a10.069,10.069,0,0,0-9.75,7.54l-3.85,14.81a10.044,10.044,0,0,0-7.15,7.19l-27.79,106.94a10.082,10.082,0,0,0,9.69,12.61l135.59.84c5.45.04,10.03-5.39,10.16-16.7v-.01C456.174,609.09,456.284,608.85,456.374,608.6Zm19.88-169.48.2,1.99c-4.33.01-7.71,3.46-7.29,7.42l2.56,61.97a7.147,7.147,0,0,0,7.32,6.11h81.97c3.72,0,6.72-4.49,7.39-11.15a7.428,7.428,0,0,0,.13-2.35,32.7,32.7,0,0,0-.16-3.77v-5.56h-.01a7.623,7.623,0,0,0-.21-1.76l-16.41-67.3a7.358,7.358,0,0,0-7.14-5.61h-61.13a7.345,7.345,0,0,0-7.31,8.06l.21,2.15v9.79ZM277.374,607.93l27.05-88.72.76-12.49.19-.61c1.78-5.85-3.19-11-9.31-11h-55.33a9.118,9.118,0,0,0-8.35,5.47l-39.26,90.3a9.248,9.248,0,0,0-.75,3.23v.14l-8.25,18.63a9.106,9.106,0,0,0,8.35,12.73h72.11a9.281,9.281,0,0,0,8.72-6.45c2.16-6.36,2.8-8.25,2.99-8.81a8.909,8.909,0,0,0,1.01-2.19Zm-78-210.82h359.74a51.911,51.911,0,0,0,10.26,1.17v-1.17h78.68a13.2,13.2,0,0,1,11.2,6.2l137.46,219.57a12.984,12.984,0,0,1,1.89,8.87.8.8,0,0,0-.03.2,13.2,13.2,0,0,1-13.06,11.16H13.234A13.171,13.171,0,0,1,.414,633.1a4.209,4.209,0,0,1-.12-.48,13.052,13.052,0,0,1,1.74-9.74l137.46-219.57a13.2,13.2,0,0,1,11.2-6.2Zm5,117V503.95a7.4,7.4,0,0,0-7.26-8.84h-67.19a7.4,7.4,0,0,0-6.41,3.71l-53.78,93.71a7.27,7.27,0,0,0-.85,5.07l-10.15,16.93a7.4,7.4,0,0,0,6.41,11.08h83.79a7.386,7.386,0,0,0,6.71-4.3l3.65-9.01a7.079,7.079,0,0,0,1.08-1.46,5.278,5.278,0,0,0,.27-.53Z" transform="translate(0 0)"/><path class="cls-3" d="M798.574,631.95c-.2,2.27-.2,23.16-.2,23.16-1.65,5.15-6.67,10-12.86,10H13.234A13.194,13.194,0,0,1,.294,654.62l.08-21.51.04-.01a13.171,13.171,0,0,0,12.82,10.01h772.28A13.2,13.2,0,0,0,798.574,631.95Z" transform="translate(0 0)"/><path class="cls-3" d="M491.374,603.45l.15,1.94a11.642,11.642,0,0,0,11.61,10.72h193.52a11.668,11.668,0,0,0,11.59-12.98l.13-.02v-.21c5.99,15.23-.35,24.21-8.72,24.21H492.134a11.642,11.642,0,0,1-11.61-10.72l-5.15-64.71a11.644,11.644,0,0,1,11-12.55c.01,0,.02-.01.03,0Z" transform="translate(0 0)"/><path class="cls-4" d="M708.244,603.13a11.668,11.668,0,0,1-11.59,12.98H503.374v-11h193.28a11.668,11.668,0,0,0,11.67-11.64h.05v9.64Z" transform="translate(0 0)"/><path class="cls-5" d="M486.374,529.68a11.646,11.646,0,0,1,11.61-12.57h170.73a11.658,11.658,0,0,1,10.7,7.03l27.94,64.71a11.614,11.614,0,0,1-10.7,16.26H503.134a11.642,11.642,0,0,1-11.61-10.72l-.02-.29Zm215,66.89a5.552,5.552,0,0,0,.47-5.35l-27.94-64.7a5.654,5.654,0,0,0-5.19-3.41H497.984a5.653,5.653,0,0,0-5.63,6.1l5.15,64.7a5.669,5.669,0,0,0,5.63,5.2h193.52A5.564,5.564,0,0,0,701.374,596.57Z" transform="translate(0 0)"/><path class="cls-3" d="M601.374,512.09c.17.01.35.02.53.02h54.94a7.511,7.511,0,0,0,7.51-7.51h.02v.51c2.68,5,.14,12-5.53,12H594.9a7.486,7.486,0,0,1-7.16-5.29l-16.42-53.17a7.5,7.5,0,0,1,7.03-9.72h.02v4.88l16.37,53.01a7.571,7.571,0,0,0,.63,1.46A7.477,7.477,0,0,0,601.374,512.09Z" transform="translate(0 0)"/><path class="cls-4" d="M664.354,504.6a7.511,7.511,0,0,1-7.51,7.51H601.9c-.18,0-.36-.01-.53-.02v-11c.17.01.35.02.53.02h54.94a7.509,7.509,0,0,0,7.51-7.5h.02V504.6Z" transform="translate(0 0)"/><path class="cls-5" d="M595.374,497.28a7.571,7.571,0,0,1-.63-1.46l-16.37-53.01-.05-.16a7.5,7.5,0,0,1,7.03-9.72l42.44-.74a7.5,7.5,0,0,1,6.74,3.95l28.92,53.93a7.421,7.421,0,0,1,.9,3.54,7.509,7.509,0,0,1-7.51,7.5H601.9c-.18,0-.36-.01-.53-.02A7.477,7.477,0,0,1,595.374,497.28Zm62.75-2.9a1.437,1.437,0,0,0,.04-1.48l-28.91-53.92a1.516,1.516,0,0,0-1.35-.79l-42.45.74a1.505,1.505,0,0,0-1.4,1.95l16.42,53.17a1.479,1.479,0,0,0,1.43,1.06h54.94A1.42,1.42,0,0,0,658.124,494.38Z" transform="translate(0 0)"/><path class="cls-6" d="M601.374,501.11v10.98a7.477,7.477,0,0,1-6-3.81v-11a7.477,7.477,0,0,0,6,3.81Z" transform="translate(0 0)"/><path class="cls-4" d="M595.374,497.28v11a7.571,7.571,0,0,1-.63-1.46l-16.37-53.01v-11l16.37,53.01A7.571,7.571,0,0,0,595.374,497.28Z" transform="translate(0 0)"/><path class="cls-7" d="M569.374,379.14v17.97h-10.26c-26.15-5.2-68.74-26-68.74-26l6,25v1H325.564c-19.66-4.74-43.19-19-43.19-19l.42-2.77a69.129,69.129,0,0,0,54.57-10.3l-.02-.03a41.515,41.515,0,0,1-5.41-79.13,54,54,0,0,0,106.9-.13,30.992,30.992,0,0,1-39.25,47.74,55.008,55.008,0,0,0,100.83-43.22c-.01-.02-.01-.04-.02-.06.01.01.03.01.04.02a48.148,48.148,0,0,0,40.2-1.07l.09.17A154.331,154.331,0,0,1,569.374,379.14Z" transform="translate(0 0)"/><path class="cls-3" d="M483.374,507.83a7.308,7.308,0,0,0,6.67,4.28h70.97c3.6,0,6.59-3.05,7.36-6.53l.03-.12c-.67,6.66-3.67,11.15-7.39,11.15h-81.97a7.147,7.147,0,0,1-7.32-6.11l-2.56-61.97c-.42-3.96,2.96-7.41,7.29-7.42l6.27,64.36A7.188,7.188,0,0,0,483.374,507.83Z" transform="translate(0 0)"/><path class="cls-4" d="M568.374,502.11v3.47c-.77,3.48-3.76,6.53-7.36,6.53h-70.64v-11h70.64a7.344,7.344,0,0,0,7.35-7.33h.01v8.33Z" transform="translate(0 0)"/><path class="cls-5" d="M483.374,496.83a7.188,7.188,0,0,1-.65-2.36l-6.35-65.15-.21-2.15a7.345,7.345,0,0,1,7.31-8.06H544.6a7.358,7.358,0,0,1,7.14,5.61l16.41,67.3a7.623,7.623,0,0,1,.21,1.76,7.344,7.344,0,0,1-7.35,7.33h-70.97A7.308,7.308,0,0,1,483.374,496.83Zm78.71-2.24a1.305,1.305,0,0,0,.24-1.15l-16.41-67.3a1.346,1.346,0,0,0-1.31-1.03h-61.13a1.345,1.345,0,0,0-1,.44,1.327,1.327,0,0,0-.34,1.04l6.56,67.3a1.348,1.348,0,0,0,1.35,1.22h70.97A1.313,1.313,0,0,0,562.084,494.59Z" transform="translate(0 0)"/><path class="cls-8" d="M275.024,373.05a69.051,69.051,0,0,1-39.97-92.39q1.215-2.835,2.69-5.52a46.953,46.953,0,0,1-22.37-40.03,47.864,47.864,0,0,1,.51-6.92c.18.2.37.39.56.58.59,4.69,5.17,32.76,29.93,26.34,26.35-6.83,18.89-47.47,18.51-49.43v-.03c.07-6.73-1.24-14.82-4.51-24.54-62-184,169.87-219.4,195-144,0,0,104,26,63,172-2.54,9.05-2.45,15.95-.61,21.04l-.32.13c2.61,7.42,13.93,36.58,27.93,27.83,13.98-8.74,15.75-28.93,15.97-33.89v-.02c.1-.31.18-.61.26-.92a48.022,48.022,0,0,1-61.17,66.95c-.01-.01-.03-.01-.04-.02.01.02.01.04.02.06a55.037,55.037,0,0,1-67.62,70.6l.08-.26c60.18-41.52,28.95-98.71,24.5-106.18a93.8,93.8,0,0,0,17.73-41.36l.27.04h.2a10,10,0,1,0,13.89-7.12,13.933,13.933,0,0,0,2.91-8.38V168.27a12.155,12.155,0,0,0-12.16-12.16h-3.84v-40.5a94.5,94.5,0,1,0-189,0v82a94.1,94.1,0,0,0,18.07,55.58c-4.7,6.5-45.78,66.32-7.07,123.92a68.9,68.9,0,0,1-15.58-1.77A65.527,65.527,0,0,1,275.024,373.05Z" transform="translate(0 0)"/><path class="cls-1" d="M561.344,224.22c-.22,4.96-1.99,25.15-15.97,33.89-14,8.75-25.32-20.41-27.93-27.83l.32-.13c3.06,8.5,10.97,11.96,19.61,11.96A25,25,0,0,0,561.344,224.22Z" transform="translate(0 0)"/><path class="cls-6" d="M559.114,397.11h-62.74v-1l-6-25S532.964,391.91,559.114,397.11Z" transform="translate(0 0)"/><path class="cls-6" d="M503.374,605.11v11h-.24a11.642,11.642,0,0,1-11.61-10.72l-.15-1.94v-9.34l.13-.01.02.29a11.642,11.642,0,0,0,11.61,10.72Z" transform="translate(0 0)"/><path class="cls-9" d="M489.464,205.99a9.989,9.989,0,1,1-13.89,7.12v-.01A18.005,18.005,0,0,0,489.464,205.99Z" transform="translate(0 0)"/><path class="cls-10" d="M492.374,168.27v29.34a13.933,13.933,0,0,1-2.91,8.38,9.811,9.811,0,0,0-4.09-.88,10.017,10.017,0,0,0-9.8,7.99v.01h-.2l-.27-.04a93.765,93.765,0,0,0,1.27-15.46v-41.5h3.84A12.155,12.155,0,0,1,492.374,168.27Z" transform="translate(0 0)"/><polygon class="cls-4" points="486.404 539.13 486.374 538.68 486.374 529.68 491.504 594.1 491.374 594.11 491.374 603.45 486.404 539.13"/><path class="cls-6" d="M490.374,501.11v11h-.33a7.308,7.308,0,0,1-6.67-4.28v-11a7.308,7.308,0,0,0,6.67,4.28Z" transform="translate(0 0)"/><path class="cls-9" d="M489.464,205.99a18.005,18.005,0,0,1-13.89,7.11,10.017,10.017,0,0,1,9.8-7.99A9.811,9.811,0,0,1,489.464,205.99Z" transform="translate(0 0)"/><path class="cls-4" d="M476.454,441.11l-.2-1.99.12-.01v-9.79l6.35,65.15a7.188,7.188,0,0,0,.65,2.36v11a7.188,7.188,0,0,1-.65-2.36Z" transform="translate(0 0)"/><path class="cls-11" d="M305.444,253.19a94.1,94.1,0,0,1-18.07-55.58v-82a94.163,94.163,0,0,1,.59-10.55l.41.05c59,14,135-11,135-35,9,0,53,52,53,79v48.5a94.372,94.372,0,0,1-19,56.82,94.757,94.757,0,0,1-28.01,24.9,1.858,1.858,0,0,0-.19.11,94.684,94.684,0,0,1-87.07,3.92l-.45-.21A94.938,94.938,0,0,1,305.444,253.19Zm156.89-95.38c.03-.56.04-1.13.04-1.7a33,33,0,0,0-66,0l-.5,20.5a33,33,0,0,0,66,0l.46-18.77Zm-48.54,95.3a1.425,1.425,0,0,0-1.42-1.42h-61a1.42,1.42,0,0,0,0,2.84h61A1.425,1.425,0,0,0,413.794,253.11Zm-19,8a1.425,1.425,0,0,0-1.42-1.42h-23a1.42,1.42,0,0,0,0,2.84h23A1.425,1.425,0,0,0,394.794,261.11Zm-5-27a1.425,1.425,0,0,0-1.42-1.42,15.6,15.6,0,0,1-15.58-15.58,1.42,1.42,0,1,0-2.84,0,18.437,18.437,0,0,0,18.42,18.42A1.425,1.425,0,0,0,389.794,234.11Zm-20.46-76.3c.03-.56.04-1.13.04-1.7a33,33,0,1,0-66,0l-.5,20.5a33,33,0,0,0,66,0l.46-18.77Z" transform="translate(0 0)"/><path class="cls-1" d="M476.374,115.61v33.5c0-27-44-79-53-79,0,24-76,49-135,35l-.41-.05a94.5,94.5,0,0,1,188.41,10.55Z" transform="translate(0 0)"/><path class="cls-12" d="M462.334,157.84l-.46,18.77a33,33,0,1,1-66,0l.5-20.5a33,33,0,0,0,65.96,1.73Z" transform="translate(0 0)"/><path class="cls-1" d="M438.834,285.75a30.864,30.864,0,0,0-9.48-6.24,1.087,1.087,0,0,1,.01-.18,94.757,94.757,0,0,0,28.01-24.9c4.45,7.47,35.68,64.66-24.5,106.18l-.08.26a55.127,55.127,0,0,1-33.21-27.38,30.992,30.992,0,0,0,39.25-47.74Z" transform="translate(0 0)"/><path class="cls-5" d="M345.794,441.26l5.46-18.37a5.274,5.274,0,0,1,5.06-3.78h95.63a5.29,5.29,0,0,1,5.28,5.43l-.71,26.43a4.752,4.752,0,0,1-.16,1.14,5.262,5.262,0,0,1-4.98,3.99.757.757,0,0,1-.15.01H348.374a5.273,5.273,0,0,1-5-3.85,5.164,5.164,0,0,1,.02-2.94Zm104.74,8.85.68-25h-94.36l-7.44,25Z" transform="translate(0 0)"/><path class="cls-5" d="M335.564,498.46l3.85-14.81a10.069,10.069,0,0,1,9.75-7.54H443.6a10.077,10.077,0,0,1,10.08,9.76l3.36,107.78a10.065,10.065,0,0,1-10.14,10.39l-125.59-.84a10.062,10.062,0,0,1-9.69-12.61Zm112.9,96.95a2.058,2.058,0,0,0,.59-1.51l-3.37-107.78a2.071,2.071,0,0,0-2.08-2.01h-94.44a2.086,2.086,0,0,0-2.01,1.55L319.374,592.6a2.072,2.072,0,0,0,1.99,2.6l125.61.84A2.02,2.02,0,0,0,448.464,595.41Z" transform="translate(0 0)"/><path class="cls-3" d="M348.374,467.11h102.85a.757.757,0,0,0,.15-.01,5.279,5.279,0,0,0,5-4.05.5.5,0,0,0,.02-.12l.12.02c-.14,8.16-.14,11.16-5.29,11.66H337.464c-3.54,0-6.08-3.08-5.07-6.15l7.86-23.93c.53-1.64,3.27-2.86,5.54-3.27l-2.4,8.06a5.164,5.164,0,0,0-.02,2.94v8.14a5.148,5.148,0,0,0,0,2.86A5.273,5.273,0,0,0,348.374,467.11Z" transform="translate(0 0)"/><path class="cls-4" d="M456.064,609.33v.01a10.092,10.092,0,0,1-9.16,5.7l-125.59-.84a10.1,10.1,0,0,1-9.94-8.81v-11a10.1,10.1,0,0,0,9.94,8.81l125.59.84a10.087,10.087,0,0,0,9.47-6.44v11C456.284,608.85,456.174,609.09,456.064,609.33Z" transform="translate(0 0)"/><path class="cls-6" d="M456.374,452.11v10.94a5.279,5.279,0,0,1-5,4.05v-11a5.262,5.262,0,0,0,4.98-3.99Z" transform="translate(0 0)"/><path class="cls-4" d="M451.374,456.11V467.1a.757.757,0,0,1-.15.01H348.374v-11h102.85a.757.757,0,0,0,.15-.01Z" transform="translate(0 0)"/><path class="cls-3" d="M311.374,605.39a10.1,10.1,0,0,0,9.94,8.81l125.59.84a10.092,10.092,0,0,0,9.16-5.7c-.13,11.31-4.71,16.74-10.16,16.7l-135.59-.84a10.082,10.082,0,0,1-9.69-12.61l27.79-106.94a10.044,10.044,0,0,1,7.15-7.19l-23.94,92.13a10.055,10.055,0,0,0-.25,3.8v8.48A10.118,10.118,0,0,0,311.374,605.39Z" transform="translate(0 0)"/><path class="cls-6" d="M429.354,279.51a30.864,30.864,0,0,1,9.48,6.24,54,54,0,0,1-106.9.13,41.2,41.2,0,0,1,9.76-2.45,44,44,0,0,0,87.66-3.92Z" transform="translate(0 0)"/><path class="cls-12" d="M341.694,283.43c-.01-.09-.03-.18-.04-.28l.45.21a94.684,94.684,0,0,0,87.07-3.92c.06.02.12.05.18.07a44,44,0,0,1-87.66,3.92Z" transform="translate(0 0)"/><path class="cls-13" d="M412.374,251.69a1.42,1.42,0,0,1,0,2.84h-61a1.42,1.42,0,0,1,0-2.84Z" transform="translate(0 0)"/><path class="cls-12" d="M393.374,259.69a1.42,1.42,0,0,1,0,2.84h-23a1.42,1.42,0,0,1,0-2.84Z" transform="translate(0 0)"/><path class="cls-13" d="M388.374,232.69a1.42,1.42,0,0,1,0,2.84,18.437,18.437,0,0,1-18.42-18.42,1.42,1.42,0,1,1,2.84,0A15.6,15.6,0,0,0,388.374,232.69Z" transform="translate(0 0)"/><path class="cls-12" d="M369.334,157.84l-.46,18.77a33,33,0,1,1-66,0l.5-20.5a33,33,0,0,0,65.96,1.73Z" transform="translate(0 0)"/><path class="cls-6" d="M343.374,460.4v-8.14a5.273,5.273,0,0,0,5,3.85v11a5.273,5.273,0,0,1-5-3.85Z" transform="translate(0 0)"/><path class="cls-1" d="M331.934,285.88a41.515,41.515,0,0,0,5.41,79.13l.02.03a68.607,68.607,0,0,1-38.99,12.07c-38.71-57.6,2.37-117.42,7.07-123.92a94.938,94.938,0,0,0,36.21,29.96c.01.1.03.19.04.28A41.2,41.2,0,0,0,331.934,285.88Z" transform="translate(0 0)"/><path class="cls-6" d="M325.564,397.11h-44.52v-.07l1.33-18.93S305.9,392.37,325.564,397.11Z" transform="translate(0 0)"/><path class="cls-5" d="M295.374,475.57l-146.25-.82a8.98,8.98,0,0,1-8.75-7.1,8.31,8.31,0,0,1-.16-2.82,8.864,8.864,0,0,1,1.23-3.69l27.25-45.64a9.014,9.014,0,0,1,7.73-4.39h131.26a9,9,0,0,1,8.71,11.24l-.02.08-11.94,46.39a2.288,2.288,0,0,1-.08.28h-.01a8.976,8.976,0,0,1-8.67,6.47Zm13.27-55.21a.946.946,0,0,0-.18-.86.927.927,0,0,0-.78-.39H176.424a1.012,1.012,0,0,0-.86.49l-27.25,45.64a.929.929,0,0,0-.01,1,.9.9,0,0,0,.86.51l146.56.82a.994.994,0,0,0,.96-.75Z" transform="translate(0 0)"/><path class="cls-4" d="M316.374,422.43v11l-11.94,46.39c-.02.07-.04.14-.06.2V469.11l-.02-.01a2.288,2.288,0,0,0,.08-.28Z" transform="translate(0 0)"/><path class="cls-5" d="M268.374,603.61h-66.9a9.113,9.113,0,0,1-9.1-8.65v-.85a9.248,9.248,0,0,1,.75-3.23l39.26-90.3a9.118,9.118,0,0,1,8.35-5.47h55.33c6.12,0,11.09,5.15,9.31,11l-.19.61-27.86,90.37-.02.07a9.118,9.118,0,0,1-8.72,6.45Zm28.75-99.08a1.027,1.027,0,0,0-.17-.97,1.051,1.051,0,0,0-.89-.45h-55.33a1.1,1.1,0,0,0-1.01.66l-39.26,90.3a1.012,1.012,0,0,0,.09,1.04,1.036,1.036,0,0,0,.92.5h67.11a1.1,1.1,0,0,0,1.06-.78Z" transform="translate(0 0)"/><polygon class="cls-4" points="277.324 597.09 305.184 506.72 304.424 519.21 277.374 607.93 277.374 597.11 277.324 597.09"/><path class="cls-6" d="M303.294,482.42a8.979,8.979,0,0,1-7.62,4.15h-.3v-11h.3a8.976,8.976,0,0,0,8.67-6.47h.01l.02.01v10.91A8.69,8.69,0,0,1,303.294,482.42Z" transform="translate(0 0)"/><path class="cls-3" d="M295.374,486.57h.3a8.979,8.979,0,0,0,7.62-4.15c-1.03,4.06-2.6,11.17-6.62,11.15l-158.55,1.18a9,9,0,0,1-7.68-13.61l9.74-16.31h.03a8.31,8.31,0,0,0,.16,2.82v7.18a9,9,0,0,0,8.75,10.92Z" transform="translate(0 0)"/><path class="cls-4" d="M140.374,474.83v-7.18a8.98,8.98,0,0,0,8.75,7.1l146.25.82v11l-146.25-.82A9,9,0,0,1,140.374,474.83Z" transform="translate(0 0)"/><path class="cls-7" d="M282.794,375.34l-.42,2.77-1.33,18.93v.07h-81.67V379.14a154.257,154.257,0,0,1,13.74-63.87l.76.34s11.13,44.09,61.15,57.44A65.527,65.527,0,0,0,282.794,375.34Z" transform="translate(0 0)"/><path class="cls-6" d="M276.294,610.35a9.1,9.1,0,0,1-7.71,4.26h-.21v-11h.21a9.118,9.118,0,0,0,8.72-6.45l.02-.07.05.02v10.82l-.07.23A8.909,8.909,0,0,1,276.294,610.35Z" transform="translate(0 0)"/><path class="cls-3" d="M192.374,605.96a9.113,9.113,0,0,0,9.1,8.65h67.11a9.1,9.1,0,0,0,7.71-4.26c-.19.56-.83,2.45-2.99,8.81a9.281,9.281,0,0,1-8.72,6.45h-72.11a9.106,9.106,0,0,1-8.35-12.73l8.25-18.63a5.606,5.606,0,0,0,0,.71v10.1A6.757,6.757,0,0,0,192.374,605.96Z" transform="translate(0 0)"/><path class="cls-4" d="M192.374,605.06v-10.1a9.113,9.113,0,0,0,9.1,8.65h66.9v11h-66.9a9.113,9.113,0,0,1-9.1-8.65Z" transform="translate(0 0)"/><path class="cls-1" d="M264.884,205.68c.38,1.96,7.84,42.6-18.51,49.43-24.76,6.42-29.34-21.65-29.93-26.34a27.884,27.884,0,0,0,19.93,8.34C244.294,237.11,264.594,231.31,264.884,205.68Z" transform="translate(0 0)"/><path class="cls-6" d="M229.374,308.11a69,69,0,0,0,45.65,64.94c-50.02-13.35-61.15-57.44-61.15-57.44l-.76-.34a154.705,154.705,0,0,1,21.66-34.74l.28.13A68.775,68.775,0,0,0,229.374,308.11Z" transform="translate(0 0)"/><path class="cls-5" d="M204.374,503.95a7.239,7.239,0,0,1-.54,1.65l-43.19,93.71a5.278,5.278,0,0,1-.27.53,7.4,7.4,0,0,1-6.44,3.77H76.144a7.4,7.4,0,0,1-7.26-6.01,7.27,7.27,0,0,1,.85-5.07l53.78-93.71a7.4,7.4,0,0,1,6.41-3.71h67.19A7.4,7.4,0,0,1,204.374,503.95Zm-50.83,91.66,42.63-92.5h-65.9l-53.08,92.5Z" transform="translate(0 0)"/><path class="cls-4" d="M204.374,503.95v10.16l-43.73,96.2a5.278,5.278,0,0,1-.27.53v-11a5.278,5.278,0,0,0,.27-.53l43.19-93.71A7.239,7.239,0,0,0,204.374,503.95Z" transform="translate(0 0)"/><path class="cls-6" d="M159.294,612.3a7.377,7.377,0,0,1-5.36,2.31h-.56v-11h.56a7.4,7.4,0,0,0,6.44-3.77v11A7.079,7.079,0,0,1,159.294,612.3Z" transform="translate(0 0)"/><path class="cls-3" d="M153.374,614.61h.56a7.377,7.377,0,0,0,5.36-2.31l-3.65,9.01a7.386,7.386,0,0,1-6.71,4.3H65.144a7.4,7.4,0,0,1-6.41-11.08l10.15-16.93a7.409,7.409,0,0,0,.49,1.58v10.99a7.33,7.33,0,0,0,6.77,4.44Z" transform="translate(0 0)"/><path class="cls-4" d="M153.374,603.61v11H76.144a7.33,7.33,0,0,1-6.77-4.44V599.18a7.348,7.348,0,0,0,6.77,4.43Z" transform="translate(0 0)"/></g><polygon id="screen8" class="cls-14" points="196.174 503.11 153.544 595.61 77.194 595.61 130.274 503.11 196.174 503.11"/><path id="screen7" class="cls-14" d="M296.954,503.56a1.027,1.027,0,0,1,.17.97l-27.48,90.3a1.1,1.1,0,0,1-1.06.78h-67.11a1.036,1.036,0,0,1-.92-.5,1.012,1.012,0,0,1-.09-1.04l39.26-90.3a1.1,1.1,0,0,1,1.01-.66h55.33A1.051,1.051,0,0,1,296.954,503.56Z" transform="translate(0 0)"/><path id="screen6" class="cls-14" d="M449.054,593.9a2.058,2.058,0,0,1-.59,1.51,2.02,2.02,0,0,1-1.49.63l-125.61-.84a2.072,2.072,0,0,1-1.99-2.6l27.78-106.94a2.086,2.086,0,0,1,2.01-1.55H443.6a2.071,2.071,0,0,1,2.08,2.01Z" transform="translate(0 0)"/><path id="screen5" class="cls-14" d="M658.164,492.9a1.437,1.437,0,0,1-.04,1.48,1.42,1.42,0,0,1-1.28.73H601.9a1.479,1.479,0,0,1-1.43-1.06l-16.42-53.17a1.505,1.505,0,0,1,1.4-1.95l42.45-.74a1.516,1.516,0,0,1,1.35.79Z" transform="translate(0 0)"/><path id="screen4" class="cls-14" d="M562.324,493.44a1.341,1.341,0,0,1-1.31,1.67h-70.97a1.348,1.348,0,0,1-1.35-1.22l-6.56-67.3a1.327,1.327,0,0,1,.34-1.04,1.345,1.345,0,0,1,1-.44H544.6a1.346,1.346,0,0,1,1.31,1.03Z" transform="translate(0 0)"/><polygon id="screen3" class="cls-14" points="451.214 425.11 450.534 450.11 349.414 450.11 356.854 425.11 451.214 425.11"/><path id="screen2" class="cls-14" d="M308.464,419.5a.946.946,0,0,1,.18.86l-11.96,46.46a.994.994,0,0,1-.96.75l-146.56-.82a.9.9,0,0,1-.86-.51.929.929,0,0,1,.01-1l27.25-45.64a1.012,1.012,0,0,1,.86-.49h131.26A.927.927,0,0,1,308.464,419.5Z" transform="translate(0 0)"/><path id="screen1" class="cls-14" d="M701.844,591.22a5.65,5.65,0,0,1-5.19,7.89H503.134a5.669,5.669,0,0,1-5.63-5.2l-5.15-64.7a5.653,5.653,0,0,1,5.63-6.1h170.73a5.654,5.654,0,0,1,5.19,3.41Z" transform="translate(0 0)"/><path id="leftEye" class="cls-15" d="M369.374,156.11l-.04,1.7v.03a33.1,33.1,0,1,1,.04-1.73Zm-22,9a10,10,0,1,0-10,10A10,10,0,0,0,347.374,165.11Z" transform="translate(0 0)"/><circle id="leftPupil" class="cls-1" cx="337.374" cy="165.11" r="10"/><path id="rightEye" class="cls-15" d="M462.374,156.11l-.04,1.7v.03a33.1,33.1,0,1,1,.04-1.73Zm-22,9a10,10,0,1,0-10,10A10,10,0,0,0,440.374,165.11Z" transform="translate(0 0)"/><circle id="rightPupil" class="cls-1" cx="430.374" cy="165.11" r="10"/></svg>