<svg id="frameNineScreensCloud" xmlns="http://www.w3.org/2000/svg" viewBox="0 0 1936.129 448.403"><defs></defs><g id="Layer_2" data-name="Layer 2"><g id="Cloud"><path class="frame10cloud-1" d="M1926.207,128.992a139.338,139.338,0,0,1-79.111,24.49,139.652,139.652,0,0,1-100.26-42.27c-5.59,120.94-105.42,217.27-227.74,217.27a226.938,226.938,0,0,1-118.55-33.21,166.012,166.012,0,0,1-330.28-15.28,67.121,67.121,0,0,1-78-34.32,160.013,160.013,0,0,1-293.23-69.82,81.023,81.023,0,0,1-135.91-22.66,147.027,147.027,0,0,1-271.7-55.89,133.4,133.4,0,0,1-72.33,21.18A134.021,134.021,0,0,1,87.6,10.342a77.74,77.74,0,0,1-38.5,10.14A77.615,77.615,0,0,1,9.921,9.921"/></g></g></svg>