<svg id="Color" xmlns="http://www.w3.org/2000/svg" viewBox="0 0 798.7437 665.1099"><defs><style>.cls-1{fill:#160606;}.cls-2{fill:#c4d1d8;}.cls-3{fill:#9fa9ad;}.cls-4{fill:#31343c;}.cls-5{fill:#48505e;}.cls-6{fill:#7b8699;}.cls-7{fill:#a6a3c1;}.cls-8{fill:#230b0a;}.cls-9{fill:#e2f2cd;}.cls-10{fill:#ecba81;}.cls-11{fill:#f2c599;}.cls-12{fill:#c08154;}.cls-13{fill:#411b1f;}.cls-14{fill:#023f3c;}.cls-15{fill:#f3f3f3;}</style></defs><title>svg-frame2</title><g id="Underline"><path class="cls-1" d="M796.7136,622.88l-137.46-219.57a13.2046,13.2046,0,0,0-11.2-6.2h-78.68v1.17a51.9129,51.9129,0,0,1-10.26-1.17h10.26V379.14a154.33,154.33,0,0,0-28.65-89.81l-.09-.17a48.0317,48.0317,0,0,0,20.97-65.88c-.08.31-.16.61-.26.92v.02a25.0047,25.0047,0,0,1-23.97,17.89c-8.64,0-16.55-3.46-19.61-11.96-1.84-5.09-1.93-11.99.61-21.04,41-146-63-172-63-172-25.13-75.4-257-40-195,144,3.27,9.72,4.58,17.81,4.51,24.54v.03c-.29,25.63-20.59,31.43-28.51,31.43a27.8839,27.8839,0,0,1-19.93-8.34c-.19-.19-.38-.38-.56-.58a47.8644,47.8644,0,0,0-.51,6.92,46.9533,46.9533,0,0,0,22.37,40.03q-1.47,2.685-2.69,5.52l-.28-.13a154.6313,154.6313,0,0,0-35.4,98.61v17.97h-48.68a13.2049,13.2049,0,0,0-11.2,6.2L2.0335,622.88a13.0527,13.0527,0,0,0-1.74,9.74,4.209,4.209,0,0,0,.12.48l-.04.01-.08,21.51a13.1941,13.1941,0,0,0,12.94,10.49h772.28c6.19,0,11.21-4.85,12.86-10,0,0,0-20.89.2-23.16a.7991.7991,0,0,1,.03-.2A12.9846,12.9846,0,0,0,796.7136,622.88Zm-310.34-84.2.03.45c-.01-.01-.02,0-.03,0Zm-143-78.28v2.86A5.1483,5.1483,0,0,1,343.3735,460.4Zm-32,142.47v2.52A10.1275,10.1275,0,0,1,311.3735,602.87Zm117.8-323.43a1.8576,1.8576,0,0,1,.19-.11,1.0869,1.0869,0,0,0-.01.18C429.2935,279.49,429.2335,279.46,429.1735,279.44Zm139.23,226.02-.03.12v-6.24a32.6735,32.6735,0,0,1,.16,3.77A7.4276,7.4276,0,0,1,568.4036,505.46Z" transform="translate(0 0)"/></g><g id="_Group_" data-name="&lt;Group&gt;"><path class="cls-2" d="M708.3735,593.47h-.05a11.6165,11.6165,0,0,0-.97-4.62l-27.94-64.71a11.6576,11.6576,0,0,0-10.7-7.03h-9.87c5.67,0,8.21-7,5.53-12v-11.5h-.02a7.4206,7.4206,0,0,0-.9-3.54l-28.92-53.93a7.4979,7.4979,0,0,0-6.74-3.95l-42.44.74a7.5008,7.5008,0,0,0-7.03,9.72l.05.16v6.12h-.02a7.5008,7.5008,0,0,0-7.03,9.72l16.42,53.17a7.486,7.486,0,0,0,7.16,5.29h-96.92a11.6464,11.6464,0,0,0-11.61,12.57v9.45a11.6444,11.6444,0,0,0-11,12.55l5.15,64.71a11.6425,11.6425,0,0,0,11.61,10.72h207.52c8.37,0,14.71-8.98,8.72-24.21Zm-392-160.04v-11l.02-.08a9.0034,9.0034,0,0,0-8.71-11.24h-131.26a9.0135,9.0135,0,0,0-7.73,4.39l-27.25,45.64a8.864,8.864,0,0,0-1.23,3.69h-.03l-9.74,16.31a9,9,0,0,0,7.68,13.61l158.55-1.18c4.02.02,5.59-7.09,6.62-11.15a8.69,8.69,0,0,0,1.08-2.4c.02-.06.04-.13.06-.2Zm140.02,29.5a.5019.5019,0,0,1-.02.12V452.11h-.02a4.7516,4.7516,0,0,0,.16-1.14l.71-26.43a5.29,5.29,0,0,0-5.28-5.43h-95.63a5.2741,5.2741,0,0,0-5.06,3.78l-5.46,18.37c-2.27.41-5.01,1.63-5.54,3.27l-7.86,23.93c-1.01,3.07,1.53,6.15,5.07,6.15h113.76c5.15-.5,5.15-3.5,5.29-11.66Zm-.02,145.67v-11a10.1369,10.1369,0,0,0,.67-3.95l-3.36-107.78a10.0774,10.0774,0,0,0-10.08-9.76h-94.44a10.0688,10.0688,0,0,0-9.75,7.54l-3.85,14.81a10.0439,10.0439,0,0,0-7.15,7.19l-27.79,106.94a10.0819,10.0819,0,0,0,9.69,12.61l135.59.84c5.45.04,10.03-5.39,10.16-16.7v-.01C456.1735,609.09,456.2835,608.85,456.3735,608.6Zm19.88-169.48.2,1.99c-4.33.01-7.71,3.46-7.29,7.42l2.56,61.97a7.1471,7.1471,0,0,0,7.32,6.11h81.97c3.72,0,6.72-4.49,7.39-11.15a7.4277,7.4277,0,0,0,.13-2.35,32.6967,32.6967,0,0,0-.16-3.77v-5.56h-.01a7.6229,7.6229,0,0,0-.21-1.76l-16.41-67.3a7.3575,7.3575,0,0,0-7.14-5.61h-61.13a7.345,7.345,0,0,0-7.31,8.06l.21,2.15v9.79Zm-198.88,168.81,27.05-88.72.76-12.49.19-.61c1.78-5.85-3.19-11-9.31-11h-55.33a9.1179,9.1179,0,0,0-8.35,5.47l-39.26,90.3a9.2481,9.2481,0,0,0-.75,3.23v.14l-8.25,18.63a9.1061,9.1061,0,0,0,8.35,12.73h72.11a9.2812,9.2812,0,0,0,8.72-6.45c2.16-6.36,2.8-8.25,2.99-8.81a8.9094,8.9094,0,0,0,1.01-2.19Zm-78-210.82h359.74a51.9113,51.9113,0,0,0,10.26,1.17v-1.17h78.68a13.2046,13.2046,0,0,1,11.2,6.2l137.46,219.57a12.9836,12.9836,0,0,1,1.89,8.87.7991.7991,0,0,0-.03.2,13.2043,13.2043,0,0,1-13.06,11.16H13.2335A13.171,13.171,0,0,1,.4135,633.1a4.209,4.209,0,0,1-.12-.48,13.0522,13.0522,0,0,1,1.74-9.74l137.46-219.57a13.2046,13.2046,0,0,1,11.2-6.2Zm5,117V503.95a7.4007,7.4007,0,0,0-7.26-8.84h-67.19a7.4009,7.4009,0,0,0-6.41,3.71l-53.78,93.71a7.27,7.27,0,0,0-.85,5.07l-10.15,16.93a7.3976,7.3976,0,0,0,6.41,11.08h83.79a7.3859,7.3859,0,0,0,6.71-4.3l3.65-9.01a7.0787,7.0787,0,0,0,1.08-1.46,5.2785,5.2785,0,0,0,.27-.53Z" transform="translate(0 0)"/><path class="cls-3" d="M798.5735,631.95c-.2,2.27-.2,23.16-.2,23.16-1.65,5.15-6.67,10-12.86,10H13.2335a13.1941,13.1941,0,0,1-12.94-10.49l.08-21.51.04-.01a13.171,13.171,0,0,0,12.82,10.01h772.28A13.2043,13.2043,0,0,0,798.5735,631.95Z" transform="translate(0 0)"/><path class="cls-3" d="M491.3735,603.45l.15,1.94a11.6425,11.6425,0,0,0,11.61,10.72h193.52a11.6677,11.6677,0,0,0,11.59-12.98l.13-.02v-.21c5.99,15.23-.35,24.21-8.72,24.21h-207.52a11.6425,11.6425,0,0,1-11.61-10.72l-5.15-64.71a11.6444,11.6444,0,0,1,11-12.55c.01,0,.02-.01.03,0Z" transform="translate(0 0)"/><path class="cls-4" d="M708.2435,603.13a11.6677,11.6677,0,0,1-11.59,12.98h-193.28v-11h193.28a11.6682,11.6682,0,0,0,11.67-11.64h.05v9.64Z" transform="translate(0 0)"/><path class="cls-5" d="M486.3735,529.68a11.6464,11.6464,0,0,1,11.61-12.57h170.73a11.6576,11.6576,0,0,1,10.7,7.03l27.94,64.71a11.6136,11.6136,0,0,1-10.7,16.26h-193.52a11.6425,11.6425,0,0,1-11.61-10.72l-.02-.29Zm215,66.89a5.5519,5.5519,0,0,0,.47-5.35l-27.94-64.7a5.6545,5.6545,0,0,0-5.19-3.41h-170.73a5.6526,5.6526,0,0,0-5.63,6.1l5.15,64.7a5.6688,5.6688,0,0,0,5.63,5.2h193.52A5.5636,5.5636,0,0,0,701.3735,596.57Z" transform="translate(0 0)"/><path class="cls-3" d="M601.3735,512.09c.17.01.35.02.53.02h54.94a7.5113,7.5113,0,0,0,7.51-7.51h.02v.51c2.68,5,.14,12-5.53,12h-63.94a7.486,7.486,0,0,1-7.16-5.29l-16.42-53.17a7.5008,7.5008,0,0,1,7.03-9.72h.02v4.88l16.37,53.01a7.5713,7.5713,0,0,0,.63,1.46A7.4771,7.4771,0,0,0,601.3735,512.09Z" transform="translate(0 0)"/><path class="cls-4" d="M664.3535,504.6a7.5113,7.5113,0,0,1-7.51,7.51h-54.94c-.18,0-.36-.01-.53-.02v-11c.17.01.35.02.53.02h54.94a7.5094,7.5094,0,0,0,7.51-7.5h.02V504.6Z" transform="translate(0 0)"/><path class="cls-5" d="M595.3735,497.28a7.5713,7.5713,0,0,1-.63-1.46l-16.37-53.01-.05-.16a7.5008,7.5008,0,0,1,7.03-9.72l42.44-.74a7.4979,7.4979,0,0,1,6.74,3.95l28.92,53.93a7.4206,7.4206,0,0,1,.9,3.54,7.5094,7.5094,0,0,1-7.51,7.5h-54.94c-.18,0-.36-.01-.53-.02A7.4771,7.4771,0,0,1,595.3735,497.28Zm62.75-2.9a1.4371,1.4371,0,0,0,.04-1.48l-28.91-53.92a1.5159,1.5159,0,0,0-1.35-.79l-42.45.74a1.5051,1.5051,0,0,0-1.4,1.95l16.42,53.17a1.479,1.479,0,0,0,1.43,1.06h54.94A1.42,1.42,0,0,0,658.1235,494.38Z" transform="translate(0 0)"/><path class="cls-6" d="M601.3735,501.11v10.98a7.4771,7.4771,0,0,1-6-3.81v-11a7.4771,7.4771,0,0,0,6,3.81Z" transform="translate(0 0)"/><path class="cls-4" d="M595.3735,497.28v11a7.5713,7.5713,0,0,1-.63-1.46l-16.37-53.01v-11l16.37,53.01A7.5713,7.5713,0,0,0,595.3735,497.28Z" transform="translate(0 0)"/><path class="cls-7" d="M569.3735,379.14v17.97h-10.26c-26.15-5.2-68.74-26-68.74-26l6,25v1h-170.81c-19.66-4.74-43.19-19-43.19-19l.42-2.77a69.1295,69.1295,0,0,0,54.57-10.3l-.02-.03a41.5146,41.5146,0,0,1-5.41-79.13,54.003,54.003,0,0,0,106.9-.13,30.9921,30.9921,0,0,1-39.25,47.74,55.0076,55.0076,0,0,0,100.83-43.22c-.01-.02-.01-.04-.02-.06.01.01.03.01.04.02a48.1476,48.1476,0,0,0,40.2-1.07l.09.17A154.3306,154.3306,0,0,1,569.3735,379.14Z" transform="translate(0 0)"/><path class="cls-3" d="M483.3735,507.83a7.3084,7.3084,0,0,0,6.67,4.28h70.97c3.6,0,6.59-3.05,7.36-6.53l.03-.12c-.67,6.66-3.67,11.15-7.39,11.15h-81.97a7.1471,7.1471,0,0,1-7.32-6.11l-2.56-61.97c-.42-3.96,2.96-7.41,7.29-7.42l6.27,64.36A7.1882,7.1882,0,0,0,483.3735,507.83Z" transform="translate(0 0)"/><path class="cls-4" d="M568.3735,502.11v3.47c-.77,3.48-3.76,6.53-7.36,6.53h-70.64v-11h70.64a7.3444,7.3444,0,0,0,7.35-7.33h.01v8.33Z" transform="translate(0 0)"/><path class="cls-5" d="M483.3735,496.83a7.1882,7.1882,0,0,1-.65-2.36l-6.35-65.15-.21-2.15a7.345,7.345,0,0,1,7.31-8.06h61.13a7.3575,7.3575,0,0,1,7.14,5.61l16.41,67.3a7.6229,7.6229,0,0,1,.21,1.76,7.3444,7.3444,0,0,1-7.35,7.33h-70.97A7.3084,7.3084,0,0,1,483.3735,496.83Zm78.71-2.24a1.3052,1.3052,0,0,0,.24-1.15l-16.41-67.3a1.3465,1.3465,0,0,0-1.31-1.03h-61.13a1.345,1.345,0,0,0-1,.44,1.3274,1.3274,0,0,0-.34,1.04l6.56,67.3a1.3485,1.3485,0,0,0,1.35,1.22h70.97A1.3125,1.3125,0,0,0,562.0835,494.59Z" transform="translate(0 0)"/><path class="cls-8" d="M275.0235,373.05a69.0506,69.0506,0,0,1-39.97-92.39q1.215-2.835,2.69-5.52a46.9533,46.9533,0,0,1-22.37-40.03,47.8644,47.8644,0,0,1,.51-6.92c.18.2.37.39.56.58.59,4.69,5.17,32.76,29.93,26.34,26.35-6.83,18.89-47.47,18.51-49.43v-.03c.07-6.73-1.24-14.82-4.51-24.54-62-184,169.87-219.4,195-144,0,0,104,26,63,172-2.54,9.05-2.45,15.95-.61,21.04l-.32.13c2.61,7.42,13.93,36.58,27.93,27.83,13.98-8.74,15.75-28.93,15.97-33.89v-.02c.1-.31.18-.61.26-.92a48.0219,48.0219,0,0,1-61.17,66.95c-.01-.01-.03-.01-.04-.02.01.02.01.04.02.06a55.0371,55.0371,0,0,1-67.62,70.6l.08-.26c60.18-41.52,28.95-98.71,24.5-106.18a93.8,93.8,0,0,0,17.73-41.36l.27.04h.2a10.0017,10.0017,0,1,0,13.89-7.12,13.9329,13.9329,0,0,0,2.91-8.38V168.27a12.1546,12.1546,0,0,0-12.16-12.16h-3.84v-40.5a94.5,94.5,0,1,0-189,0v82a94.102,94.102,0,0,0,18.07,55.58c-4.7,6.5-45.78,66.32-7.07,123.92a68.9006,68.9006,0,0,1-15.58-1.77A65.5272,65.5272,0,0,1,275.0235,373.05Z" transform="translate(0 0)"/><path class="cls-1" d="M561.3435,224.22c-.22,4.96-1.99,25.15-15.97,33.89-14,8.75-25.32-20.41-27.93-27.83l.32-.13c3.06,8.5,10.97,11.96,19.61,11.96A25.0047,25.0047,0,0,0,561.3435,224.22Z" transform="translate(0 0)"/><path class="cls-6" d="M559.1135,397.11h-62.74v-1l-6-25S532.9635,391.91,559.1135,397.11Z" transform="translate(0 0)"/><path class="cls-6" d="M503.3735,605.11v11h-.24a11.6425,11.6425,0,0,1-11.61-10.72l-.15-1.94v-9.34l.13-.01.02.29a11.6425,11.6425,0,0,0,11.61,10.72Z" transform="translate(0 0)"/><path class="cls-9" d="M489.4635,205.99a9.9894,9.9894,0,1,1-13.89,7.12v-.01A18.005,18.005,0,0,0,489.4635,205.99Z" transform="translate(0 0)"/><path class="cls-10" d="M492.3735,168.27v29.34a13.9329,13.9329,0,0,1-2.91,8.38,9.8112,9.8112,0,0,0-4.09-.88,10.0167,10.0167,0,0,0-9.8,7.99v.01h-.2l-.27-.04a93.7648,93.7648,0,0,0,1.27-15.46v-41.5h3.84A12.1546,12.1546,0,0,1,492.3735,168.27Z" transform="translate(0 0)"/><polygon class="cls-4" points="486.404 539.13 486.374 538.68 486.374 529.68 491.504 594.1 491.374 594.11 491.374 603.45 486.404 539.13"/><path class="cls-6" d="M490.3735,501.11v11h-.33a7.3084,7.3084,0,0,1-6.67-4.28v-11a7.3084,7.3084,0,0,0,6.67,4.28Z" transform="translate(0 0)"/><path class="cls-9" d="M489.4635,205.99a18.005,18.005,0,0,1-13.89,7.11,10.0167,10.0167,0,0,1,9.8-7.99A9.8112,9.8112,0,0,1,489.4635,205.99Z" transform="translate(0 0)"/><path class="cls-4" d="M476.4535,441.11l-.2-1.99.12-.01v-9.79l6.35,65.15a7.1882,7.1882,0,0,0,.65,2.36v11a7.1882,7.1882,0,0,1-.65-2.36Z" transform="translate(0 0)"/><path class="cls-11" d="M305.4435,253.19a94.102,94.102,0,0,1-18.07-55.58v-82a94.1633,94.1633,0,0,1,.59-10.55l.41.05c59,14,135-11,135-35,9,0,53,52,53,79v48.5a94.3719,94.3719,0,0,1-19,56.82,94.7573,94.7573,0,0,1-28.01,24.9,1.8576,1.8576,0,0,0-.19.11,94.6842,94.6842,0,0,1-87.07,3.92l-.45-.21A94.9377,94.9377,0,0,1,305.4435,253.19Zm156.89-95.38c.03-.56.04-1.13.04-1.7a33,33,0,0,0-66,0l-.5,20.5a33,33,0,0,0,66,0l.46-18.77Zm-48.54,95.3a1.4255,1.4255,0,0,0-1.42-1.42h-61a1.42,1.42,0,1,0,0,2.84h61A1.4255,1.4255,0,0,0,413.7935,253.11Zm-19,8a1.4255,1.4255,0,0,0-1.42-1.42h-23a1.42,1.42,0,1,0,0,2.84h23A1.4255,1.4255,0,0,0,394.7935,261.11Zm-5-27a1.4255,1.4255,0,0,0-1.42-1.42,15.5987,15.5987,0,0,1-15.58-15.58,1.42,1.42,0,0,0-2.84,0,18.4368,18.4368,0,0,0,18.42,18.42A1.4255,1.4255,0,0,0,389.7935,234.11Zm-20.46-76.3c.03-.56.04-1.13.04-1.7a33,33,0,1,0-66,0l-.5,20.5a33,33,0,0,0,66,0l.46-18.77Z" transform="translate(0 0)"/><path class="cls-1" d="M476.3735,115.61v33.5c0-27-44-79-53-79,0,24-76,49-135,35l-.41-.05a94.5006,94.5006,0,0,1,188.41,10.55Z" transform="translate(0 0)"/><path class="cls-12" d="M462.3335,157.84l-.46,18.77a33,33,0,1,1-66,0l.5-20.5a33.0028,33.0028,0,0,0,65.96,1.73Z" transform="translate(0 0)"/><path class="cls-1" d="M438.8335,285.75a30.864,30.864,0,0,0-9.48-6.24,1.0869,1.0869,0,0,1,.01-.18,94.7573,94.7573,0,0,0,28.01-24.9c4.45,7.47,35.68,64.66-24.5,106.18l-.08.26a55.127,55.127,0,0,1-33.21-27.38,30.9921,30.9921,0,0,0,39.25-47.74Z" transform="translate(0 0)"/><path class="cls-5" d="M345.7935,441.26l5.46-18.37a5.2741,5.2741,0,0,1,5.06-3.78h95.63a5.29,5.29,0,0,1,5.28,5.43l-.71,26.43a4.7516,4.7516,0,0,1-.16,1.14,5.262,5.262,0,0,1-4.98,3.99.7569.7569,0,0,1-.15.01h-102.85a5.2727,5.2727,0,0,1-5-3.85,5.1645,5.1645,0,0,1,.02-2.94Zm104.74,8.85.68-25h-94.36l-7.44,25Z" transform="translate(0 0)"/><path class="cls-5" d="M335.5635,498.46l3.85-14.81a10.0688,10.0688,0,0,1,9.75-7.54h94.44a10.0774,10.0774,0,0,1,10.08,9.76l3.36,107.78a10.0648,10.0648,0,0,1-10.14,10.39l-125.59-.84a10.0615,10.0615,0,0,1-9.69-12.61Zm112.9,96.95a2.0578,2.0578,0,0,0,.59-1.51l-3.37-107.78a2.0707,2.0707,0,0,0-2.08-2.01h-94.44a2.0858,2.0858,0,0,0-2.01,1.55l-27.78,106.94a2.0717,2.0717,0,0,0,1.99,2.6l125.61.84A2.02,2.02,0,0,0,448.4635,595.41Z" transform="translate(0 0)"/><path class="cls-3" d="M348.3735,467.11h102.85a.7569.7569,0,0,0,.15-.01,5.2791,5.2791,0,0,0,5-4.05.5019.5019,0,0,0,.02-.12l.12.02c-.14,8.16-.14,11.16-5.29,11.66h-113.76c-3.54,0-6.08-3.08-5.07-6.15l7.86-23.93c.53-1.64,3.27-2.86,5.54-3.27l-2.4,8.06a5.1645,5.1645,0,0,0-.02,2.94v8.14a5.1483,5.1483,0,0,0,0,2.86A5.2727,5.2727,0,0,0,348.3735,467.11Z" transform="translate(0 0)"/><path class="cls-4" d="M456.0635,609.33v.01a10.0915,10.0915,0,0,1-9.16,5.7l-125.59-.84a10.0979,10.0979,0,0,1-9.94-8.81v-11a10.0979,10.0979,0,0,0,9.94,8.81l125.59.84a10.0874,10.0874,0,0,0,9.47-6.44v11C456.2835,608.85,456.1735,609.09,456.0635,609.33Z" transform="translate(0 0)"/><path class="cls-6" d="M456.3735,452.11v10.94a5.2791,5.2791,0,0,1-5,4.05v-11a5.262,5.262,0,0,0,4.98-3.99Z" transform="translate(0 0)"/><path class="cls-4" d="M451.3735,456.11V467.1a.7569.7569,0,0,1-.15.01h-102.85v-11h102.85a.7569.7569,0,0,0,.15-.01Z" transform="translate(0 0)"/><path class="cls-3" d="M311.3735,605.39a10.0979,10.0979,0,0,0,9.94,8.81l125.59.84a10.0915,10.0915,0,0,0,9.16-5.7c-.13,11.31-4.71,16.74-10.16,16.7l-135.59-.84a10.0819,10.0819,0,0,1-9.69-12.61l27.79-106.94a10.0439,10.0439,0,0,1,7.15-7.19l-23.94,92.13a10.055,10.055,0,0,0-.25,3.8v8.48A10.118,10.118,0,0,0,311.3735,605.39Z" transform="translate(0 0)"/><path class="cls-6" d="M429.3535,279.51a30.864,30.864,0,0,1,9.48,6.24,54.003,54.003,0,0,1-106.9.13,41.1985,41.1985,0,0,1,9.76-2.45,44.0027,44.0027,0,0,0,87.66-3.92Z" transform="translate(0 0)"/><path class="cls-12" d="M341.6935,283.43c-.01-.09-.03-.18-.04-.28l.45.21a94.6842,94.6842,0,0,0,87.07-3.92c.06.02.12.05.18.07a44.0027,44.0027,0,0,1-87.66,3.92Z" transform="translate(0 0)"/><path class="cls-13" d="M412.3735,251.69a1.42,1.42,0,0,1,0,2.84h-61a1.42,1.42,0,1,1,0-2.84Z" transform="translate(0 0)"/><path class="cls-12" d="M393.3735,259.69a1.42,1.42,0,1,1,0,2.84h-23a1.42,1.42,0,1,1,0-2.84Z" transform="translate(0 0)"/><path class="cls-13" d="M388.3735,232.69a1.42,1.42,0,0,1,0,2.84,18.4368,18.4368,0,0,1-18.42-18.42,1.42,1.42,0,0,1,2.84,0A15.5987,15.5987,0,0,0,388.3735,232.69Z" transform="translate(0 0)"/><path class="cls-12" d="M369.3335,157.84l-.46,18.77a33,33,0,1,1-66,0l.5-20.5a33.0028,33.0028,0,0,0,65.96,1.73Z" transform="translate(0 0)"/><path class="cls-6" d="M343.3735,460.4v-8.14a5.2727,5.2727,0,0,0,5,3.85v11a5.2727,5.2727,0,0,1-5-3.85Z" transform="translate(0 0)"/><path class="cls-1" d="M331.9335,285.88a41.5146,41.5146,0,0,0,5.41,79.13l.02.03a68.6074,68.6074,0,0,1-38.99,12.07c-38.71-57.6,2.37-117.42,7.07-123.92a94.9377,94.9377,0,0,0,36.21,29.96c.01.1.03.19.04.28A41.1985,41.1985,0,0,0,331.9335,285.88Z" transform="translate(0 0)"/><path class="cls-6" d="M325.5635,397.11h-44.52v-.07l1.33-18.93S305.9035,392.37,325.5635,397.11Z" transform="translate(0 0)"/><path class="cls-5" d="M295.3735,475.57l-146.25-.82a8.98,8.98,0,0,1-8.75-7.1,8.31,8.31,0,0,1-.16-2.82,8.864,8.864,0,0,1,1.23-3.69l27.25-45.64a9.0135,9.0135,0,0,1,7.73-4.39h131.26a9.0034,9.0034,0,0,1,8.71,11.24l-.02.08-11.94,46.39a2.2881,2.2881,0,0,1-.08.28h-.01a8.9763,8.9763,0,0,1-8.67,6.47Zm13.27-55.21a.9463.9463,0,0,0-.18-.86.9266.9266,0,0,0-.78-.39h-131.26a1.0117,1.0117,0,0,0-.86.49l-27.25,45.64a.9292.9292,0,0,0-.01,1,.8984.8984,0,0,0,.86.51l146.56.82a.9939.9939,0,0,0,.96-.75Z" transform="translate(0 0)"/><path class="cls-4" d="M316.3735,422.43v11l-11.94,46.39c-.02.07-.04.14-.06.2V469.11l-.02-.01a2.2881,2.2881,0,0,0,.08-.28Z" transform="translate(0 0)"/><path class="cls-5" d="M268.3735,603.61h-66.9a9.1133,9.1133,0,0,1-9.1-8.65v-.85a9.2481,9.2481,0,0,1,.75-3.23l39.26-90.3a9.1179,9.1179,0,0,1,8.35-5.47h55.33c6.12,0,11.09,5.15,9.31,11l-.19.61-27.86,90.37-.02.07a9.1182,9.1182,0,0,1-8.72,6.45Zm28.75-99.08a1.0267,1.0267,0,0,0-.17-.97,1.0513,1.0513,0,0,0-.89-.45h-55.33a1.096,1.096,0,0,0-1.01.66l-39.26,90.3a1.0116,1.0116,0,0,0,.09,1.04,1.0365,1.0365,0,0,0,.92.5h67.11a1.0951,1.0951,0,0,0,1.06-.78Z" transform="translate(0 0)"/><polygon class="cls-4" points="277.324 597.09 305.184 506.72 304.424 519.21 277.374 607.93 277.374 597.11 277.324 597.09"/><path class="cls-6" d="M303.2935,482.42a8.9794,8.9794,0,0,1-7.62,4.15h-.3v-11h.3a8.9763,8.9763,0,0,0,8.67-6.47h.01l.02.01v10.91A8.69,8.69,0,0,1,303.2935,482.42Z" transform="translate(0 0)"/><path class="cls-3" d="M295.3735,486.57h.3a8.9794,8.9794,0,0,0,7.62-4.15c-1.03,4.06-2.6,11.17-6.62,11.15l-158.55,1.18a9,9,0,0,1-7.68-13.61l9.74-16.31h.03a8.31,8.31,0,0,0,.16,2.82v7.18a9.0009,9.0009,0,0,0,8.75,10.92Z" transform="translate(0 0)"/><path class="cls-4" d="M140.3735,474.83v-7.18a8.98,8.98,0,0,0,8.75,7.1l146.25.82v11l-146.25-.82A9.0009,9.0009,0,0,1,140.3735,474.83Z" transform="translate(0 0)"/><path class="cls-7" d="M282.7935,375.34l-.42,2.77-1.33,18.93v.07h-81.67V379.14a154.2573,154.2573,0,0,1,13.74-63.87l.76.34s11.13,44.09,61.15,57.44A65.5272,65.5272,0,0,0,282.7935,375.34Z" transform="translate(0 0)"/><path class="cls-6" d="M276.2935,610.35a9.103,9.103,0,0,1-7.71,4.26h-.21v-11h.21a9.1182,9.1182,0,0,0,8.72-6.45l.02-.07.05.02v10.82l-.07.23A8.9094,8.9094,0,0,1,276.2935,610.35Z" transform="translate(0 0)"/><path class="cls-3" d="M192.3735,605.96a9.1133,9.1133,0,0,0,9.1,8.65h67.11a9.103,9.103,0,0,0,7.71-4.26c-.19.56-.83,2.45-2.99,8.81a9.2812,9.2812,0,0,1-8.72,6.45h-72.11a9.1061,9.1061,0,0,1-8.35-12.73l8.25-18.63a5.6061,5.6061,0,0,0,0,.71v10.1A6.7575,6.7575,0,0,0,192.3735,605.96Z" transform="translate(0 0)"/><path class="cls-4" d="M192.3735,605.06v-10.1a9.1133,9.1133,0,0,0,9.1,8.65h66.9v11h-66.9a9.1133,9.1133,0,0,1-9.1-8.65Z" transform="translate(0 0)"/><path class="cls-1" d="M264.8835,205.68c.38,1.96,7.84,42.6-18.51,49.43-24.76,6.42-29.34-21.65-29.93-26.34a27.8838,27.8838,0,0,0,19.93,8.34C244.2935,237.11,264.5935,231.31,264.8835,205.68Z" transform="translate(0 0)"/><path class="cls-6" d="M229.3735,308.11a69.0034,69.0034,0,0,0,45.65,64.94c-50.02-13.35-61.15-57.44-61.15-57.44l-.76-.34a154.7051,154.7051,0,0,1,21.66-34.74l.28.13A68.7752,68.7752,0,0,0,229.3735,308.11Z" transform="translate(0 0)"/><path class="cls-5" d="M204.3735,503.95a7.239,7.239,0,0,1-.54,1.65l-43.19,93.71a5.2785,5.2785,0,0,1-.27.53,7.4031,7.4031,0,0,1-6.44,3.77h-77.79a7.3975,7.3975,0,0,1-7.26-6.01,7.27,7.27,0,0,1,.85-5.07l53.78-93.71a7.4009,7.4009,0,0,1,6.41-3.71h67.19A7.4007,7.4007,0,0,1,204.3735,503.95Zm-50.83,91.66,42.63-92.5h-65.9l-53.08,92.5Z" transform="translate(0 0)"/><path class="cls-4" d="M204.3735,503.95v10.16l-43.73,96.2a5.2785,5.2785,0,0,1-.27.53v-11a5.2785,5.2785,0,0,0,.27-.53l43.19-93.71A7.239,7.239,0,0,0,204.3735,503.95Z" transform="translate(0 0)"/><path class="cls-6" d="M159.2935,612.3a7.3768,7.3768,0,0,1-5.36,2.31h-.56v-11h.56a7.4031,7.4031,0,0,0,6.44-3.77v11A7.0787,7.0787,0,0,1,159.2935,612.3Z" transform="translate(0 0)"/><path class="cls-3" d="M153.3735,614.61h.56a7.3768,7.3768,0,0,0,5.36-2.31l-3.65,9.01a7.3859,7.3859,0,0,1-6.71,4.3h-83.79a7.3976,7.3976,0,0,1-6.41-11.08l10.15-16.93a7.409,7.409,0,0,0,.49,1.58v10.99a7.33,7.33,0,0,0,6.77,4.44Z" transform="translate(0 0)"/><path class="cls-4" d="M153.3735,603.61v11h-77.23a7.33,7.33,0,0,1-6.77-4.44V599.18a7.3481,7.3481,0,0,0,6.77,4.43Z" transform="translate(0 0)"/></g><polygon id="screen8" class="cls-14" points="196.174 503.11 153.544 595.61 77.194 595.61 130.274 503.11 196.174 503.11"/><path id="screen7" class="cls-14" d="M296.9535,503.56a1.0267,1.0267,0,0,1,.17.97l-27.48,90.3a1.0951,1.0951,0,0,1-1.06.78h-67.11a1.0365,1.0365,0,0,1-.92-.5,1.0116,1.0116,0,0,1-.09-1.04l39.26-90.3a1.096,1.096,0,0,1,1.01-.66h55.33A1.0513,1.0513,0,0,1,296.9535,503.56Z" transform="translate(0 0)"/><path id="screen6" class="cls-14" d="M449.0535,593.9a2.0578,2.0578,0,0,1-.59,1.51,2.02,2.02,0,0,1-1.49.63l-125.61-.84a2.0717,2.0717,0,0,1-1.99-2.6l27.78-106.94a2.0858,2.0858,0,0,1,2.01-1.55h94.44a2.0707,2.0707,0,0,1,2.08,2.01Z" transform="translate(0 0)"/><path id="screen5" class="cls-14" d="M658.1635,492.9a1.4371,1.4371,0,0,1-.04,1.48,1.42,1.42,0,0,1-1.28.73h-54.94a1.479,1.479,0,0,1-1.43-1.06l-16.42-53.17a1.5051,1.5051,0,0,1,1.4-1.95l42.45-.74a1.5159,1.5159,0,0,1,1.35.79Z" transform="translate(0 0)"/><path id="screen4" class="cls-14" d="M562.3235,493.44a1.3414,1.3414,0,0,1-1.31,1.67h-70.97a1.3485,1.3485,0,0,1-1.35-1.22l-6.56-67.3a1.3274,1.3274,0,0,1,.34-1.04,1.345,1.345,0,0,1,1-.44h61.13a1.3465,1.3465,0,0,1,1.31,1.03Z" transform="translate(0 0)"/><polygon id="screen3" class="cls-14" points="451.214 425.11 450.534 450.11 349.414 450.11 356.854 425.11 451.214 425.11"/><path id="screen2" class="cls-14" d="M308.4635,419.5a.9463.9463,0,0,1,.18.86l-11.96,46.46a.9939.9939,0,0,1-.96.75l-146.56-.82a.8984.8984,0,0,1-.86-.51.9292.9292,0,0,1,.01-1l27.25-45.64a1.0117,1.0117,0,0,1,.86-.49h131.26A.9266.9266,0,0,1,308.4635,419.5Z" transform="translate(0 0)"/><path id="screen1" class="cls-14" d="M701.8435,591.22a5.65,5.65,0,0,1-5.19,7.89h-193.52a5.6688,5.6688,0,0,1-5.63-5.2l-5.15-64.7a5.6526,5.6526,0,0,1,5.63-6.1h170.73a5.6545,5.6545,0,0,1,5.19,3.41Z" transform="translate(0 0)"/><path id="leftEye" class="cls-15" d="M369.3735,156.11l-.04,1.7v.03a33.1,33.1,0,1,1,.04-1.73Zm-22,9a10,10,0,1,0-10,10A10.0036,10.0036,0,0,0,347.3735,165.11Z" transform="translate(0 0)"/><circle id="leftPupil" class="cls-1" cx="337.3735" cy="165.1099" r="10"/><path id="rightEye" class="cls-15" d="M462.3735,156.11l-.04,1.7v.03a33.1,33.1,0,1,1,.04-1.73Zm-22,9a10,10,0,1,0-10,10A10.0036,10.0036,0,0,0,440.3735,165.11Z" transform="translate(0 0)"/><circle id="rightPupil" class="cls-1" cx="430.3735" cy="165.1099" r="10"/></svg>