<svg id="Layer_1" data-name="Layer 1" xmlns="http://www.w3.org/2000/svg" viewBox="0 0 446.367 525.383"><style>.coverPage-1{opacity:0;transition: transform 2s linear 0.5s, opacity 1s linear 0.5s;}
.coverPage-2{fill:#31343c;}
.coverPage-3{fill:#48505e;}
.coverPage-4{fill:#023f3c;
transition: fill 1s ease 0.5s;}
.coverPage-5{fill:#7b8699;}</style><g id="otherScreen-4" class="coverPage-1"><g id="_Group_" data-name="&lt;Group&gt;"><path class="coverPage-2" d="M1092.307,293.225l3.78,2.014a10.763,10.763,0,0,0-2.563-.394A9.718,9.718,0,0,0,1092.307,293.225Z" transform="translate(-747 -289.471)"/><path class="coverPage-3" d="M1093.524,294.845a10.763,10.763,0,0,1,2.563.394l4.406,2.349a11.078,11.078,0,0,1,3.874,8.486v222.3a11.245,11.245,0,0,1-5.571,9.7L774.412,727.308a11.087,11.087,0,0,1-8.554,1.157l-5.452-3.326a10.909,10.909,0,0,1-1.869-2.828,11.143,11.143,0,0,1-1.02-4.706V495.3a11.23,11.23,0,0,1,5.572-9.7l1.046-.608,323.337-188.618A11.009,11.009,0,0,1,1093.524,294.845Zm-.986,233.2V307.1l-323.2,188.541V716.576Z" transform="translate(-747 -289.471)"/><path class="coverPage-2" d="M1093.524,294.845a11.009,11.009,0,0,0-6.052,1.526L764.135,484.989l-.052-.086-11.023-6.12,325.258-187.795a11.072,11.072,0,0,1,7.157-1.406l6.832,3.643A9.718,9.718,0,0,1,1093.524,294.845Z" transform="translate(-747 -289.471)"/><polygon class="coverPage-4" points="345.538 17.632 345.538 238.573 22.338 427.106 22.338 206.173 345.538 17.632"/><path class="coverPage-5" d="M764.083,484.9l.052.086-1.046.608a11.23,11.23,0,0,0-5.572,9.7v.12l-10.508-7a11.217,11.217,0,0,1,5.614-9.377l.437-.257Z" transform="translate(-747 -289.471)"/><path class="coverPage-2" d="M760.406,725.139l-5.452-3.326a10.751,10.751,0,0,0,3.583.5A10.909,10.909,0,0,0,760.406,725.139Z" transform="translate(-747 -289.471)"/><path class="coverPage-2" d="M758.537,722.311a10.751,10.751,0,0,1-3.583-.5l-4.783-2.922A11.035,11.035,0,0,1,747,711.073v-222.3c0-.12,0-.232.009-.352l10.508,7V717.605A11.143,11.143,0,0,0,758.537,722.311Z" transform="translate(-747 -289.471)"/><path class="coverPage-2" d="M750.171,718.891l4.783,2.922A11.307,11.307,0,0,1,750.171,718.891Z" transform="translate(-747 -289.471)"/></g></g><g id="otherScreen-3" class="coverPage-1"><g id="_Group_2" data-name="&lt;Group&gt;"><path class="coverPage-2" d="M1102.307,304.225l3.78,2.014a10.763,10.763,0,0,0-2.563-.394A9.718,9.718,0,0,0,1102.307,304.225Z" transform="translate(-747 -289.471)"/><path class="coverPage-3" d="M1103.524,305.845a10.763,10.763,0,0,1,2.563.394l4.406,2.349a11.078,11.078,0,0,1,3.874,8.486v222.3a11.245,11.245,0,0,1-5.571,9.7L784.412,738.308a11.087,11.087,0,0,1-8.554,1.157l-5.452-3.326a10.909,10.909,0,0,1-1.869-2.828,11.143,11.143,0,0,1-1.02-4.706V506.3a11.23,11.23,0,0,1,5.572-9.7l1.046-.608,323.337-188.618A11.009,11.009,0,0,1,1103.524,305.845Zm-.986,233.2V318.1l-323.2,188.541V727.576Z" transform="translate(-747 -289.471)"/><path class="coverPage-2" d="M1103.524,305.845a11.009,11.009,0,0,0-6.052,1.526L774.135,495.989l-.052-.086-11.023-6.12,325.258-187.795a11.072,11.072,0,0,1,7.157-1.406l6.832,3.643A9.718,9.718,0,0,1,1103.524,305.845Z" transform="translate(-747 -289.471)"/><polygon class="coverPage-4" points="355.538 28.632 355.538 249.573 32.338 438.106 32.338 217.173 355.538 28.632"/><path class="coverPage-5" d="M774.083,495.9l.052.086-1.046.608a11.23,11.23,0,0,0-5.572,9.7v.12l-10.508-7a11.217,11.217,0,0,1,5.614-9.377l.437-.257Z" transform="translate(-747 -289.471)"/><path class="coverPage-2" d="M770.406,736.139l-5.452-3.326a10.751,10.751,0,0,0,3.583.5A10.909,10.909,0,0,0,770.406,736.139Z" transform="translate(-747 -289.471)"/><path class="coverPage-2" d="M768.537,733.311a10.751,10.751,0,0,1-3.583-.5l-4.783-2.922A11.035,11.035,0,0,1,757,722.073v-222.3c0-.12,0-.232.009-.352l10.508,7V728.605A11.143,11.143,0,0,0,768.537,733.311Z" transform="translate(-747 -289.471)"/><path class="coverPage-2" d="M760.171,729.891l4.783,2.922A11.307,11.307,0,0,1,760.171,729.891Z" transform="translate(-747 -289.471)"/></g></g><g id="otherScreen-2" class="coverPage-1"><g id="_Group_3" data-name="&lt;Group&gt;"><path class="coverPage-2" d="M1115.307,313.225l3.78,2.014a10.763,10.763,0,0,0-2.563-.394A9.718,9.718,0,0,0,1115.307,313.225Z" transform="translate(-747 -289.471)"/><path class="coverPage-3" d="M1116.524,314.845a10.763,10.763,0,0,1,2.563.394l4.406,2.349a11.078,11.078,0,0,1,3.874,8.486v222.3a11.245,11.245,0,0,1-5.571,9.7L797.412,747.308a11.087,11.087,0,0,1-8.554,1.157l-5.452-3.326a10.909,10.909,0,0,1-1.869-2.828,11.143,11.143,0,0,1-1.02-4.706V515.3a11.23,11.23,0,0,1,5.572-9.7l1.046-.608,323.337-188.618A11.009,11.009,0,0,1,1116.524,314.845Zm-.986,233.2V327.1l-323.2,188.541V736.576Z" transform="translate(-747 -289.471)"/><path class="coverPage-2" d="M1116.524,314.845a11.009,11.009,0,0,0-6.052,1.526L787.135,504.989l-.052-.086-11.023-6.12,325.258-187.795a11.072,11.072,0,0,1,7.157-1.406l6.832,3.643A9.718,9.718,0,0,1,1116.524,314.845Z" transform="translate(-747 -289.471)"/><polygon class="coverPage-4" points="368.538 37.632 368.538 258.573 45.338 447.106 45.338 226.173 368.538 37.632"/><path class="coverPage-5" d="M787.083,504.9l.052.086-1.046.608a11.23,11.23,0,0,0-5.572,9.7v.12l-10.508-7a11.217,11.217,0,0,1,5.614-9.377l.437-.257Z" transform="translate(-747 -289.471)"/><path class="coverPage-2" d="M783.406,745.139l-5.452-3.326a10.751,10.751,0,0,0,3.583.5A10.909,10.909,0,0,0,783.406,745.139Z" transform="translate(-747 -289.471)"/><path class="coverPage-2" d="M781.537,742.311a10.751,10.751,0,0,1-3.583-.5l-4.783-2.922A11.035,11.035,0,0,1,770,731.073v-222.3c0-.12,0-.232.009-.352l10.508,7V737.605A11.143,11.143,0,0,0,781.537,742.311Z" transform="translate(-747 -289.471)"/><path class="coverPage-2" d="M773.171,738.891l4.783,2.922A11.307,11.307,0,0,1,773.171,738.891Z" transform="translate(-747 -289.471)"/></g></g><g id="otherScreen-1" class="coverPage-1"><g id="_Group_4" data-name="&lt;Group&gt;"><path class="coverPage-2" d="M1126.307,324.225l3.78,2.014a10.763,10.763,0,0,0-2.563-.394A9.718,9.718,0,0,0,1126.307,324.225Z" transform="translate(-747 -289.471)"/><path class="coverPage-3" d="M1127.524,325.845a10.763,10.763,0,0,1,2.563.394l4.406,2.349a11.078,11.078,0,0,1,3.874,8.486v222.3a11.245,11.245,0,0,1-5.571,9.7L808.412,758.308a11.087,11.087,0,0,1-8.554,1.157l-5.452-3.326a10.909,10.909,0,0,1-1.869-2.828,11.143,11.143,0,0,1-1.02-4.706V526.3a11.23,11.23,0,0,1,5.572-9.7l1.046-.608,323.337-188.618A11.009,11.009,0,0,1,1127.524,325.845Zm-.986,233.2V338.1l-323.2,188.541V747.576Z" transform="translate(-747 -289.471)"/><path class="coverPage-2" d="M1127.524,325.845a11.009,11.009,0,0,0-6.052,1.526L798.135,515.989l-.052-.086-11.023-6.12,325.258-187.795a11.072,11.072,0,0,1,7.157-1.406l6.832,3.643A9.718,9.718,0,0,1,1127.524,325.845Z" transform="translate(-747 -289.471)"/><polygon class="coverPage-4" points="379.538 48.632 379.538 269.573 56.338 458.106 56.338 237.173 379.538 48.632"/><path class="coverPage-5" d="M798.083,515.9l.052.086-1.046.608a11.23,11.23,0,0,0-5.572,9.7v.12l-10.508-7a11.217,11.217,0,0,1,5.614-9.377l.437-.257Z" transform="translate(-747 -289.471)"/><path class="coverPage-2" d="M794.406,756.139l-5.452-3.326a10.751,10.751,0,0,0,3.583.5A10.909,10.909,0,0,0,794.406,756.139Z" transform="translate(-747 -289.471)"/><path class="coverPage-2" d="M792.537,753.311a10.751,10.751,0,0,1-3.583-.5l-4.783-2.922A11.035,11.035,0,0,1,781,742.073v-222.3c0-.12,0-.232.009-.352l10.508,7V748.605A11.143,11.143,0,0,0,792.537,753.311Z" transform="translate(-747 -289.471)"/><path class="coverPage-2" d="M784.171,749.891l4.783,2.922A11.307,11.307,0,0,1,784.171,749.891Z" transform="translate(-747 -289.471)"/></g></g><g id="mainScreen"><g id="_Group_5" data-name="&lt;Group&gt;"><path class="coverPage-2" d="M1137.307,335.225l3.78,2.014a10.763,10.763,0,0,0-2.563-.394A9.718,9.718,0,0,0,1137.307,335.225Z" transform="translate(-747 -289.471)"/><path class="coverPage-3" d="M1138.524,336.845a10.763,10.763,0,0,1,2.563.394l4.406,2.349a11.078,11.078,0,0,1,3.874,8.486v222.3a11.245,11.245,0,0,1-5.571,9.7L819.412,769.308a11.087,11.087,0,0,1-8.554,1.157l-5.452-3.326a10.909,10.909,0,0,1-1.869-2.828,11.143,11.143,0,0,1-1.02-4.706V537.3a11.23,11.23,0,0,1,5.572-9.7l1.046-.608,323.337-188.618A11.009,11.009,0,0,1,1138.524,336.845Zm-.986,233.2V349.1l-323.2,188.541V758.576Z" transform="translate(-747 -289.471)"/><path class="coverPage-2" d="M1138.524,336.845a11.009,11.009,0,0,0-6.052,1.526L809.135,526.989l-.052-.086-11.023-6.12,325.258-187.795a11.072,11.072,0,0,1,7.157-1.406l6.832,3.643A9.718,9.718,0,0,1,1138.524,336.845Z" transform="translate(-747 -289.471)"/><polygon class="coverPage-4" points="390.538 59.632 390.538 280.573 67.338 469.106 67.338 248.173 390.538 59.632"/><path class="coverPage-5" d="M809.083,526.9l.052.086-1.046.608a11.23,11.23,0,0,0-5.572,9.7v.12l-10.508-7a11.217,11.217,0,0,1,5.614-9.377l.437-.257Z" transform="translate(-747 -289.471)"/><path class="coverPage-2" d="M805.406,767.139l-5.452-3.326a10.751,10.751,0,0,0,3.583.5A10.909,10.909,0,0,0,805.406,767.139Z" transform="translate(-747 -289.471)"/><path class="coverPage-2" d="M803.537,764.311a10.751,10.751,0,0,1-3.583-.5l-4.783-2.922A11.035,11.035,0,0,1,792,753.073v-222.3c0-.12,0-.232.009-.352l10.508,7V759.605A11.143,11.143,0,0,0,803.537,764.311Z" transform="translate(-747 -289.471)"/><path class="coverPage-2" d="M795.171,760.891l4.783,2.922A11.307,11.307,0,0,1,795.171,760.891Z" transform="translate(-747 -289.471)"/></g></g><g id="otherScreen1" class="coverPage-1"><g id="_Group_6" data-name="&lt;Group&gt;"><path class="coverPage-2" d="M1148.307,346.225l3.78,2.014a10.763,10.763,0,0,0-2.563-.394A9.718,9.718,0,0,0,1148.307,346.225Z" transform="translate(-747 -289.471)"/><path class="coverPage-3" d="M1149.524,347.845a10.763,10.763,0,0,1,2.563.394l4.406,2.349a11.078,11.078,0,0,1,3.874,8.486v222.3a11.245,11.245,0,0,1-5.571,9.7L830.412,780.308a11.087,11.087,0,0,1-8.554,1.157l-5.452-3.326a10.909,10.909,0,0,1-1.869-2.828,11.143,11.143,0,0,1-1.02-4.706V548.3a11.23,11.23,0,0,1,5.572-9.7l1.046-.608,323.337-188.618A11.009,11.009,0,0,1,1149.524,347.845Zm-.986,233.2V360.1l-323.2,188.541V769.576Z" transform="translate(-747 -289.471)"/><path class="coverPage-2" d="M1149.524,347.845a11.009,11.009,0,0,0-6.052,1.526L820.135,537.989l-.052-.086-11.023-6.12,325.258-187.795a11.072,11.072,0,0,1,7.157-1.406l6.832,3.643A9.718,9.718,0,0,1,1149.524,347.845Z" transform="translate(-747 -289.471)"/><polygon class="coverPage-4" points="401.538 70.632 401.538 291.573 78.338 480.106 78.338 259.173 401.538 70.632"/><path class="coverPage-5" d="M820.083,537.9l.052.086-1.046.608a11.23,11.23,0,0,0-5.572,9.7v.12l-10.508-7a11.217,11.217,0,0,1,5.614-9.377l.437-.257Z" transform="translate(-747 -289.471)"/><path class="coverPage-2" d="M816.406,778.139l-5.452-3.326a10.751,10.751,0,0,0,3.583.5A10.909,10.909,0,0,0,816.406,778.139Z" transform="translate(-747 -289.471)"/><path class="coverPage-2" d="M814.537,775.311a10.751,10.751,0,0,1-3.583-.5l-4.783-2.922A11.035,11.035,0,0,1,803,764.073v-222.3c0-.12,0-.232.009-.352l10.508,7V770.605A11.143,11.143,0,0,0,814.537,775.311Z" transform="translate(-747 -289.471)"/><path class="coverPage-2" d="M806.171,771.891l4.783,2.922A11.307,11.307,0,0,1,806.171,771.891Z" transform="translate(-747 -289.471)"/></g></g><g id="otherScreen2" class="coverPage-1"><g id="_Group_7" data-name="&lt;Group&gt;"><path class="coverPage-2" d="M1159.307,357.225l3.78,2.014a10.763,10.763,0,0,0-2.563-.394A9.718,9.718,0,0,0,1159.307,357.225Z" transform="translate(-747 -289.471)"/><path class="coverPage-3" d="M1160.524,358.845a10.763,10.763,0,0,1,2.563.394l4.406,2.349a11.078,11.078,0,0,1,3.874,8.486v222.3a11.245,11.245,0,0,1-5.571,9.7L841.412,791.308a11.087,11.087,0,0,1-8.554,1.157l-5.452-3.326a10.909,10.909,0,0,1-1.869-2.828,11.143,11.143,0,0,1-1.02-4.706V559.3a11.23,11.23,0,0,1,5.572-9.7l1.046-.608,323.337-188.618A11.009,11.009,0,0,1,1160.524,358.845Zm-.986,233.2V371.1l-323.2,188.541V780.576Z" transform="translate(-747 -289.471)"/><path class="coverPage-2" d="M1160.524,358.845a11.009,11.009,0,0,0-6.052,1.526L831.135,548.989l-.052-.086-11.023-6.12,325.258-187.795a11.072,11.072,0,0,1,7.157-1.406l6.832,3.643A9.718,9.718,0,0,1,1160.524,358.845Z" transform="translate(-747 -289.471)"/><polygon class="coverPage-4" points="412.538 81.632 412.538 302.573 89.338 491.106 89.338 270.173 412.538 81.632"/><path class="coverPage-5" d="M831.083,548.9l.052.086-1.046.608a11.23,11.23,0,0,0-5.572,9.7v.12l-10.508-7a11.217,11.217,0,0,1,5.614-9.377l.437-.257Z" transform="translate(-747 -289.471)"/><path class="coverPage-2" d="M827.406,789.139l-5.452-3.326a10.751,10.751,0,0,0,3.583.5A10.909,10.909,0,0,0,827.406,789.139Z" transform="translate(-747 -289.471)"/><path class="coverPage-2" d="M825.537,786.311a10.751,10.751,0,0,1-3.583-.5l-4.783-2.922A11.035,11.035,0,0,1,814,775.073v-222.3c0-.12,0-.232.009-.352l10.508,7V781.605A11.143,11.143,0,0,0,825.537,786.311Z" transform="translate(-747 -289.471)"/><path class="coverPage-2" d="M817.171,782.891l4.783,2.922A11.307,11.307,0,0,1,817.171,782.891Z" transform="translate(-747 -289.471)"/></g></g><g id="otherScreen3" class="coverPage-1"><g id="_Group_8" data-name="&lt;Group&gt;"><path class="coverPage-2" d="M1170.307,368.225l3.78,2.014a10.763,10.763,0,0,0-2.563-.394A9.718,9.718,0,0,0,1170.307,368.225Z" transform="translate(-747 -289.471)"/><path class="coverPage-3" d="M1171.524,369.845a10.763,10.763,0,0,1,2.563.394l4.406,2.349a11.078,11.078,0,0,1,3.874,8.486v222.3a11.245,11.245,0,0,1-5.571,9.7L852.412,802.308a11.087,11.087,0,0,1-8.554,1.157l-5.452-3.326a10.909,10.909,0,0,1-1.869-2.828,11.143,11.143,0,0,1-1.02-4.706V570.3a11.23,11.23,0,0,1,5.572-9.7l1.046-.608,323.337-188.618A11.009,11.009,0,0,1,1171.524,369.845Zm-.986,233.2V382.1l-323.2,188.541V791.576Z" transform="translate(-747 -289.471)"/><path class="coverPage-2" d="M1171.524,369.845a11.009,11.009,0,0,0-6.052,1.526L842.135,559.989l-.052-.086-11.023-6.12,325.258-187.795a11.072,11.072,0,0,1,7.157-1.406l6.832,3.643A9.718,9.718,0,0,1,1171.524,369.845Z" transform="translate(-747 -289.471)"/><polygon class="coverPage-4" points="423.538 92.632 423.538 313.573 100.338 502.106 100.338 281.173 423.538 92.632"/><path class="coverPage-5" d="M842.083,559.9l.052.086-1.046.608a11.23,11.23,0,0,0-5.572,9.7v.12l-10.508-7a11.217,11.217,0,0,1,5.614-9.377l.437-.257Z" transform="translate(-747 -289.471)"/><path class="coverPage-2" d="M838.406,800.139l-5.452-3.326a10.751,10.751,0,0,0,3.583.5A10.909,10.909,0,0,0,838.406,800.139Z" transform="translate(-747 -289.471)"/><path class="coverPage-2" d="M836.537,797.311a10.751,10.751,0,0,1-3.583-.5l-4.783-2.922A11.035,11.035,0,0,1,825,786.073v-222.3c0-.12,0-.232.009-.352l10.508,7V792.605A11.143,11.143,0,0,0,836.537,797.311Z" transform="translate(-747 -289.471)"/><path class="coverPage-2" d="M828.171,793.891l4.783,2.922A11.307,11.307,0,0,1,828.171,793.891Z" transform="translate(-747 -289.471)"/></g></g><g id="otherScreen4" class="coverPage-1"><g id="_Group_9" data-name="&lt;Group&gt;"><path class="coverPage-2" d="M1181.307,379.225l3.78,2.014a10.763,10.763,0,0,0-2.563-.394A9.718,9.718,0,0,0,1181.307,379.225Z" transform="translate(-747 -289.471)"/><path class="coverPage-3" d="M1182.524,380.845a10.763,10.763,0,0,1,2.563.394l4.406,2.349a11.078,11.078,0,0,1,3.874,8.486v222.3a11.245,11.245,0,0,1-5.571,9.7L863.412,813.308a11.087,11.087,0,0,1-8.554,1.157l-5.452-3.326a10.909,10.909,0,0,1-1.869-2.828,11.143,11.143,0,0,1-1.02-4.706V581.3a11.23,11.23,0,0,1,5.572-9.7l1.046-.608,323.337-188.618A11.009,11.009,0,0,1,1182.524,380.845Zm-.986,233.2V393.1l-323.2,188.541V802.576Z" transform="translate(-747 -289.471)"/><path class="coverPage-2" d="M1182.524,380.845a11.009,11.009,0,0,0-6.052,1.526L853.135,570.989l-.052-.086-11.023-6.12,325.258-187.795a11.072,11.072,0,0,1,7.157-1.406l6.832,3.643A9.718,9.718,0,0,1,1182.524,380.845Z" transform="translate(-747 -289.471)"/><polygon class="coverPage-4" points="434.538 103.632 434.538 324.573 111.338 513.106 111.338 292.173 434.538 103.632"/><path class="coverPage-5" d="M853.083,570.9l.052.086-1.046.608a11.23,11.23,0,0,0-5.572,9.7v.12l-10.508-7a11.217,11.217,0,0,1,5.614-9.377l.437-.257Z" transform="translate(-747 -289.471)"/><path class="coverPage-2" d="M849.406,811.139l-5.452-3.326a10.751,10.751,0,0,0,3.583.5A10.909,10.909,0,0,0,849.406,811.139Z" transform="translate(-747 -289.471)"/><path class="coverPage-2" d="M847.537,808.311a10.751,10.751,0,0,1-3.583-.5l-4.783-2.922A11.035,11.035,0,0,1,836,797.073v-222.3c0-.12,0-.232.009-.352l10.508,7V803.605A11.143,11.143,0,0,0,847.537,808.311Z" transform="translate(-747 -289.471)"/><path class="coverPage-2" d="M839.171,804.891l4.783,2.922A11.307,11.307,0,0,1,839.171,804.891Z" transform="translate(-747 -289.471)"/></g></g></svg>