<svg xmlns="http://www.w3.org/2000/svg" viewBox="0 0 1936.129 516.568"><defs></defs><g id="Layer_2" data-name="Layer 2"><g id="Cloud"><circle class="frame9cloud-1" cx="574.096" cy="25.087" r="18"/><circle class="frame9cloud-1" cx="617.096" cy="86.087" r="26"/><circle class="frame9cloud-1" cx="681.096" cy="175.087" r="42"/><path class="frame9cloud-2" d="M1926.207,387.576a140.034,140.034,0,0,0-179.371,17.781c-5.59-120.94-105.42-217.27-227.74-217.27a226.938,226.938,0,0,0-118.55,33.21,166.012,166.012,0,0,0-330.28,15.28,67.121,67.121,0,0,0-78,34.32,160.013,160.013,0,0,0-293.23,69.82,81.023,81.023,0,0,0-135.91,22.66,147.027,147.027,0,0,0-271.7,55.89A134.042,134.042,0,0,0,87.6,506.227a78.051,78.051,0,0,0-77.675.42"/></g></g></svg>