<svg xmlns="http://www.w3.org/2000/svg" viewBox="0 0 1836.818 1027.048"><defs></defs><title>svg-frame6</title><g id="desk"><path class="frame6-1" d="M1166.08,691.248a11.032,11.032,0,0,0-6.962-10.147l-21.976-12.737a11.247,11.247,0,0,0-14.165-2.466L1088.2,685.691l-49.238,28.023-13.935,7.935-24.814,14.124-14.36,8.171-27.94,15.905-4.673,2.655a11.082,11.082,0,0,0-5.563,8.489c-.035.354-.059.708-.059,1.068l-.531,100.093a11.077,11.077,0,0,0,8.378,10.8l22.784,13.421A11.234,11.234,0,0,0,991.38,897.7l170.2-98.288a11.077,11.077,0,0,0,5.558-9.7Z" transform="translate(-45 -47.997)"/><g id="_Group_" data-name="&lt;Group&gt;"><path class="frame6-2" d="M1166.08,691.248a11.032,11.032,0,0,0-6.962-10.147,11.163,11.163,0,0,0-9.858.667l-9.492,5.439L985.085,775.861l-4.43,2.536a11.082,11.082,0,0,0-5.558,8.756c-.023.265-.035.525-.035.79l-.466,87.692-.065,12.425a10.871,10.871,0,0,0,3.717,8.312A11.234,11.234,0,0,0,991.38,897.7l170.2-98.288a11.077,11.077,0,0,0,5.558-9.7Z" transform="translate(-45 -47.997)"/><path class="frame6-1" d="M1137.142,668.364a11.247,11.247,0,0,0-14.165-2.466L1088.2,685.691l-49.238,28.023-13.935,7.935-24.814,14.124-14.36,8.171-27.94,15.905,27.173,16.012,154.683-88.654,9.492-5.439a11.163,11.163,0,0,1,9.858-.667Z" transform="translate(-45 -47.997)"/><path class="frame6-3" d="M985.085,775.861l-4.43,2.536a11.082,11.082,0,0,0-5.558,8.756l-27.421-16.16a11.082,11.082,0,0,1,5.563-8.489l4.673-2.655Z" transform="translate(-45 -47.997)"/><path class="frame6-1" d="M974.531,888.06l.065-12.425.466-87.692c0-.265.012-.525.035-.79l-27.421-16.16c-.035.354-.059.708-.059,1.068l-.531,100.093a11.077,11.077,0,0,0,8.377,10.8l22.785,13.421A10.871,10.871,0,0,1,974.531,888.06Z" transform="translate(-45 -47.997)"/></g><path class="frame6-4" d="M1442.312,897.169l-65.439-37.906v-83.65l-5.9-2.95-72.165,41.38-16.058-9.3a17.011,17.011,0,0,0-17.056.012L1035.338,938.436a16.9,16.9,0,0,0-8.312,16.979V971.48l.72.053a16.758,16.758,0,0,0,7.639,9.316l159.538,91.928c.083.047.159.094.242.135h0a17,17,0,0,0,16.519-.017h0c.076-.042.159-.083.236-.13l230.38-133.19a16.756,16.756,0,0,0,8.106-11.1h.212V914.307A16.91,16.91,0,0,0,1442.312,897.169Zm-313.364,76.948Zm-.655-3a3.841,3.841,0,0,1,.488.94A3.841,3.841,0,0,0,1128.293,971.114Zm74.512,30.106h0l-127.4-71.627Zm-163.774-47.433v2.307A3.959,3.959,0,0,1,1039.031,953.787Zm59.463,50.448,24.106-14.466-24.106,14.466Zm96.689,55.71h0a16.965,16.965,0,0,0,2.985,1.3A16.965,16.965,0,0,1,1195.183,1059.945Zm7.177,2.092q.531.033,1.064.033Q1202.892,1062.07,1202.36,1062.037Z" transform="translate(-45 -47.997)"/><g id="_Group_2" data-name="&lt;Group&gt;"><path class="frame6-5" d="M1101.892,991.462v5.528a4.47,4.47,0,0,1-3.841-.289l-.135-.077v-5.569l.424.242A3.9,3.9,0,0,0,1101.892,991.462Z" transform="translate(-45 -47.997)"/><path class="frame6-6" d="M1097.916,991.055v5.569l-58.884-33.981v-6.549a3.83,3.83,0,0,0,1.787,2.236Z" transform="translate(-45 -47.997)"/><path class="frame6-6" d="M1128.948,974.117v7.1l-26.413,15.457a3.971,3.971,0,0,1-.643.313v-5.528a2.9,2.9,0,0,0,.36-.183l24.825-14.536a3.848,3.848,0,0,0,1.865-2.626Z" transform="translate(-45 -47.997)"/><path class="frame6-7" d="M1127.532,970.318a3.9,3.9,0,0,1,1.41,3.8,3.848,3.848,0,0,1-1.865,2.626l-24.825,14.536a2.9,2.9,0,0,1-.36.183,3.9,3.9,0,0,1-3.552-.165l-.424-.242-57.1-32.725a3.83,3.83,0,0,1-1.787-2.236v-2.307a3.872,3.872,0,0,1,1.722-2.189l24.177-14.507a3.916,3.916,0,0,1,3.929-.047l.277.159,57.893,32.779A3.721,3.721,0,0,1,1127.532,970.318Zm-1.717,3.2a.713.713,0,0,0-.354-.767l-58.17-32.943a.732.732,0,0,0-.354-.088.708.708,0,0,0-.366.1l-24.177,14.507a.661.661,0,0,0-.348.619.673.673,0,0,0,.36.614l57.516,32.973a.775.775,0,0,0,.359.094.719.719,0,0,0,.36-.1L1125.473,974A.687.687,0,0,0,1125.815,973.521Z" transform="translate(-45 -47.997)"/><path class="frame6-8" d="M1125.461,972.754a.713.713,0,0,1,.354.767.687.687,0,0,1-.342.478l-24.832,14.531a.719.719,0,0,1-.36.1.775.775,0,0,1-.359-.094l-57.516-32.973a.673.673,0,0,1-.36-.614.661.661,0,0,1,.348-.619l24.177-14.507a.708.708,0,0,1,.366-.1.732.732,0,0,1,.354.088Z" transform="translate(-45 -47.997)"/><path class="frame6-9" d="M1211.684,1059.974V1072.9a17,17,0,0,1-16.519.017v-12.938l.018-.029a16.992,16.992,0,0,0,16.477-.012Z" transform="translate(-45 -47.997)"/><path class="frame6-2" d="M1098.494,1004.235l-6.507-3.752-56.6-32.613a17.737,17.737,0,0,1-2.455-1.705,16.733,16.733,0,0,1-5.9-10.75V971.48l.72.053a16.755,16.755,0,0,0,7.64,9.316l159.537,91.928c.083.047.159.094.242.135v-12.938l.018-.029c-.089-.047-.171-.1-.26-.148Z" transform="translate(-45 -47.997)"/><path class="frame6-2" d="M1442.3,926.6l-230.38,133.19c-.089.047-.171.1-.26.147l.024.041V1072.9c.077-.042.159-.083.236-.13l230.38-133.19a16.756,16.756,0,0,0,8.106-11.1h.212V914.307A16.794,16.794,0,0,1,1442.3,926.6Z" transform="translate(-45 -47.997)"/><polygon class="frame6-7" points="1157.805 953.223 1157.728 935.991 1157.386 855.042 1157.333 842.954 1157.256 824.075 1157.244 821.42 1163.144 824.37 1163.144 964.781 1158.118 960.875 1157.834 960.651 1157.805 953.223"/><polygon class="frame6-7" points="1157.834 960.651 1158.118 960.875 1157.834 961.241 1030.403 887.496 1030.403 881.596 1157.805 953.223 1157.834 960.651"/><polygon class="frame6-5" points="1210.418 790.931 1253.809 766.046 1259.308 769.226 1163.144 824.37 1157.244 821.42 1210.418 790.931"/><polygon class="frame6-6" points="1087.629 896.345 1156.065 855.048 1157.386 855.042 1157.333 842.954 1130.696 858.588 1104.738 844.429 1147.215 819.06 1156.655 824.075 1157.256 824.075 1157.244 821.42 1210.418 790.931 1198.542 784.252 1030.403 881.596 1157.805 953.223 1157.728 935.991 1087.629 896.345"/><path class="frame6-6" d="M1304.308,817.223l-96.164,55.144v140.41L1376.4,914.531l.472-.277V775.613Zm0,83.462-24.189,14.159V885.936l24.189-14.159Z" transform="translate(-45 -47.997)"/><polygon class="frame6-5" points="1331.873 727.616 1259.308 769.226 1253.809 766.046 1325.974 724.666 1331.873 727.616"/><polygon class="frame6-5" points="1156.065 855.048 1087.629 896.345 1157.728 935.991 1157.386 855.042 1156.065 855.048"/><polygon class="frame6-5" points="1157.333 842.954 1157.256 824.075 1156.655 824.075 1147.215 819.06 1104.738 844.429 1130.696 858.588 1157.333 842.954"/><polygon class="frame6-5" points="1235.119 837.939 1235.119 866.847 1259.308 852.688 1259.308 823.78 1235.119 837.939"/><path class="frame6-9" d="M1442.312,897.169l-65.439-37.9v54.99l-.472.277-4.543,14.767-158.7,93.8-85.627-52.784a3.9,3.9,0,0,1,1.41,3.8h.006v7.959l-6.348,7.693-24.106,14.466,96.429,55.562c.089.048.171.1.26.148a16.992,16.992,0,0,0,16.477-.012c.089-.047.171-.1.26-.147L1442.3,926.6a17,17,0,0,0,.012-29.427Z" transform="translate(-45 -47.997)"/><path class="frame6-9" d="M1255.418,838.928l43.391-24.885-16.058-9.3a17.011,17.011,0,0,0-17.056.012L1035.338,938.436a16.9,16.9,0,0,0-8.312,16.979,16.733,16.733,0,0,0,5.9,10.75l.879-.289,5.222-2.9v-6.885a3.927,3.927,0,0,1,0-2.307,3.872,3.872,0,0,1,1.722-2.189l24.177-14.507a3.916,3.916,0,0,1,3.929-.047l.277.159,6.266-1.711v-5.9l168.139-97.344Z" transform="translate(-45 -47.997)"/><path class="frame6-2" d="M1101.892,996.99a3.971,3.971,0,0,0,.643-.313l26.413-15.457v.856l-6.348,7.693-24.106,14.466-6.507-3.752,5.929-3.292v-.567l.135.077A4.47,4.47,0,0,0,1101.892,996.99Z" transform="translate(-45 -47.997)"/><path class="frame6-2" d="M1208.144,1012.777l-5.026-3.905-.284.366L1075.4,935.492l-6.266,1.711,57.893,32.779a3.721,3.721,0,0,1,.5.336l85.627,52.784,158.7-93.8,4.543-14.767Z" transform="translate(-45 -47.997)"/><path class="frame6-2" d="M1039.032,962.979l-5.222,2.9-.879.289a17.737,17.737,0,0,0,2.455,1.705l56.6,32.613,5.929-3.292v-.567l-58.884-33.981Z" transform="translate(-45 -47.997)"/></g>
<g id="characterDesk"><path class="frame6-6" d="M1183.4,939.045c-27.61-2.856-49.214-15.039-64.5-36.313a104.34,104.34,0,0,1-5.654-8.8l64.8-36.318,6.667-5.333v-43.15s0-8.8-16.354-30.159c29.292,3,32.873-24.117,32.873-24.117s-21.345,7.079-21.345-14.077l-.077-.006c.124-1.481.183-2.985.183-4.5V710.635a15.915,15.915,0,0,0,6.8-9.009c0-.006.006-.017.006-.023.024-.106.13-.614.266-1.322a31.6,31.6,0,0,0,.6-4.425,17.748,17.748,0,0,0-1.611-7.964l.047-.024c0-38.07-19.085-53.958-19.085-53.958s.549-46.665-52.872-37.787h0c-12.708,2.107-28.466,7.363-48.011,17.139-68.436,34.218-44.248,97.933-35.4,112.683a118.8,118.8,0,0,1,8.46,16.3h0c3.552,8.844,5.192,18.372-1.38,23.227-13.57,10.029-19.469,0-19.469,0s-10.03,18.879,4.129,31.268c5.464,4.779,10.449,6.891,14.8,7.445a101.2,101.2,0,0,0-12.443,48.766l3.54,90.689,57.833-32.968q2.7,4.615,5.659,8.9c20.554,29.687,50.6,47.179,88.264,51.079.554.053,1.109.082,1.652.082a15.888,15.888,0,0,0,1.616-31.692ZM1063.016,821.577q-.766-.889-1.432-1.818.667.927,1.432,1.818a27.122,27.122,0,0,0,4.781,4.384A27.087,27.087,0,0,1,1063.016,821.577Zm28.613-5.5h0a16.033,16.033,0,0,0-1.164-1.494,16.033,16.033,0,0,1,1.164,1.494c10.027.127,17.515-2.695,23.053-6.558C1109.144,813.378,1101.657,816.2,1091.629,816.073Zm35.92-26.881c1.094-.051,1.708-.122,1.708-.122h0s-.615.071-1.708.122c-.625.029-1.407.051-2.32.051C1126.142,789.243,1126.924,789.221,1127.549,789.192Zm-27.188,73.335c.718,2.589,1.516,5.233,2.418,7.917h0C1101.877,867.76,1101.079,865.116,1100.361,862.527Zm3.073-33.327h0l10.483,34.206Zm24.884-37.333a40.929,40.929,0,0,1-5.488,9.779,36.777,36.777,0,0,1-6.9,6.96,36.777,36.777,0,0,0,6.9-6.96,40.929,40.929,0,0,0,5.488-9.779,27.175,27.175,0,0,0,.933-2.767c-.03.189-.207,1.174-.579,2.743A3.488,3.488,0,0,1,1128.318,791.867Zm29.954-11.464c1.085-.834,2.148-1.7,3.167-2.613C1160.42,778.707,1159.357,779.569,1158.272,780.4Zm23.051-98.456a14.558,14.558,0,0,1,1.357,1.148A14.558,14.558,0,0,0,1181.323,681.947Zm-4.3-2.166a12.465,12.465,0,0,1,1.524.537,13.009,13.009,0,0,1,1.449.73c.115.068.225.146.338.217-.113-.071-.223-.149-.338-.217a13.009,13.009,0,0,0-1.449-.73,12.465,12.465,0,0,0-1.524-.537,12.056,12.056,0,0,0-2.4-.415A12.056,12.056,0,0,1,1177.02,679.781Zm-4.69-.414.011.059a11.868,11.868,0,0,1,1.458-.088h0a11.868,11.868,0,0,0-1.458.088l-.011-.059a47.4,47.4,0,0,0-1.362-11.2A47.4,47.4,0,0,1,1172.33,679.367Zm-1.81-12.912q-.473-1.687-1.035-3.277C1169.857,664.237,1170.205,665.33,1170.52,666.455Zm-2.222-6.349c-.416-.989-.85-1.941-1.3-2.855C1167.448,658.165,1167.882,659.117,1168.3,660.106Zm-9.755-15.7a54.238,54.238,0,0,1,3.7,4.752c.865,1.24,1.787,2.663,2.709,4.251.461.794.922,1.63,1.376,2.5-.454-.875-.915-1.711-1.376-2.5-.922-1.588-1.844-3.011-2.709-4.251a54.238,54.238,0,0,0-3.7-4.752c-.608-.691-.968-1.052-.968-1.052h0S1157.935,643.711,1158.543,644.4ZM1047.976,797.349q1.749-.049,3.631-.2Q1049.725,797.3,1047.976,797.349Zm7.535-.609q-1.011.129-1.987.231.977-.1,1.987-.231Zm0,4.93c.036.543.085,1.12.15,1.725C1055.592,802.79,1055.543,802.213,1055.507,801.67Zm14.122,10.22q1.581.538,3.108,1-1.527-.464-3.108-1a120.015,120.015,0,0,1-13.551-5.593A120.015,120.015,0,0,0,1069.629,811.89Zm3.06,16.9q-.716-.33-1.392-.683Q1071.974,828.466,1072.689,828.8Zm4.3,63.3q1.846,4.429,3.9,8.615C1079.816,898.727,1078.749,896.321,1076.986,892.09Z" transform="translate(-45 -47.997)"/><g id="_Group_3" data-name="&lt;Group&gt;"><path class="frame6-5" d="M1056.078,806.3a33.949,33.949,0,0,0,4.265,11.587c-6.8,17.038.478,56.731.478,56.731a45.194,45.194,0,0,0,10.548,1.959c1.57,5.061,3.428,10.265,5.617,15.516,4.2,10.082,4.454,9.811,10.159,18.047l-58.772,33.5-3.54-90.688a101.2,101.2,0,0,1,12.443-48.767c11.232,1.446,18.235-7.445,18.235-7.445A37.513,37.513,0,0,0,1056.078,806.3Z" transform="translate(-45 -47.997)"/><path class="frame6-5" d="M1103.434,829.2l10.484,34.206a66.129,66.129,0,0,1-11.139,7.038,170.209,170.209,0,0,1-7.959-38.59A31.5,31.5,0,0,0,1103.434,829.2Z" transform="translate(-45 -47.997)"/><path class="frame6-10" d="M1094.82,831.854a35.742,35.742,0,0,1-8.631.284c-11.427-.956-18.637-5.257-23.173-10.561a27.588,27.588,0,0,1-2.673-3.693c-6.8,17.038.478,56.731.478,56.731a45.194,45.194,0,0,0,10.548,1.959,59,59,0,0,0,13.929-.525,59.786,59.786,0,0,0,17.481-5.605A170.209,170.209,0,0,1,1094.82,831.854Z" transform="translate(-45 -47.997)"/><path class="frame6-10" d="M1168.359,778.97a54.337,54.337,0,0,1-6.914-1.174l-.006-.006a52.125,52.125,0,0,1-4.46,3.6,55.34,55.34,0,0,1-28.307,10.454c-1.811,7.693-8.289,29.3-25.238,37.357l10.484,34.206a66.129,66.129,0,0,1-11.139,7.038c1.133,3.374,2.419,6.8,3.876,10.236,3.487,8.194,1.115,7.2,5.788,13.7l65.6-36.767,6.667-5.333v-43.15S1184.713,800.327,1168.359,778.97Z" transform="translate(-45 -47.997)"/><path class="frame6-11" d="M1171.144,756.623c0,3.421-6.065,9.439-12.094,9.439s-10.915-2.773-10.915-6.2,4.885-6.194,10.915-6.194S1171.144,753.2,1171.144,756.623Z" transform="translate(-45 -47.997)"/><path class="frame6-12" d="M1169.492,728.806a11.7,11.7,0,0,1-11.687,11.687.835.835,0,1,1,0-1.67,10.03,10.03,0,0,0,10.017-10.017.835.835,0,1,1,1.67,0Z" transform="translate(-45 -47.997)"/><path class="frame6-13" d="M1149.634,705.762c-.071.5-.165.979-.277,1.463a10.426,10.426,0,0,0-8.006-3.7,10.182,10.182,0,0,0-10.325,10.029,9.937,9.937,0,0,0,4.62,8.354,16.841,16.841,0,0,1-4.03.5c-9.74,0-17.7-8.348-18.259-18.879-.018-.389-.029-.785-.029-1.18,0-11.079,8.188-20.059,18.288-20.059s18.289,8.98,18.289,20.059A21.008,21.008,0,0,1,1149.634,705.762Z" transform="translate(-45 -47.997)"/><path class="frame6-13" d="M1187.067,700.281c-.136.708-.242,1.216-.266,1.322a7.044,7.044,0,0,0-6.808-2.7V681.048a15.253,15.253,0,0,1,6.059,6.844,17.762,17.762,0,0,1,1.611,7.964A31.6,31.6,0,0,1,1187.067,700.281Z" transform="translate(-45 -47.997)"/><path class="frame6-13" d="M1174.094,705.886a7.071,7.071,0,0,0,3.244,5.947,11.825,11.825,0,0,1-3.539.542c-7.157,0-13.044-6.46-13.788-14.755-.053-.578-.076-1.168-.076-1.764,0-8.536,5.433-15.557,12.406-16.43a11.868,11.868,0,0,1,1.458-.088,12.232,12.232,0,0,1,6.194,1.71v17.859A7.073,7.073,0,0,0,1174.094,705.886Z" transform="translate(-45 -47.997)"/><path class="frame6-12" d="M1179.993,698.907v11.728a12.062,12.062,0,0,1-2.655,1.2,7.076,7.076,0,0,1,2.655-12.926Z" transform="translate(-45 -47.997)"/><path class="frame6-12" d="M1179.993,698.907a7.044,7.044,0,0,1,6.808,2.7c0,.006-.006.017-.006.023a15.919,15.919,0,0,1-6.8,9.009Z" transform="translate(-45 -47.997)"/><path class="frame6-12" d="M1141.351,703.526a10.426,10.426,0,0,1,8.006,3.7c-1.664,7.31-6.992,13.026-13.711,14.684a9.937,9.937,0,0,1-4.62-8.354A10.182,10.182,0,0,1,1141.351,703.526Z" transform="translate(-45 -47.997)"/><path class="frame6-14" d="M1041.494,797.171a64.947,64.947,0,0,0,14.017-.431s-7,8.891-18.235,7.445Q1039.248,800.584,1041.494,797.171Z" transform="translate(-45 -47.997)"/><path class="frame6-14" d="M1018.344,765.472s-6.9,28.967,23.15,31.7q-2.239,3.415-4.218,7.014c-4.354-.554-9.34-2.666-14.8-7.445C1008.314,784.351,1018.344,765.472,1018.344,765.472Z" transform="translate(-45 -47.997)"/><path class="frame6-14" d="M1060.343,817.884a33.949,33.949,0,0,1-4.265-11.587,120.015,120.015,0,0,0,13.551,5.593,15.9,15.9,0,0,0-6.613,9.687A27.588,27.588,0,0,1,1060.343,817.884Z" transform="translate(-45 -47.997)"/><path class="frame6-14" d="M1094.407,824.952c.006.142.042,2.678.413,6.9a35.742,35.742,0,0,1-8.631.284c-11.427-.956-18.637-5.257-23.173-10.561a15.9,15.9,0,0,1,6.613-9.687,71.162,71.162,0,0,0,22,4.183A15.825,15.825,0,0,1,1094.407,824.952Z" transform="translate(-45 -47.997)"/><path class="frame6-14" d="M1103.434,829.2a31.5,31.5,0,0,1-8.614,2.654c-.371-4.224-.407-6.76-.413-6.9a15.825,15.825,0,0,0-2.778-8.879c24.684.313,33.976-17.245,36.689-24.206a3.507,3.507,0,0,0,.354-.024C1126.861,799.536,1120.383,821.147,1103.434,829.2Z" transform="translate(-45 -47.997)"/><path class="frame6-14" d="M1168.359,778.97a54.337,54.337,0,0,1-6.914-1.174l-.006-.006a55.562,55.562,0,0,0,18.371-37.02l.077.006c0,21.156,21.345,14.077,21.345,14.077S1197.651,781.967,1168.359,778.97Z" transform="translate(-45 -47.997)"/><path class="frame6-14" d="M1114.142,596.123c-20.549,8.525-103.309,49.463-74.949,146.122a118.747,118.747,0,0,0-8.46-16.3c-8.85-14.75-33.038-78.465,35.4-112.683C1085.676,603.486,1101.434,598.23,1114.142,596.123Z" transform="translate(-45 -47.997)"/><path class="frame6-12" d="M1167.014,633.91s.549-46.665-52.872-37.787c-20.549,8.525-103.309,49.463-74.949,146.122,3.552,8.844,5.192,18.372-1.38,23.227-13.57,10.029-19.469,0-19.469,0s-6.9,28.967,23.15,31.7a65.011,65.011,0,0,0,14.017-.431,37.513,37.513,0,0,0,.567,9.557,120.015,120.015,0,0,0,13.551,5.593,71.162,71.162,0,0,0,22,4.183,15.977,15.977,0,0,0-5.592-5.015,15.977,15.977,0,0,1,5.592,5.015c24.684.313,33.976-17.245,36.689-24.206a27.175,27.175,0,0,0,.933-2.767.105.105,0,0,0,.006-.03s-51.327,5.9-51.327-51.326,79.645-94.394,79.645-94.394,14.755,14.808,14.755,36.017l.011.059a11.868,11.868,0,0,1,1.458-.088,12.232,12.232,0,0,1,6.194,1.71,15.253,15.253,0,0,1,6.059,6.844l.047-.024C1186.1,649.8,1167.014,633.91,1167.014,633.91Z" transform="translate(-45 -47.997)"/><path class="frame6-15" d="M1101.894,913.322a120.832,120.832,0,0,1-16.59-37.232l-.006-.041a59,59,0,0,1-13.929.525c1.57,5.061,3.428,10.265,5.617,15.516a148.2,148.2,0,0,0,14.879,27.486c20.554,29.687,50.6,47.179,88.264,51.079.554.053,1.109.082,1.652.082a15.9,15.9,0,0,0,14.89-10.389C1145.911,962.112,1117.351,936.7,1101.894,913.322Z" transform="translate(-45 -47.997)"/><path class="frame6-15" d="M1179.993,710.635v6.1a17.627,17.627,0,0,1-7.079,1.245c-6.862,0-12.979-5.988-12.979-20.354l.076-.006c.744,8.295,6.631,14.755,13.788,14.755a11.825,11.825,0,0,0,3.539-.542A12.062,12.062,0,0,0,1179.993,710.635Z" transform="translate(-45 -47.997)"/><path class="frame6-15" d="M1149.357,707.225c.112-.484.206-.967.277-1.463-.165,12.932-5.233,23.168-16.248,24.413-12.236,1.38-20.058-4.23-20.058-26.649h.029c.561,10.531,8.519,18.879,18.259,18.879a16.841,16.841,0,0,0,4.03-.5C1142.365,720.251,1147.693,714.535,1149.357,707.225Z" transform="translate(-45 -47.997)"/><path class="frame6-16" d="M1183.4,939.045c-27.61-2.856-49.214-15.039-64.5-36.313a114.355,114.355,0,0,1-12.242-22.052c-1.457-3.434-2.743-6.862-3.876-10.236a59.786,59.786,0,0,1-17.481,5.605l.006.041a120.832,120.832,0,0,0,16.59,37.232c15.457,23.375,44.017,48.79,94.777,47.026a15.89,15.89,0,0,0-13.274-21.3Z" transform="translate(-45 -47.997)"/><path class="frame6-16" d="M1156.979,781.389a55.34,55.34,0,0,1-28.307,10.454c.372-1.569.549-2.554.579-2.743a.105.105,0,0,0,.006-.03s-51.327,5.9-51.327-51.326,79.645-94.394,79.645-94.394,14.755,14.808,14.755,36.017l.011.059c-6.973.873-12.406,7.894-12.406,16.43,0,.6.023,1.186.076,1.764l-.076.006c0,14.366,6.117,20.354,12.979,20.354a17.627,17.627,0,0,0,7.079-1.245v19.534c0,1.516-.059,3.02-.183,4.5a55.562,55.562,0,0,1-18.371,37.02A52.125,52.125,0,0,1,1156.979,781.389Zm12.513-52.583a.835.835,0,1,0-1.67,0,10.03,10.03,0,0,1-10.017,10.017.835.835,0,1,0,0,1.67A11.7,11.7,0,0,0,1169.492,728.806Zm-10.442,37.256c6.029,0,12.094-6.018,12.094-9.439s-6.065-2.95-12.094-2.95-10.915,2.773-10.915,6.194S1153.02,766.062,1159.05,766.062Zm-9.416-60.3a21.008,21.008,0,0,0,.271-3.416c0-11.079-8.188-20.059-18.289-20.059s-18.288,8.98-18.288,20.059c0,.395.011.791.029,1.18h-.029c0,22.419,7.822,28.029,20.058,26.649C1144.4,728.93,1149.469,718.694,1149.634,705.762Z" transform="translate(-45 -47.997)"/></g></g></g>
<g id="grandma"><g id="characterGrandma"><path class="frame6-6" d="M1872.269,152.8s-.022.155-.078.42c-.42,1.868-2.885,9.253-15.443,6.423-12.05-2.72-9.331-25.316-8.237-33.994a52.923,52.923,0,0,0,.354-6.91c-.088-21.1-9.4-67.59-68.143-70.453-21.513-1.05-37.123.818-48.388,4.378-40.538,12.79-24.752,47.514-24.752,47.514s-9.308,18.7,3.085,48.178a13.339,13.339,0,0,0-.177,3.405l.663,3.338.5,2.466c3.493,11.2,6.843,16.029,14.437,15.465a.569.569,0,0,1,.133-.022l2.443,6.611c2.089,17.445-16.7,14.129-16.7,14.129s5.317,25.216,31.861,17.046c.53.531,1.072,1.04,1.636,1.526a51.2,51.2,0,0,0-13.863,35.022V419.769h133.157V247.344a50.989,50.989,0,0,0-9.938-30.268c6.124-12.05-.343-24.741-1.106-26.168-.055-.088-.077-.132-.077-.132s.077.033.21.1c1.957.94,17.169,7.451,26.112-11.707C1886.884,164.321,1872.269,152.8,1872.269,152.8Zm-109.511,40.727a10.792,10.792,0,0,1-3.936,1.877,10.776,10.776,0,0,0,3.936-1.878Zm-12.769-11.973h0l.365,1.006c-.074.027-.151.045-.226.071.075-.026.152-.044.226-.071Zm13.881-45.263a15.627,15.627,0,0,1,16.762,12.461,15.627,15.627,0,0,0-16.762-12.461Zm-13.459,20.2a15.575,15.575,0,0,1-.543-2.313l-.1-.818.1.818A15.7,15.7,0,0,0,1750.411,156.5Zm-5.577,25.371a8.806,8.806,0,0,0,1.72.239A8.806,8.806,0,0,1,1744.834,181.868Zm.781,1.229c-.086-.011-.172-.027-.258-.04C1745.443,183.07,1745.529,183.086,1745.615,183.1Zm-7.587-6.626.5-.188h0Zm3.943,19.582c-.456,0-.872,0-1.241,0C1741.1,196.052,1741.515,196.054,1741.971,196.053Zm5.919-.163c-1.917.105-3.723.147-5.206.159C1744.167,196.037,1745.973,196,1747.89,195.89Zm18.947-28.485a15.575,15.575,0,0,0,10.551-5.628,15.58,15.58,0,0,1-10.551,5.629,16.051,16.051,0,0,1-2.581.037A16.052,16.052,0,0,0,1766.837,167.405Zm42.109,1.537a4.392,4.392,0,0,0-2.278,1.22,4.392,4.392,0,0,1,2.278-1.22,4.315,4.315,0,0,1,1.705-.011A4.315,4.315,0,0,0,1808.946,168.942Zm5.2,3.46a4.266,4.266,0,0,0-.413-1.173,4.521,4.521,0,0,0-1.547-1.684,4.521,4.521,0,0,1,1.547,1.684,4.266,4.266,0,0,1,.413,1.173,4.406,4.406,0,0,1-.256,2.573A4.406,4.406,0,0,0,1814.141,172.4ZM1738,149.74a12.557,12.557,0,0,1-.012,2.045Zm2.219,46.3c-.8-.011-1.272-.026-1.3-.028h0C1738.942,196.018,1739.416,196.033,1740.214,196.044Zm13.552-.692c.643-.088,1.276-.187,1.888-.3C1755.042,195.165,1754.409,195.264,1753.766,195.352Zm75.026,177.582,0,.126Zm-.281,28.841a10.765,10.765,0,0,0,1.232,1.305A10.765,10.765,0,0,1,1828.511,401.775Zm1.941,1.9a14.867,14.867,0,0,0,4.059,2.237A14.867,14.867,0,0,1,1830.452,403.676Z" transform="translate(-45 -47.997)"/><g id="_Group_4" data-name="&lt;Group&gt;"><path class="frame6-15" d="M1846.057,307.859h.509c1.437,34.315,2.156,73.45-.8,91.923a8.044,8.044,0,0,1-7.175,6.732c3.659-5.14-.553-85.809-1.26-98.655Z" transform="translate(-45 -47.997)"/><path class="frame6-16" d="M1837.335,307.859c.707,12.846,4.919,93.515,1.26,98.655-.243.022-.5.033-.752.033a8.5,8.5,0,0,1-1.282-.1l-.387-.066c-4.333-.874-9.784-4.887-9.1-9.132,2.764-17.3,2-55.651.553-89.391Z" transform="translate(-45 -47.997)"/><path class="frame6-10" d="M1853.42,246.9a12.758,12.758,0,0,0-12.713-12.713h-7.153a13.63,13.63,0,0,0-1.924.144l-.165-1.128c-17.08,2.443-31-12.05-36.626-19.037l-13.044,4.82a36.182,36.182,0,0,1-36.338-6.666,51.2,51.2,0,0,0-13.863,35.022V419.769h104.547V406.735l.033-.353c-4.333-.874-9.784-4.887-9.1-9.132,2.764-17.3,2-55.651.553-89.391h-11.21l4.422-60.957a12.74,12.74,0,0,1,6.169-10.889c.287.685.8,1.912,1.459,3.593,4.378,11.022,15.709,41.688,17.588,68.253h11.785Z" transform="translate(-45 -47.997)"/><path class="frame6-5" d="M1854.813,217.076c-2.288,4.532-6.368,8.965-13.2,12.68a29.876,29.876,0,0,1-10.148,3.449l.165,1.128a13.63,13.63,0,0,1,1.924-.144h7.153A12.758,12.758,0,0,1,1853.42,246.9l4.422,60.957h-11.276c1.437,34.315,2.156,73.45-.8,91.923a8.044,8.044,0,0,1-7.175,6.732c-.243.022-.5.033-.752.033a8.5,8.5,0,0,1-1.282-.1l-.387-.066-.033.353v13.034h28.61V247.344A50.989,50.989,0,0,0,1854.813,217.076Z" transform="translate(-45 -47.997)"/><path class="frame6-5" d="M1846.057,307.859c-1.879-26.565-13.21-57.231-17.588-68.253-.664-1.681-1.172-2.908-1.459-3.593a12.74,12.74,0,0,0-6.169,10.889l-4.422,60.957h29.638Z" transform="translate(-45 -47.997)"/><path class="frame6-12" d="M1872.313,153.244l-.122-.022c-.42,1.868-2.885,9.253-15.443,6.423-12.05-2.72-9.331-25.316-8.237-33.994a52.923,52.923,0,0,0,.354-6.91l-.906.011c-27.583-66.893-101.065-66.794-115.625-66.086-40.538,12.79-24.752,47.514-24.752,47.514s-9.308,18.7,3.085,48.178a13.673,13.673,0,0,1,3.758-7.274c.144-.155.3-.3.454-.454l-.2-.21c7.008-31.241,58.713-35.641,58.713-35.641s-3.648,35.785,29.373,44.474l1.514-2.8a5,5,0,0,1,5.992-2.443,5.573,5.573,0,0,1,3.67,3.659l1.228,4.279c9.076,20.816,4.974,34.878-2.134,43.987-8.358,10.746-20.872,14.626-20.872,14.626s.951,1.437,2.675,3.6c5.627,6.987,19.546,21.48,36.626,19.037a29.876,29.876,0,0,0,10.148-3.449c6.832-3.715,10.912-8.148,13.2-12.68,6.124-12.05-.343-24.741-1.106-26.168-.055-.088-.077-.132-.077-.132s.077.033.21.1C1881.4,184.1,1872.313,153.244,1872.313,153.244Z" transform="translate(-45 -47.997)"/><path class="frame6-17" d="M1813.025,170.247a4.341,4.341,0,0,1,1.116,2.155,4.423,4.423,0,1,1-1.116-2.155Z" transform="translate(-45 -47.997)"/><path class="frame6-16" d="M1815.17,151.951l-1.228-4.279a5.573,5.573,0,0,0-3.67-3.659,5,5,0,0,0-5.992,2.443l-1.514,2.8c-33.021-8.689-29.373-44.474-29.373-44.474s-51.7,4.4-58.713,35.641l.2.21A13.793,13.793,0,0,1,1738,149.74a12.557,12.557,0,0,1-.012,2.045l-.022,5.947c-.364,4.467-.851,7.827-2.487,10.3s-4.367,4.046-9.253,4.974l2.443,6.611,6.644,17.976a36.022,36.022,0,0,0,8.513,13.2c.53.531,1.072,1.04,1.636,1.526a36.182,36.182,0,0,0,36.338,6.666l13.044-4.82c-1.724-2.167-2.675-3.6-2.675-3.6s12.514-3.88,20.872-14.626C1820.144,186.829,1824.246,172.767,1815.17,151.951ZM1763.8,136.3a15.63,15.63,0,0,1,17.069,14.04l1.183,9.64a14.508,14.508,0,0,1,.077,1.536,15.624,15.624,0,0,1-31.175,1.493l-1.083-8.822-.1-.818A15.626,15.626,0,0,1,1763.8,136.3Zm-25.272,39.986a8.932,8.932,0,0,0,11.464,5.273l.365,1.006a9.953,9.953,0,0,1-7.639-.3q-.232-.115-.464-.232a9.927,9.927,0,0,1-4.721-5.372Zm.354,20.805.033-1.072c.188.011,18.617.6,23.149-3.295l.7.808C1757.916,197.7,1739.653,197.11,1738.879,197.088Zm71.791-19.49a4.413,4.413,0,1,1,2.355-7.351,4.341,4.341,0,0,1,1.116,2.155A4.411,4.411,0,0,1,1810.67,177.6Z" transform="translate(-45 -47.997)"/><path class="frame6-13" d="M1780.866,150.337a15.628,15.628,0,0,1-19.092,16.737,5.127,5.127,0,1,0-7.009-4.864,4.971,4.971,0,0,0,.144,1.293,15.573,15.573,0,0,1-5.041-9.319l-.1-.818a15.623,15.623,0,1,1,31.1-3.029Z" transform="translate(-45 -47.997)"/><path class="frame6-12" d="M1759.983,157.18a5.125,5.125,0,0,1,1.791,9.894,15.52,15.52,0,0,1-6.865-3.571,4.971,4.971,0,0,1-.144-1.293A5.117,5.117,0,0,1,1759.983,157.18Z" transform="translate(-45 -47.997)"/><path class="frame6-12" d="M1762.061,192.721l.7.807c-4.842,4.168-23.105,3.582-23.879,3.56l.033-1.072C1739.1,196.027,1757.529,196.613,1762.061,192.721Z" transform="translate(-45 -47.997)"/><path class="frame6-15" d="M1782.049,159.977l-1.183-9.64a15.623,15.623,0,0,1-31,3.847l1.083,8.822a15.624,15.624,0,0,0,31.175-1.493A14.508,14.508,0,0,0,1782.049,159.977Z" transform="translate(-45 -47.997)"/><path class="frame6-12" d="M1749.989,181.556l.365,1.006a9.953,9.953,0,0,1-7.639-.3l-.464-.232a9.927,9.927,0,0,1-4.721-5.372l1-.376a8.932,8.932,0,0,0,11.464,5.273Z" transform="translate(-45 -47.997)"/><path class="frame6-14" d="M1872.269,152.8s-.022.155-.078.42l.122.022s9.087,30.855-18.473,37.631c1.957.94,17.168,7.451,26.112-11.707C1886.883,164.321,1872.269,152.8,1872.269,152.8Z" transform="translate(-45 -47.997)"/><path class="frame6-14" d="M1780.722,48.288c-21.513-1.05-37.122.818-48.388,4.378,14.56-.708,88.042-.807,115.625,66.086l.906-.011C1848.777,97.637,1839.469,51.151,1780.722,48.288Z" transform="translate(-45 -47.997)"/><path class="frame6-14" d="M1728.664,179.621c2.089,17.445-16.7,14.129-16.7,14.129s5.317,25.216,31.861,17.046a36.022,36.022,0,0,1-8.513-13.2Z" transform="translate(-45 -47.997)"/><path class="frame6-15" d="M1725.248,164.509a.837.837,0,0,1-.166,0,11.155,11.155,0,0,1-2.012-.022,13.8,13.8,0,0,1-11.917-9.386l.5,2.466c3.493,11.2,6.843,16.029,14.437,15.465a.569.569,0,0,1,.133-.022c4.886-.928,7.628-2.509,9.253-4.974s2.123-5.837,2.487-10.3l.022-5.947A13.8,13.8,0,0,1,1725.248,164.509Z" transform="translate(-45 -47.997)"/><path class="frame6-12" d="M1721.556,155.765a4.911,4.911,0,0,0-1.625.232,5.126,5.126,0,0,0-3.6,4.8,4.574,4.574,0,0,0,.166,1.359,13.654,13.654,0,0,0,6.577,2.333,11.155,11.155,0,0,0,2.012.022,5.119,5.119,0,0,0-3.526-8.744Z" transform="translate(-45 -47.997)"/><path class="frame6-13" d="M1723.236,137a13.733,13.733,0,0,0-8.357,3.626c-.155.155-.31.3-.454.454a13.673,13.673,0,0,0-3.758,7.274,13.339,13.339,0,0,0-.177,3.405l.663,3.338a13.719,13.719,0,0,0,5.34,7.053,4.574,4.574,0,0,1-.166-1.359,5.126,5.126,0,0,1,3.6-4.8,4.911,4.911,0,0,1,1.625-.232,5.119,5.119,0,0,1,3.526,8.744.837.837,0,0,0,.166,0,13.8,13.8,0,0,0,12.735-12.724l.012-2.045A13.775,13.775,0,0,0,1723.236,137Z" transform="translate(-45 -47.997)"/></g></g><path class="frame6-18" d="M1871.782,419.327a10.71,10.71,0,0,0-.3-2.664,11.4,11.4,0,0,0-5.395-7.308l-6.534-3.78h0l-111.047-64.23c-1.251,3.448-2.311,6.131-2.931,7.659-.124.305-.23.565-.317.775.087-.21.193-.47.317-.775.62-1.528,1.68-4.211,2.931-7.659,1.415-3.925,3.084-8.844,4.621-14.184,6.931,6.346,17.036,7.684,24.619,2.643a18.455,18.455,0,0,0,6.91-8.557,20.248,20.248,0,0,0,1.47-7.639,22.476,22.476,0,0,0-3.681-12.293,1.967,1.967,0,0,0-.155-.255c-5.749-8.633-16.2-12.083-24.8-8.722-.2-1.26-.476-2.742-.841-4.389-.077-.353-.154-.707-.243-1.072-4.72-19.91-22.22-60.991-76.887-54.214-48.244,5.981-62.561,21.955-65.148,35.951-2.421,13.012,5.3,24.321,5.3,24.321v.011h-.011c-.464.564-18.44,22.707,11.375,45.624h0a14.65,14.65,0,0,0,2.488,5.926,31.8,31.8,0,0,0,3.217,3.548v.011a14.125,14.125,0,0,0,5,2.631h0l2.951,4.445-9.629,2.354a2.161,2.161,0,0,0-1.061,3.582l4.621,4.864a2.147,2.147,0,0,0,2.078.619l9.961-2.443,5.108,7.672a47.872,47.872,0,0,0,19.158,16.7v28.488c-1.736,10.414-4.522,26.068-8.048,42.031-5.959,27.03-11.077,41.5-14.681,49.195l-69.116,40.727a4.858,4.858,0,0,0-2.41,4.146l-17.114,9.518a34.414,34.414,0,0,0-14.1,15.51,35.729,35.729,0,0,0-4.864,18.031V745.582a17.049,17.049,0,0,0,15.732,16.948l-12.426,11.1a13.288,13.288,0,0,0-1.061,18.727l4.963,5.572a14.241,14.241,0,0,0,1.625,1.537,13.325,13.325,0,0,0,17.113-.476l4.82-4.3a12.517,12.517,0,0,0,1.659,2.343l7.639,8.557c.121.133.243.265.364.387a13.322,13.322,0,0,0,18.374.674l29.815-26.631a13.3,13.3,0,0,0,1.736-17.9,17.076,17.076,0,0,0,13.056-16.539l.1-2.819L1650,686.306l1.16-34.514-.674-.376.708-.453-.034.829h0L1650,686.306l34.845,20.186,3.626,2.1a15.355,15.355,0,0,0,15.367-.077l5.085-3.04V670.11l137.027-81.044a15.1,15.1,0,0,0,6.7-8.033,15.1,15.1,0,0,1-6.7,8.033L1708.92,670.11v35.365l144.5-86.539V577.745a15.22,15.22,0,0,0-.221-5.151l17.434-10.215ZM1674.926,503.2c-.2-.7-.351-1.262-.462-1.7.111.434.261,1,.462,1.7Zm5.063,17.578h0l1.006-.564h0Zm-.243,38.261h0c.343.067.7.133,1.05.188C1680.442,559.173,1680.089,559.107,1679.746,559.04Zm107.344,5.528.339.191-.339-.191a16.7,16.7,0,0,1-3.593,2.808A16.7,16.7,0,0,0,1787.09,564.568ZM1743.92,348.5h0q.274.485.476.846Q1744.193,348.983,1743.92,348.5Zm-77.208,3.913,1.669,1.769h0Zm-1.968-12.746a18.559,18.559,0,0,1-1.369-1.453,16.968,16.968,0,0,1-1.229-1.643,18.206,18.206,0,0,1-1.593-2.945,17.707,17.707,0,0,1-.875-2.653,17.707,17.707,0,0,0,.875,2.653,18.206,18.206,0,0,0,1.593,2.945,16.968,16.968,0,0,0,1.229,1.643,18.559,18.559,0,0,0,1.369,1.453,17.53,17.53,0,0,0,2.7,2.1,16.8,16.8,0,0,0,2.964,1.492,16.8,16.8,0,0,1-2.964-1.492A17.53,17.53,0,0,1,1664.744,339.665Zm8.911,4.467c-.395-.063-.787-.136-1.178-.229C1672.868,344,1673.261,344.069,1673.655,344.132Zm16.569-13.6a16.021,16.021,0,0,1-.46,3A16.021,16.021,0,0,0,1690.224,330.532Zm-2.961-10.667a17.766,17.766,0,0,0-5.886-5.558,17.766,17.766,0,0,1,5.886,5.558,17.979,17.979,0,0,1,2.161,4.471A18.014,18.014,0,0,0,1687.263,319.865Zm.773,17.79a13.951,13.951,0,0,1-2.931,3.407A13.951,13.951,0,0,0,1688.036,337.655Zm-10.6-24.983a16.42,16.42,0,0,1,2.552.918A16.42,16.42,0,0,0,1677.44,312.672Zm-9.184.363a13.9,13.9,0,0,0-6.887,5.736,14.641,14.641,0,0,0-1.289,2.689,14.641,14.641,0,0,1,1.289-2.689,13.909,13.909,0,0,1,6.887-5.736,14.663,14.663,0,0,1,8.6-.514A14.663,14.663,0,0,0,1668.256,313.035Zm6.245,52.574a.753.753,0,0,1-.172.7A.754.754,0,0,0,1674.5,365.609Zm-.32-.447a.762.762,0,0,0-.56-.118A.762.762,0,0,1,1674.181,365.162Zm-26.845-38.24a14.7,14.7,0,0,1,1.641,1.078A14.7,14.7,0,0,0,1647.336,326.922Zm3.5,2.744.013.013Zm-4.626-3.322a13.384,13.384,0,0,0-1.769-.676A13.384,13.384,0,0,1,1646.208,326.344Zm-4.1-1.125a10.94,10.94,0,0,0-2.311.029A10.94,10.94,0,0,1,1642.109,325.219Zm7.843,24.685a9.8,9.8,0,0,1-1.347.621A9.8,9.8,0,0,0,1649.952,349.9Zm8.048,6.752h0l-.84-.879Zm11.544,9.842a8.124,8.124,0,0,1-1.575-.011A8.2,8.2,0,0,0,1669.544,366.5Zm5.382,134.194-.586.321h0l.586-.32Zm0,22.961h0l-.63.354.63.376h0l-.63-.376Zm44.286,45.525c-.464.265-.917.519-1.393.751h0C1718.3,569.7,1718.748,569.443,1719.212,569.178Zm57.406-187.213a79.811,79.811,0,0,0-7.032-8.13A79.811,79.811,0,0,1,1776.618,381.965ZM1630.96,334.314h0c.011-.1.033-.2.055-.31a11.976,11.976,0,0,1,.566-2.133,11.976,11.976,0,0,0-.566,2.133c.21.509.443,1.018.675,1.526C1631.435,335.121,1631.192,334.723,1630.96,334.314Zm4.544-7.5a9.914,9.914,0,0,0-1.285,1.04,9.914,9.914,0,0,1,1.285-1.04,9.705,9.705,0,0,1,3.167-1.371A9.705,9.705,0,0,0,1635.5,326.819Zm9.356,24.34-.036,0Zm15.771,12a.756.756,0,0,0,.026.374A.756.756,0,0,1,1660.631,363.161Zm6.383,4.723a9.748,9.748,0,0,1-1.026-.245A9.748,9.748,0,0,0,1667.014,367.884Zm1.685.17c.017,0,.033,0,.049,0C1668.732,368.057,1668.716,368.054,1668.7,368.054Z" transform="translate(-45 -47.997)"/><g id="_Group_5" data-name="&lt;Group&gt;"><path class="frame6-16" d="M1736.8,337.631l-4.986,2.2A11.413,11.413,0,0,1,1736.8,337.631Z" transform="translate(-45 -47.997)"/><path class="frame6-2" d="M1645.785,516.888l-3.162,1.757A7.677,7.677,0,0,1,1645.785,516.888Z" transform="translate(-45 -47.997)"/><path class="frame6-2" d="M1645.785,516.888l1.857-1.029a7.623,7.623,0,0,1-.829.8A6.317,6.317,0,0,0,1645.785,516.888Z" transform="translate(-45 -47.997)"/><polygon class="frame6-2" points="1629.926 475.656 1629.926 476.386 1629.296 476.01 1629.926 475.656"/><path class="frame6-19" d="M1674.926,500.692V503.2c-.288-1-.476-1.746-.586-2.188Z" transform="translate(-45 -47.997)"/><path class="frame6-19" d="M1681.669,521.763l-1.68-.984,1.006-.564C1681.205,520.724,1681.437,521.243,1681.669,521.763Z" transform="translate(-45 -47.997)"/><path class="frame6-2" d="M1680.8,559.228l-.652.376q-.216-.282-.4-.564C1680.088,559.107,1680.442,559.173,1680.8,559.228Z" transform="translate(-45 -47.997)"/><path class="frame6-18" d="M1720.384,569.929h-2.565c.476-.232.929-.486,1.393-.751C1719.6,569.432,1719.986,569.675,1720.384,569.929Z" transform="translate(-45 -47.997)"/><path class="frame6-19" d="M1787.09,564.568l.531.3a25.243,25.243,0,0,1-4.124,2.51A16.7,16.7,0,0,0,1787.09,564.568Z" transform="translate(-45 -47.997)"/><path class="frame6-9" d="M1803.031,405.077l-18.838-10.889a79.622,79.622,0,0,0-41.4-38.173,48.013,48.013,0,0,0,1.128-7.517c.73,1.293,1.072,1.923,1.072,1.923s1.515-3.56,3.516-9.076l111.047,64.23-27.538,16.284Z" transform="translate(-45 -47.997)"/><path class="frame6-2" d="M1853.42,577.745v41.191l-144.5,86.539V670.11l137.027-81.044A15.13,15.13,0,0,0,1853.42,577.745Z" transform="translate(-45 -47.997)"/><path class="frame6-2" d="M1871.484,416.663l-1.073.265L1840.6,434.55l-1.05,124.413-.133,15.709a11.216,11.216,0,0,1-3.316,7.949l17.1-10.027,17.434-10.215,1.149-143.052A10.71,10.71,0,0,0,1871.484,416.663Z" transform="translate(-45 -47.997)"/><path class="frame6-3" d="M1866.089,409.355l-6.534-3.78-27.538,16.284-28.986-16.782c.509,10.226,4.312,88.949,4.135,135.612-.056,16.417-.608,28.876-1.979,32.977l-.951.575,18.175,10.259a11.372,11.372,0,0,0,13.686-1.879,11.216,11.216,0,0,0,3.316-7.949l.133-15.709,1.05-124.413,29.815-17.622,1.073-.265A11.4,11.4,0,0,0,1866.089,409.355Z" transform="translate(-45 -47.997)"/><path class="frame6-19" d="M1797.736,535.371l-.4-8.1c-.409.575-1.935,2.421-6.069,4.455a49.011,49.011,0,0,1-9.375,3.372c-7.429,1.957-18.274,3.549-34.038,3.748-.509.906-1.04,1.8-1.581,2.686-6.434,10.58-14.35,19.556-24.012,25.814-1.006.652-2.023,1.26-3.051,1.835.387.254.774.5,1.172.751a74.194,74.194,0,0,0,41.036,11.4l22.033-13.929a.083.083,0,0,1,.044-.022,16.7,16.7,0,0,0,3.593-2.808l.531.3a25.843,25.843,0,0,0,10.546-20.794Z" transform="translate(-45 -47.997)"/><path class="frame6-20" d="M1792.507,429.332a78.179,78.179,0,0,0-8.314-35.144,79.624,79.624,0,0,0-41.4-38.173,48.169,48.169,0,0,1-4.378,11.685,49.453,49.453,0,0,1-2.554,4.278,45.306,45.306,0,0,1-2.719,3.649l.187.154c12.094,3.018,21.989,3.859,29.893,8.093,12.326,6.611,19.8,21.513,23.171,65.976l.023.287c4.256-.353,6.8-.619,6.8-.619l.288-.011Z" transform="translate(-45 -47.997)"/><path class="frame6-20" d="M1775.5,408.438a16.994,16.994,0,0,0-17-17,17.181,17.181,0,0,0-5.086.774c.255.52.719,1.526,1.327,2.974a123.433,123.433,0,0,1,8.015,29.716,120.243,120.243,0,0,1,.807,26.808,108.752,108.752,0,0,1-4.665,23.658,25.194,25.194,0,0,0,9.717-.42,20.717,20.717,0,0,0,9.717-5.594l-.862-18.506Z" transform="translate(-45 -47.997)"/><path class="frame6-1" d="M1782.447,301.315a1.89,1.89,0,0,0-.155-.254c-5.749-8.634-16.2-12.084-24.8-8.723-.2-1.26-.476-2.742-.841-4.389-.077-.353-.154-.707-.243-1.072-63.743-85.566-141.869-18.23-141.869-18.23l-.166-.033c-2.421,13.012,5.3,24.321,5.3,24.321v.011l7.55,1.526a48.281,48.281,0,0,0,3.737,39.842c.011-.1.033-.2.055-.31-10.557-24.4-.906-38.383-.553-38.891,0-.011.012-.011.012-.011s52.522-39.643,97.814,28.444c3.659,5.5,6.611,10.116,8.977,13.886a.448.448,0,0,1,.066.121c3.328,5.307,5.439,8.922,6.589,10.945.73,1.293,1.072,1.923,1.072,1.923s1.515-3.56,3.516-9.076L1744.451,339q-.432-.25-.871-.459.44.209.871.459l4.057,2.344c1.415-3.925,3.084-8.844,4.621-14.184,2.808-9.75,5.2-20.894,4.864-29.892l.221-.011c.155,4.908,2.156,42.948,25.968,23.8l.476.188a20.248,20.248,0,0,0,1.47-7.639A22.476,22.476,0,0,0,1782.447,301.315Z" transform="translate(-45 -47.997)"/><path class="frame6-16" d="M1758.9,475.365a40.163,40.163,0,0,1-10.912-3.306q-1.143,10.63-2.929,20.054-1.178,6.3-2.642,12.039a123.719,123.719,0,0,1-10.9,29.053c-1,1.835-2.045,3.582-3.128,5.229a51.738,51.738,0,0,1-14.869,15.432,38.015,38.015,0,0,1-8.081,3.958c-7.23,2.554-15.466,3.018-24.642,1.4l-.652.376-18.86,10.922q15.985,5.756,29.87,5.76a56.5,56.5,0,0,0,26.665-6.357c.476-.232.929-.486,1.393-.751,1.028-.575,2.045-1.183,3.051-1.835,9.662-6.258,17.578-15.234,24.012-25.814.541-.884,1.072-1.78,1.581-2.686a147,147,0,0,0,11.254-25.272c.42-1.216.829-2.421,1.216-3.648a243.423,243.423,0,0,0,8.291-34.978A25.194,25.194,0,0,1,1758.9,475.365Z" transform="translate(-45 -47.997)"/><path class="frame6-9" d="M1853.2,572.594l-17.1,10.027a11.372,11.372,0,0,1-13.686,1.879l-18.175-10.259-140.52,84.748,21.126,12.105v35.4l3.626,2.1a15.355,15.355,0,0,0,15.367-.077l5.085-3.04V670.11l137.027-81.044a15.352,15.352,0,0,0,7.252-16.472Z" transform="translate(-45 -47.997)"/><path class="frame6-21" d="M1786.393,449.85c-3.371-44.463-10.845-59.365-23.171-65.976-7.9-4.234-17.8-5.075-29.893-8.093l-.187-.154a48.06,48.06,0,0,1-36.969,17.654,46.385,46.385,0,0,1-6.566-.42c.464,1.084,1.957,4.5,4.256,9.176.707,1.415,1.47,2.941,2.31,4.555,9.165,17.688,26.455,45.756,43.922,45.756.807,0,1.614,0,2.432-.011l.4,17.014a38.021,38.021,0,0,0,5.063,2.708,40.163,40.163,0,0,0,10.912,3.306,108.752,108.752,0,0,0,4.665-23.658,120.243,120.243,0,0,0-.807-26.808,123.433,123.433,0,0,0-8.015-29.716c-.608-1.448-1.072-2.454-1.327-2.974a17.181,17.181,0,0,1,5.086-.774,16.994,16.994,0,0,1,17,17l1.968,42.407c3.449-.254,6.478-.5,8.944-.708Z" transform="translate(-45 -47.997)"/><path class="frame6-18" d="M1793.5,449.507l-.288.011s-2.542.266-6.8.619c-2.466.21-5.495.454-8.944.708l.862,18.506a20.717,20.717,0,0,1-9.717,5.594,243.423,243.423,0,0,1-8.291,34.978c-.387,1.227-.8,2.432-1.216,3.648a147,147,0,0,1-11.254,25.272c15.764-.2,26.609-1.791,34.038-3.748a49.011,49.011,0,0,0,9.375-3.372c4.134-2.034,5.66-3.88,6.069-4.455Z" transform="translate(-45 -47.997)"/><path class="frame6-18" d="M1742.925,469.351l-.4-17.014c-.818.011-1.625.011-2.432.011-17.467,0-34.757-28.068-43.922-45.756-.84-1.614-1.6-3.14-2.31-4.555-2.3-4.676-3.792-8.092-4.256-9.176a47.96,47.96,0,0,1-14.681-4.377v81.961c.453,4.655,1.138,9.6,2.133,14.6a113.783,113.783,0,0,0,3.262,12.647,77.76,77.76,0,0,0,8.379,18.141c7.993,12.393,20.264,21.6,38.991,22.564l.7.033c1.083-1.647,2.133-3.394,3.128-5.229a123.719,123.719,0,0,0,10.9-29.053q1.458-5.738,2.642-12.039,1.774-9.418,2.929-20.054A38.021,38.021,0,0,1,1742.925,469.351Z" transform="translate(-45 -47.997)"/><path class="frame6-13" d="M1687.263,319.865c5.063,7.606,3.538,17.511-3.394,22.121a14.059,14.059,0,0,1-3,1.5,8.2,8.2,0,0,0-.641-7.849,8.4,8.4,0,0,0-11.674-2.167,8.6,8.6,0,0,0-3.814,6.191,17.774,17.774,0,0,1-2.6-3.1c-5.063-7.606-3.548-17.522,3.394-22.132S1682.2,312.259,1687.263,319.865Z" transform="translate(-45 -47.997)"/><path class="frame6-2" d="M1803.031,405.077l-18.838-10.889a78.179,78.179,0,0,1,8.314,35.144l.995,20.175,3.836,77.761.4,8.1.431,8.7a25.843,25.843,0,0,1-10.546,20.794,25.243,25.243,0,0,1-4.124,2.51.083.083,0,0,0-.044.022l-22.033,13.929-110.229,69.636-.034.829h0L1650,686.306l34.845,20.186v-35.4l-21.126-12.105,140.52-84.748.951-.575c1.371-4.1,1.923-16.56,1.979-32.977C1807.343,494.026,1803.54,415.3,1803.031,405.077Z" transform="translate(-45 -47.997)"/><path class="frame6-12" d="M1680.232,335.641a8.2,8.2,0,0,1,.641,7.849,15.845,15.845,0,0,1-16.129-3.825,8.6,8.6,0,0,1,3.814-6.191A8.4,8.4,0,0,1,1680.232,335.641Z" transform="translate(-45 -47.997)"/><path class="frame6-16" d="M1737.265,337.432c-2.366-3.77-5.318-8.391-8.977-13.886C1683,255.459,1630.474,295.1,1630.474,295.1s-.012,0-.012.011c-.353.508-10,14.493.553,38.891a10.619,10.619,0,0,1,4.489-7.185c5.251-3.494,12.89-1.25,17.057,5.019s3.284,14.172-1.967,17.677a9.7,9.7,0,0,1-2.687,1.238,11.05,11.05,0,0,1-6.168-.067l2.951,4.445,8.4-2.057a2.17,2.17,0,0,1,2.079.608l1.149,1.216,10.392-2.487-.1-.088a1.627,1.627,0,0,1,.8-2.687l18.208-4.4a1.639,1.639,0,0,1,1.548.454l5.472,5.77a1.236,1.236,0,0,1,.144.177,1.619,1.619,0,0,1-.929,2.51l-6.9,1.669-11.31,2.731a1.612,1.612,0,0,1-1.547-.454l-3.715-3.913L1658,356.656l1.79,1.891a2.159,2.159,0,0,1-1.05,3.581l-8.081,1.979,5.108,7.672a48.1,48.1,0,0,0,33.839,21.082,46.385,46.385,0,0,0,6.566.42,48.231,48.231,0,0,0,36.969-17.654,45.306,45.306,0,0,0,2.719-3.649,49.453,49.453,0,0,0,2.554-4.278,47.988,47.988,0,0,0,5.505-19.2c-1.15-2.023-3.261-5.638-6.589-10.945Zm-53.4,4.554a14.059,14.059,0,0,1-3,1.5,15.845,15.845,0,0,1-16.129-3.825,17.774,17.774,0,0,1-2.6-3.1c-5.063-7.606-3.548-17.522,3.394-22.132s16.66-2.178,21.723,5.428S1690.8,337.376,1683.869,341.986Zm-23.149,21.745a.8.8,0,0,1-.044-.784.67.67,0,0,1,.254-.277.766.766,0,0,1,1.061.21,8.189,8.189,0,0,0,11.354,2.278.763.763,0,0,1,.984,1.149.769.769,0,0,1-.144.122A9.716,9.716,0,0,1,1660.72,363.731Zm17.577,19.512a16.238,16.238,0,0,1-3.371.233c-3.217-.089-5.66-1.172-5.948-2.864-.32-1.923,2.233-4.024,5.97-5.074a17.321,17.321,0,0,1,1.99-.453c4.765-.8,8.943.376,9.319,2.631S1683.073,382.448,1678.3,383.243Z" transform="translate(-45 -47.997)"/><path class="frame6-22" d="M1686.257,377.716c-.376-2.255-4.554-3.427-9.319-2.631a17.321,17.321,0,0,0-1.99.453c-3.737,1.05-6.29,3.151-5.97,5.074.288,1.692,2.731,2.775,5.948,2.864a16.238,16.238,0,0,0,3.371-.233C1683.073,382.448,1686.633,379.971,1686.257,377.716Z" transform="translate(-45 -47.997)"/><path class="frame6-19" d="M1727.691,538.4c-18.727-.962-31-10.171-38.991-22.564a77.76,77.76,0,0,1-8.379-18.141,113.783,113.783,0,0,1-3.262-12.647c-.995-5.008-1.68-9.949-2.133-14.6V492.6q-1.593,5.371-3.151,9.839c-1.459,4.234-2.9,7.882-4.3,11.021l7.451,4.356,5.063,2.963,1.006-.564c.21.509.442,1.028.674,1.548l24.509,14.349a4.88,4.88,0,0,1-.022,8.435l-8.214,4.754a101.351,101.351,0,0,0,7.5,8.523,38.015,38.015,0,0,0,8.081-3.958,51.738,51.738,0,0,0,14.869-15.432Zm-53.351-37.389.586-.32V503.2C1674.638,502.206,1674.45,501.455,1674.34,501.012Z" transform="translate(-45 -47.997)"/><path class="frame6-22" d="M1674.4,365.379a.749.749,0,0,1-.066.928.769.769,0,0,1-.144.122,9.716,9.716,0,0,1-13.465-2.7.8.8,0,0,1-.044-.784.677.677,0,0,1,.254-.277.766.766,0,0,1,1.061.21,8.189,8.189,0,0,0,11.354,2.278A.755.755,0,0,1,1674.4,365.379Z" transform="translate(-45 -47.997)"/><path class="frame6-16" d="M1666.878,459c-5.959,27.03-11.077,41.5-14.681,49.195l.663-.387a4.878,4.878,0,0,1,4.953-.011l2.1,1.227h0l7.562,4.433c1.4-3.139,2.841-6.787,4.3-11.021h0q1.559-4.478,3.151-9.839V416.972C1673.19,427.386,1670.4,443.04,1666.878,459Z" transform="translate(-45 -47.997)"/><polygon class="frame6-23" points="1621.712 304.414 1623.381 306.183 1613.001 308.659 1611.32 306.902 1621.712 304.414"/><path class="frame6-24" d="M1692.78,351.637a1.236,1.236,0,0,0-.144-.177l-5.472-5.77a1.639,1.639,0,0,0-1.548-.454l-18.208,4.4a1.627,1.627,0,0,0-.8,2.687l.1.088,1.669,1.769,3.715,3.913a1.612,1.612,0,0,0,1.547.454l11.31-2.731,6.9-1.669A1.619,1.619,0,0,0,1692.78,351.637Z" transform="translate(-45 -47.997)"/><path class="frame6-24" d="M1658,356.656l-1.681-1.758-1.149-1.216a2.17,2.17,0,0,0-2.079-.608l-8.4,2.057-9.629,2.354a2.161,2.161,0,0,0-1.061,3.582l4.621,4.864a2.147,2.147,0,0,0,2.078.619l9.961-2.443,8.081-1.979a2.159,2.159,0,0,0,1.05-3.581Z" transform="translate(-45 -47.997)"/><path class="frame6-13" d="M1652.561,331.838c4.168,6.268,3.284,14.172-1.967,17.677a9.714,9.714,0,0,1-2.687,1.238,5.831,5.831,0,0,0-8.578-7.186,5.981,5.981,0,0,0-1.438,1.349,5.819,5.819,0,0,0-1.149,3.128,31.8,31.8,0,0,1-3.217-3.548,14.65,14.65,0,0,1-2.488-5.926,13.142,13.142,0,0,1-.077-4.256c.232.409.475.807.73,1.216-.233-.508-.465-1.017-.675-1.526a10.619,10.619,0,0,1,4.489-7.185C1640.755,323.325,1648.394,325.57,1652.561,331.838Z" transform="translate(-45 -47.997)"/><path class="frame6-12" d="M1647.421,345.192a5.826,5.826,0,0,1,.486,5.561,11.05,11.05,0,0,1-6.168-.067,14.125,14.125,0,0,1-5-2.631v-.011a5.819,5.819,0,0,1,1.149-3.128,5.981,5.981,0,0,1,1.438-1.349A5.828,5.828,0,0,1,1647.421,345.192Z" transform="translate(-45 -47.997)"/><path class="frame6-25" d="M1784.182,321.059c-23.812,19.147-25.813-18.893-25.968-23.8l-.221.011c.332,9-2.056,20.142-4.864,29.892,6.931,6.346,17.036,7.684,24.619,2.643a18.461,18.461,0,0,0,6.91-8.557Z" transform="translate(-45 -47.997)"/><path class="frame6-25" d="M1679.525,232.663c-48.244,5.981-62.561,21.955-65.148,35.951l.166.033s78.126-67.336,141.869,18.23C1751.692,266.967,1734.192,225.886,1679.525,232.663Z" transform="translate(-45 -47.997)"/><path class="frame6-25" d="M1630.96,334.314a48.281,48.281,0,0,1-3.737-39.842l-7.55-1.526h-.011c-.465.564-18.44,22.707,11.375,45.624A13.142,13.142,0,0,1,1630.96,334.314Z" transform="translate(-45 -47.997)"/><polygon class="frame6-8" points="1641.091 482.931 1629.926 476.386 1629.296 476.01 1619.987 470.56 1610.347 464.922 1595.556 473.633 1542.094 505.14 1553.547 512.016 1559.494 515.587 1587.718 532.523 1606.876 521.435 1609.551 519.887 1627.737 509.352 1632.247 506.743 1649.548 496.727 1657.154 492.327 1641.091 482.931"/><path class="frame6-2" d="M1706.178,536.112l-24.509-14.349-1.68-.984-5.063-2.963-7.451-4.356-7.562-4.433-2.1-1.227a4.878,4.878,0,0,0-4.953.011l-.663.387-69.116,40.727a4.883,4.883,0,0,0-.033,8.4l4.477,2.686,11.3,6.777,31.374,18.826a4.871,4.871,0,0,0,4.964.034l18.4-10.646,7.716-4.478h.011l18.86-10.922q-.216-.282-.4-.564c.343.067.7.133,1.05.188l17.146-9.927,8.214-4.754A4.88,4.88,0,0,0,1706.178,536.112Zm-11.63,8.612-17.3,10.016-4.51,2.609-18.186,10.535-2.675,1.548-19.158,11.088-28.224-16.936-5.947-3.571-11.453-6.876,53.462-31.507,14.791-8.711,9.64,5.638,9.309,5.45.63-.354v.73l11.165,6.544,16.063,9.4Z" transform="translate(-45 -47.997)"/><path class="frame6-19" d="M1595.683,762.585h35.332a18.263,18.263,0,0,0,3.936-.464,17.076,17.076,0,0,0,13.056-16.539l.1-2.819c-65.943.586-96.83-104.06-103.508-130.161v132.98a17.049,17.049,0,0,0,15.732,16.948,12.149,12.149,0,0,0,1.271.055h34.082" transform="translate(-45 -47.997)"/><path class="frame6-5" d="M1634.951,762.121a14.7,14.7,0,0,1-1.714.309c-1.99,2.311-10.646,10.978-48.045,43.391l-.166.155a13.322,13.322,0,0,0,18.374.674l29.815-26.631A13.3,13.3,0,0,0,1634.951,762.121Z" transform="translate(-45 -47.997)"/><path class="frame6-5" d="M1591.858,762.585c-5.383,5.229-16.615,16.074-38.427,36.88a13.325,13.325,0,0,0,17.113-.476l4.82-4.3a13.32,13.32,0,0,1,2.72-16.395l17.6-15.709Z" transform="translate(-45 -47.997)"/><path class="frame6-7" d="M1631.015,762.585h-35.332l-17.6,15.709a13.32,13.32,0,0,0-2.72,16.395,12.517,12.517,0,0,0,1.659,2.343l7.639,8.557c.121.133.243.265.364.387l.166-.155c37.4-32.413,46.055-41.08,48.045-43.391A14.743,14.743,0,0,1,1631.015,762.585Z" transform="translate(-45 -47.997)"/><path class="frame6-7" d="M1561.6,762.585a12.149,12.149,0,0,1-1.271-.055l-12.426,11.1a13.289,13.289,0,0,0-1.062,18.727l4.964,5.572a14.241,14.241,0,0,0,1.625,1.537c21.812-20.806,33.044-31.651,38.427-36.88Z" transform="translate(-45 -47.997)"/><path class="frame6-18" d="M1705.438,557.824a101.351,101.351,0,0,1-7.5-8.523l-17.146,9.927C1689.972,560.842,1698.208,560.378,1705.438,557.824Z" transform="translate(-45 -47.997)"/><path class="frame6-18" d="M1761.42,581.327a74.194,74.194,0,0,1-41.036-11.4h-2.565a56.5,56.5,0,0,1-26.665,6.357q-13.861,0-29.87-5.76h-.011L1653.557,575l-18.4,10.646a4.871,4.871,0,0,1-4.964-.034l-31.374-18.826-11.3-6.777-4.477-2.686a4.868,4.868,0,0,1-2.377-4.256l-17.113,9.518a34.41,34.41,0,0,0-14.1,15.51,35.729,35.729,0,0,0-4.864,18.031V612.6c6.678,26.1,37.565,130.747,103.508,130.161L1650,686.306l1.16-34.514-.674-.376.708-.453Z" transform="translate(-45 -47.997)"/></g></g><g id="brother"><g id="_Group_6" data-name="&lt;Group&gt;"><path class="frame6-6" d="M390.307,97.225l3.78,2.014a10.763,10.763,0,0,0-2.563-.394A9.718,9.718,0,0,0,390.307,97.225Z" transform="translate(-45 -47.997)"/><path class="frame6-7" d="M391.524,98.845a10.763,10.763,0,0,1,2.563.394l4.406,2.349a11.078,11.078,0,0,1,3.874,8.486v222.3a11.245,11.245,0,0,1-5.571,9.7L72.412,531.308a11.087,11.087,0,0,1-8.554,1.157l-5.452-3.326a10.909,10.909,0,0,1-1.869-2.828,11.143,11.143,0,0,1-1.02-4.706V299.3a11.23,11.23,0,0,1,5.572-9.7l1.046-.608L385.472,100.371A11.009,11.009,0,0,1,391.524,98.845Zm-.986,233.2V111.1L67.338,299.643V520.576Z" transform="translate(-45 -47.997)"/><path class="frame6-6" d="M391.524,98.845a11.009,11.009,0,0,0-6.052,1.526L62.135,288.989l-.052-.086-11.023-6.12L376.318,94.988a11.072,11.072,0,0,1,7.157-1.406l6.832,3.643A9.718,9.718,0,0,1,391.524,98.845Z" transform="translate(-45 -47.997)"/><polygon class="frame6-8" points="345.538 63.106 345.538 284.047 22.338 472.579 22.338 251.647 345.538 63.106"/><path class="frame6-5" d="M62.083,288.9l.052.086-1.046.608a11.23,11.23,0,0,0-5.572,9.7v.12l-10.508-7a11.217,11.217,0,0,1,5.614-9.377l.437-.257Z" transform="translate(-45 -47.997)"/><path class="frame6-6" d="M58.406,529.139l-5.452-3.326a10.751,10.751,0,0,0,3.583.5A10.909,10.909,0,0,0,58.406,529.139Z" transform="translate(-45 -47.997)"/><path class="frame6-6" d="M56.537,526.311a10.751,10.751,0,0,1-3.583-.5l-4.783-2.922A11.035,11.035,0,0,1,45,515.073v-222.3c0-.12,0-.232.009-.352l10.508,7V521.605A11.143,11.143,0,0,0,56.537,526.311Z" transform="translate(-45 -47.997)"/><path class="frame6-6" d="M48.171,522.891l4.783,2.922A11.307,11.307,0,0,1,48.171,522.891Z" transform="translate(-45 -47.997)"/></g><path class="frame6-6" d="M700.738,577.718l.068-.158-32.165-15.013a21.886,21.886,0,0,0-25.693-2.727L562.52,606.081A60.444,60.444,0,0,0,521.294,551.4c11.279-18.95,30.6-59.351,11.936-88.9a51.54,51.54,0,0,0-9.572-11.143c-18.135-16-35.411-19.7-50.481-20.772-16.382-1.177-30.15.735-39.62-6.7a9.089,9.089,0,0,0-14.142,3.689c-4.434,11.234-7.772,26.813,2.274,36.01l.011.011-.01-.01a52.085,52.085,0,0,0-4.956,22.2q0,1.645.1,3.326l.226,3.53a16.433,16.433,0,0,0-7.716,18.26l.8,9.876c.5,8,4.514,14.708,9.944,17.774a51.891,51.891,0,0,0,5.895,17.717c.26.486.52.95.8,1.425A52.543,52.543,0,0,0,450.267,578.8,58.937,58.937,0,0,0,443.1,601.59q-.153,1.5-.229,3.021t-.077,3.054h0q0-1.536.077-3.054t.229-3.021l-.577-.057c-1.958,21.711-14.38,61.207-23.08,86.843h0L301.811,756.042l34.722,20.58h0l-34.721-20.58-1.086.623a21.993,21.993,0,0,0-11.019,19.3l.022,1.764,37.607,19.5-37.607-19.5.227,22.062h0L247,824.738a28.767,28.767,0,0,0-14.458,25.128,29.463,29.463,0,0,0,1.842,10.235,29.466,29.466,0,0,1-1.843-10.236h-.475v52.71h.475a28.779,28.779,0,0,0,14.731,25.286L332.4,976.1a1.164,1.164,0,0,0,.17.09h0a29.049,29.049,0,0,0,28.747-.248l.068-.034,339.2-193.564a28.6,28.6,0,0,0,12.128-13.757V713.481a22.069,22.069,0,0,1-3.766,7.57,21.932,21.932,0,0,0,4.547-13.385V597.676A21.83,21.83,0,0,0,700.738,577.718ZM493.474,548.937q-1.509-1.115-2.921-2.25c.938.754,1.915,1.507,2.921,2.25Zm-2.141.357c.186-.034.371-.068.556-.1C491.7,549.226,491.519,549.26,491.333,549.294Zm-2.374-3.928c-.622-.531-1.227-1.062-1.791-1.589C487.732,544.3,488.337,544.835,488.959,545.366ZM482.1,533.845a3.334,3.334,0,0,1,.475-.679.477.477,0,0,0,.09-.012A6.5,6.5,0,0,1,482.1,533.845ZM459.653,566.22a59.428,59.428,0,0,1,4.616-4.26A59.428,59.428,0,0,0,459.653,566.22Zm7.088-6.2a59.5,59.5,0,0,1,6.237-4.04A59.5,59.5,0,0,0,466.741,560.016Zm12.568-7.135c.674-.281,1.351-.554,2.037-.81C480.66,552.327,479.983,552.6,479.309,552.881Zm2.643-44.873a6.7,6.7,0,0,1,1.162,2.339,6.83,6.83,0,0,1,.223,1.346l1.018,16.212-1.018-16.212a6.83,6.83,0,0,0-.223-1.346,6.737,6.737,0,0,0-2.548-3.685A6.749,6.749,0,0,1,481.952,508.008Zm-2.5-2a6.687,6.687,0,0,0-1.889-.56A6.687,6.687,0,0,1,479.45,506.005Zm-5.379-.478,2.127-.136-2.127.136s-1.224-.922-3.327-2.523C472.847,504.605,474.071,505.527,474.071,505.527Zm-17.566-13.485c5.289,4.119,9.933,7.68,13.116,10.106-3.183-2.426-7.827-5.987-13.116-10.106-1.322-1.029-2.685-2.094-4.075-3.184C453.82,489.948,455.183,491.013,456.505,492.042Zm-16.628,39.2a22.383,22.383,0,0,0,1.339-3.3,22.383,22.383,0,0,1-1.339,3.3,19.966,19.966,0,0,1-1.786,2.907A19.966,19.966,0,0,0,439.877,531.246Zm2.414-12.471c.034.566.057,1.12.057,1.663a25.294,25.294,0,0,1-.647,5.725,25.294,25.294,0,0,0,.647-5.725C442.348,519.9,442.325,519.341,442.291,518.775Zm-6.109-24.234a16.459,16.459,0,0,0-4.446-2.806,16.269,16.269,0,0,1,7.454,6.364A16.476,16.476,0,0,0,436.182,494.541Zm.865,40.893a16.391,16.391,0,0,1-1.805,1.709A16.391,16.391,0,0,0,437.047,535.434Zm-11.483,4.853a12.946,12.946,0,0,1-1.892-.315,13.487,13.487,0,0,1-1.828-.584,13.487,13.487,0,0,0,1.828.584,12.735,12.735,0,0,0,6.894-.228,13.5,13.5,0,0,0,2.819-1.268,13.5,13.5,0,0,1-2.819,1.268,12.683,12.683,0,0,1-5,.543Zm31.956,28.239a59.522,59.522,0,0,0-3.893,4.938A59.522,59.522,0,0,1,457.52,568.526ZM330.342,783.392a21.988,21.988,0,0,1,1.459-2.178,22.152,22.152,0,0,0-2.65,4.512A22.076,22.076,0,0,1,330.342,783.392Zm-30.787,120.03a21.765,21.765,0,0,1-5.277-5.714,21.765,21.765,0,0,0,5.277,5.714Zm-7.377-9.954a21.787,21.787,0,0,1-1.07-4.266A21.787,21.787,0,0,0,292.178,893.468Zm1.532,3.3c-.2-.362-.4-.729-.586-1.1C293.309,896.036,293.505,896.4,293.71,896.765Zm-58.774-35.283a28.537,28.537,0,0,0,2.263,4.26A28.537,28.537,0,0,1,234.936,861.482Zm13.113,14.111-.78-.442a29.5,29.5,0,0,1-6.445-4.912,28.6,28.6,0,0,1-2.532-2.933,28.6,28.6,0,0,0,2.532,2.933,29.5,29.5,0,0,0,6.445,4.912l.78.442,53.31,30.207ZM702.514,726.7,361.468,923.754c-.046.023-.1.057-.148.079a22.159,22.159,0,0,1-4.549,1.966,21.285,21.285,0,0,1-4.626.863,29.073,29.073,0,0,1-19.5-3.134h0a29.073,29.073,0,0,0,19.5,3.134,21.285,21.285,0,0,0,4.626-.863,22.159,22.159,0,0,0,4.549-1.966c.046-.022.1-.056.148-.079L702.514,726.7a21.906,21.906,0,0,0,5.062-4.019A21.906,21.906,0,0,1,702.514,726.7Z" transform="translate(-45 -47.997)"/><g id="_Group_7" data-name="&lt;Group&gt;"><path class="frame6-26" d="M712.719,713.481v55.108a28.6,28.6,0,0,1-12.128,13.757L361.388,975.91l-.068.034V923.833c.046-.022.1-.056.148-.079L702.514,726.7A21.986,21.986,0,0,0,712.719,713.481Z" transform="translate(-45 -47.997)"/><path class="frame6-2" d="M700.738,577.718a21.71,21.71,0,0,0-20.184.906l-4.661,2.681L562.577,646.482l-83.019,47.755L338.331,775.468q-.933.543-1.8,1.154a22.016,22.016,0,0,0-9.221,18.147l.023,2.466,1.12,105.069.022,2.647a22.014,22.014,0,0,0,23.668,21.711,21.657,21.657,0,0,0,9.175-2.829c.046-.022.1-.056.148-.079L702.514,726.7A21.953,21.953,0,0,0,713.5,707.666V597.676A21.83,21.83,0,0,0,700.738,577.718Z" transform="translate(-45 -47.997)"/><path class="frame6-14" d="M533.23,462.5c-2.173,15.681-6.11,27.888-10.861,37.392-14.968,29.913-38.059,33.069-39.7,33.261a6.5,6.5,0,0,1-.565.691c-2.014,3.733,4,9.65,11.37,15.092a59.165,59.165,0,0,1,8.677-.634,60.3,60.3,0,0,1,18.125,2.772c.339.1.678.215,1.018.328C532.573,532.453,551.9,492.052,533.23,462.5Z" transform="translate(-45 -47.997)"/><path class="frame6-4" d="M544.883,566a60.438,60.438,0,0,0-23.589-14.6c-.34-.113-.679-.226-1.018-.328a60.3,60.3,0,0,0-18.125-2.772,59.165,59.165,0,0,0-8.677.634c-1.233.181-2.455.4-3.666.656,2.591,3.813,8.3,12.377,14.436,22.684,10.511,17.671,22.265,40.434,21.632,53.06l.792,1.369,35.852-20.625A60.278,60.278,0,0,0,544.883,566Z" transform="translate(-45 -47.997)"/><path class="frame6-27" d="M525.876,625.337c.633-12.626-11.121-35.389-21.632-53.06-6.132-10.307-11.845-18.871-14.436-22.684a59.3,59.3,0,0,0-47.019,58.072v67.282l83.879-48.241Z" transform="translate(-45 -47.997)"/><path class="frame6-16" d="M442.269,506.9h-.509a16.46,16.46,0,0,0-24.7-14.255l-.226-3.53q-.1-1.68-.1-3.326a52.1,52.1,0,0,1,4.955-22.2c.068.067.125.124.193.181,17.377,15.533,52.189,41.758,52.189,41.758l2.127-.136a6.742,6.742,0,0,1,7.139,6.3l1.018,16.212a7.837,7.837,0,0,1-1.686,5.249.477.477,0,0,1-.09.012,3.334,3.334,0,0,0-.475.679c-2.014,3.733,4,9.65,11.37,15.092-1.233.181-2.455.4-3.666.656A59.409,59.409,0,0,0,450.267,578.8a52.546,52.546,0,0,1-23.475-21.111,1.1,1.1,0,0,0,.328.079l15.647,1.618a1.3,1.3,0,1,0,.26-2.58l-15.647-1.618a1.277,1.277,0,0,0-1.391,1.075,51.891,51.891,0,0,1-5.895-17.717,13.386,13.386,0,0,0,7.411,1.765c8.44-.532,14.843-9.277,14.843-19.878,0-.543-.023-1.1-.057-1.663Z" transform="translate(-45 -47.997)"/><path class="frame6-12" d="M523.658,451.358c-18.135-16-35.411-19.7-50.481-20.772-16.382-1.177-30.15.735-39.62-6.7a9.089,9.089,0,0,0-14.142,3.689c-4.434,11.234-7.772,26.813,2.274,36.01.068.068.125.125.193.182,17.377,15.533,52.189,41.758,52.189,41.758l2.127-.136a6.742,6.742,0,0,1,7.139,6.3l1.018,16.212a7.837,7.837,0,0,1-1.686,5.249c1.641-.192,24.732-3.348,39.7-33.261,4.751-9.5,8.688-21.711,10.861-37.392A51.54,51.54,0,0,0,523.658,451.358Z" transform="translate(-45 -47.997)"/><path class="frame6-12" d="M443.027,556.811a1.3,1.3,0,1,1-.26,2.58l-15.647-1.618a1.1,1.1,0,0,1-.328-.079c-.283-.476-.543-.94-.8-1.426a1.277,1.277,0,0,1,1.391-1.075Z" transform="translate(-45 -47.997)"/><path class="frame6-4" d="M442.518,601.533l.577.057a59.92,59.92,0,0,0-.306,6.075v67.282l-23.351,13.429C428.138,662.74,440.56,623.244,442.518,601.533Z" transform="translate(-45 -47.997)"/><path class="frame6-1" d="M668.641,562.547a21.886,21.886,0,0,0-25.693-2.727L562.52,606.081l-35.852,20.625-83.879,48.241-23.351,13.429L301.811,756.042l34.722,20.58q.865-.612,1.8-1.154l141.227-81.231,83.019-47.755L675.893,581.3l4.661-2.681a21.71,21.71,0,0,1,20.184-.906l.068-.158Z" transform="translate(-45 -47.997)"/><path class="frame6-15" d="M442.291,518.775l-.022-11.879h-.509a16.455,16.455,0,0,1-32.414,4l.8,9.876c.5,8,4.514,14.708,9.944,17.774a13.386,13.386,0,0,0,7.411,1.765c8.44-.532,14.843-9.277,14.843-19.878C442.348,519.9,442.325,519.341,442.291,518.775Z" transform="translate(-45 -47.997)"/><path class="frame6-13" d="M436.182,494.541a16.449,16.449,0,0,0-19.12-1.9,16.462,16.462,0,0,0-2.647,26.586,16.456,16.456,0,1,0,21.767-24.686Zm-15.33,15.5a4.925,4.925,0,0,1-2.6,1.561,4.985,4.985,0,1,1-.622-9.809A4.9,4.9,0,0,1,420.411,503,4.981,4.981,0,0,1,420.852,510.041Z" transform="translate(-45 -47.997)"/><path class="frame6-12" d="M420.411,503a5.009,5.009,0,0,0-7.037.441,4.989,4.989,0,0,0,4.876,8.157,4.925,4.925,0,0,0,2.6-1.561A4.981,4.981,0,0,0,420.411,503Z" transform="translate(-45 -47.997)"/><path class="frame6-3" d="M361.32,923.833v52.111a29.049,29.049,0,0,1-28.747.248v-52.54l.068-.124a29.073,29.073,0,0,0,19.5,3.134A21.657,21.657,0,0,0,361.32,923.833Z" transform="translate(-45 -47.997)"/><path class="frame6-3" d="M301.811,756.042l34.722,20.58a22.016,22.016,0,0,0-9.221,18.147l.023,2.466-37.607-19.5-.022-1.764a21.993,21.993,0,0,1,11.019-19.3Z" transform="translate(-45 -47.997)"/><path class="frame6-1" d="M328.477,904.951l-.022-2.647-1.12-105.069-37.607-19.5.227,22.062.916,86.356a21.771,21.771,0,0,0,10.974,18.792l-.486.86L332.4,923.392l.238.136a29.073,29.073,0,0,0,19.5,3.134A22.014,22.014,0,0,1,328.477,904.951Z" transform="translate(-45 -47.997)"/><path class="frame6-3" d="M301.845,904.94l-.486.86-53.31-30.207-.78-.442A29.065,29.065,0,0,1,247,824.738l42.958-24.946.916,86.356A21.771,21.771,0,0,0,301.845,904.94Z" transform="translate(-45 -47.997)"/><path class="frame6-2" d="M332.4,923.392,301.359,905.8l-53.31-30.207-.78-.442a28.778,28.778,0,0,1-14.731-25.285h-.475v52.709h.475a28.779,28.779,0,0,0,14.731,25.286L332.4,976.1a1.164,1.164,0,0,0,.17.09v-52.54l.068-.124Z" transform="translate(-45 -47.997)"/></g>
<g id="characterBrother"><g id="characterBrother-2" data-name="characterBrother"><path class="frame6-6" d="M637.359,706.806h-11.72v-1.369h11.7C637.348,705.889,637.359,706.353,637.359,706.806Z" transform="translate(-45 -47.997)"/><path class="frame6-6" d="M655.653,706.806h-5.962c0-.464-.011-.917-.011-1.369h5.951C655.642,705.9,655.642,706.353,655.653,706.806Z" transform="translate(-45 -47.997)"/><path class="frame6-6" d="M649.68,705.437c0,.452.011.9.011,1.369H637.359c0-.453-.011-.917-.022-1.369Z" transform="translate(-45 -47.997)"/><polygon class="frame6-6" points="653.973 658.334 653.962 658.809 638.168 658.809 638.168 658.662 653.973 658.334"/><polygon class="frame6-6" points="695.856 657.44 695.754 658.809 653.962 658.809 653.973 658.334 672.109 657.949 695.856 657.44"/><path class="frame6-6" d="M683.247,705.437l-.079,1.222-6.777.147H655.653c-.011-.453-.011-.905-.022-1.369Z" transform="translate(-45 -47.997)"/><path class="frame6-6" d="M661.3,586.781l.022.509c-1.617-5.216-2.839-8.3-3.054-8.825A12.855,12.855,0,0,1,661.3,586.781Z" transform="translate(-45 -47.997)"/><path class="frame6-6" d="M698.962,706.806,695.884,897.45l-.305,18.645v.554h19.21a10.734,10.734,0,0,0,10.454-9.808l15.511-200.035Z" transform="translate(-45 -47.997)"/><path class="frame6-6" d="M683.168,706.806l-5.521,91.051,1.369,99.593.113,8.225A10.977,10.977,0,0,0,690.1,916.649h5.476V916.1l.305-18.645,3.078-190.644Z" transform="translate(-45 -47.997)"/><polygon class="frame6-6" points="638.168 658.809 632.647 749.86 631.391 658.809 638.168 658.809"/><path class="frame6-6" d="M713.681,923.449l-46.386,1.7h-.509v2.613a13.4,13.4,0,0,1-1.109,5.352h35.536a13.634,13.634,0,0,0,12.965-9.549Z" transform="translate(-45 -47.997)"/><path class="frame6-6" d="M578.212,934.751a13.625,13.625,0,0,0,11.631,6.584H653.21a13.61,13.61,0,0,0,12.467-8.224h-3.53Z" transform="translate(-45 -47.997)"/><path class="frame6-6" d="M676.391,706.806H655.653c.5,30.682.227,59.588-1.764,75.823-.611,4.978-3.915,8.531-7.66,8.531a.98.98,0,0,1-.181-.012,4.959,4.959,0,0,1-1.063-.124,10.749,10.749,0,0,1-3.915-1.81l-.362.735,2.433,107.5.181,8.225.215,9.289v1.685h20.511a5.392,5.392,0,0,0,2.376-.486c2.715-1.3,4.853-5.725,5.577-18.713.181-3.134.272-6.765.272-10.974l5.374-88.619Z" transform="translate(-45 -47.997)"/><path class="frame6-6" d="M763.833,493.444s-3.914,8.994-16.3,1.991c-10.409-5.883-1.562-26.066,1.878-33.805a53.094,53.094,0,0,0,2.285-6.369l-.871-.181c-6.834-69.737-75.009-90.192-88.687-93.608C621,362,625.921,398.58,625.921,398.58s-6.437,6.833-9.514,20.93l.237.057s-.7,5.249,3.8,12.942c3.45,5.906,9.956,13.237,22.186,20.749l2.183-2.172a4.882,4.882,0,0,1,6.245-.588,5.406,5.406,0,0,1,2.376,4.423l-.17,13.78c-.045,3.3-3.224,6.053-6.992,6.89a4.178,4.178,0,0,1,.43,2.308,4.276,4.276,0,0,1-8.145,1.369c-1.29,8.349-7.909,11.438-14.5,12.388l.181,2.987A37,37,0,0,0,658.5,529.308c-.509.814-1.04,1.618-1.6,2.4a65.8,65.8,0,0,1-11.981,12.445s48.252,22.605,66.083-8.327a45.622,45.622,0,0,0,4.9-13.225s8.712,9.187,21.224,9.922c7.739.475,16.937-2.308,26.44-12.49C774.4,508.434,763.833,493.444,763.833,493.444Z" transform="translate(-45 -47.997)"/><path class="frame6-6" d="M714.54,916.649H690.1a10.977,10.977,0,0,1-10.974-10.974l-.113-8.225H672c-.724,12.988-2.862,17.412-5.577,18.713a5.392,5.392,0,0,1-2.376.486H635.934c-3.688,0-6.947-1.968-8.757-10.974H589.843a13.617,13.617,0,0,0-13.577,13.576v8.508a13.5,13.5,0,0,0,1.946,6.992l83.935-1.64h3.53a13.4,13.4,0,0,0,1.109-5.352v-2.613h.509l46.386-1.7.5.113a13.566,13.566,0,0,0,.611-4.028v-2.885Z" transform="translate(-45 -47.997)"/><path class="frame6-6" d="M658.5,529.308c-.509.814-1.04,1.618-1.6,2.4a38.557,38.557,0,0,1-17.23-3.971c1.176-1.029,2.4-2,3.665-2.907A36.692,36.692,0,0,0,658.5,529.308Z" transform="translate(-45 -47.997)"/><path class="frame6-6" d="M655.653,706.806c.5,30.682.227,59.588-1.765,75.823-.61,4.978-3.914,8.531-7.659,8.531a.98.98,0,0,1-.181-.012c3.485-7.659,3.96-48.5,3.643-84.342Z" transform="translate(-45 -47.997)"/><path class="frame6-6" d="M654.386,658.723c.521,15.036.985,31.09,1.245,46.714H649.68c-.249-27.22-.917-51.262-1.041-55.21h5.442C654.183,653.01,654.284,655.85,654.386,658.723Z" transform="translate(-45 -47.997)"/><path class="frame6-6" d="M711.011,535.824c-17.831,30.932-66.083,8.327-66.083,8.327a65.8,65.8,0,0,0,11.981-12.445,38.557,38.557,0,0,1-17.23-3.971A52.519,52.519,0,0,0,621.532,567.4V706.806h4.107v-1.369h11.7c-.328-18.554-.928-37.81-1.573-55.21h-8.27l2.263-63.446a13.037,13.037,0,0,1,12.66-13l.124,4.22,2.127,71.1v1.131h18.894l-2.241-62.937c-1.617-5.216-2.839-8.3-3.054-8.825a12.85,12.85,0,0,1,3.032,8.316l.022.509a243.769,243.769,0,0,1,10.5,70.856c0,1-14.175.679-17.434.577.521,15.036.985,31.09,1.245,46.714h27.616l-.079,1.222,15.8-.328,18.136-.385-.034-1.414C724.485,669.573,712.56,550.826,711.011,535.824Z" transform="translate(-45 -47.997)"/><path class="frame6-6" d="M651.06,450.5a5.406,5.406,0,0,1,2.376,4.423l-.17,13.78c-.045,3.3-3.224,6.053-6.992,6.89a4.279,4.279,0,0,0-8.089,1.494,4.157,4.157,0,0,0,.374,2.183c-1.29,8.349-7.909,11.438-14.5,12.388l-3.609-59.147c3.45,5.906,9.956,13.237,22.186,20.749l2.183-2.172A4.883,4.883,0,0,1,651.06,450.5Z" transform="translate(-45 -47.997)"/><path class="frame6-6" d="M649.691,706.806c.317,35.841-.158,76.683-3.643,84.342a4.959,4.959,0,0,1-1.063-.124,10.749,10.749,0,0,1-3.915-1.81c-3.1-2.161-5.747-5.9-5.272-9.787,1.856-15.08,2.071-42.855,1.561-72.621Z" transform="translate(-45 -47.997)"/><path class="frame6-6" d="M649.68,705.437H637.337c-.328-18.554-.928-37.81-1.573-55.21h12.875C648.763,654.175,649.431,678.217,649.68,705.437Z" transform="translate(-45 -47.997)"/><path class="frame6-6" d="M646.274,475.591a4.178,4.178,0,0,1,.43,2.308,4.276,4.276,0,0,1-8.145,1.369,4.157,4.157,0,0,1-.374-2.183,4.279,4.279,0,0,1,8.089-1.494Z" transform="translate(-45 -47.997)"/><path class="frame6-6" d="M643.322,905.675l-.181-8.225-2.433-107.5.362-.735c-3.1-2.161-5.747-5.9-5.272-9.787,1.856-15.08,2.071-42.855,1.561-72.621h-11.72V884.417a127.141,127.141,0,0,0,1.108,18.826c.125.86.272,1.674.43,2.432,1.81,9.006,5.069,10.974,8.757,10.974h7.6v-1.685Z" transform="translate(-45 -47.997)"/><path class="frame6-6" d="M737.133,532.521c-12.512-.735-21.224-9.922-21.224-9.922a45.622,45.622,0,0,1-4.9,13.225c1.549,15,13.474,133.749,6.064,168.708l.034,1.414,23.747-.509-.1,1.369h9.695V567.4A52.313,52.313,0,0,0,737.133,532.521Z" transform="translate(-45 -47.997)"/><path class="frame6-6" d="M663.562,650.227h-9.481c.1,2.783.2,5.623.3,8.5,3.259.1,17.434.419,17.434-.577a243.769,243.769,0,0,0-10.5-70.856Z" transform="translate(-45 -47.997)"/><path class="frame6-6" d="M642.417,573.781a13.037,13.037,0,0,0-12.66,13l-2.263,63.446h17.174V649.1L642.541,578Z" transform="translate(-45 -47.997)"/><path class="frame6-6" d="M708.239,370.952c-19.663-6.992-34.665-9.628-46.1-9.48,13.678,3.416,81.853,23.871,88.687,93.608l.871.181C757.509,435.643,761.82,390.027,708.239,370.952Z" transform="translate(-45 -47.997)"/><path class="frame6-6" d="M624.236,494.643l-.181-2.987a46.889,46.889,0,0,1-14.493-.509c-.034-.068-.057-.1-.068-.09,0,.724,9.447,26.6,30.185,36.678,1.176-1.029,2.4-2,3.665-2.907A36.965,36.965,0,0,1,624.236,494.643Z" transform="translate(-45 -47.997)"/><path class="frame6-6" d="M764.026,493.534c-6.788,40.729-48.648,29.416-48.648,29.416s-18.668,33.375-70.71,18.667" transform="translate(-45 -47.997)"/></g><path class="frame6-10" d="M637.359,706.806h-11.72v-1.369h11.7C637.348,705.889,637.359,706.353,637.359,706.806Z" transform="translate(-45 -47.997)"/><path class="frame6-15" d="M655.653,706.806h-5.962c0-.464-.011-.917-.011-1.369h5.951C655.642,705.9,655.642,706.353,655.653,706.806Z" transform="translate(-45 -47.997)"/><path class="frame6-16" d="M649.68,705.437c0,.452.011.9.011,1.369H637.359c0-.453-.011-.917-.022-1.369Z" transform="translate(-45 -47.997)"/><polygon class="frame6-4" points="653.973 658.334 653.962 658.809 638.168 658.809 638.168 658.662 653.973 658.334"/><polygon class="frame6-5" points="695.856 657.44 695.754 658.809 653.962 658.809 653.973 658.334 672.109 657.949 695.856 657.44"/><path class="frame6-10" d="M683.247,705.437l-.079,1.222-6.777.147H655.653c-.011-.453-.011-.905-.022-1.369Z" transform="translate(-45 -47.997)"/><path class="frame6-10" d="M661.3,586.781l.022.509c-1.617-5.216-2.839-8.3-3.054-8.825A12.855,12.855,0,0,1,661.3,586.781Z" transform="translate(-45 -47.997)"/><path class="frame6-28" d="M698.962,706.806,695.884,897.45l-.305,18.645v.554h19.21a10.734,10.734,0,0,0,10.454-9.808l15.511-200.035Z" transform="translate(-45 -47.997)"/><path class="frame6-4" d="M683.168,706.806l-5.521,91.051,1.369,99.593.113,8.225A10.977,10.977,0,0,0,690.1,916.649h5.476V916.1l.305-18.645,3.078-190.644Z" transform="translate(-45 -47.997)"/><polygon class="frame6-28" points="638.168 658.809 632.647 749.86 631.391 658.809 638.168 658.809"/><path class="frame6-7" d="M713.681,923.449l-46.386,1.7h-.509v2.613a13.4,13.4,0,0,1-1.109,5.352h35.536a13.634,13.634,0,0,0,12.965-9.549Z" transform="translate(-45 -47.997)"/><path class="frame6-7" d="M578.212,934.751a13.625,13.625,0,0,0,11.631,6.584H653.21a13.61,13.61,0,0,0,12.467-8.224h-3.53Z" transform="translate(-45 -47.997)"/><path class="frame6-28" d="M676.391,706.806H655.653c.5,30.682.227,59.588-1.764,75.823-.611,4.978-3.915,8.531-7.66,8.531a.98.98,0,0,1-.181-.012,4.959,4.959,0,0,1-1.063-.124,10.749,10.749,0,0,1-3.915-1.81l-.362.735,2.433,107.5.181,8.225.215,9.289v1.685h20.511a5.392,5.392,0,0,0,2.376-.486c2.715-1.3,4.853-5.725,5.577-18.713.181-3.134.272-6.765.272-10.974l5.374-88.619Z" transform="translate(-45 -47.997)"/><path class="frame6-12" d="M763.833,493.444s-3.914,8.994-16.3,1.991c-10.409-5.883-1.562-26.066,1.878-33.805a53.094,53.094,0,0,0,2.285-6.369l-.871-.181c-6.834-69.737-75.009-90.192-88.687-93.608C621,362,625.921,398.58,625.921,398.58s-6.437,6.833-9.514,20.93l.237.057s-.7,5.249,3.8,12.942c3.45,5.906,9.956,13.237,22.186,20.749l2.183-2.172a4.882,4.882,0,0,1,6.245-.588,5.406,5.406,0,0,1,2.376,4.423l-.17,13.78c-.045,3.3-3.224,6.053-6.992,6.89a4.178,4.178,0,0,1,.43,2.308,4.276,4.276,0,0,1-8.145,1.369c-1.29,8.349-7.909,11.438-14.5,12.388l.181,2.987A37,37,0,0,0,658.5,529.308c-.509.814-1.04,1.618-1.6,2.4a65.8,65.8,0,0,1-11.981,12.445s48.252,22.605,66.083-8.327a45.622,45.622,0,0,0,4.9-13.225s8.712,9.187,21.224,9.922c7.739.475,16.937-2.308,26.44-12.49C774.4,508.434,763.833,493.444,763.833,493.444Z" transform="translate(-45 -47.997)"/><path class="frame6-5" d="M714.54,916.649H690.1a10.977,10.977,0,0,1-10.974-10.974l-.113-8.225H672c-.724,12.988-2.862,17.412-5.577,18.713a5.392,5.392,0,0,1-2.376.486H635.934c-3.688,0-6.947-1.968-8.757-10.974H589.843a13.617,13.617,0,0,0-13.577,13.576v8.508a13.5,13.5,0,0,0,1.946,6.992l83.935-1.64h3.53a13.4,13.4,0,0,0,1.109-5.352v-2.613h.509l46.386-1.7.5.113a13.566,13.566,0,0,0,.611-4.028v-2.885Z" transform="translate(-45 -47.997)"/><path class="frame6-14" d="M658.5,529.308c-.509.814-1.04,1.618-1.6,2.4a38.557,38.557,0,0,1-17.23-3.971c1.176-1.029,2.4-2,3.665-2.907A36.692,36.692,0,0,0,658.5,529.308Z" transform="translate(-45 -47.997)"/><path class="frame6-15" d="M655.653,706.806c.5,30.682.227,59.588-1.765,75.823-.61,4.978-3.914,8.531-7.659,8.531a.98.98,0,0,1-.181-.012c3.485-7.659,3.96-48.5,3.643-84.342Z" transform="translate(-45 -47.997)"/><path class="frame6-15" d="M654.386,658.723c.521,15.036.985,31.09,1.245,46.714H649.68c-.249-27.22-.917-51.262-1.041-55.21h5.442C654.183,653.01,654.284,655.85,654.386,658.723Z" transform="translate(-45 -47.997)"/><path class="frame6-10" d="M711.011,535.824c-17.831,30.932-66.083,8.327-66.083,8.327a65.8,65.8,0,0,0,11.981-12.445,38.557,38.557,0,0,1-17.23-3.971A52.519,52.519,0,0,0,621.532,567.4V706.806h4.107v-1.369h11.7c-.328-18.554-.928-37.81-1.573-55.21h-8.27l2.263-63.446a13.037,13.037,0,0,1,12.66-13l.124,4.22,2.127,71.1v1.131h18.894l-2.241-62.937c-1.617-5.216-2.839-8.3-3.054-8.825a12.85,12.85,0,0,1,3.032,8.316l.022.509a243.769,243.769,0,0,1,10.5,70.856c0,1-14.175.679-17.434.577.521,15.036.985,31.09,1.245,46.714h27.616l-.079,1.222,15.8-.328,18.136-.385-.034-1.414C724.485,669.573,712.56,550.826,711.011,535.824Z" transform="translate(-45 -47.997)"/><path class="frame6-16" d="M651.06,450.5a5.406,5.406,0,0,1,2.376,4.423l-.17,13.78c-.045,3.3-3.224,6.053-6.992,6.89a4.279,4.279,0,0,0-8.089,1.494,4.157,4.157,0,0,0,.374,2.183c-1.29,8.349-7.909,11.438-14.5,12.388l-3.609-59.147c3.45,5.906,9.956,13.237,22.186,20.749l2.183-2.172A4.883,4.883,0,0,1,651.06,450.5Z" transform="translate(-45 -47.997)"/><path class="frame6-16" d="M649.691,706.806c.317,35.841-.158,76.683-3.643,84.342a4.959,4.959,0,0,1-1.063-.124,10.749,10.749,0,0,1-3.915-1.81c-3.1-2.161-5.747-5.9-5.272-9.787,1.856-15.08,2.071-42.855,1.561-72.621Z" transform="translate(-45 -47.997)"/><path class="frame6-16" d="M649.68,705.437H637.337c-.328-18.554-.928-37.81-1.573-55.21h12.875C648.763,654.175,649.431,678.217,649.68,705.437Z" transform="translate(-45 -47.997)"/><path class="frame6-17" d="M646.274,475.591a4.178,4.178,0,0,1,.43,2.308,4.276,4.276,0,0,1-8.145,1.369,4.157,4.157,0,0,1-.374-2.183,4.279,4.279,0,0,1,8.089-1.494Z" transform="translate(-45 -47.997)"/><path class="frame6-4" d="M643.322,905.675l-.181-8.225-2.433-107.5.362-.735c-3.1-2.161-5.747-5.9-5.272-9.787,1.856-15.08,2.071-42.855,1.561-72.621h-11.72V884.417a127.141,127.141,0,0,0,1.108,18.826c.125.86.272,1.674.43,2.432,1.81,9.006,5.069,10.974,8.757,10.974h7.6v-1.685Z" transform="translate(-45 -47.997)"/><path class="frame6-5" d="M737.133,532.521c-12.512-.735-21.224-9.922-21.224-9.922a45.622,45.622,0,0,1-4.9,13.225c1.549,15,13.474,133.749,6.064,168.708l.034,1.414,23.747-.509-.1,1.369h9.695V567.4A52.313,52.313,0,0,0,737.133,532.521Z" transform="translate(-45 -47.997)"/><path class="frame6-5" d="M663.562,650.227h-9.481c.1,2.783.2,5.623.3,8.5,3.259.1,17.434.419,17.434-.577a243.769,243.769,0,0,0-10.5-70.856Z" transform="translate(-45 -47.997)"/><path class="frame6-5" d="M642.417,573.781a13.037,13.037,0,0,0-12.66,13l-2.263,63.446h17.174V649.1L642.541,578Z" transform="translate(-45 -47.997)"/><path class="frame6-14" d="M708.239,370.952c-19.663-6.992-34.665-9.628-46.1-9.48,13.678,3.416,81.853,23.871,88.687,93.608l.871.181C757.509,435.643,761.82,390.027,708.239,370.952Z" transform="translate(-45 -47.997)"/><path class="frame6-14" d="M624.236,494.643l-.181-2.987a46.889,46.889,0,0,1-14.493-.509c-.034-.068-.057-.1-.068-.09,0,.724,9.447,26.6,30.185,36.678,1.176-1.029,2.4-2,3.665-2.907A36.965,36.965,0,0,1,624.236,494.643Z" transform="translate(-45 -47.997)"/><path class="frame6-29" d="M764.026,493.534c-6.788,40.729-48.648,29.416-48.648,29.416s-18.668,33.375-70.71,18.667" transform="translate(-45 -47.997)"/></g></g></svg>