<svg id="Layer_4" data-name="Layer 4" xmlns="http://www.w3.org/2000/svg" viewBox="0 0 1051 702.699"><defs><style>.cls-1{fill:#023f3c;}.cls-2{fill:#9fa9ad;}.cls-3{fill:#f2faf6;}.cls-4{fill:#7b8699;}.cls-5{fill:#090e10;}.cls-6{fill:#48505e;}.cls-7{fill:#29343d;}.cls-8{fill:#a6a3c1;}.cls-9{fill:#585857;}.cls-10{fill:#c08154;}.cls-11{fill:#c4d1d8;}.cls-12{fill:#230b0a;}.cls-13{fill:#e2f2cd;}.cls-14{fill:#411b1f;}.cls-15{fill:#f2c599;}.cls-16{fill:#160606;}.cls-17{fill:#c4d2d6;}.cls-18{fill:#31343c;}.cls-19{fill:#fff;}</style></defs><title>svg-frame4</title><path class="cls-1" d="M1051,203.686h-.17a26.055,26.055,0,0,0-13.09-22.74l-133.56-77.67L893,96.776l-.97-.15c20.07-15.11,35.61-34.06,22.76-51.8-5.24-11.43-29.45-12.59-40.79-9.05-4.83,1.51-12.54,5.41-20.94,10.11l-.06-.11c7.34-8.93,8.55-20.89-1.19-33.93C846.7-.484,821.74-2.594,811,2.776c-2.33,1.17-23.5,13.25-40.76,23.14L750,13.776,399.2,216.656a151.932,151.932,0,0,1-7.14-16.62,69.466,69.466,0,0,0-3.56-7.81c-12.81-24.54-52.43-74.35-123.66-41.3-25.91,12.02-43.1,23.82-54.14,34.93-39.72,39.98.19,71.03.19,71.03s.54,25.45,29.38,51.32L13.29,439.966a26.052,26.052,0,0,0-13.1,22.76H0v54.05l.2.01a26.107,26.107,0,0,0,13.14,23.73l274.5,158.65c.05.03.11.06.16.09a26.292,26.292,0,0,0,26,.01c.06-.03.11-.06.17-.09l723.49-417.69a26.118,26.118,0,0,0,13-25.67l.34-.04ZM436.67,217.3s24.27,4.53,25.27,26.23a44.843,44.843,0,0,1-.214,7.2,44.843,44.843,0,0,0,.214-7.2c-1-21.7-25.269-26.23-25.27-26.23Zm96.685,182.258q3.121-1.365,6.1-2.479-2.973,1.11-6.1,2.479t-6.372,2.971Q530.229,400.923,533.355,399.554ZM352.17,255.9l.05-4.2-.05,4.2a.86.86,0,0,0,.01.16.715.715,0,0,0,.091.217.715.715,0,0,1-.091-.217A.86.86,0,0,1,352.17,255.9Zm85.042-35.516a12.208,12.208,0,0,0-.123-1.318,10.8,10.8,0,0,0-.259-1.246c-.023-.083-.044-.157-.063-.221.019.064.041.138.063.221a10.8,10.8,0,0,1,.259,1.246A12.208,12.208,0,0,1,437.212,220.38ZM426.8,508.5a9.171,9.171,0,0,1-.665-1.746A9.171,9.171,0,0,0,426.8,508.5Zm-1.068-4.8a18.93,18.93,0,0,1,.31-3.545A18.93,18.93,0,0,0,425.728,503.7Zm-62.49-46.895c3.3,1.789,6.419,3.476,9.292,5.029C369.657,460.283,366.537,458.6,363.238,456.807Zm17.572-29.171q1.452.783,2.848,1.54-1.395-.756-2.848-1.54Zm-5.63-151.25a14.047,14.047,0,0,0,1.051-1.125,14.047,14.047,0,0,1-1.051,1.125.709.709,0,0,0-.216.5A.709.709,0,0,1,375.18,276.386Zm-.02,1a.694.694,0,0,0,.12.083.536.536,0,0,1-.27-.32A.7.7,0,0,0,375.16,277.386Zm.51.22h0a.717.717,0,0,1-.135-.027A.717.717,0,0,0,375.67,277.606Zm-16.238-31.854a8,8,0,0,0-.862.084,5.518,5.518,0,0,0-1.939.682,5.881,5.881,0,0,0-1.557,1.311,5.881,5.881,0,0,1,1.557-1.311,5.518,5.518,0,0,1,1.939-.682A8,8,0,0,1,359.432,245.752Zm-5.792,5.954-.06,4.21a.7.7,0,0,1-.056.274.707.707,0,0,1-.374.371.707.707,0,0,0,.374-.371.7.7,0,0,0,.056-.274Zm97.919,36.348a35.9,35.9,0,0,1,1.944,4.119,35.9,35.9,0,0,0-1.944-4.119c-.476-.863-.976-1.692-1.493-2.484C450.583,286.362,451.083,287.191,451.559,288.054Zm3.971,11.991a31.491,31.491,0,0,0-.591-3.3A31.491,31.491,0,0,1,455.53,300.045ZM428.07,407.036q1,.43,2.051.839-1.047-.408-2.051-.839Zm-35.66,65.41q.781-.843,1.56-1.7,2.337-2.574,4.634-5.271-2.292,2.7-4.634,5.271-.779.858-1.56,1.7-2.858,3.1-5.728,5.988Q389.544,475.545,392.41,472.446Zm65.236-209.612a23.377,23.377,0,0,0,1.575-2.846,26.245,26.245,0,0,0,1.278-3.318,26.245,26.245,0,0,1-1.278,3.318A23.377,23.377,0,0,1,457.646,262.834ZM438.48,273.346a.741.741,0,0,1-.13.12c-.12-.07-.18-.11-.18-.11S438.28,273.356,438.48,273.346Zm-57.722-4.536a12.907,12.907,0,0,0,.171-1.922A12.907,12.907,0,0,1,380.758,268.81Zm-2.178-8.494-3.76-3.93-9.29-9.7,9.29,9.7,3.76,3.93a8.883,8.883,0,0,1,2.323,5.634A8.883,8.883,0,0,0,378.58,260.316Zm-101.46,36.05a19.808,19.808,0,0,1,1.32,2.54Zm-26.66,113.24a9.748,9.748,0,0,1-2.46-1.4ZM351,508.316l3.62-2.14c-2.3,1.7-3.62,2.6-3.62,2.6Zm91.805,4.952a36.111,36.111,0,0,1-4.147.374A36.111,36.111,0,0,0,442.805,513.268Zm50.046-89.728q5.211-3.791,10.435-7.244Q498.077,419.74,492.851,423.54ZM556.21,210.018a118.368,118.368,0,0,1,16.37,19.744,118.368,118.368,0,0,0-16.37-19.744q-2.721-2.613-5.674-5.06Q553.491,207.4,556.21,210.018Zm25.044,34.631q-1.506-2.961-3.19-5.951,1.686,2.985,3.19,5.951c2.006,3.946,3.777,7.838,5.336,11.587l-.09.04.09-.04C585.031,252.487,583.26,248.6,581.254,244.649Zm-92.543,67.227a13.276,13.276,0,0,1,1.809,1.96A13.276,13.276,0,0,0,488.711,311.876Zm-5.957-3.494a37.409,37.409,0,0,0-11.683-3.013,37.409,37.409,0,0,1,11.683,3.013Zm-71.918-76.314a14.082,14.082,0,0,0,8.99,3.231A14.082,14.082,0,0,1,410.836,232.068Zm-6.512-6.955c.66.914,1.342,1.793,2.045,2.624C405.666,226.906,404.984,226.027,404.324,225.113Zm3.115,3.834a28.635,28.635,0,0,0,2.233,2.174A28.635,28.635,0,0,1,407.439,228.947ZM248.88,319.156a18.071,18.071,0,0,1-2.81-3.48ZM381.8,507.886q3.69-3.66,7.227-7.522-3.535,3.853-7.227,7.522c-12.75,12.667-26.85,23.4-41.984,29.961C354.95,531.286,369.05,520.553,381.8,507.886ZM647.681,350.933a.893.893,0,0,0,.349.083A.893.893,0,0,1,647.681,350.933ZM689.7,289.576a.889.889,0,0,1,.232-.03h0A.889.889,0,0,0,689.7,289.576Zm-73.758,42.45a.924.924,0,0,0,.084.251.924.924,0,0,1-.084-.251.986.986,0,0,1,.014-.428A.986.986,0,0,0,615.94,332.026ZM725,307.276a4.839,4.839,0,0,1,0,2.82ZM496.55,183.856a96.011,96.011,0,0,1,26.368,5.316,90.805,90.805,0,0,1,24.6,13.4,90.805,90.805,0,0,0-24.6-13.4,96.011,96.011,0,0,0-26.368-5.316q-1.373-.087-2.769-.139Q495.178,183.77,496.55,183.856Zm-93.11,39.8L473,184.776l-69.56,38.88-.09.06Zm641.165-2.914a26.468,26.468,0,0,1-6.945,5.744L314.17,644.176l723.49-417.69a26.468,26.468,0,0,0,6.945-5.744,25.608,25.608,0,0,0,2.058-2.766A25.608,25.608,0,0,1,1044.605,220.742Z" transform="translate(0 0)"/><path class="cls-2" d="M1050.66,255.816a26.118,26.118,0,0,1-13,25.67L314.17,699.176c-.06.03-.11.06-.17.09v-55c.06-.03.11-.06.17-.09l723.49-417.69a26.067,26.067,0,0,0,13.17-22.8h.17v52.09Z" transform="translate(0 0)"/><path class="cls-3" d="M403.44,223.656,473,184.776a120.593,120.593,0,0,1,23.55-.92l.04-.58L711,60.776a13.077,13.077,0,0,1,1.3-.64l-.05-.11L747,39.276v-.01c.12.04.23.08.35.12l.15-.44s10.37-5.95,22.74-13.03L750,13.776,399.2,216.656a73.791,73.791,0,0,0,4.15,7.06Z" transform="translate(0 0)"/><path class="cls-3" d="M1037.74,180.946l-133.56-77.67L619,276.776c7,3,7,22,7,22l-110.44,65.27,50.99,30.46-.03.05c9.4,5.57,3.27,23.85-18.08,48.09a280.888,280.888,0,0,1-43.96,39.67c-11.57,20.5-80.48,51.46-80.48,51.46l-42.2-25.89c-17,16.89-36.4,30.34-57.45,35.05l.15.67s-49.5,31.17-67.5,41.17-34,5-34,5l-160-92,19-10V475.9a4.5,4.5,0,0,1,1.75-5.99l111.61-63.9a11.243,11.243,0,0,1,11.26.05l20.62,12.03.76-1.31,17.5-10,2.5,1.43c-7.91-6.28-1.46-24.09,19.08-47.41,5.78-6.57,13.06-12.76,19.92-19.02l.11-.05a26.208,26.208,0,0,0-2.57-4.56l-6.92-6.24a1.493,1.493,0,0,1-.14.12c-8.58,5.33-15.48,1.73-26.48-9.27l-2.12-2.62a18.272,18.272,0,0,1-4.71-7.6c-1.35-1.11-2.66-2.23-3.9-3.35L13.29,439.966a26.323,26.323,0,0,0,.05,45.55l274.5,158.65c.05.03.11.06.16.09a26.292,26.292,0,0,0,26,.01c.06-.03.11-.06.17-.09l723.49-417.69a26.309,26.309,0,0,0,.08-45.54ZM725,310.1v8.68l-3,12-72,42-47-26,9-4v-10h.01a4.862,4.862,0,0,1,2.4-5.19l73.1-41.4a4.9,4.9,0,0,1,4.94.06l30.38,18.23A4.917,4.917,0,0,1,725,310.1Z" transform="translate(0 0)"/><path class="cls-4" d="M914.79,44.826c-5.24-11.43-29.45-12.59-40.79-9.05-4.83,1.51-12.54,5.41-20.94,10.11-19.42,10.87-42.56,26.06-42.56,26.06l-.22.55c14.78,6,25.05,17.59,29.52,33.8.31,1.1.59,2.21.83,3.35l.2-.04S896,86.776,912,60.776C916.14,54.056,916.62,48.816,914.79,44.826Z" transform="translate(0 0)"/><path class="cls-4" d="M849,27.776c4.01-6.52,4.52-11.8,2.81-15.93C846.7-.484,821.74-2.594,811,2.776c-2.33,1.17-23.5,13.25-40.76,23.14C757.87,33,747.5,38.946,747.5,38.946l-.15.44a48.756,48.756,0,0,1,26.2,20.43,55.281,55.281,0,0,1,6.53,15.51c2.58-1.09,9.51-4.12,18.16-8.55C815.39,57.976,839.25,43.616,849,27.776Z" transform="translate(0 0)"/><path class="cls-5" d="M841.02,111.516c-.12-.63-.25-1.25-.39-1.87-.24-1.14-.52-2.25-.83-3.35l-20.11,11.68c.19.81.36,1.62.51,2.41a23.826,23.826,0,0,1,.33,6.51l-1.53-.12-228.67,139.2c1.58,4.54,2.83,8.68,3.8,12.22l215.32-133.27a23.431,23.431,0,0,0,3.14-2.33l.16.18,27.79-16.63A33.518,33.518,0,0,0,841.02,111.516Z" transform="translate(0 0)"/><path class="cls-6" d="M914.79,44.826c1.83,3.99,1.35,9.23-2.79,15.95-16,26-71.17,48.83-71.17,48.83l-.2.04c.14.62.27,1.24.39,1.87a33.518,33.518,0,0,1-.48,14.63l.21-.12.25-.25s28.4-12.13,51.03-29.15C912.1,81.516,927.64,62.566,914.79,44.826Z" transform="translate(0 0)"/><path class="cls-6" d="M853,45.776c7.34-8.93,8.55-20.89-1.19-33.93,1.71,4.13,1.2,9.41-2.81,15.93-9.75,15.84-33.61,30.2-50.76,39l-.41,2.17a1.435,1.435,0,0,1,.22.04,60.93,60.93,0,0,1,12.23,3.51l.22-.55s23.14-15.19,42.56-26.06Z" transform="translate(0 0)"/><path class="cls-6" d="M781.02,79.516l.13.21L798,69.276l.05-.29a1.435,1.435,0,0,0-.22-.04l.41-2.17c-8.65,4.43-15.58,7.46-18.16,8.55C780.44,76.686,780.75,78.086,781.02,79.516Z" transform="translate(0 0)"/><path class="cls-7" d="M819.69,117.976,839.8,106.3c-4.47-16.21-14.74-27.8-29.52-33.8a60.93,60.93,0,0,0-12.23-3.51l-.05.29-16.85,10.45L773,84.776c-1.12,0-5.62,2.16-12.44,5.82C723.14,110.656,616,175.776,616,175.776s2-28-20-25l148.85-87.91a49.049,49.049,0,0,1,9.93,11.2l18.77-14.25a48.756,48.756,0,0,0-26.2-20.43c-.12-.04-.23-.08-.35-.12v.01l-34.75,20.75.05.11a24.185,24.185,0,0,1,3.667-1.3,24.185,24.185,0,0,0-3.667,1.3,13.077,13.077,0,0,0-1.3.64l-214.41,122.5-.04.58c51.51,3.25,77.57,42.39,90.04,72.38,1.42,3.39,2.65,6.66,3.74,9.74L819,126.776l1.53.12a23.826,23.826,0,0,0-.33-6.51C820.05,119.6,819.88,118.786,819.69,117.976ZM722.345,57.743a44.046,44.046,0,0,1,4.553-.154,44.046,44.046,0,0,0-4.553.154,38.758,38.758,0,0,0-4.344.615A38.758,38.758,0,0,1,722.345,57.743Z" transform="translate(0 0)"/><path class="cls-5" d="M781.02,79.516c-.27-1.43-.58-2.83-.94-4.19a55.281,55.281,0,0,0-6.53-15.51l-18.77,14.25a49.049,49.049,0,0,0-9.93-11.2L596,150.776c22-3,20,25,20,25s107.14-65.12,144.56-85.18c6.82-3.66,11.32-5.82,12.44-5.82l8.15-5.05Z" transform="translate(0 0)"/><path class="cls-1" d="M720.78,307.906a.852.852,0,0,1,.43.78.866.866,0,0,1-.45.78L648.47,350.9a.856.856,0,0,1-.44.12.94.94,0,0,1-.46-.13l-31.2-18.26a.832.832,0,0,1-.43-.6.881.881,0,0,1,.44-.96l73.1-41.4a.892.892,0,0,1,.45-.12.94.94,0,0,1,.46.13Z" transform="translate(0 0)"/><path class="cls-8" d="M586.59,256.236l-.09.04-95.33,57.33-.65.23a13.448,13.448,0,0,0-4.03-3.56,37.543,37.543,0,0,0-30.89-3.07c2.06-20.08-15.31-32.42-17.25-33.74a.741.741,0,0,0,.13-.12c2.86-.1,24.75-1.81,23.46-29.82-1-21.7-25.27-26.23-25.27-26.23s.07.19.16.52c.66,2.42,2.37,12.63-14.17,17.06-7.71,2.06-14.2-3.58-19.31-11.16l.09-.06L473,184.776a120.593,120.593,0,0,1,23.55-.92C548.06,187.106,574.12,226.246,586.59,256.236Z" transform="translate(0 0)"/><path class="cls-9" d="M504.48,482.316c-21.1,15.46-42.8,27.07-58.59,30.4-8.57,1.8-14.4.95-17.5-2.05-6.94-6.71-.3-24.18,19.69-46.87,28.92-32.86,74.84-64.22,102.55-70.06,7.26-1.53,12.56-1.16,15.89.82,9.4,5.57,3.27,23.85-18.08,48.09A280.888,280.888,0,0,1,504.48,482.316Z" transform="translate(0 0)"/><path class="cls-10" d="M392.41,472.446c16.67-17.99,32.64-40.95,35.42-64.84l.24-.57a66.006,66.006,0,0,0,18.96,4.93c-8.56,17.7-26.57,51.48-51.09,80.54L381,484C384.75,480.436,388.6,476.576,392.41,472.446Z" transform="translate(0 0)"/><path class="cls-4" d="M594.13,278.2c-.97-3.54-2.22-7.68-3.8-12.22-1.09-3.08-2.32-6.35-3.74-9.74l-.09.04-95.33,57.33-.65.23a13.621,13.621,0,0,1,2.76,8.21,13.465,13.465,0,0,1-.66,4.18l-9.02,27.94,7.96-4.46L597,290.776S596.23,285.886,594.13,278.2Z" transform="translate(0 0)"/><path class="cls-4" d="M383.54,337.016l-5.06,5.61a58.845,58.845,0,0,1-11.62,9.94l.14.21c9.82,14.42,25.81,23.58,42.83,26.34l16.63-36.66C410.15,346.966,392.25,340.806,383.54,337.016Z" transform="translate(0 0)"/><path class="cls-8" d="M490.52,313.836a13.448,13.448,0,0,0-4.03-3.56,37.543,37.543,0,0,0-30.89-3.07c-.6,5.82-2.83,12.29-7.54,19.33a37.364,37.364,0,0,1-21.6,15.92l-16.63,36.66L405,389.776a43.037,43.037,0,0,0,5.96,6.38,61.99,61.99,0,0,0,17.11,10.88,66.006,66.006,0,0,0,18.96,4.93,78.2,78.2,0,0,0,17.97-.19l18.6-57.61,9.02-27.94a13.465,13.465,0,0,0,.66-4.18A13.621,13.621,0,0,0,490.52,313.836Z" transform="translate(0 0)"/><path class="cls-11" d="M515.56,364.046l-24-14.34-7.96,4.46L465,411.776a78.2,78.2,0,0,1-17.97.19c-8.56,17.7-26.57,51.48-51.09,80.54L428,510.776l.39-.11c-6.94-6.71-.3-24.18,19.69-46.87,28.92-32.86,74.84-64.22,102.55-70.06,7.26-1.53,12.56-1.16,15.89.82l.03-.05Z" transform="translate(0 0)"/><path class="cls-11" d="M302.7,423.626c-30.08-16.81-31.6-37.13-29.82-47.74a37.81,37.81,0,0,1,3-9.52,26.556,26.556,0,0,1-2.23-2.3s20.28-6.46,13.46-22.34l-.11.05c-6.86,6.26-14.14,12.45-19.92,19.02-20.54,23.32-26.99,41.13-19.08,47.41l2.46,1.4.02.01,112.58,64.15q4.755-5.625,9.47-11.93c-3.83-2.07-8.1-4.38-12.65-6.85C342,445.286,319.76,433.156,302.7,423.626Z" transform="translate(0 0)"/><path class="cls-11" d="M405,389.776l4.83-10.66c-17.02-2.76-33.01-11.92-42.83-26.34l-.14-.21a58.956,58.956,0,0,1-42.23,8.62,49.085,49.085,0,0,1-13.17,11.01,19.987,19.987,0,0,1-4.5,8.59q-.255.3-.51.57a2.412,2.412,0,0,0,.01,1c.52,2.32,4.2,6.75,12.84,11.57,18.46,10.32,43.06,23.71,61.51,33.71,3.87,2.09,7.46,4.04,10.67,5.77a391.007,391.007,0,0,0,19.48-37.25A43.037,43.037,0,0,1,405,389.776Z" transform="translate(0 0)"/><path class="cls-10" d="M354.62,506.176A285.525,285.525,0,0,0,381,484l14.94,8.51c-4.5,5.33-9.22,10.5-14.14,15.38-17,16.89-36.4,30.34-57.45,35.05a73.028,73.028,0,0,1-16.12,1.82,108.915,108.915,0,0,1-16.78-1.3L351,508.316v.46S352.32,507.876,354.62,506.176Z" transform="translate(0 0)"/><path class="cls-12" d="M438.35,273.466c-.12-.07-.18-.11-.18-.11s.11,0,.31-.01c28.18-24.92-1.48-55.57-1.48-55.57l-.17.04c.66,2.42,2.37,12.63-14.17,17.06-7.71,2.06-14.2-3.58-19.31-11.16a73.791,73.791,0,0,1-4.15-7.06,151.932,151.932,0,0,1-7.14-16.62,69.466,69.466,0,0,0-3.56-7.81l-1.33.05c-73.57-61.58-159.79-16.22-176.47-6.42-39.72,39.98.19,71.03.19,71.03s.54,25.45,29.38,51.32c1.24,1.12,2.55,2.24,3.9,3.35a18.1,18.1,0,0,1-.06-10.85,7.465,7.465,0,0,1,.26-.8l-.37-.13c-11-41,47-78,47-78s17.56,43.79,61.18,34.28a.86.86,0,0,1-.01-.16l.05-4.2a7.4,7.4,0,0,1,6.14-7.26,8.084,8.084,0,0,1,7.17,2.25l9.29,9.7c42.12,39.42,3.35,78.05,3.35,78.05s2,1.11,5.37,2.58c8.71,3.79,26.61,9.95,42.92,5.44a37.364,37.364,0,0,0,21.6-15.92c4.71-7.04,6.94-13.51,7.54-19.33C457.66,287.126,440.29,274.786,438.35,273.466Z" transform="translate(0 0)"/><path class="cls-10" d="M380.81,427.636c3.87,2.09,7.46,4.04,10.67,5.77-5.11,8.59-10.99,17.66-17.58,26.6-.45.61-.91,1.22-1.37,1.83-3.83-2.07-8.1-4.38-12.65-6.85C365.24,451.956,380.24,428.526,380.81,427.636Z" transform="translate(0 0)"/><path class="cls-13" d="M380.49,276.1a5.772,5.772,0,0,0-1.96-1.57,15.657,15.657,0,0,1-2.36,2.88.738.738,0,0,1-.5.2.7.7,0,0,1-.51-.22.709.709,0,0,1,.02-1,13.986,13.986,0,0,0,1.96-2.34,5.86,5.86,0,1,0,3.35,2.05Z" transform="translate(0 0)"/><path class="cls-14" d="M378.58,260.316c3.24,3.39,3.04,9.4-.05,14.21a4.973,4.973,0,0,0-.67-.28c2.87-4.43,3.34-10.18.21-13.44l-8.99-9.39q3.09,2.475,5.74,4.97Z" transform="translate(0 0)"/><path class="cls-14" d="M369.08,251.416l8.99,9.39c3.13,3.26,2.66,9.01-.21,13.44a4.524,4.524,0,0,0-.72-.2c2.89-4.3,3.23-9.82.42-12.75l-13.05-13.63a6.707,6.707,0,0,0-5.94-1.83,5.962,5.962,0,0,0-4.93,5.87l-.06,4.21a.7.7,0,0,1-.7.7h-.01a.738.738,0,0,1-.69-.56c.23-.04.47-.1.7-.15l.05-4.21a6.661,6.661,0,0,1,5.53-6.56,7.414,7.414,0,0,1,6.56,2.04Z" transform="translate(0 0)"/><path class="cls-13" d="M377.86,274.246a4.973,4.973,0,0,1,.67.28,15.657,15.657,0,0,1-2.36,2.88.738.738,0,0,1-.5.2.7.7,0,0,1-.51-.22.709.709,0,0,1,.02-1,13.986,13.986,0,0,0,1.96-2.34A4.524,4.524,0,0,1,377.86,274.246Z" transform="translate(0 0)"/><path class="cls-15" d="M410.96,396.156a391.007,391.007,0,0,1-19.48,37.25c-5.11,8.59-10.99,17.66-17.58,26.6-.45.61-.91,1.22-1.37,1.83q-4.71,6.3-9.47,11.93a201.915,201.915,0,0,1-14.2,15.26,5.567,5.567,0,0,1,2.14,7.25v12.04l3.62-2.14A285.525,285.525,0,0,0,381,484c3.75-3.56,7.6-7.42,11.41-11.55,16.67-17.99,32.64-40.95,35.42-64.84l.24-.57A61.99,61.99,0,0,1,410.96,396.156Z" transform="translate(0 0)"/><path class="cls-15" d="M277.12,296.366a19.808,19.808,0,0,1,1.32,2.54l3.56,6.87c2.07,4.87,3.49,8.78,3.49,12.35,0,4.39-2.14,8.28-7.87,12.8l6.92,6.24,10.8,9.74a58.8,58.8,0,0,0,83.14-4.28l5.06-5.61c-3.37-1.47-5.37-2.58-5.37-2.58s38.77-38.63-3.35-78.05l3.76,3.93c3.24,3.39,3.04,9.4-.05,14.21a5.772,5.772,0,0,1,1.96,1.57,5.856,5.856,0,1,1-3.35-2.05c2.89-4.3,3.23-9.82.42-12.75l-13.05-13.63a6.707,6.707,0,0,0-5.94-1.83,5.962,5.962,0,0,0-4.93,5.87l-.06,4.21a.7.7,0,0,1-.7.7h-.01a.738.738,0,0,1-.69-.56c-43.62,9.51-61.18-34.28-61.18-34.28s-58,37-47,78l.37.13a18.277,18.277,0,0,1,32.75-3.54Zm24.87,35.3a13.144,13.144,0,0,1-8.85-3.41l.48-.53.47-.52a11.845,11.845,0,0,0,16.7-.86l.52.47.53.48a13.171,13.171,0,0,1-9.15,4.35C302.46,331.656,302.22,331.666,301.99,331.666Zm5.32,19.75-.31-.64-.31-.64c.23-.11,22.23-10.76,25.15-18.12l.66.26.66.26C330.03,340.416,308.23,350.966,307.31,351.416Zm-8.16-86.72a20.7,20.7,0,0,1,28.68,5.97l7.32,10.59a20.715,20.715,0,0,1-34.65,22.71l-7.32-10.59A20.714,20.714,0,0,1,299.15,264.7Z" transform="translate(0 0)"/><path class="cls-15" d="M380.81,427.636c-18.45-10-43.05-23.39-61.51-33.71-8.64-4.82-12.32-9.25-12.84-11.57a2.412,2.412,0,0,1-.01-1q.255-.27.51-.57a19.987,19.987,0,0,0,4.5-8.59c-16.74,9.15-30.4-.96-35.58-5.83a37.81,37.81,0,0,0-3,9.52c-1.78,10.61-.26,30.93,29.82,47.74,17.06,9.53,39.3,21.66,57.18,31.36C365.24,451.956,380.24,428.526,380.81,427.636Z" transform="translate(0 0)"/><path d="M365.53,246.686l9.29,9.7q-2.655-2.49-5.74-4.97l-4.06-4.24a7.414,7.414,0,0,0-6.56-2.04,6.661,6.661,0,0,0-5.53,6.56l-.05,4.21c-.23.05-.47.11-.7.15a.86.86,0,0,1-.01-.16l.05-4.2a7.4,7.4,0,0,1,6.14-7.26A8.084,8.084,0,0,1,365.53,246.686Z" transform="translate(0 0)"/><path class="cls-6" d="M722.83,304.476l-30.38-18.23a4.9,4.9,0,0,0-4.94-.06l-73.1,41.4a4.894,4.894,0,0,0-.06,8.49l31.2,18.27c.15.08.3.16.45.23a4.911,4.911,0,0,0,4.46-.21l.54-.31,71.75-41.12A4.779,4.779,0,0,0,725,310.1v-2.82A4.794,4.794,0,0,0,722.83,304.476Zm-2.07,4.99L648.47,350.9a.856.856,0,0,1-.44.12.94.94,0,0,1-.46-.13l-31.2-18.26a.832.832,0,0,1-.43-.6.881.881,0,0,1,.44-.96l73.1-41.4a.892.892,0,0,1,.45-.12.94.94,0,0,1,.46.13l30.39,18.23a.852.852,0,0,1,.43.78A.866.866,0,0,1,720.76,309.466Z" transform="translate(0 0)"/><path class="cls-6" d="M348.86,489.026c-.02-.01-.03-.02-.05-.03l-121.57-70.91-20.62-12.03a11.243,11.243,0,0,0-11.26-.05l-111.61,63.9A4.5,4.5,0,0,0,82,475.9a4.422,4.422,0,0,0,1.72,1.8l142.98,83.25c.1.06.2.11.3.16a16.376,16.376,0,0,0,16.27-.21l.59-.35L348.83,498.6a5.552,5.552,0,0,0,.03-9.57Zm-110.67,63.25a6.368,6.368,0,0,1-6.46.02L97,473.846l103.33-59.16a1.23,1.23,0,0,1,.62-.17,1.3,1.3,0,0,1,.63.17l135.66,79.14Z" transform="translate(0 0)"/><path class="cls-14" d="M332.5,332.276l.66.26c-3.13,7.88-24.93,18.43-25.85,18.88l-.31-.64S329.44,339.986,332.5,332.276Z" transform="translate(0 0)"/><path class="cls-14" d="M331.84,332.016l.66.26c-3.06,7.71-25.5,18.5-25.5,18.5l-.31-.64C306.92,350.026,328.92,339.376,331.84,332.016Z" transform="translate(0 0)"/><path class="cls-2" d="M619,276.776l285.18-173.5L893,96.776l-.97-.15c-22.63,17.02-51.03,29.15-51.03,29.15l-.25.25-.21.12-27.79,16.63-.16-.18a23.431,23.431,0,0,1-3.14,2.33L594.13,278.2c2.1,7.69,2.87,12.58,2.87,12.58l-105.44,58.93,24,14.34L626,298.776S626,279.776,619,276.776Z" transform="translate(0 0)"/><path class="cls-2" d="M650.83,361.156a5.625,5.625,0,0,1-4.83.36,6.033,6.033,0,0,1-.81-.39L612,341.706v1.07l-9,4,47,26,72-42,3-12v-.42l-74,42.7Z" transform="translate(0 0)"/><path class="cls-2" d="M428.39,510.666l-.39.11-32.06-18.27c-4.5,5.33-9.22,10.5-14.14,15.38l42.2,25.89s68.91-30.96,80.48-51.46c-21.1,15.46-42.8,27.07-58.59,30.4C437.32,514.516,431.49,513.666,428.39,510.666Z" transform="translate(0 0)"/><path class="cls-2" d="M250.46,409.606a9.748,9.748,0,0,1-2.46-1.4l-2.5-1.43-17.5,10-.76,1.31L348.81,489c.02.01.03.02.05.03a201.915,201.915,0,0,0,14.2-15.26l-112.58-64.15Z" transform="translate(0 0)"/><path class="cls-2" d="M308.23,544.756a108.915,108.915,0,0,1-16.78-1.3L244,571.466l-.73.43a16.376,16.376,0,0,1-16.27.21c-.1-.05-.2-.1-.3-.16L82,487.686v.09l-19,10,160,92s16,5,34-5,67.5-41.17,67.5-41.17l-.15-.67A73.028,73.028,0,0,1,308.23,544.756Z" transform="translate(0 0)"/><path class="cls-14" d="M311.31,326.816l.53.48a13.171,13.171,0,0,1-9.15,4.35c-.23.01-.47.02-.7.02a13.144,13.144,0,0,1-8.85-3.41l.48-.53A12.516,12.516,0,0,0,311.31,326.816Z" transform="translate(0 0)"/><path class="cls-16" d="M461.94,243.526c-1-21.7-25.27-26.23-25.27-26.23s.07.19.16.52l.17-.04s29.66,30.65,1.48,55.57C441.34,273.246,463.23,271.536,461.94,243.526Z" transform="translate(0 0)"/><path class="cls-16" d="M264.84,150.926c-25.91,12.02-43.1,23.82-54.14,34.93,16.68-9.8,102.9-55.16,176.47,6.42l1.33-.05C375.69,167.686,336.07,117.876,264.84,150.926Z" transform="translate(0 0)"/><path class="cls-16" d="M284.54,337.166a26.208,26.208,0,0,1,2.57,4.56c6.82,15.88-13.46,22.34-13.46,22.34a26.556,26.556,0,0,0,2.23,2.3c5.18,4.87,18.84,14.98,35.58,5.83a49.085,49.085,0,0,0,13.17-11.01,58.539,58.539,0,0,1-29.29-14.28Z" transform="translate(0 0)"/><path class="cls-14" d="M310.79,326.346l.52.47a12.516,12.516,0,0,1-17.69.91l.47-.52a11.845,11.845,0,0,0,16.7-.86Z" transform="translate(0 0)"/><path class="cls-17" d="M288,644.256c-.05-.03-.11-.06-.16-.09L13.34,485.516A26.075,26.075,0,0,1,.19,462.726H0v54.05l.2.01a26.107,26.107,0,0,0,13.14,23.73l274.5,158.65c.05.03.11.06.16.09a26.292,26.292,0,0,0,26,.01v-55A26.292,26.292,0,0,1,288,644.256Z" transform="translate(0 0)"/><path class="cls-10" d="M282,305.776c2.07,4.87,3.49,8.78,3.49,12.35,0,4.39-2.14,8.28-7.87,12.8l-8.93-8.05a18.321,18.321,0,0,0,9.75-23.97Z" transform="translate(0 0)"/><path class="cls-10" d="M277.62,330.926a1.493,1.493,0,0,1-.14.12c-8.58,5.33-15.48,1.73-26.48-9.27l-2.12-2.62a18.3,18.3,0,0,0,19.81,3.72Z" transform="translate(0 0)"/><path class="cls-4" d="M650.46,354.366a4.911,4.911,0,0,1-4.46.21v6.94a5.625,5.625,0,0,0,4.83-.36l.17-.1v-7Z" transform="translate(0 0)"/><path class="cls-4" d="M243.27,560.9a16.376,16.376,0,0,1-16.27.21v11a16.376,16.376,0,0,0,16.27-.21l.73-.43v-10.69l-.14-.23Z" transform="translate(0 0)"/><path class="cls-18" d="M722.75,312.936,651,354.056v7l74-42.7V310.1A4.779,4.779,0,0,1,722.75,312.936Z" transform="translate(0 0)"/><path class="cls-18" d="M614.35,336.076a4.82,4.82,0,0,1-2.34-3.3H612v8.93l33.19,19.42a6.033,6.033,0,0,0,.81.39v-6.94c-.15-.07-.3-.15-.45-.23Z" transform="translate(0 0)"/><path class="cls-18" d="M348.83,498.6l-104.97,61.95.14.23v10.69l47.45-28.01L351,508.316v-12.04A5.6,5.6,0,0,1,348.83,498.6Z" transform="translate(0 0)"/><path class="cls-18" d="M83.72,477.7A4.422,4.422,0,0,1,82,475.9v11.79l144.7,84.26c.1.06.2.11.3.16v-11c-.1-.05-.2-.1-.3-.16Z" transform="translate(0 0)"/><path class="cls-10" d="M335.15,281.256a20.715,20.715,0,0,1-34.65,22.71l-7.32-10.59a20.715,20.715,0,1,0,34.65-22.71Z" transform="translate(0 0)"/><path id="leftEye" class="cls-19" d="M278.44,298.906l-1.32-2.54a18.277,18.277,0,0,0-32.75,3.54,7.465,7.465,0,0,0-.26.8,18.245,18.245,0,0,0,1.96,14.97l2.81,3.48a18.284,18.284,0,0,0,29.56-20.25Zm-16.15,22.98a6.8,6.8,0,0,1-7.31-11.38,6.669,6.669,0,0,1,1.22-.78,6.795,6.795,0,0,1,8.75,9.77A6.638,6.638,0,0,1,262.29,321.886Z" transform="translate(0 0)"/><path id="rightEye" class="cls-19" d="M327.83,270.666a20.715,20.715,0,1,1-28.68-5.97A20.714,20.714,0,0,1,327.83,270.666Zm-19.54,29.22a6.8,6.8,0,1,0-9.12-3.03A6.8,6.8,0,0,0,308.29,299.886Z" transform="translate(0 0)"/><path id="leftPupil" class="cls-12" d="M265.33,312.766a6.806,6.806,0,0,0-9.13-3.04,6.669,6.669,0,0,0-1.22.78,6.8,6.8,0,0,0,7.31,11.38,6.638,6.638,0,0,0,2.66-2.39A6.754,6.754,0,0,0,265.33,312.766Z" transform="translate(0 0)"/><path id="rightPupil" class="cls-12" d="M311.33,290.766a6.8,6.8,0,1,1-9.13-3.04A6.8,6.8,0,0,1,311.33,290.766Z" transform="translate(0 0)"/><path id="screen" class="cls-1" d="M337.24,493.826l-99.05,58.45a6.368,6.368,0,0,1-6.46.02L97,473.846l103.33-59.16a1.23,1.23,0,0,1,.62-.17,1.3,1.3,0,0,1,.63.17Z" transform="translate(0 0)"/></svg>