<svg xmlns="http://www.w3.org/2000/svg" viewBox="0 0 718.542 783.501"><defs></defs><title>svg-frame3</title><g id="Color"><path class="frame3-1" d="M704.174,482l-110.92-64.25V275.956l-10-5L460.934,341.1l-27.22-15.77a28.834,28.834,0,0,0-28.91.02l-75.15,43.61c-8.97-24.04-15.41-50.16-16.61-55.12q2.445-1.92,4.76-4l.01.01c60.44,14.11,67.44-38.89,67.44-38.89s-.01.01-.02.01c-.88.28-36.16,11.54-36.16-23.87l-.13-.01c.21-2.51.31-5.06.31-7.63v-17.63c10.24-6.59,12-22.97,12-42.87l-.1-.02a57.929,57.929,0,0,0,1.1-7.98,30.081,30.081,0,0,0-2.73-13.5l.08-.04c0-64.53-32.35-91.46-32.35-91.46s1.24-106.09-139.79-49.17c-9.71,3.92-20.1,8.61-31.21,14.17-116,58-75,166-60,191,2.72,4.53,6.77,11.34,10.49,19,.37.75.73,1.5,1.08,2.27l-.39.18a172.229,172.229,0,0,0-87.18,149.83v155.28l-5.91,3.43a28.652,28.652,0,0,0-14.09,28.78v27.23l1.22.09a28.407,28.407,0,0,0,12.95,15.79l270.42,155.82c.14.08.27.16.41.23a28.812,28.812,0,0,0,28-.03c.13-.07.27-.14.4-.22l390.5-225.76a28.4,28.4,0,0,0,13.74-18.82h.36v-24.01A28.667,28.667,0,0,0,704.174,482Zm-566.24-139.66c.21-.24.32-.38.32-.38s-.08.81-.13,2.24c.04.52.06,1.05.06,1.58,0,.2.05,3.21.42,8.36a67.584,67.584,0,0,1-.48-9.94C138.084,343.566,138.024,342.946,137.934,342.336Zm222.86-161.62a.031.031,0,0,0-.01.02c0-.01.01-.03.01-.04Z"/><path class="frame3-2" d="M263.254,328.956s-.29,1.74-.99,4.7c-.63.06-1.27.1-1.91.13C261.334,332.236,262.294,330.626,263.254,328.956Z"/><path class="frame3-3" d="M.254,580.726a28.652,28.652,0,0,1,14.09-28.78l5.91-3.43,63.47-36.83,39.28-22.8q5.34,9.36,11.32,17.93l-52.07,30.14v10l-23,13,238,136,287-166,9-19v-93.21L704.174,482a28.812,28.812,0,0,1-.02,49.88l-390.5,225.76c-.15.08-.29.17-.44.25a28.808,28.808,0,0,1-27.93.02c-.15-.08-.29-.17-.44-.25L14.424,601.836A28.424,28.424,0,0,1,.254,580.726Z"/><path class="frame3-4" d="M718.254,511.046v24.01h-.36a28.4,28.4,0,0,1-13.74,18.82l-390.5,225.76c-.13.08-.27.15-.4.22v-21.9l-.04-.07c.15-.08.29-.17.44-.25l390.5-225.76A28.467,28.467,0,0,0,718.254,511.046Z"/><polygon class="frame3-4" points="593.254 510.956 584.254 529.956 297.254 695.956 59.254 559.956 82.254 546.956 298.254 671.956 298.734 671.336 307.254 677.956 593.254 510.956"/><path class="frame3-3" d="M307.254,381.956l22.4-13,75.15-43.61a28.834,28.834,0,0,1,28.91-.02l27.22,15.77-73.55,42.18-20.13-11.32-186.06,107.72a176.833,176.833,0,0,1-11.59-17.83l22.7-13.18Z"/><path class="frame3-5" d="M387.384,383.276l-78.48,45-15.65-8.32-72,43,44,24,31.5-18.5h.64l.06,14.49-1.2.01-65.41,39.47a143.785,143.785,0,0,1-49.65-42.75l186.06-107.72Z"/><path class="frame3-2" d="M385.234,270.966c.01,0,.01,0,.02-.01s-7,53-67.44,38.89l-.01-.01a94.411,94.411,0,0,0,22.08-29.32l.54.27S356.244,292.946,385.234,270.966Z"/><path class="frame3-6" d="M349.074,247.1c0,35.41,35.28,24.15,36.16,23.87-28.99,21.98-44.81,9.82-44.81,9.82l-.54-.27a93.691,93.691,0,0,0,9.06-33.43Z"/><path class="frame3-7" d="M313.044,313.836q-3,2.37-6.21,4.48a93.774,93.774,0,0,1-44.57,15.34c.7-2.96.99-4.7.99-4.7s-87,10-87-87,135-160,135-160,25.01,25.1,25.01,61.05l.02.1c-11.82,1.48-21.03,13.38-21.03,27.85,0,1.01.04,2.01.13,2.99l-.13.01c0,36,10.37,51,22,51a21.561,21.561,0,0,0,12-3.13v17.63c0,2.57-.1,5.12-.31,7.63a94.24,94.24,0,0,1-31.14,62.75Q315.494,311.921,313.044,313.836Zm18.41-87.03a1.415,1.415,0,1,0-2.83,0,17,17,0,0,1-16.98,16.98,1.415,1.415,0,1,0,0,2.83A19.837,19.837,0,0,0,331.454,226.806Zm-17.7,63.15c10.22,0,20.5-10.2,20.5-16s-10.28-5-20.5-5-18.5,4.7-18.5,10.5S303.534,289.956,313.754,289.956Zm-15.94-102.35a36.3,36.3,0,0,0,.44-5.65c0-18.78-13.88-34-31-34s-31,15.22-31,34c0,.67.02,1.34.05,2h-.05c0,53,13.26,66.28,34,63,18.99-3,27.55-27.98,27.56-59.31Z"/><path class="frame3-8" d="M361.154,178.936c-.18.94-.33,1.6-.36,1.76v.02a.031.031,0,0,0-.01.02,26.986,26.986,0,0,1-11.53,15.27,20.437,20.437,0,0,1-4.5,2.03,20.059,20.059,0,0,1-6,.92c-12.13,0-22.11-10.95-23.37-25.01l-.13.01c0,36,10.37,51,22,51a21.561,21.561,0,0,0,12-3.13c10.24-6.59,12-22.97,12-42.87Z"/><path class="frame3-2" d="M351.254,175.956a12,12,0,0,0-6.5,22.08,20.437,20.437,0,0,0,4.5-2.03,26.986,26.986,0,0,0,11.53-15.27c0-.01.01-.03.01-.04A11.963,11.963,0,0,0,351.254,175.956Z"/><path class="frame3-9" d="M359.524,157.456a25.856,25.856,0,0,0-10.27-11.6,20.732,20.732,0,0,0-10.5-2.9,20.1,20.1,0,0,0-2.47.15c-11.82,1.48-21.03,13.38-21.03,27.85,0,1.01.04,2.01.13,2.99,1.26,14.06,11.24,25.01,23.37,25.01a20.059,20.059,0,0,0,6-.92,11.993,11.993,0,1,1,16.04-17.34c.03-.16.18-.82.36-1.76a57.929,57.929,0,0,0,1.1-7.98A30.081,30.081,0,0,0,359.524,157.456Z"/><path class="frame3-8" d="M330.034,225.386a1.419,1.419,0,0,1,1.42,1.42,19.837,19.837,0,0,1-19.81,19.81,1.415,1.415,0,1,1,0-2.83,17,17,0,0,0,16.98-16.98A1.417,1.417,0,0,1,330.034,225.386Z"/><path class="frame3-10" d="M329.654,368.956l-22.4,13v-63l-.42-.64q3.21-2.115,6.21-4.48C314.244,318.8,320.684,344.916,329.654,368.956Z"/><path class="frame3-11" d="M334.254,273.956c0,5.8-10.28,16-20.5,16s-18.5-4.7-18.5-10.5,8.28-10.5,18.5-10.5S334.254,268.156,334.254,273.956Z"/><path class="frame3-3" d="M313.254,757.956v21.9a28.812,28.812,0,0,1-28,.03v-21.93l.03-.05a28.808,28.808,0,0,0,27.93-.02Z"/><polygon class="frame3-10" points="293.254 419.956 308.904 428.276 297.254 434.956 297.394 468.456 296.754 468.456 265.254 486.956 221.254 462.956 293.254 419.956"/><path class="frame3-12" d="M307.254,318.956v63L192.3,448.666c-7.78-7.45-13.88-47.21-13.88-47.21l.3-1.3a77.892,77.892,0,0,0,11.53,1.8c51.03,4.25,68.06-51.53,72.01-68.3a93.774,93.774,0,0,0,44.57-15.34Z"/><polygon class="frame3-1" points="298.254 670.956 298.734 671.336 298.254 671.956 82.254 546.956 82.254 536.956 298.204 658.366 298.254 670.956"/><path class="frame3-5" d="M298.034,619.566l.17,38.8L82.254,536.956l52.07-30.14a202.149,202.149,0,0,0,45.26,47.03,194.013,194.013,0,0,0,48.87,26.37Z"/><path class="frame3-10" d="M297.914,590.226l.12,29.34-69.58-39.35a225.041,225.041,0,0,0,55.03,12.53c.94.09,1.88.14,2.8.14A26.746,26.746,0,0,0,297.914,590.226Z"/><path class="frame3-9" d="M298.254,181.956a36.3,36.3,0,0,1-.44,5.65v.04c-.13.87-.29,1.73-.49,2.58a17.673,17.673,0,0,0-13.57-6.27,17.258,17.258,0,0,0-17.5,17,16.845,16.845,0,0,0,7.83,14.16,28.58,28.58,0,0,1-6.83.84c-16.51,0-30-14.15-30.95-32-.03-.66-.05-1.33-.05-2,0-18.78,13.88-34,31-34S298.254,163.176,298.254,181.956Z"/><path class="frame3-10" d="M297.454,482.946l.25,58.63a26.617,26.617,0,0,0-8.68-2.41q-32.355-3.345-58.18-16.74l65.41-39.47Z"/><path class="frame3-8" d="M297.324,190.226c.2-.85.36-1.71.49-2.58-.01,31.33-8.57,56.31-27.56,59.31-20.74,3.28-34-10-34-63h.05c.95,17.85,14.44,32,30.95,32a28.58,28.58,0,0,0,6.83-.84C285.474,212.306,294.5,202.616,297.324,190.226Z"/><path class="frame3-2" d="M283.754,183.956a17.673,17.673,0,0,1,13.57,6.27c-2.82,12.39-11.85,22.08-23.24,24.89a16.845,16.845,0,0,1-7.83-14.16A17.258,17.258,0,0,1,283.754,183.956Z"/><path class="frame3-4" d="M284.844,757.656c.15.08.29.17.44.25l-.03.05v21.93c-.14-.07-.27-.15-.41-.23L14.424,623.836a28.407,28.407,0,0,1-12.95-15.79l-1.22-.09v-27.23a28.424,28.424,0,0,0,14.17,21.11Z"/><path class="frame3-2" d="M164.124,394.676c-18.63-10.2-24.06-28.42-25.52-40.54-.37-5.15-.42-8.16-.42-8.36,0-.53-.02-1.06-.06-1.58.05-1.43.13-2.24.13-2.24s-.11.14-.32.38a26.735,26.735,0,0,0-5.8-13.39l.57-.46c14.28,17.2,77.69,85.31,127.65,5.3.64-.03,1.28-.07,1.91-.13-3.95,16.77-20.98,72.55-72.01,68.3a77.892,77.892,0,0,1-11.53-1.8A57.6,57.6,0,0,1,164.124,394.676Z"/><path class="frame3-10" d="M192.3,448.666l-22.7,13.18a208.79,208.79,0,0,1-10.66-21.61c-2.47-5.82-4.65-11.63-6.57-17.35a112.01,112.01,0,0,0,18.88-11.93l-7.13-16.28a57.6,57.6,0,0,0,14.6,5.48l-.3,1.3S184.524,441.216,192.3,448.666Z"/><path class="frame3-2" d="M327.254,65.956s1.24-106.09-139.79-49.17c-9.71,3.92-20.1,8.61-31.21,14.17-116,58-75,166-60,191,2.72,4.53,6.77,11.34,10.49,19,.37.75.73,1.5,1.08,2.27,7.71,16.56,13.16,36.32.43,45.73-23,17-33,0-33,0s-15.15,28.52,3.35,49.38a39.05,39.05,0,0,0,3.65,3.62c.72.63,1.44,1.24,2.16,1.82a26.93,26.93,0,0,1,26.71-24.75h.13a26.831,26.831,0,0,1,20.87,9.92h.01l.57-.46c14.28,17.2,77.69,85.31,127.65,5.3.98-1.55,1.94-3.16,2.9-4.83,0,0-87,10-87-87s135-160,135-160,25.01,25.1,25.01,61.05l.02.1a20.1,20.1,0,0,1,2.47-.15,20.732,20.732,0,0,1,10.5,2.9,25.856,25.856,0,0,1,10.27,11.6l.08-.04C359.6,92.886,327.254,65.956,327.254,65.956Z"/><path class="frame3-7" d="M297.7,541.576a26.617,26.617,0,0,0-8.68-2.41q-32.355-3.345-58.18-16.74a143.785,143.785,0,0,1-49.65-42.75,176.833,176.833,0,0,1-11.59-17.83,208.79,208.79,0,0,1-10.66-21.61c-2.47-5.82-4.65-11.63-6.57-17.35a100.718,100.718,0,0,1-53.24,10.39c2.66,8.58,5.81,17.4,9.52,26.3A264.037,264.037,0,0,0,123,488.886q5.34,9.36,11.32,17.93a202.149,202.149,0,0,0,45.26,47.03,194.013,194.013,0,0,0,48.87,26.37,225.041,225.041,0,0,0,55.03,12.53c.94.09,1.88.14,2.8.14a26.746,26.746,0,0,0,11.63-2.66Z"/><path class="frame3-6" d="M132.134,328.946a26.735,26.735,0,0,1,5.8,13.39c-2.79,3.24-23.78,25.55-53.52,1.44a26.93,26.93,0,0,1,26.71-24.75h.13a26.831,26.831,0,0,1,20.87,9.92Z"/><path class="frame3-10" d="M108.654,459.576c-3.71-8.9-6.86-17.72-9.52-26.3a76.542,76.542,0,0,1-17.88-3.32s-16.99-65.31-2.65-91.62c-18.5-20.86-3.35-49.38-3.35-49.38s10,17,33,0c12.73-9.41,7.28-29.17-.43-45.73l-.39.18a172.229,172.229,0,0,0-87.18,149.83v155.28l63.47-36.83,39.28-22.8A264.037,264.037,0,0,1,108.654,459.576Z"/><path class="frame3-12" d="M164.124,394.676c-18.63-10.2-24.06-28.42-25.52-40.54a67.584,67.584,0,0,1-.48-9.94c-.04-.63-.1-1.25-.19-1.86-2.79,3.24-23.78,25.55-53.52,1.44-.72-.58-1.44-1.19-2.16-1.82a39.05,39.05,0,0,1-3.65-3.62c-14.34,26.31,2.65,91.62,2.65,91.62a76.542,76.542,0,0,0,17.88,3.32,100.718,100.718,0,0,0,53.24-10.39,112.01,112.01,0,0,0,18.88-11.93Z"/><polygon class="frame3-10" points="475.254 433.956 475.254 482.956 434.254 506.956 434.254 457.956 475.254 433.956"/><polygon class="frame3-10" points="583.254 270.956 460.934 341.096 387.384 383.276 308.904 428.276 297.254 434.956 307.254 439.956 470.254 346.486 593.254 275.956 583.254 270.956"/><path class="frame3-5" d="M470.254,346.486l-163,93.47v238l286-167v-235Zm5,136.47-41,24v-49l41-24Z"/><polygon class="frame3-1" points="297.254 434.956 297.394 468.456 297.454 482.946 297.704 541.576 297.914 590.226 298.034 619.566 298.204 658.366 298.254 670.956 298.734 671.336 307.254 677.956 307.254 582.806 307.254 549.106 307.254 439.956 297.254 434.956"/></g><g id="frame3screens"><g id="frame3screen1"><polygon class="frame3-10" points="485.254 438.956 485.254 487.956 444.254 511.956 444.254 462.956 485.254 438.956"/><polygon class="frame3-10" points="593.254 275.956 470.934 346.096 397.384 388.276 318.904 433.276 307.254 439.956 317.254 444.956 480.254 351.486 603.254 280.956 593.254 275.956"/><path class="frame3-5" d="M480.254,351.486l-163,93.47v238l286-167v-235Zm5,136.47-41,24v-49l41-24Z"/><polygon class="frame3-1" points="307.254 439.956 307.394 473.456 307.454 487.946 307.704 546.576 307.914 595.226 308.034 624.566 308.204 663.366 308.254 675.956 308.734 676.336 317.254 682.956 317.254 587.806 317.254 554.106 317.254 444.956 307.254 439.956"/></g><g id="frame3screen2"><polygon class="frame3-10" points="495.254 442.956 495.254 491.956 454.254 515.956 454.254 466.956 495.254 442.956"/><polygon class="frame3-10" points="603.254 279.956 480.934 350.096 407.384 392.276 328.904 437.276 317.254 443.956 327.254 448.956 490.254 355.486 613.254 284.956 603.254 279.956"/><path class="frame3-5" d="M490.254,355.486l-163,93.47v238l286-167v-235Zm5,136.47-41,24v-49l41-24Z"/><polygon class="frame3-1" points="317.254 443.956 317.394 477.456 317.454 491.946 317.704 550.576 317.914 599.226 318.034 628.566 318.204 667.366 318.254 679.956 318.734 680.336 327.254 686.956 327.254 591.806 327.254 558.106 327.254 448.956 317.254 443.956"/></g><g id="frame3screen3"><polygon class="frame3-10" points="505.254 446.956 505.254 495.956 464.254 519.956 464.254 470.956 505.254 446.956"/><polygon class="frame3-10" points="613.254 283.956 490.934 354.096 417.384 396.276 338.904 441.276 327.254 447.956 337.254 452.956 500.254 359.486 623.254 288.956 613.254 283.956"/><path class="frame3-5" d="M500.254,359.486l-163,93.47v238l286-167v-235Zm5,136.47-41,24v-49l41-24Z"/><polygon class="frame3-1" points="327.254 447.956 327.394 481.456 327.454 495.946 327.704 554.576 327.914 603.226 328.034 632.566 328.204 671.366 328.254 683.956 328.734 684.336 337.254 690.956 337.254 595.806 337.254 562.106 337.254 452.956 327.254 447.956"/></g><g id="frame3screen4"><polygon class="frame3-10" points="515.254 450.956 515.254 499.956 474.254 523.956 474.254 474.956 515.254 450.956"/><polygon class="frame3-10" points="623.254 287.956 500.934 358.096 427.384 400.276 348.904 445.276 337.254 451.956 347.254 456.956 510.254 363.486 633.254 292.956 623.254 287.956"/><path class="frame3-5" d="M510.254,363.486l-163,93.47v238l286-167v-235Zm5,136.47-41,24v-49l41-24Z"/><polygon class="frame3-1" points="337.254 451.956 337.394 485.456 337.454 499.946 337.704 558.576 337.914 607.226 338.034 636.566 338.204 675.366 338.254 687.956 338.734 688.336 347.254 694.956 347.254 599.806 347.254 566.106 347.254 456.956 337.254 451.956"/></g><g id="frame3screen5"><polygon class="frame3-10" points="525.254 454.956 525.254 503.956 484.254 527.956 484.254 478.956 525.254 454.956"/><polygon class="frame3-10" points="633.254 291.956 510.934 362.096 437.384 404.276 358.904 449.276 347.254 455.956 357.254 460.956 520.254 367.486 643.254 296.956 633.254 291.956"/><path class="frame3-5" d="M520.254,367.486l-163,93.47v238l286-167v-235Zm5,136.47-41,24v-49l41-24Z"/><polygon class="frame3-1" points="347.254 455.956 347.394 489.456 347.454 503.946 347.704 562.576 347.914 611.226 348.034 640.566 348.204 679.366 348.254 691.956 348.734 692.336 357.254 698.956 357.254 603.806 357.254 570.106 357.254 460.956 347.254 455.956"/></g><g id="frame3screen6"><polygon class="frame3-10" points="536.254 458.956 536.254 507.956 495.254 531.956 495.254 482.956 536.254 458.956"/><polygon class="frame3-10" points="644.254 295.956 521.934 366.096 448.384 408.276 369.904 453.276 358.254 459.956 368.254 464.956 531.254 371.486 654.254 300.956 644.254 295.956"/><path class="frame3-5" d="M531.254,371.486l-163,93.47v238l286-167v-235Zm5,136.47-41,24v-49l41-24Z"/><polygon class="frame3-1" points="358.254 459.956 358.394 493.456 358.454 507.946 358.704 566.576 358.914 615.226 359.034 644.566 359.204 683.366 359.254 695.956 359.734 696.336 368.254 702.956 368.254 607.806 368.254 574.106 368.254 464.956 358.254 459.956"/></g></g></svg>