<svg xmlns="http://www.w3.org/2000/svg" viewBox="0 0 1923 1052.77"><defs></defs><g id="Ground_line" data-name="Ground line"><rect class="frame8-1" y="599.77" width="1923" height="453"/></g><g id="Line"><g id="tree"><path class="frame8-2" d="M1852.14,226.63c31.79,13.51,52.11,34.12,52.11,57.21,0,30.25-34.88,56.24-84.77,67.59.01.01.03.01.04.02l-.02.05c-170,76-254.24-.94-288-49-57.03-81.19-17.82-156.78-15.15-161.74l.27.06c1.28-61.03,47.87-110.09,105.16-110.09,50.99,0,93.5,38.86,103.14,90.43a94.372,94.372,0,0,1,43.17-10.33c49.84,0,90.24,38.01,90.24,84.9A80.275,80.275,0,0,1,1852.14,226.63Zm-168.63,119c.49-.17.99-.34,1.49-.51-.46-.16-.92-.32-1.37-.49C1683.59,344.96,1683.55,345.3,1683.51,345.63Z" transform="translate(-1.5 -30.73)"/><path class="frame8-3" d="M1819.52,351.45c16.8,8.47,27.06,19.79,27.06,32.24,0,26.24-45.66,47.52-101.99,47.52q-1.965,0-3.9-.03a208.948,208.948,0,0,1-27.63-2.29c-26.31-3.98-47.93-12.81-60-24.23a87.646,87.646,0,0,1-7.86,6.29,86.551,86.551,0,0,1-18.7,10.16,85.01,85.01,0,0,1-30.88,5.83c-45.92,0-83.68-36.81-88.19-83.96a55.846,55.846,0,0,1-36.23,13.48c-32.14,0-58.2-27.74-58.2-61.95,0-27.92,17.37-51.52,41.23-59.25a74,74,0,0,1-5.99-29.38c0-36.57,25.82-66.22,57.67-66.22a50.731,50.731,0,0,1,10.44,1.1c-2.67,4.96-41.88,80.55,15.15,161.74,33.76,48.06,118,125,288,49Z" transform="translate(-1.5 -30.73)"/><path class="frame8-4" d="M1733.27,714.58c.07.22.11.33.11.33s-31.44,20.96-73.36,4.49c0,0-4.49-179.65-5.99-212.59,0-.09-.01-.18-.02-.28l.49-.03S1686.39,731.76,1733.27,714.58Z" transform="translate(-1.5 -30.73)"/><path class="frame8-5" d="M1740.69,431.18c-4.9,24.35-13.48,54.2-28.27,77.13-29.15,45.18,18.33,198.22,20.85,206.27-46.88,17.18-78.77-208.08-78.77-208.08l-.49.03c-1.43-27.02-34.74-66.93-46.67-80.41a84.023,84.023,0,0,0,19.16-5.01c8.51,15.13,41.91,72.75,57.86,74.05h.01a4.567,4.567,0,0,0,4.1-.32c26.89-14.35,28.02-44.26,24.59-65.95A208.948,208.948,0,0,0,1740.69,431.18Z" transform="translate(-1.5 -30.73)"/><path class="frame8-4" d="M1674.99,484.36c3.65,7.3,6.95,9.97,9.37,10.8-15.95-1.3-49.35-58.92-57.86-74.05a86.551,86.551,0,0,0,18.7-10.16C1655.89,438.39,1670.44,475.25,1674.99,484.36Z" transform="translate(-1.5 -30.73)"/></g><g id="tree-2" data-name="tree"><path class="frame8-2" d="M1425.22,371.25c17.1,7.27,28.03,18.35,28.03,30.77,0,16.28-18.76,30.26-45.6,36.36.01,0,.01.01.02.01l-.01.03c-42.65,19.07-75.26,20.24-99.77,13.43-28.03-7.78-45.46-25.99-55.15-39.79-30.67-43.67-9.59-84.33-8.15-87l.15.03c.69-32.83,25.75-59.21,56.57-59.21,27.42,0,50.29,20.9,55.48,48.64a50.617,50.617,0,0,1,23.22-5.56c26.81,0,48.54,20.45,48.54,45.67A43.173,43.173,0,0,1,1425.22,371.25Z" transform="translate(-1.5 -30.73)"/><path class="frame8-3" d="M1407.67,438.39c9.04,4.56,14.56,10.65,14.56,17.34,0,14.12-24.56,25.57-54.86,25.57-.7,0-1.4-.01-2.1-.02a111.25,111.25,0,0,1-14.86-1.23c-14.16-2.14-25.79-6.89-32.28-13.04a45.584,45.584,0,0,1-4.22,3.38,46.434,46.434,0,0,1-10.06,5.47,45.607,45.607,0,0,1-16.62,3.14c-24.7,0-45.01-19.8-47.43-45.17a30,30,0,0,1-19.49,7.26c-17.29,0-31.31-14.92-31.31-33.32,0-15.02,9.34-27.72,22.18-31.88a39.784,39.784,0,0,1-3.22-15.8c0-19.67,13.89-35.62,31.02-35.62a27.382,27.382,0,0,1,5.61.59c-1.44,2.67-22.52,43.33,8.15,87,9.69,13.8,27.12,32.01,55.15,39.79,24.51,6.81,57.12,5.64,99.77-13.43Z" transform="translate(-1.5 -30.73)"/><path class="frame8-4" d="M1361.28,633.72l.06.18s-16.91,11.28-39.46,2.42c0,0-2.42-96.64-3.22-114.35a.757.757,0,0,0-.01-.15l.26-.02S1336.07,642.99,1361.28,633.72Z" transform="translate(-1.5 -30.73)"/><path class="frame8-5" d="M1365.27,481.28c-2.63,13.09-7.25,29.16-15.21,41.49-15.67,24.31,9.85,106.59,11.22,110.95-25.21,9.27-42.37-111.92-42.37-111.92l-.26.02c-.78-14.54-18.69-36.01-25.11-43.26a45.217,45.217,0,0,0,10.31-2.7c4.57,8.14,22.54,39.15,31.12,39.83h.01a2.456,2.456,0,0,0,2.2-.17c14.47-7.71,15.07-23.8,13.23-35.47A111.25,111.25,0,0,0,1365.27,481.28Z" transform="translate(-1.5 -30.73)"/><path class="frame8-4" d="M1329.93,509.89c1.97,3.93,3.74,5.36,5.04,5.8-8.58-.68-26.55-31.69-31.12-39.83a46.434,46.434,0,0,0,10.06-5.47C1319.65,485.15,1327.48,504.98,1329.93,509.89Z" transform="translate(-1.5 -30.73)"/></g><g id="cloud"><path class="frame8-6" d="M1037.56,193.74a59.478,59.478,0,0,1-.69,9.18l-.54-.08S929.5,245.2,824.5,213.36c-102.41-31.05-6-64.18-1.19-65.8h.18c.7,0,1.4,0,2.1.02a24.961,24.961,0,0,1-2.58-11.08c0-15.15,13.56-27.42,30.3-27.42a31.957,31.957,0,0,1,21.3,7.9,55.81,55.81,0,0,1,104.26,27.69c0,1.57-.07,3.13-.19,4.66a46.213,46.213,0,0,1,58.88,44.41Z" transform="translate(-1.5 -30.73)"/><path class="frame8-7" d="M1036.33,202.84l.54.08c-2.76,17.7-14.47,34.7-46.45,34.7-25.98,0-106.67.33-147.36.38-77.78.09-96.06-19.5-96.06-44.74,0-25.21,23.57-45.65,76.31-45.7-4.81,1.62-101.22,34.75,1.19,65.8C929.5,245.2,1036.33,202.84,1036.33,202.84Z" transform="translate(-1.5 -30.73)"/></g><g id="cloud-2" data-name="cloud"><path class="frame8-6" d="M549.5,127.71c0,5.21-1.17,10.06-4.33,14.27l-.67-.48s-124,10-149,0c-42.2-16.88-3.52-40.9-.22-42.87l-.07-.18c-.08-1.02-.13-2.06-.13-3.1a37.171,37.171,0,0,1,69.44-18.44,21.234,21.234,0,0,1,14.18-5.27c11.15,0,20.18,8.18,20.18,18.26a16.743,16.743,0,0,1-1.71,7.38c.46-.01.92-.01,1.39-.01C533.77,97.27,549.5,110.9,549.5,127.71Z" transform="translate(-1.5 -30.73)"/><path class="frame8-7" d="M544.5,141.5l.67.48c-7.03,9.36-23.9,15.56-59.64,15.52-27.1-.03-80.83-.25-98.13-.25-24.99,0-31.4-15.6-31.4-29.22a30.77,30.77,0,0,1,39.21-29.58l.07.18c-3.3,1.97-41.98,25.99.22,42.87C420.5,151.5,544.5,141.5,544.5,141.5Z" transform="translate(-1.5 -30.73)"/></g><path class="frame8-8" d="M1361.25,871.62,1265.06,787a3.01,3.01,0,0,0,2.94-3V771a3.009,3.009,0,0,0-3-3H1140.31l3.19-118a26.575,26.575,0,0,0-23.69-26.35l10.29-2.78a11.961,11.961,0,0,0,7.72-6.5h0l52.68-33.87v-5l-10-13-57,35,.11.27.22-.06a12,12,0,0,1,2.584-.4,12,12,0,0,0-2.584.4l-.22.06-24.02,6.5a11.9,11.9,0,0,0-4.25,2.13,14.34,14.34,0,0,0-4.01-.57h-.83a145.046,145.046,0,0,1-33.15-3.41c-.46-.1-.9-.21-1.35-.32V533.35c3.5-7.48,7.62-11.42,9.27-12.78a57.153,57.153,0,0,0,20.74-2.75c.57-.18,1.13-.37,1.69-.58a56.955,56.955,0,0,0,17.66-10.27c6.68,1.41,14.82-1.19,21.01-7.38l7.84-7.55a17.752,17.752,0,0,1-7.1,2.91,5.368,5.368,0,0,1-2.56.64,5.508,5.508,0,0,1-2.15-.44,18,18,0,1,1,18.67-23.65l2.73-2.73a56.974,56.974,0,0,0,14.49-24.45c14.9-.29,23.43-15.48,27.92-27.9a9.932,9.932,0,0,0-8.93-13.25c-9.5-.55-17.32-6.74-26.32-14.23-14.9-12.42-33.05-28.44-67.46-28.44-63.07,0-72.24,94.7-72.5,97.44a1.967,1.967,0,0,1,.24-.03l.51-.06a2.328,2.328,0,0,1-.12.3c-.17-.04-.3-.07-.4-.1-.15-.03-.23-.05-.23-.05v-.06A69.591,69.591,0,0,0,952.1,508H763.98a33.457,33.457,0,0,0,.59-23.19.076.076,0,0,1-.01-.04c0,.01.02.01.02.01a29.086,29.086,0,0,0,37.05-40.55,15.15,15.15,0,0,1-14.68,11.41c-8.36,0-15.61-5.37-11.5-19.99,24.83-88.43-38.16-104.17-38.16-104.17-15.22-45.67-155.66-24.23-118.1,87.21,9.54,28.32-8.48,33.92-14.54,33.92a16.928,16.928,0,0,1-12.41-5.4,28.792,28.792,0,0,0-.31,4.19,28.433,28.433,0,0,0,13.55,24.24,41.908,41.908,0,0,0-3.2,32.36H481a12.035,12.035,0,0,0-12,12V646a12.035,12.035,0,0,0,12,12H618.66l.74,14.5h-6.9a12.035,12.035,0,0,0-12,12v.5H451a12.035,12.035,0,0,0-12,12v5a12.035,12.035,0,0,0,12,12h7a12.035,12.035,0,0,0-12,12v42H425V729a12.035,12.035,0,0,0-12-12H372.5V695.16a31.722,31.722,0,0,0,15.82,4.34c11.6,0,22.2-6.64,30.32-17.59,9.81-13.23,16.01-32.77,16.01-54.56a103.085,103.085,0,0,0-7.15-38.5c5.84-8.35,9.5-20.33,9.5-33.65,0-25.22-13.13-45.66-29.32-45.66a21.1,21.1,0,0,0-12.91,4.66,104.325,104.325,0,0,0,1.18-15.62c0-37.32-19.43-67.58-43.4-67.58a30.426,30.426,0,0,0-16.63,5.14c-15.72,10.16-26.77,34.29-26.77,62.44,0,.62.02,1.22.03,1.83-16.2,6.47-28.18,29.37-28.18,56.62,0,25.49,10.48,47.15,25.09,55.15a78.625,78.625,0,0,0-6.32,31.61c0,30.77,16.01,55.71,35.77,55.71,8.74,0,16.75-4.89,22.96-13.01V717H328a12.035,12.035,0,0,0-12,12V852a11.954,11.954,0,0,0,.95,4.67l-17.03,14.92a18.207,18.207,0,0,0,12,31.91H1349.23C1366.02,903.5,1373.86,882.71,1361.25,871.62ZM1138.96,609.26a11.974,11.974,0,0,1-.293,2.634,11.974,11.974,0,0,0,.293-2.634,2.09,2.09,0,0,0-.01-.25,11.229,11.229,0,0,0-.106-1.426,11.229,11.229,0,0,1,.106,1.426A2.09,2.09,0,0,1,1138.96,609.26ZM1093.8,768H1069V725a12.034,12.034,0,0,0-7.23-11H1072a12.035,12.035,0,0,0,12-12v-5a12.042,12.042,0,0,0-8.6-11.5h16.064l-.96-35.5.96,34.5,2.34,83.5.53,19,.17,6.17-.17-6.17Zm22.03,46.5h0a21.228,21.228,0,0,1-4.2-.418A21.228,21.228,0,0,0,1115.83,814.5Zm-12.28-187.3h0c-.13.21-.26.42-.4.63C1103.29,627.62,1103.42,627.41,1103.55,627.2Zm-108.8,38.607c-.032-.216-.056-.433-.082-.65C994.691,665.374,994.715,665.591,994.747,665.807Zm-.136-1.093c-.024-.243-.039-.488-.056-.732C994.572,664.226,994.587,664.471,994.611,664.714Zm-.083-1.1c-.018-.37-.028-.74-.028-1.112C994.5,662.872,994.51,663.242,994.528,663.612Zm11.011,18.682c-.089-.056-.179-.109-.268-.166Zm-.865-.568c-.1-.066-.191-.13-.285-.2C1004.483,681.6,1004.579,681.66,1004.674,681.726Zm-.845-.613c-.1-.075-.2-.149-.295-.225C1003.631,680.964,1003.73,681.038,1003.829,681.113Zm-.817-.651c-.1-.085-.2-.17-.3-.257C1002.808,680.292,1002.91,680.377,1003.012,680.462Zm-.792-.692c-.1-.094-.205-.188-.307-.284C1002.015,679.582,1002.118,679.676,1002.22,679.77Zm-.763-.731c-.1-.1-.205-.206-.306-.31C1001.252,678.833,1001.354,678.937,1001.457,679.039Zm-.732-.765q-.152-.168-.3-.337Q1000.573,678.106,1000.725,678.274Zm-.7-.8c-.1-.12-.2-.24-.3-.362C999.827,677.233,999.926,677.353,1000.026,677.473Zm-.664-.832q-.147-.192-.289-.387Q999.216,676.449,999.362,676.641Zm-.63-.864c-.094-.136-.186-.273-.278-.411C998.546,675.5,998.638,675.641,998.732,675.777Zm-.591-.893c-.09-.144-.178-.288-.266-.434C997.963,674.6,998.051,674.74,998.141,674.884Zm-.553-.922c-.085-.15-.167-.3-.25-.452Q997.461,673.737,997.588,673.962Zm-.512-.947c-.08-.157-.157-.316-.235-.475C996.918,672.7,997,672.858,997.076,673.015Zm-.469-.969c-.076-.166-.147-.333-.219-.5C996.46,671.713,996.531,671.88,996.607,672.046Zm-.427-.993c-.069-.172-.134-.346-.2-.519C996.046,670.707,996.111,670.881,996.18,671.053Zm-.382-1.016c-.063-.178-.12-.358-.178-.537C995.678,669.679,995.735,669.859,995.8,670.037ZM995.462,669c-.055-.185-.105-.373-.156-.56C995.357,668.631,995.407,668.819,995.462,669Zm-.288-1.05c-.048-.194-.089-.389-.132-.584C995.085,667.565,995.126,667.76,995.174,667.954Zm-.238-1.067c-.041-.2-.073-.407-.108-.611C994.862,666.48,994.9,666.685,994.936,666.887ZM1039.23,714a12.034,12.034,0,0,0-7.23,11v43H748.9c2.71-18.38,5.35-37.84,7.01-54ZM721.37,478.27v-.05c.02.01.03.01.05.02C721.4,478.26,721.39,478.27,721.37,478.27Zm408.862,334.55a16.372,16.372,0,0,0,2.013-1.171A16.372,16.372,0,0,1,1130.232,812.82ZM1001.53,685l13.723.458h0c.414.026.83.042,1.25.042h-7.25a59.588,59.588,0,0,1-7.72-.5H789.5v-.5a12.035,12.035,0,0,0-12-12h-9.92l.51-14.5H959.02A59.982,59.982,0,0,0,1001.53,685Zm4.653-2.316c.078.045.157.087.236.131C1006.34,682.771,1006.261,682.729,1006.183,682.684Zm.935.511c.064.033.129.063.194.095C1007.247,683.258,1007.182,683.228,1007.118,683.2Zm.96.464c.038.018.077.033.116.05C1008.155,683.692,1008.116,683.677,1008.078,683.659ZM595.41,714h37c1.66,16.16,4.3,35.62,7.01,54H483V726a12.035,12.035,0,0,0-12-12Zm470.442,144.086a12.13,12.13,0,0,0,2.059-3.1A12.13,12.13,0,0,1,1065.852,858.086Z" transform="translate(-1.5 -30.73)"/><path class="frame8-8" d="M1127.11,494.95a5.457,5.457,0,1,0-4.71.2c.53.05,1.06.07,1.6.07A17.721,17.721,0,0,0,1127.11,494.95Z" transform="translate(-1.5 -30.73)"/><path class="frame8-5" d="M1361.25,871.62c12.61,11.09,4.77,31.88-12.02,31.88H1024.5L1065,859l-.03-.04A12,12,0,0,0,1069,850V787h25.33l.17,6.17a21.146,21.146,0,0,0,3.16,11.13,7.512,7.512,0,0,0-4.16,6.7v14.5a15.747,15.747,0,0,0,.75,4.83,16.085,16.085,0,0,0,1.57,3.45l-.82.22s-29.5,24.5-17.5,24.5,51.93,4.56,68-1c7.47-2.59,24.5-18,24.5-18l-.22-.32a16.193,16.193,0,0,0,6.97-8.85,15.747,15.747,0,0,0,.75-4.83,22.065,22.065,0,0,0-22-22h-16.96a16.181,16.181,0,0,0,.96-5.5l.3-11h125.26Z" transform="translate(-1.5 -30.73)"/><path class="frame8-4" d="M1268,771v13a3.01,3.01,0,0,1-2.94,3H1139.8l.51-19H1265A3.009,3.009,0,0,1,1268,771Z" transform="translate(-1.5 -30.73)"/><path class="frame8-9" d="M1190.5,575.5v5l-52.68,33.87a12.041,12.041,0,0,0,1.14-5.11,2.09,2.09,0,0,0-.01-.25Z" transform="translate(-1.5 -30.73)"/><path class="frame8-10" d="M1180.5,562.5l10,13-51.55,33.51a11.336,11.336,0,0,0-.4-2.86,12.618,12.618,0,0,0-.46-1.35l46.6-30.29-5.17-6.72-48.95,30.07a11.862,11.862,0,0,0-6.74-.15l-.22.06-.11-.27Z" transform="translate(-1.5 -30.73)"/><path class="frame8-8" d="M1177.28,403.17a9.932,9.932,0,0,1,8.93,13.25c-4.49,12.42-13.02,27.61-27.92,27.9a57.314,57.314,0,0,0-21.32-62.34,115.734,115.734,0,0,1,13.99,6.96C1159.96,396.43,1167.78,402.62,1177.28,403.17Z" transform="translate(-1.5 -30.73)"/><path class="frame8-11" d="M1179.52,567.79l5.17,6.72-46.6,30.29a12.045,12.045,0,0,0-7.52-6.94Z" transform="translate(-1.5 -30.73)"/><path class="frame8-12" d="M1177.5,825.5a15.747,15.747,0,0,1-.75,4.83h-82.5a15.747,15.747,0,0,1-.75-4.83V811a7.512,7.512,0,0,1,4.16-6.7,21.352,21.352,0,0,0,18.17,10.2H1123a12.845,12.845,0,0,0,1.53-.08,16.515,16.515,0,0,0,14.01-10.92h16.96A22.065,22.065,0,0,1,1177.5,825.5Z" transform="translate(-1.5 -30.73)"/><path class="frame8-13" d="M1094.25,830.33h82.5a16.193,16.193,0,0,1-6.97,8.85,15.917,15.917,0,0,1-8.28,2.32h-52a16.044,16.044,0,0,1-15.25-11.17Z" transform="translate(-1.5 -30.73)"/><path class="frame8-14" d="M1169.78,839.18l.22.32s-17.03,15.41-24.5,18c-16.07,5.56-56,1-68,1S1095,834,1095,834l.82-.22a16.038,16.038,0,0,0,13.68,7.72h52A15.917,15.917,0,0,0,1169.78,839.18Z" transform="translate(-1.5 -30.73)"/><path class="frame8-8" d="M1160.57,428.29a57.447,57.447,0,0,1-2.28,16.03,2.81,2.81,0,0,1-.29.01c-25.5.17-73.03-3.51-73.03-3.51l-1.65-1.65a7.369,7.369,0,0,0-10.41,0l-12.57,12.57a8.773,8.773,0,0,0-2.44,6.44c-2.1,9.62-40.84,1.19-46.27-.03a2.328,2.328,0,0,0,.12-.3,187.392,187.392,0,0,1,27.4-46.31l18.09-18.1c19.99-16.04,46.56-25.18,79.73-11.46a57.323,57.323,0,0,1,23.6,46.31Z" transform="translate(-1.5 -30.73)"/><path class="frame8-15" d="M1158,444.33a2.81,2.81,0,0,0,.29-.01,56.974,56.974,0,0,1-14.49,24.45l-2.73,2.73a18,18,0,0,0-30.39-6.38l-.42-.37-8.8,9.93c-5.1,5.09-7.77,11.5-7.77,17.33a15.311,15.311,0,0,0,4.3,11.04,14.531,14.531,0,0,0,7.37,3.92,56.955,56.955,0,0,1-17.66,10.27,1.4,1.4,0,0,0-.38-1.89l-14-10a1.412,1.412,0,0,0-1.64,2.3l14,10a1.289,1.289,0,0,0,.33.17,57.5,57.5,0,0,1-30.03,1.51A12.035,12.035,0,0,0,1044,508h-11.67a55.418,55.418,0,0,1-4.59-4.12,57.132,57.132,0,0,1-16.51-45.83c.1.03.23.06.4.1,5.43,1.22,44.17,9.65,46.27.03a8.773,8.773,0,0,1,2.44-6.44l12.57-12.57a7.369,7.369,0,0,1,10.41,0l1.65,1.65S1132.5,444.5,1158,444.33Z" transform="translate(-1.5 -30.73)"/><path class="frame8-8" d="M1150.96,388.94a115.734,115.734,0,0,0-13.99-6.96,57.253,57.253,0,0,0-74.11,5.84l-5.62,5.62a124.284,124.284,0,0,0-18.09,18.1l-11.41,11.4a57.075,57.075,0,0,0-16.5,34.97,1.967,1.967,0,0,0-.24.03c.26-2.74,9.43-97.44,72.5-97.44C1117.91,360.5,1136.06,376.52,1150.96,388.94Z" transform="translate(-1.5 -30.73)"/><path class="frame8-16" d="M1134.21,492.04l-7.84,7.55c-6.19,6.19-14.33,8.79-21.01,7.38q1.71-1.47,3.33-3.09l9.59-9.59a18.063,18.063,0,0,0,4.12.86,5.508,5.508,0,0,0,2.15.44,5.368,5.368,0,0,0,2.56-.64A17.752,17.752,0,0,0,1134.21,492.04Z" transform="translate(-1.5 -30.73)"/><path class="frame8-17" d="M1127.2,485.37a5.455,5.455,0,0,1-.09,9.58,17.721,17.721,0,0,1-3.11.27c-.54,0-1.07-.02-1.6-.07a5.467,5.467,0,0,1-2.62-2.36Z" transform="translate(-1.5 -30.73)"/><path class="frame8-17" d="M1127.2,485.37l-7.42,7.42a5.455,5.455,0,0,1,7.42-7.42Z" transform="translate(-1.5 -30.73)"/><path class="frame8-16" d="M1118.28,494.29l-9.59,9.59q-1.62,1.62-3.33,3.09a14.531,14.531,0,0,1-7.37-3.92,15.311,15.311,0,0,1-4.3-11.04c0-5.83,2.67-12.24,7.77-17.33l8.8-9.93.42.37a18,18,0,0,0,7.6,29.17Z" transform="translate(-1.5 -30.73)"/><path class="frame8-18" d="M1132.14,768c-.67-28.5-8.59-58.95-16.94-83.5a438.325,438.325,0,0,0-20.12-49.35A26.323,26.323,0,0,0,1090.5,650l.96,34.5,2.34,83.5.53,19,.17,6.17a21.389,21.389,0,0,0,21.33,21.33H1123a12.845,12.845,0,0,0,1.53-.08,82.271,82.271,0,0,0,3.79-10.92,103.47,103.47,0,0,0,3.07-16.5A143.553,143.553,0,0,0,1132.14,768Z" transform="translate(-1.5 -30.73)"/><path class="frame8-8" d="M1136.97,381.98c-33.17-13.72-59.74-4.58-79.73,11.46l5.62-5.62A57.253,57.253,0,0,1,1136.97,381.98Z" transform="translate(-1.5 -30.73)"/><path class="frame8-15" d="M1138.95,609.01a11.336,11.336,0,0,0-.4-2.86,12.618,12.618,0,0,0-.46-1.35,12.045,12.045,0,0,0-7.52-6.94,11.862,11.862,0,0,0-6.74-.15l-.22.06-24.02,6.5a11.9,11.9,0,0,0-4.25,2.13,14.183,14.183,0,0,1,10.17,13.55,15.434,15.434,0,0,1-.09,1.67,13.987,13.987,0,0,1-1.24,4.38c-.19.41-.41.81-.63,1.2-.13.21-.26.42-.4.63a11.533,11.533,0,0,0,2.71-.4l2.28-.62,11.67-3.16,10.29-2.78a12.043,12.043,0,0,0,8.86-11.61A2.09,2.09,0,0,0,1138.95,609.01Z" transform="translate(-1.5 -30.73)"/><path class="frame8-19" d="M1103.55,627.2c-.13.21-.26.42-.4.63-.22.02-.44.02-.65.02C1102.84,627.62,1103.19,627.4,1103.55,627.2Z" transform="translate(-1.5 -30.73)"/><polygon class="frame8-4" points="1092.3 737.27 1092.83 756.27 1067.5 756.27 1067.5 737.27 1092.3 737.27"/><path class="frame8-17" d="M1087.32,515.35a1.4,1.4,0,0,1,.38,1.89c-.56.21-1.12.4-1.69.58a1.289,1.289,0,0,1-.33-.17l-14-10a1.412,1.412,0,0,1,1.64-2.3Z" transform="translate(-1.5 -30.73)"/><path class="frame8-20" d="M1072,685h-45.53a59.588,59.588,0,0,1-7.72.5h-9.5a59.588,59.588,0,0,1-7.72-.5H789.5v1.5a12.035,12.035,0,0,1-12,12h-12a12.019,12.019,0,0,1-8.06-3.12c-.28,5.37-.81,11.69-1.53,18.62H1051.5V862h5.5a12.02,12.02,0,0,0,12-12V725a12.034,12.034,0,0,0-7.23-11H1072a12.035,12.035,0,0,0,12-12v-5A12.035,12.035,0,0,0,1072,685Z" transform="translate(-1.5 -30.73)"/><path class="frame8-14" d="M1064.97,858.96l.03.04-40.5,44.5H992.75l40.04-49.24A12.038,12.038,0,0,0,1044,862h13A11.974,11.974,0,0,0,1064.97,858.96Z" transform="translate(-1.5 -30.73)"/><path class="frame8-8" d="M1057.24,393.44l-18.09,18.1A124.284,124.284,0,0,1,1057.24,393.44Z" transform="translate(-1.5 -30.73)"/><path class="frame8-21" d="M1135.72,631.28a26.45,26.45,0,0,0-15.91-7.63l-11.67,3.16-2.28.62a11.533,11.533,0,0,1-2.71.4,14.2,14.2,0,0,1-11.76,6.34h-.88q-6.465,0-12.56-.37a164.254,164.254,0,0,1-21.95-2.69,121.045,121.045,0,0,1-20.04-5.61h-4.46A37.129,37.129,0,0,0,994.78,658a35.306,35.306,0,0,0-.28,4.5c0,12.1,9.9,23,22,23h74.96l-.96-35.5a26.323,26.323,0,0,1,4.58-14.85,438.325,438.325,0,0,1,20.12,49.35c8.35,24.55,16.27,55,16.94,83.5a143.553,143.553,0,0,1-.75,19,103.47,103.47,0,0,1-3.07,16.5,82.271,82.271,0,0,1-3.79,10.92,16.515,16.515,0,0,0,14.01-10.92,16.181,16.181,0,0,0,.96-5.5l.3-11,.51-19,3.19-118A26.428,26.428,0,0,0,1135.72,631.28Z" transform="translate(-1.5 -30.73)"/><path class="frame8-22" d="M1056,533.35v64.57C1046.63,565.29,1050.55,545.01,1056,533.35Z" transform="translate(-1.5 -30.73)"/><path class="frame8-15" d="M1044,508a12.035,12.035,0,0,1,11.98,11.33A56.8,56.8,0,0,1,1032.33,508Z" transform="translate(-1.5 -30.73)"/><path class="frame8-23" d="M1051.5,787v75H1044a12.038,12.038,0,0,1-11.21-7.74A11.85,11.85,0,0,1,1032,850V787Z" transform="translate(-1.5 -30.73)"/><rect class="frame8-23" x="1030.5" y="737.27" width="19.5" height="19"/><path class="frame8-23" d="M1051.5,714v54H1032V725a12.034,12.034,0,0,1,7.23-11Z" transform="translate(-1.5 -30.73)"/><path class="frame8-8" d="M1027.74,422.94l11.41-11.4a187.392,187.392,0,0,0-27.4,46.31l-.51.06A57.075,57.075,0,0,1,1027.74,422.94Z" transform="translate(-1.5 -30.73)"/><path class="frame8-24" d="M1035.96,625.5h-2.33c-81.55-22.09-63.77-91.93-54.16-117.5h1.67c-3.06,17.71-6.19,56.95,15.72,88.13Q1010.81,615.975,1035.96,625.5Z" transform="translate(-1.5 -30.73)"/><path class="frame8-5" d="M1032.79,854.26,992.75,903.5H450.98l26.84-41.23-1.11-.72A12.034,12.034,0,0,0,483,851V787H642.31c3.86,24.82,7.19,44,7.19,44a6.488,6.488,0,0,0,2.82,5.35l-9.37,12.11a12.081,12.081,0,0,0-4.83,6.23l-.62.81s.1.12.3.35a11.575,11.575,0,0,0-.3,2.65v10s-19,15-20,20,107,2,114,1c4.29-.61,14.5-9.5,14.5-9.5l-.01-.02a12.1,12.1,0,0,0,7.14-5.93,11.933,11.933,0,0,0,1.37-5.55v-10a12.012,12.012,0,0,0-4.26-9.16l-12.85-14.29a6.4,6.4,0,0,0,1.43-4.05s3.33-19.18,7.19-44H1032v63A11.85,11.85,0,0,0,1032.79,854.26Z" transform="translate(-1.5 -30.73)"/><path class="frame8-4" d="M1032,768v19H746.01c.95-6.06,1.92-12.46,2.89-19Z" transform="translate(-1.5 -30.73)"/><path class="frame8-24" d="M1095.34,606.4a14.34,14.34,0,0,0-4.01-.57h-.83a145.046,145.046,0,0,1-33.15-3.41c-.46-.1-.9-.21-1.35-.32-16.32-4.07-28.33-11.49-35.88-22.18-17.91-25.35-7.47-63.51-4.84-71.92.32-1,.52-1.58.55-1.67,2.66-7.35-3.13-17.47-10.48-20.15a9.8,9.8,0,0,0-3.86-.52l.01.34a192.9,192.9,0,0,0-5.04,22c-4.35,25.17-6.7,65.38,17.04,84.5,12.87,10.36,28.16,17.02,42.5,21.31q3,.885,5.92,1.65a196.651,196.651,0,0,0,29.83,5.27c7.84.77,12.75.77,12.75.77l.92.12a15.434,15.434,0,0,0,.09-1.67A14.183,14.183,0,0,0,1095.34,606.4Z" transform="translate(-1.5 -30.73)"/><path class="frame8-19" d="M1104.5,621.5s-4.91,0-12.75-.77a196.651,196.651,0,0,1-29.83-5.27q-2.925-.765-5.92-1.65c-14.34-4.29-29.63-10.95-42.5-21.31-23.74-19.12-21.39-59.33-17.04-84.5a192.9,192.9,0,0,1,5.04-22l-.01-.34a9.8,9.8,0,0,1,3.86.52c7.35,2.68,13.14,12.8,10.48,20.15-.03.09-.23.67-.55,1.67-2.63,8.41-13.07,46.57,4.84,71.92,7.55,10.69,19.56,18.11,35.88,22.18v-4.18c-9.37-32.63-5.45-52.91,0-64.57,3.5-7.48,7.62-11.42,9.27-12.78A57.062,57.062,0,0,1,1032.33,508a55.418,55.418,0,0,1-4.59-4.12,57.132,57.132,0,0,1-16.51-45.83c-.15-.03-.23-.05-.23-.05v-.06A69.591,69.591,0,0,0,952.1,508a68.366,68.366,0,0,0-2.6,18.75v99A59.276,59.276,0,0,0,959.02,658a59.982,59.982,0,0,0,42.51,27l13.723.458c-11.525-.716-20.753-11.277-20.753-22.958a35.306,35.306,0,0,1,.28-4.5,37.129,37.129,0,0,1,36.72-32.5h2.13c-81.55-22.09-63.77-91.93-54.16-117.5,1.4-3.73,2.63-6.52,3.35-8.08-.4,1.53-1.04,4.32-1.68,8.08-3.06,17.71-6.19,56.95,15.72,88.13q13.95,19.845,39.1,29.37a121.045,121.045,0,0,0,20.04,5.61,164.254,164.254,0,0,0,21.95,2.69q6.09.375,12.56.37h.88a14.2,14.2,0,0,0,11.76-6.34c-.22.02-.44.02-.65.02.34-.23.69-.45,1.05-.65.22-.39.44-.79.63-1.2a13.987,13.987,0,0,0,1.24-4.38Z" transform="translate(-1.5 -30.73)"/><path class="frame8-24" d="M982.82,499.92c-.4,1.53-1.04,4.32-1.68,8.08h-1.67C980.87,504.27,982.1,501.48,982.82,499.92Z" transform="translate(-1.5 -30.73)"/><path class="frame8-23" d="M959.02,658H931.5v-1.5c-8-22-3-147.5-3-147.5v-1h23.6a68.366,68.366,0,0,0-2.6,18.75v99A59.276,59.276,0,0,0,959.02,658Z" transform="translate(-1.5 -30.73)"/><path class="frame8-20" d="M931.5,656.5V658H768.09l2.74-78.1c2.67-.7,5.21-1.44,7.59-2.22l.44-1.22V561.2A65.323,65.323,0,0,0,760,515.18a32.844,32.844,0,0,0,3.98-7.18H928.5v1S923.5,634.5,931.5,656.5Z" transform="translate(-1.5 -30.73)"/><path class="frame8-25" d="M801.63,444.23a29.086,29.086,0,0,1-37.05,40.55s-.02,0-.02-.01a.076.076,0,0,0,.01.04,33.457,33.457,0,0,1-.59,23.19,32.844,32.844,0,0,1-3.98,7.18,33.29,33.29,0,0,1-47.81,6.39,32.131,32.131,0,0,1-4.5-4.38,33.163,33.163,0,0,1-4.19-6.21,18.592,18.592,0,0,0,8.5,3.27,18.951,18.951,0,0,0,2.27.14,18.774,18.774,0,0,0,18.54-15.82,18.007,18.007,0,0,0,.24-2.96,18.791,18.791,0,0,0-11.63-17.37,57.251,57.251,0,0,0,27.83-40.2l.15.03h.12a6.063,6.063,0,1,0,8.41-4.31,8.41,8.41,0,0,0,1.77-5.07V410.91a7.366,7.366,0,0,0-7.36-7.36h-2.33v-4.24c0-16.35-26.65-47.85-32.1-47.85,0,14.54-46.03,29.68-81.77,21.2l-.24-.03a56.234,56.234,0,0,0-.36,6.39v49.67a57.212,57.212,0,0,0,33.07,51.89l-.03.07a23.894,23.894,0,0,0-3.8.76,25.135,25.135,0,0,0-18.34,24.19,23.807,23.807,0,0,0,.12,2.4,25.118,25.118,0,0,0,19.24,22.07l.02.02a41.8,41.8,0,0,1-60.34-54.45,28.433,28.433,0,0,1-13.55-24.24,28.792,28.792,0,0,1,.31-4.19,16.928,16.928,0,0,0,12.41,5.4c6.06,0,24.08-5.6,14.54-33.92-37.56-111.44,102.88-132.88,118.1-87.21,0,0,62.99,15.74,38.16,104.17-4.11,14.62,3.14,19.99,11.5,19.99A15.15,15.15,0,0,0,801.63,444.23Z" transform="translate(-1.5 -30.73)"/><path class="frame8-15" d="M789.5,685v1.5a12.035,12.035,0,0,1-12,12h-12a12.019,12.019,0,0,1-8.06-3.12c.14-2.78.22-5.31.22-7.53,0-.98-.02-1.93-.07-2.85a51.411,51.411,0,0,0-1.06-8.45,12.336,12.336,0,0,1,1.48-1.41c-.66-2.84-.9-9.1-.89-17.14.06-24.27,2.5-64.68,3.2-75.67q5.55-1.125,10.51-2.43L768.09,658l-.51,14.5h9.92a12.035,12.035,0,0,1,12,12Z" transform="translate(-1.5 -30.73)"/><path class="frame8-26" d="M778.86,561.2v15.26l-.44,1.22c-2.38.78-4.92,1.52-7.59,2.22q-4.95,1.3-10.51,2.43-4.935,1-10.3,1.85l.04-1.6s0-22.02-4.52-24.28c0,0-13.04,90.2-92.04,92.2a29.681,29.681,0,0,0-12.02,7.5h-2.47l-1.9-74.1c-3.31-.55-6.5-1.14-9.55-1.77-4.63-.97-8.96-2.03-12.93-3.17q-5.07-1.455-9.34-3.1l.19-.53V561.2a65.3,65.3,0,0,1,9.44-33.93,41.806,41.806,0,0,0,50.9,2.82l-.02-.02A25.118,25.118,0,0,1,646.56,508h18.83a32.717,32.717,0,0,0,46.8,13.57A33.29,33.29,0,0,0,760,515.18,65.323,65.323,0,0,1,778.86,561.2Z" transform="translate(-1.5 -30.73)"/><path class="frame8-27" d="M757.93,433.76a6.056,6.056,0,1,1-2.47-.53A6.034,6.034,0,0,1,757.93,433.76Z" transform="translate(-1.5 -30.73)"/><path class="frame8-16" d="M759.7,410.91v17.78a8.41,8.41,0,0,1-1.77,5.07,5.98,5.98,0,0,0-2.47-.53,6.063,6.063,0,0,0-5.94,4.84h-.12l-.15-.03a57.55,57.55,0,0,0,.76-9.35V403.55h2.33A7.366,7.366,0,0,1,759.7,410.91Z" transform="translate(-1.5 -30.73)"/><path class="frame8-16" d="M760.32,582.33c-.7,10.99-3.14,51.4-3.2,75.67-.01,8.04.23,14.3.89,17.14a12.336,12.336,0,0,0-1.48,1.41,36.709,36.709,0,0,0-8.4-17.18l.03-1.37,1.86-73.82Q755.375,583.34,760.32,582.33Z" transform="translate(-1.5 -30.73)"/><path class="frame8-28" d="M757.59,685c.05.92.07,1.87.07,2.85,0,2.22-.08,4.75-.22,7.53-.28,5.37-.81,11.69-1.53,18.62-1.66,16.16-4.3,35.62-7.01,54-.97,6.54-1.94,12.94-2.89,19-3.86,24.82-7.19,44-7.19,44a6.516,6.516,0,0,1-6.32,6.49q.555-3.375,1.05-6.71c2.3-15.45,3.68-30.06,4.35-43.78q.48-9.81.49-19a378.2,378.2,0,0,0-3.59-54c-1.55-11.02-3.45-20.71-5.4-29a242.632,242.632,0,0,0-7.91-27c-1.8-4.94-2.99-7.5-2.99-7.5h16.32a29.681,29.681,0,0,1,12.02,7.5c.43.43.86.89,1.29,1.37a36.709,36.709,0,0,1,8.4,17.18A51.411,51.411,0,0,1,757.59,685Z" transform="translate(-1.5 -30.73)"/><path class="frame8-12" d="M754.5,858.5v10a11.933,11.933,0,0,1-1.37,5.55c-50.27,6.98-54.8-19.02-55.11-21.38a12.038,12.038,0,0,1,10.48-6.17h34a12.019,12.019,0,0,1,12,12Z" transform="translate(-1.5 -30.73)"/><path class="frame8-13" d="M753.13,874.05a12.1,12.1,0,0,1-7.14,5.93,11.888,11.888,0,0,1-3.49.52h-34a12.035,12.035,0,0,1-12-12v-10l-.11-1.3-.35-4.37,1.98-.16C698.33,855.03,702.86,881.03,753.13,874.05Z" transform="translate(-1.5 -30.73)"/><path class="frame8-13" d="M737.39,835.05l12.85,14.29a11.976,11.976,0,0,0-7.74-2.84h-34a12.038,12.038,0,0,0-10.48,6.17l-1.98.16-2.16-26.65c.11-.37.2-.74.28-1.11a15.722,15.722,0,0,0,15.32,12.43h22.84a1.087,1.087,0,0,0,.18-.01A6.468,6.468,0,0,0,737.39,835.05Z" transform="translate(-1.5 -30.73)"/><path class="frame8-29" d="M750.06,582.58l-.04,1.6L748.16,658h-1.32a29.681,29.681,0,0,0-12.02-7.5H718.5c-5.33.09-10.28,3.08-14.32,7.5H684.14c-4.1-4.49-9.15-7.5-14.58-7.5H653.5c79-2,92.04-92.2,92.04-92.2C750.06,560.56,750.06,582.58,750.06,582.58Z" transform="translate(-1.5 -30.73)"/><path class="frame8-15" d="M750.01,403.55v25.14a57.125,57.125,0,0,1-28.59,49.55c-.02-.01-.03-.01-.05-.02v.05a57.316,57.316,0,0,1-52.68,2.35.3.3,0,0,1-.08-.04,57.212,57.212,0,0,1-33.07-51.89V379.02a56.234,56.234,0,0,1,.36-6.39l.24.03c35.74,8.48,81.77-6.66,81.77-21.2,5.45,0,32.1,31.5,32.1,47.85Zm-31.02,53.91a.81.81,0,0,0-1.62,0c0,5.51-8.83,7.94-17.08,8.37-12.57.66-27.64-2.89-28.23-8.45a.8.8,0,0,0-.89-.72.809.809,0,0,0-.72.89c.72,6.82,15.11,9.98,26.78,9.98,1.08,0,2.13-.03,3.14-.08C712.03,466.84,718.99,463.11,718.99,457.46Zm-18.88,14.31a.813.813,0,0,0-.81-.81H685.56a.81.81,0,1,0,0,1.62H699.3A.813.813,0,0,0,700.11,471.77Zm-3.13-26.53a.813.813,0,0,0-.81-.81,9.624,9.624,0,0,1-9.62-9.62.815.815,0,0,0-1.63,0,11.258,11.258,0,0,0,11.25,11.24A.807.807,0,0,0,696.98,445.24Z" transform="translate(-1.5 -30.73)"/><path class="frame8-29" d="M748.16,658l-.03,1.37c-.43-.48-.86-.94-1.29-1.37Z" transform="translate(-1.5 -30.73)"/><path class="frame8-14" d="M745.99,879.98l.01.02s-10.21,8.89-14.5,9.5c-7,1-115,4-114-1s20-20,20-20a12.035,12.035,0,0,0,12,12h34a12.045,12.045,0,0,0,11.05-7.34,11.9,11.9,0,0,0,.95-4.66v-10c0-.41-.02-.82-.06-1.22l.95-.08.11,1.3v10a12.035,12.035,0,0,0,12,12h34A11.888,11.888,0,0,0,745.99,879.98Z" transform="translate(-1.5 -30.73)"/><path class="frame8-30" d="M734.8,714a378.2,378.2,0,0,1,3.59,54q-.015,9.195-.49,19c-.67,13.72-2.05,28.33-4.35,43.78q-.495,3.33-1.05,6.71a1.087,1.087,0,0,1-.18.01H709.48a15.722,15.722,0,0,1-15.32-12.43,15.76,15.76,0,0,0,.34-3.24V683.44a27.818,27.818,0,0,0-.34-4.29A42.038,42.038,0,0,1,704.18,658c4.04-4.42,8.99-7.41,14.32-7.5,0,0,1.19,2.56,2.99,7.5a242.632,242.632,0,0,1,7.91,27C731.35,693.29,733.25,702.98,734.8,714Z" transform="translate(-1.5 -30.73)"/><path class="frame8-31" d="M733.05,495.61a18.007,18.007,0,0,1-.24,2.96A18.792,18.792,0,0,1,721.37,513a33.608,33.608,0,0,0,3-5,32.571,32.571,0,0,0,3.06-10.86c-1.97-.43-3.97-.78-6-1.02a22,22,0,0,0,.11-2.3l-.16-15.05-.01-.5c.02,0,.03-.01.05-.03A18.791,18.791,0,0,1,733.05,495.61Z" transform="translate(-1.5 -30.73)"/><path class="frame8-29" d="M727.43,497.14A32.571,32.571,0,0,1,724.37,508a33.608,33.608,0,0,1-3,5,18.642,18.642,0,0,1-7.1,1.39,18.951,18.951,0,0,1-2.27-.14,26.705,26.705,0,0,0,5.45-6.25,26.225,26.225,0,0,0,3.98-11.88C723.46,496.36,725.46,496.71,727.43,497.14Z" transform="translate(-1.5 -30.73)"/><path class="frame8-15" d="M721.38,478.77l.16,15.05a22,22,0,0,1-.11,2.3A26.225,26.225,0,0,1,717.45,508a26.705,26.705,0,0,1-5.45,6.25,18.592,18.592,0,0,1-8.5-3.27,33.163,33.163,0,0,0,4.19,6.21,26.637,26.637,0,0,1-34.71-8.2,58.993,58.993,0,0,0,9.73-.99,53.017,53.017,0,0,0,25.57-12.39A54.96,54.96,0,0,0,721.38,478.77Z" transform="translate(-1.5 -30.73)"/><path class="frame8-16" d="M721.37,478.27l.01.5a54.96,54.96,0,0,1-13.1,16.84A53.017,53.017,0,0,1,682.71,508H672.33a26.51,26.51,0,0,1-3.96-11.61l.01-.72.2-15.02.03-.07a.3.3,0,0,0,.08.04,57.316,57.316,0,0,0,52.68-2.35Z" transform="translate(-1.5 -30.73)"/><path class="frame8-17" d="M718.18,456.65a.813.813,0,0,1,.81.81c0,5.65-6.96,9.38-18.62,9.99-1.01.05-2.06.08-3.14.08-11.67,0-26.06-3.16-26.78-9.98a.809.809,0,0,1,.72-.89.8.8,0,0,1,.89.72c.59,5.56,15.66,9.11,28.23,8.45,8.25-.43,17.08-2.86,17.08-8.37A.813.813,0,0,1,718.18,456.65Z" transform="translate(-1.5 -30.73)"/><path class="frame8-29" d="M707.69,517.19a32.131,32.131,0,0,0,4.5,4.38,32.641,32.641,0,0,1-49.85-24.61l-.11-.75c.87-.13,1.75-.23,2.63-.3v-.01c1.17-.11,2.34-.19,3.52-.23l-.01.72A26.51,26.51,0,0,0,672.33,508c.21.33.43.66.65.99a26.637,26.637,0,0,0,34.71,8.2Z" transform="translate(-1.5 -30.73)"/><path class="frame8-28" d="M684.14,658h20.04a42.038,42.038,0,0,0-10.02,21.15,27.818,27.818,0,0,0-.34,4.29V821.83a15.76,15.76,0,0,0,.34,3.24c-.08.37-.17.74-.28,1.11a15.806,15.806,0,0,1-11.26,10.86l-.12-.54q.42-26.685-.1-49.5-.2-9.87-.53-19c-.76-20.79-1.97-38.78-3.35-54-1.01-11.14-2.11-20.8-3.19-29-1.61-12.3-3.16-21.29-4.25-27-.97-5.01-1.58-7.5-1.58-7.5h.06C674.99,650.5,680.04,653.51,684.14,658Z" transform="translate(-1.5 -30.73)"/><path class="frame8-16" d="M699.3,470.96a.81.81,0,1,1,0,1.62H685.56a.81.81,0,1,1,0-1.62Z" transform="translate(-1.5 -30.73)"/><path class="frame8-12" d="M696.04,852.83l.35,4.37-.95.08c.04.4.06.81.06,1.22v10a11.9,11.9,0,0,1-.95,4.66L693.5,873c-30.8,9.8-52.89-13.94-55.7-17.15.09-.39.2-.78.32-1.16l4.83-6.23,9.37-12.11A6.4,6.4,0,0,0,656,837.5h22.83a15.63,15.63,0,0,0,15.05-11.32Z" transform="translate(-1.5 -30.73)"/><path class="frame8-17" d="M696.17,444.43a.81.81,0,1,1,0,1.62,11.258,11.258,0,0,1-11.25-11.24.815.815,0,0,1,1.63,0A9.624,9.624,0,0,0,696.17,444.43Z" transform="translate(-1.5 -30.73)"/><path class="frame8-13" d="M693.5,873l1.05.16a12.045,12.045,0,0,1-11.05,7.34h-34a12.035,12.035,0,0,1-12-12v-10a11.575,11.575,0,0,1,.3-2.65C640.61,859.06,662.7,882.8,693.5,873Z" transform="translate(-1.5 -30.73)"/><path class="frame8-30" d="M694.5,787v34.83a15.76,15.76,0,0,1-.34,3.24,15.76,15.76,0,0,1-.34-3.24V787Z" transform="translate(-1.5 -30.73)"/><rect class="frame8-30" x="692.32" y="737.27" width="0.68" height="19"/><rect class="frame8-30" x="692.32" y="683.27" width="0.68" height="54"/><rect class="frame8-30" x="692.32" y="654.27" width="0.68" height="29"/><path class="frame8-30" d="M694.5,683.44V685h-.68v-1.56a27.818,27.818,0,0,1,.34-4.29A27.818,27.818,0,0,1,694.5,683.44Z" transform="translate(-1.5 -30.73)"/><path class="frame8-16" d="M672.33,508h10.38a58.993,58.993,0,0,1-9.73.99C672.76,508.66,672.54,508.33,672.33,508Z" transform="translate(-1.5 -30.73)"/><path class="frame8-30" d="M682.5,836.5l.12.54a15.859,15.859,0,0,1-3.79.46H656a6.4,6.4,0,0,1-3.68-1.15A6.488,6.488,0,0,1,649.5,831s-3.33-19.18-7.19-44c-.95-6.06-1.92-12.46-2.89-19-2.71-18.38-5.35-37.84-7.01-54-.66-6.41-1.17-12.3-1.46-17.39-.19-3.27-.29-6.21-.29-8.76,0-.98.02-1.93.07-2.85a49.93,49.93,0,0,1,1.36-9.78,36.9,36.9,0,0,1,6.99-14.53,31.966,31.966,0,0,1,2.4-2.69,29.681,29.681,0,0,1,12.02-7.5h16s.61,2.49,1.58,7.5c1.09,5.71,2.64,14.7,4.25,27,1.08,8.2,2.18,17.86,3.19,29,1.38,15.22,2.59,33.21,3.35,54q.33,9.135.53,19Q682.88,809.815,682.5,836.5Z" transform="translate(-1.5 -30.73)"/><path class="frame8-31" d="M668.58,480.65l-.2,15.02c-1.18.04-2.35.12-3.52.23v.01c-.88.07-1.76.17-2.63.3a64.748,64.748,0,0,0-15.19,3.94,25.149,25.149,0,0,1,17.74-18.74A23.894,23.894,0,0,1,668.58,480.65Z" transform="translate(-1.5 -30.73)"/><path class="frame8-26" d="M665.39,508H646.56a23.807,23.807,0,0,1-.12-2.4,25.075,25.075,0,0,1,.6-5.45,64.748,64.748,0,0,1,15.19-3.94l.11.75A32.48,32.48,0,0,0,665.39,508Z" transform="translate(-1.5 -30.73)"/><path class="frame8-5" d="M642.95,848.46l-4.83,6.23A12.081,12.081,0,0,1,642.95,848.46Z" transform="translate(-1.5 -30.73)"/><path class="frame8-4" d="M642.31,787H483V768H639.42C640.39,774.54,641.36,780.94,642.31,787Z" transform="translate(-1.5 -30.73)"/><path class="frame8-26" d="M639.01,658h2.47a31.966,31.966,0,0,0-2.4,2.69Z" transform="translate(-1.5 -30.73)"/><path class="frame8-15" d="M639.01,658l.07,2.69a36.9,36.9,0,0,0-6.99,14.53,49.93,49.93,0,0,0-1.36,9.78c-.05.92-.07,1.87-.07,2.85,0,2.55.1,5.49.29,8.76a11.978,11.978,0,0,1-6.45,1.89h-12a12.035,12.035,0,0,1-12-12v-2a12.035,12.035,0,0,1,12-12h12a11.866,11.866,0,0,1,4.47.87L628.74,658l-1.18-75.87c3.05.63,6.24,1.22,9.55,1.77Z" transform="translate(-1.5 -30.73)"/><path class="frame8-5" d="M637.5,855.5l.62-.81c-.12.38-.23.77-.32,1.16C637.6,855.62,637.5,855.5,637.5,855.5Z" transform="translate(-1.5 -30.73)"/><path class="frame8-23" d="M632.41,714h-37l-5.32-29H600.5v1.5a12.035,12.035,0,0,0,12,12h12a11.978,11.978,0,0,0,6.45-1.89C631.24,701.7,631.75,707.59,632.41,714Z" transform="translate(-1.5 -30.73)"/><path class="frame8-16" d="M628.74,658l.23,15.37a11.866,11.866,0,0,0-4.47-.87h-5.1l-.74-14.5-4.03-79.04c3.97,1.14,8.3,2.2,12.93,3.17Z" transform="translate(-1.5 -30.73)"/><path class="frame8-23" d="M614.63,578.96,618.66,658H595.5v-.5s-13-55-14-84,15-43,15-43c-18.37-.77-16.82-15.59-15.09-22.5h20.87a41.738,41.738,0,0,0,12.64,19.27,65.3,65.3,0,0,0-9.44,33.93v14.13l-.19.53Q609.55,577.5,614.63,578.96Z" transform="translate(-1.5 -30.73)"/><path class="frame8-20" d="M595.5,657.5v.5H481a12.035,12.035,0,0,1-12-12V520a12.035,12.035,0,0,1,12-12H581.41c-1.73,6.91-3.28,21.73,15.09,22.5,0,0-16,14-15,43S595.5,657.5,595.5,657.5Z" transform="translate(-1.5 -30.73)"/><path class="frame8-20" d="M590.09,685l5.32,29H471a12.035,12.035,0,0,1,12,12V851a12.011,12.011,0,0,1-12,12h-7V714H451a12.035,12.035,0,0,1-12-12v-5a12.035,12.035,0,0,1,12-12Z" transform="translate(-1.5 -30.73)"/><path class="frame8-14" d="M477.82,862.27,450.98,903.5H416.92L446,856l.95-.34A12.045,12.045,0,0,0,458,863h13a11.982,11.982,0,0,0,5.71-1.45Z" transform="translate(-1.5 -30.73)"/><path class="frame8-23" d="M464,861.5V863h-6a12.045,12.045,0,0,1-11.05-7.34A11.9,11.9,0,0,1,446,851V787h18Z" transform="translate(-1.5 -30.73)"/><rect class="frame8-23" x="444.5" y="737.27" width="18" height="19"/><path class="frame8-23" d="M464,715v53H446V726a12.035,12.035,0,0,1,12-12h6Z" transform="translate(-1.5 -30.73)"/><path class="frame8-5" d="M446.95,855.66,446,856l-29.08,47.5h-105a17.92,17.92,0,0,1-16.93-11.48l92.51,1.48s1,5,32.5-31.5l-.13-.18A11.985,11.985,0,0,0,425,852V787h21v64A11.9,11.9,0,0,0,446.95,855.66Z" transform="translate(-1.5 -30.73)"/><rect class="frame8-4" x="423.5" y="737.27" width="21" height="19"/><path class="frame8-32" d="M437,555.2c0,13.32-3.66,25.3-9.5,33.65a103.085,103.085,0,0,1,7.15,38.5c0,21.79-6.2,41.33-16.01,54.56l-1.14-1.41c-115-3-108-180-108-180l-.32-.09c-.01-.61-.03-1.21-.03-1.83,0-28.15,11.05-52.28,26.77-62.44A30.426,30.426,0,0,1,352.55,431c23.97,0,43.4,30.26,43.4,67.58a104.325,104.325,0,0,1-1.18,15.62,21.1,21.1,0,0,1,12.91-4.66C423.87,509.54,437,529.98,437,555.2Z" transform="translate(-1.5 -30.73)"/><path class="frame8-20" d="M425,787v65a12.04,12.04,0,0,1-12,12H340.49L337.5,754.5v-1h15.35c-.26-11.07-.33-28.37-.34-36.5H413a12.035,12.035,0,0,1,12,12v58Z" transform="translate(-1.5 -30.73)"/><path class="frame8-14" d="M419.87,861.82l.13.18c-31.5,36.5-32.5,31.5-32.5,31.5l-92.51-1.48a17.965,17.965,0,0,1,4.93-20.43l17.03-14.92A12.036,12.036,0,0,0,328,864h85A11.919,11.919,0,0,0,419.87,861.82Z" transform="translate(-1.5 -30.73)"/><path class="frame8-3" d="M417.5,680.5l1.14,1.41c-8.12,10.95-18.72,17.59-30.32,17.59a31.722,31.722,0,0,1-15.82-4.34A45.523,45.523,0,0,1,360,684.43c-.49.71-.98,1.4-1.5,2.06-6.21,8.12-14.22,13.01-22.96,13.01-19.76,0-35.77-24.94-35.77-55.71a78.625,78.625,0,0,1,6.32-31.61c-14.61-8-25.09-29.66-25.09-55.15,0-27.25,11.98-50.15,28.18-56.62l.32.09S302.5,677.5,417.5,680.5Z" transform="translate(-1.5 -30.73)"/><path class="frame8-5" d="M372.5,695.16V717h-14V686.49c.52-.66,1.01-1.35,1.5-2.06A45.523,45.523,0,0,0,372.5,695.16Z" transform="translate(-1.5 -30.73)"/><path class="frame8-23" d="M352.85,753.5H337.5v1L340.49,864H328a12.012,12.012,0,0,1-12-12V729a12.035,12.035,0,0,1,12-12h24.51C352.52,725.13,352.59,742.43,352.85,753.5Z" transform="translate(-1.5 -30.73)"/><g id="tree-3" data-name="tree"><path class="frame8-33" d="M278.86,391.74c11.87,3.85,20.51,15.59,20.51,29.48,0,17.01-12.96,30.81-28.95,30.81a27.7,27.7,0,0,1-18.02-6.71c-.01.07-.01.15-.02.22C96.6,499.37,81.06,391.85,80.51,387.63c.13-.06.27-.12.41-.18a39.968,39.968,0,0,1-3.08-15.37c0-23.33,20.1-42.24,44.89-42.24a47.017,47.017,0,0,1,21.48,5.14C149,309.33,170.15,290,195.51,290c28.48,0,51.65,24.37,52.32,54.7v.06c.03-.01.05-.01.08-.02a25.18,25.18,0,0,1,5.24-.55c15.85,0,28.69,14.74,28.69,32.93a37.058,37.058,0,0,1-2.31,12.94C279.32,390.63,279.1,391.19,278.86,391.74Z" transform="translate(-1.5 -30.73)"/><path class="frame8-3" d="M252.38,445.54c-1.98,19.78-15.73,35.86-33.73,40.32a42.3,42.3,0,0,1-10.12,1.23,41.282,41.282,0,0,1-4.47-.24,42.793,42.793,0,0,1-24.1-10.84,34.3,34.3,0,0,1-8.09,5.51,59.91,59.91,0,0,1-9.18,3.69,79.974,79.974,0,0,1-10.16,2.45,102.993,102.993,0,0,1-18.11,1.56c-28.02,0-50.73-10.59-50.73-23.64,0-6.2,5.11-11.84,13.48-16.05C72.35,443.88,55,430.95,55,415.9c0-11.38,9.93-21.55,25.51-28.27C81.06,391.85,96.6,499.37,252.38,445.54Z" transform="translate(-1.5 -30.73)"/><path class="frame8-5" d="M214.37,630.34s-.14.09-.4.25c-25.97,3.95-36.3-73.92-38.82-97.45-.1-2.65-.18-4.8-.25-6.32-.58-12.84-15.82-31.64-22.37-39.16a79.974,79.974,0,0,0,10.16-2.45c3.37,7.09,18.43,37.56,27.05,36.04l-.05-.34a2.358,2.358,0,0,0,2.34-.04c13.89-7.41,13.96-23.16,12.03-34.02a41.282,41.282,0,0,0,4.47.24,42.3,42.3,0,0,0,10.12-1.23c-2.3,12.63-6.65,29.23-14.7,41.71C189.05,550.66,214.37,630.34,214.37,630.34Z" transform="translate(-1.5 -30.73)"/><path class="frame8-4" d="M175.15,533.14c2.52,23.53,12.85,101.4,38.82,97.45-2.55,1.53-17.18,9.42-36.09,1.99C177.88,632.58,176.04,559.03,175.15,533.14Z" transform="translate(-1.5 -30.73)"/><path class="frame8-4" d="M189.69,520.91l.05.34c-8.62,1.52-23.68-28.95-27.05-36.04a59.91,59.91,0,0,0,9.18-3.69c1.86,5.05,10.16,27.54,13.46,34.13C187,519,188.52,520.39,189.69,520.91Z" transform="translate(-1.5 -30.73)"/></g></g><g id="Eyes"><circle id="leftEye" class="frame8-34" cx="665.261" cy="378.39" r="18.761"/><circle id="leftPupil" class="frame8-17" cx="665.829" cy="383.506" r="5.685"/><circle id="rightEye" class="frame8-34" cx="718.133" cy="378.39" r="18.761"/><circle id="rightPupil" class="frame8-17" cx="718.701" cy="383.506" r="5.685"/></g></svg>