<svg xmlns="http://www.w3.org/2000/svg" viewBox="0 0 507 847"><defs></defs><title>svg-frame9_1</title><g id="Layer_2" data-name="Layer 2"><g id="Line"><g id="_Group_" data-name="&lt;Group&gt;"><path class="frame9-1" d="M506.5,495.58V88.25A88.249,88.249,0,0,0,418.25,0H92A92,92,0,0,0,0,92V523.5H1V835a12.035,12.035,0,0,0,12,12H495a12.035,12.035,0,0,0,12-12V499A11.74,11.74,0,0,0,506.5,495.58ZM296.96,319.47v-.09a.355.355,0,0,1,.09.04C297.02,319.44,296.99,319.45,296.96,319.47Z"/><path class="frame9-2" d="M506.5,495.58A12.046,12.046,0,0,0,495,487s-5.43-1.37-15-3.56v66c9.57,2.19,15,3.56,15,3.56a12.035,12.035,0,0,1,12,12V499A11.74,11.74,0,0,0,506.5,495.58Z"/><path class="frame9-3" d="M427.99,264.38c-.07-.14-.14-.27-.21-.4a24.69,24.69,0,0,1-23.92,18.59c-13.63,0-25.45-8.74-18.75-32.58,14.87-52.95,10.42-89.91-1.16-115.49h72.8a23.823,23.823,0,0,1,23.75,23.75v169.5a23.823,23.823,0,0,1-23.75,23.75H370.17c.09-1.25.13-2.51.13-3.78a54.341,54.341,0,0,0-2.92-17.61c-.01-.02-.01-.04-.02-.06.01.01.03.01.04.02a47.39,47.39,0,0,0,60.59-65.69Z"/><path class="frame9-4" d="M495,553s-5.43-1.37-15-3.56v-66c9.57,2.19,15,3.56,15,3.56a12.046,12.046,0,0,1,11.5,8.58V88.25A88.249,88.249,0,0,0,418.25,0H92A92,92,0,0,0,0,92V523.5H1V499a12.035,12.035,0,0,1,12-12s38.66-11.43,95.09-21.03V454.62a106.372,106.372,0,0,1,15.4-55.29A67.934,67.934,0,0,1,99.93,351.5H50.25A23.823,23.823,0,0,1,26.5,327.75V158.25A23.823,23.823,0,0,1,50.25,134.5h73.3C148.78,31.39,302.81,19.9,322.92,80.2c0,0,41.08,10.27,61.03,54.3h72.8a23.823,23.823,0,0,1,23.75,23.75v169.5a23.823,23.823,0,0,1-23.75,23.75H370.17a53.992,53.992,0,0,1-10.23,28.12,106.572,106.572,0,0,1,30.73,75v11.42c32.32,5.24,60.45,11,79.33,15.16v66c-3.38-.74-7.05-1.54-11-2.37V847h36a12.035,12.035,0,0,0,12-12V565A12.035,12.035,0,0,0,495,553Z"/><path class="frame9-3" d="M459,544.83V847h-9.5V542.84Q454.48,543.875,459,544.83Z"/><path class="frame9-4" d="M132.79,528.07c11.66-1.69,23.86-3.24,36.46-4.57H327.61c46.14,4.9,90.46,12.91,121.89,19.34V847H60.83l1.16-306.11C81.42,536.67,105.63,532.01,132.79,528.07Z"/><path class="frame9-5" d="M427.99,264.38a47.4,47.4,0,0,1-60.59,65.69c-.01-.01-.03-.01-.04-.02v-.04C424.39,331.65,427.8,269.81,427.99,264.38Z"/><path class="frame9-6" d="M356.57,246.9a9.876,9.876,0,1,1-13.91,9.02,10.023,10.023,0,0,1,.2-1.99A17.772,17.772,0,0,0,356.57,246.9Z"/><path class="frame9-7" d="M359.44,209.67v28.97a13.72,13.72,0,0,1-2.87,8.26,9.881,9.881,0,0,0-13.71,7.03,1.34,1.34,0,0,1-.2.01l-.26-.04a93.528,93.528,0,0,0,1.25-15.26V197.67h3.79A12,12,0,0,1,359.44,209.67Z"/><path class="frame9-6" d="M356.57,246.9a17.772,17.772,0,0,1-13.71,7.03,9.881,9.881,0,0,1,13.71-7.03Z"/><path class="frame9-1" d="M300.5,175a29.5,29.5,0,1,1,0,59h-104a29.5,29.5,0,1,1,0-59Zm14.88,34.34a1.431,1.431,0,0,0-1.04-1.72l-6.33-1.58a17.28,17.28,0,0,0,1.41-7.04,1.42,1.42,0,0,0-2.84,0c0,9.13-6.94,14.58-18.58,14.58s-18.58-5.45-18.58-14.58a1.42,1.42,0,0,0-2.84,0,17.254,17.254,0,0,0,1.38,6.96l-6.66,3.81a1.419,1.419,0,0,0,.7,2.65,1.366,1.366,0,0,0,.7-.19l6.63-3.79a15.971,15.971,0,0,0,4.84,4.58l-3.28,4.09a1.42,1.42,0,0,0,1.11,2.31,1.411,1.411,0,0,0,1.11-.53l3.63-4.55a27.509,27.509,0,0,0,9.84,2.03V222a1.42,1.42,0,1,0,2.84,0v-5.63a28.059,28.059,0,0,0,9.29-1.79l4.4,3.53a1.439,1.439,0,0,0,.89.31,1.411,1.411,0,0,0,1.11-.53,1.426,1.426,0,0,0-.22-2l-3.37-2.69a15.957,15.957,0,0,0,5.04-4.6l7.1,1.78a1.97,1.97,0,0,0,.34.04A1.427,1.427,0,0,0,315.38,209.34Zm-80,0a1.431,1.431,0,0,0-1.04-1.72l-6.33-1.58a17.28,17.28,0,0,0,1.41-7.04,1.42,1.42,0,0,0-2.84,0c0,9.13-6.94,14.58-18.58,14.58s-18.58-5.45-18.58-14.58a1.42,1.42,0,0,0-2.84,0,17.254,17.254,0,0,0,1.38,6.96l-6.66,3.81a1.419,1.419,0,0,0,.7,2.65,1.366,1.366,0,0,0,.7-.19l6.63-3.79a15.971,15.971,0,0,0,4.84,4.58l-3.28,4.09a1.42,1.42,0,0,0,1.11,2.31,1.411,1.411,0,0,0,1.11-.53l3.63-4.55a27.509,27.509,0,0,0,9.84,2.03V222a1.42,1.42,0,0,0,2.84,0v-5.63a28.059,28.059,0,0,0,9.29-1.79l4.4,3.53a1.439,1.439,0,0,0,.89.31,1.411,1.411,0,0,0,1.11-.53,1.426,1.426,0,0,0-.22-2l-3.37-2.69a15.957,15.957,0,0,0,5.04-4.6l7.1,1.78a1.97,1.97,0,0,0,.34.04A1.427,1.427,0,0,0,235.38,209.34Z"/><path class="frame9-1" d="M312.04,351.5h3.73c-.03.35-.08.69-.14,1.04C314.44,352.17,313.24,351.82,312.04,351.5Z"/><path class="frame9-8" d="M314.34,207.62a1.421,1.421,0,0,1-.34,2.8,1.97,1.97,0,0,1-.34-.04l-7.1-1.78a15.957,15.957,0,0,1-5.04,4.6l3.37,2.69a1.426,1.426,0,0,1,.22,2,1.411,1.411,0,0,1-1.11.53,1.439,1.439,0,0,1-.89-.31l-4.4-3.53a28.059,28.059,0,0,1-9.29,1.79V222a1.42,1.42,0,1,1-2.84,0v-5.63a27.509,27.509,0,0,1-9.84-2.03l-3.63,4.55a1.411,1.411,0,0,1-1.11.53,1.42,1.42,0,0,1-1.11-2.31l3.28-4.09a15.971,15.971,0,0,1-4.84-4.58l-6.63,3.79a1.366,1.366,0,0,1-.7.19,1.419,1.419,0,0,1-.7-2.65l6.66-3.81a17.254,17.254,0,0,1-1.38-6.96,1.42,1.42,0,0,1,2.84,0c0,9.13,6.94,14.58,18.58,14.58s18.58-5.45,18.58-14.58a1.42,1.42,0,0,1,2.84,0,17.28,17.28,0,0,1-1.41,7.04Z"/><path class="frame9-9" d="M315.18,134.5c-10.2-12.58-20.1-21.72-23.85-21.72,0,7.57-7.66,15.24-19.98,21.72-26.24,13.81-73.65,22.24-113.29,12.83l-.41-.05a94.373,94.373,0,0,0-.58,10.42v80.94a93.311,93.311,0,0,0,53.19,84.25c.28.14.56.27.84.4a93.438,93.438,0,0,0,85.86-3.82v-.09a.355.355,0,0,1,.09.04,93.668,93.668,0,0,0,26.97-23.54,93.112,93.112,0,0,0,19.63-57.24V190.76C343.65,175.36,329.14,151.72,315.18,134.5ZM261.81,302.08H239.72a1.305,1.305,0,1,1,0-2.61h22.09a1.305,1.305,0,0,1,0,2.61Zm1.73-8.25c-1.63.08-3.32.13-5.05.13-18.77,0-41.93-5.09-43.08-16.06a1.3,1.3,0,0,1,2.59-.27c.95,8.95,25.18,14.65,45.41,13.59,13.28-.7,27.47-4.6,27.47-13.46a1.305,1.305,0,0,1,2.61,0C293.49,286.84,282.29,292.84,263.54,293.83Zm-24.85-52.51a1.305,1.305,0,0,1,2.61,0,15.492,15.492,0,0,0,15.48,15.48,1.305,1.305,0,0,1,0,2.61A18.1,18.1,0,0,1,238.69,241.32Zm82.67-15.96A29.415,29.415,0,0,1,300.5,234h-104a29.5,29.5,0,1,1,0-59h104a29.5,29.5,0,0,1,20.86,50.36Z"/><path class="frame9-7" d="M296.96,319.47a93.438,93.438,0,0,1-85.86,3.82c-.28-.13-.56-.26-.84-.4V346.8l.32.18c.03.28.06.55.09.83.14,1.24.33,2.47.58,3.69,4.01,20.07,21.55,36.73,42.57,36.73.25,0,.51,0,.76-.01V388a1.42,1.42,0,1,1,2.84,0v.08a43.17,43.17,0,0,0,17.25-5.17,54.11,54.11,0,0,1-6.83-10.14,30.453,30.453,0,0,0,13.86,5.33,43.387,43.387,0,0,0,15.04-26.6c.15-.98.27-1.96.35-2.96.11-1.23.16-2.48.16-3.74Z"/><path class="frame9-10" d="M292.18,276.46a1.306,1.306,0,0,1,1.31,1.3c0,9.08-11.2,15.08-29.95,16.07-1.63.08-3.32.13-5.05.13-18.77,0-41.93-5.09-43.08-16.06a1.3,1.3,0,0,1,2.59-.27c.95,8.95,25.18,14.65,45.41,13.59,13.28-.7,27.47-4.6,27.47-13.46A1.3,1.3,0,0,1,292.18,276.46Z"/><circle class="frame9-8" cx="266" cy="408" r="4"/><circle class="frame9-8" cx="266" cy="428" r="4"/><circle class="frame9-8" cx="266" cy="446" r="4"/><path class="frame9-7" d="M261.81,299.47a1.305,1.305,0,0,1,0,2.61H239.72a1.305,1.305,0,1,1,0-2.61Z"/><path class="frame9-8" d="M257.42,388.08V445a1.42,1.42,0,0,1-2.84,0V388.22C255.54,388.21,256.48,388.16,257.42,388.08Z"/><path class="frame9-7" d="M257.42,388v.08c-.94.08-1.88.13-2.84.14V388a1.42,1.42,0,1,1,2.84,0Z"/><path class="frame9-10" d="M256.78,256.8a1.305,1.305,0,0,1,0,2.61,18.1,18.1,0,0,1-18.09-18.09,1.305,1.305,0,0,1,2.61,0A15.492,15.492,0,0,0,256.78,256.8Z"/><path class="frame9-8" d="M234.34,207.62a1.421,1.421,0,0,1-.34,2.8,1.97,1.97,0,0,1-.34-.04l-7.1-1.78a15.957,15.957,0,0,1-5.04,4.6l3.37,2.69a1.426,1.426,0,0,1,.22,2,1.411,1.411,0,0,1-1.11.53,1.439,1.439,0,0,1-.89-.31l-4.4-3.53a28.059,28.059,0,0,1-9.29,1.79V222a1.42,1.42,0,0,1-2.84,0v-5.63a27.509,27.509,0,0,1-9.84-2.03l-3.63,4.55a1.411,1.411,0,0,1-1.11.53,1.42,1.42,0,0,1-1.11-2.31l3.28-4.09a15.971,15.971,0,0,1-4.84-4.58l-6.63,3.79a1.366,1.366,0,0,1-.7.19,1.419,1.419,0,0,1-.7-2.65l6.66-3.81a17.254,17.254,0,0,1-1.38-6.96,1.42,1.42,0,0,1,2.84,0c0,9.13,6.94,14.58,18.58,14.58s18.58-5.45,18.58-14.58a1.42,1.42,0,0,1,2.84,0,17.28,17.28,0,0,1-1.41,7.04Z"/><path class="frame9-1" d="M359.94,379.62a54.284,54.284,0,0,1-85.27,3.29,43.17,43.17,0,0,1-17.25,5.17V445a1.42,1.42,0,0,1-2.84,0V388.22c-.25.01-.51.01-.76.01-21.02,0-38.56-16.66-42.57-36.73-.25-1.22-.44-2.45-.58-3.69-.03-.28-.06-.55-.09-.83l-.32-.18V323.41a41.014,41.014,0,0,0-33.47,28.09c-.38,1.18-.71,2.39-.98,3.62a41.007,41.007,0,0,0,30.59,48.77l.02.03a68.12,68.12,0,0,1-82.93-4.59,106.372,106.372,0,0,0-15.4,55.29v11.35q10.6-1.815,22.01-3.51c36.3-5.35,78.04-9.46,120.73-9.46,46.05,0,96.68,6.05,139.84,13.04V454.62A106.572,106.572,0,0,0,359.94,379.62ZM266,450a4,4,0,1,1,4-4A4,4,0,0,1,266,450Zm0-18a4,4,0,1,1,4-4A4,4,0,0,1,266,432Zm0-20a4,4,0,1,1,4-4A4,4,0,0,1,266,412Z"/><path class="frame9-1" d="M315.63,352.54c-1.19-.37-2.39-.72-3.59-1.04h3.73a29.509,29.509,0,0,0,.24-3.78,30.592,30.592,0,0,0-18.96-28.3c-.03.02-.06.03-.09.05l.29,25.33c0,1.26-.05,2.51-.16,3.74-.08,1-.2,1.98-.35,2.96a43.387,43.387,0,0,1-15.04,26.6,30.252,30.252,0,0,0,3.7.22A30.614,30.614,0,0,0,315.63,352.54Z"/><path class="frame9-10" d="M427.99,264.38c-.07-.14-.14-.27-.21-.4a24.69,24.69,0,0,1-23.92,18.59c-13.63,0-25.45-8.74-18.75-32.58,14.87-52.95,10.42-89.91-1.16-115.49C364,90.47,322.92,80.2,322.92,80.2c-20.11-60.3-174.14-48.81-199.37,54.3-5.91,24.17-4.75,53.36,6.87,87.85,15.55,46.16-13.82,55.28-23.69,55.28a27.591,27.591,0,0,1-20.23-8.8,48.054,48.054,0,0,0-.5,6.83,46.37,46.37,0,0,0,22.09,39.52,67.78,67.78,0,0,0-8.27,32.54c0,1.27.03,2.53.11,3.78a68.068,68.068,0,0,0,106.49,52.42l-.02-.03a41.007,41.007,0,0,1-30.59-48.77c.27-1.23.6-2.44.98-3.62a41.014,41.014,0,0,1,33.47-28.09v-.52a93.311,93.311,0,0,1-53.19-84.25V157.7a94.373,94.373,0,0,1,.58-10.42l.41.05c39.64,9.41,87.05.98,113.29-12.83,12.32-6.48,19.98-14.15,19.98-21.72,3.75,0,13.65,9.14,23.85,21.72,13.96,17.22,28.47,40.86,28.47,56.26v6.91h3.79a12,12,0,0,1,12,12v28.97a13.72,13.72,0,0,1-2.87,8.26,9.876,9.876,0,1,1-13.91,9.02,10.023,10.023,0,0,1,.2-1.99,1.34,1.34,0,0,1-.2.01l-.26-.04a92.7,92.7,0,0,1-18.38,41.98,93.668,93.668,0,0,1-26.97,23.54,30.592,30.592,0,0,1,18.96,28.3,29.509,29.509,0,0,1-.24,3.78c-.03.35-.08.69-.14,1.04a30.614,30.614,0,0,1-30.23,25.78,30.4,30.4,0,0,1-17.56-5.55A54.294,54.294,0,0,0,370.17,351.5c.09-1.25.13-2.51.13-3.78a54.341,54.341,0,0,0-2.92-17.61c-.01-.02-.01-.04-.02-.06v-.04C424.39,331.65,427.8,269.81,427.99,264.38Z"/><path class="frame9-3" d="M390.67,466.04C347.51,459.05,296.88,453,250.83,453c-42.69,0-84.43,4.11-120.73,9.46q-11.385,1.695-22.01,3.51C51.66,475.57,13,487,13,487A12.035,12.035,0,0,0,1,499v66a12.035,12.035,0,0,1,12-12s18.67-5.52,48.99-12.11c19.43-4.22,43.64-8.88,70.8-12.82,11.66-1.69,23.86-3.24,36.46-4.57H327.61c46.14,4.9,90.46,12.91,121.89,19.34q4.98,1.035,9.5,1.99c3.95.83,7.62,1.63,11,2.37v-66C451.12,477.04,422.99,471.28,390.67,466.04Z"/><path class="frame9-11" d="M130.42,222.35c15.55,46.16-13.82,55.28-23.69,55.28a27.591,27.591,0,0,1-20.23-8.8,48.054,48.054,0,0,0-.5,6.83,46.37,46.37,0,0,0,22.09,39.52,67.78,67.78,0,0,0-8.27,32.54c0,1.27.03,2.53.11,3.78H82V351c-8-17,10-32,10-32-34,0-14-64-14-64,12,11,36,0,36,0-37.08-59.69-16.91-111.2-12.71-120.5h22.26C117.64,158.67,118.8,187.86,130.42,222.35Z"/><path class="frame9-3" d="M50.25,134.5h51.04C97.09,143.8,76.92,195.31,114,255c0,0-24,11-36,0,0,0-20,64,14,64,0,0-18,15-10,32v.5H50.25A23.823,23.823,0,0,1,26.5,327.75V158.25A23.823,23.823,0,0,1,50.25,134.5Z"/><path class="frame9-12" d="M61.99,540.89,60.83,847H13A12.035,12.035,0,0,1,1,835V565a12.035,12.035,0,0,1,12-12S31.67,547.48,61.99,540.89Z"/></g></g></g></svg>