<svg id="frameElevenScreens" xmlns="http://www.w3.org/2000/svg" viewBox="0 0 1034.998 806.428"><defs></defs><g id="Layer_2" data-name="Layer 2"><g id="Colour"><path class="frame11-1" d="M1032.361,764.2l-178.11-219.57c-3.13-3.86-8.61-6.2-14.51-6.2H724.9l1.16-22.42h0a51.526,51.526,0,0,0,39.44-50.08v-102a51.412,51.412,0,0,0-20.46-41.1l-4.93-5.65a48.879,48.879,0,0,0-36.84-16.75h-14.44a51.483,51.483,0,0,0,8.98-60.97c-.07.29-.15.57-.24.85h0a26.805,26.805,0,0,1-25.74,19.34c-14.81,0-27.65-9.5-20.38-35.39,43.97-156.58-67.56-184.46-67.56-184.46-26.96-80.86-275.62-42.9-209.13,154.43,5.78,17.15,5.85,29.59,3.01,38.54-5.46,17.22-21.69,21.52-28.75,21.52a29.852,29.852,0,0,1-20.44-8.05c-.53-.48-1.04-.99-1.53-1.52a50.4,50.4,0,0,0,23.44,50.35c-.95,1.75-1.83,3.53-2.63,5.36H317.7a67.4,67.4,0,0,0-41.48,14.28l-11.06,8.64.04.06a51.445,51.445,0,0,0-19.7,40.52v102a51.55,51.55,0,0,0,34.74,48.72l1.06,23.78h-86.04c-5.9,0-11.38,2.34-14.51,6.2l-30.05,37.05L50.311,705.428,2.641,764.2a10.581,10.581,0,0,0-2.26,9.74c.04.16.09.32.14.48l-.04.01-.1,21.51c1.6,5.74,8.09,10.49,16.77,10.49h1000.7c8.03,0,14.52-4.85,16.67-10,0,0,0-20.89.26-23.16a.62.62,0,0,1,.04-.2A10.7,10.7,0,0,0,1032.361,764.2ZM633.757,316.7q.521,2.169.874,4.4Q634.278,318.873,633.757,316.7Zm-2.973,36.553q.885-2.106,1.608-4.293Q631.671,351.15,630.784,353.257Zm-4.15,8.072q1.186-1.925,2.226-3.945Q627.821,359.4,626.634,361.329Zm-70.943-61.591v-.1a.355.355,0,0,1,.09.04Zm-103.33,40.5a59.268,59.268,0,0,1-1.18-7.37C451.231,333.248,451.631,335.958,452.361,340.238Zm202.56,81.89L479,421.318l175.92.81,65.58.3Zm-22.35-110.72-.18-.075.18.075Zm-.4-.18a.637.637,0,0,0,.02.07c.065.185.124.376.185.565-.061-.189-.12-.38-.185-.565a.637.637,0,0,1-.02-.07Z"/><g id="_Group_" data-name="&lt;Group&gt;"><path class="frame11-2" d="M267.5,551.428l-4.09,8.19C264.031,554.988,265.4,551.428,267.5,551.428Z"/><path class="frame11-3" d="M925.151,690.778l-161.13,1-1.56.01c-1.24.01-4.51,1-7.99,2.18-5.28,1.81-11.05,4.07-11.05,4.07s.06.01.17.04l-.09.35-9,5,25,7h173l11.83-9.5-.15-.19a5.671,5.671,0,0,0-3.62-10.06Zm89.35,93.65H17.151c-8.44,0-14.81-4.49-16.63-10.01-.05-.16-.1-.32-.14-.48a10.581,10.581,0,0,1,2.26-9.74l47.67-58.77H205.5l7-11,55-114c-3.9,0-5.26-12.23-4.09-20.81l4.09-8.19h-86l-24.31,30.25H150.7l30.05-37.05c3.13-3.86,8.61-6.2,14.51-6.2H281.3l6.02,135.49-.32.01-20.5,39.5h418l32-13,8.4-162h114.84c5.9,0,11.38,2.34,14.51,6.2l178.11,219.57a10.7,10.7,0,0,1,2.46,8.87.62.62,0,0,0-.04.2c-1.27,6.03-7.92,11.16-16.93,11.16Zm-99-129-79-106h-108l54,118h112Z"/><path class="frame11-4" d="M1034.781,773.268c-.26,2.27-.26,23.16-.26,23.16-2.15,5.15-8.64,10-16.67,10h-3.35v-22h3.35C1026.861,784.428,1033.511,779.3,1034.781,773.268Z"/><rect class="frame11-5" x="17.501" y="784.428" width="997" height="22"/><path class="frame11-6" d="M946.261,696.308a5.668,5.668,0,0,1-5.63,5.71l-14.47.09c2.02-5.41.63-9.11-1.01-11.33l15.41-.1A5.663,5.663,0,0,1,946.261,696.308Z"/><path class="frame11-5" d="M763.121,703.118l163.04-1.01,14.47-.09a5.663,5.663,0,0,0,3.55-1.28l.15.19-11.83,9.5h-173l-25-7,9-5,.09-.35c.92.23,5.49,1.39,9.63,2.5,3.21.86,6.16,1.69,6.96,2.05a5.558,5.558,0,0,0,2.35.49Z"/><path class="frame11-2" d="M925.151,690.778c1.64,2.22,3.03,5.92,1.01,11.33l-163.04,1.01c2.17-5.97,1.7-9.45.9-11.34Z"/><path class="frame11-7" d="M836.5,549.428l79,106-127,1-47-107Zm46.06,85a1.054,1.054,0,0,0-1.06-1.06h-84a1.06,1.06,0,1,0,0,2.12h84A1.054,1.054,0,0,0,882.561,634.428Zm-10-16a1.054,1.054,0,0,0-1.06-1.06h-83a1.06,1.06,0,1,0,0,2.12h83A1.054,1.054,0,0,0,872.561,618.428Zm-10-15a1.054,1.054,0,0,0-1.06-1.06h-83a1.06,1.06,0,1,0,0,2.12h83A1.054,1.054,0,0,0,862.561,603.428Zm-8-10a1.054,1.054,0,0,0-1.06-1.06h-34a1.06,1.06,0,1,0,0,2.12h34A1.054,1.054,0,0,0,854.561,593.428Zm-7-8a1.054,1.054,0,0,0-1.06-1.06h-27a1.06,1.06,0,1,0,0,2.12h27A1.054,1.054,0,0,0,847.561,585.428Zm-4-8a1.054,1.054,0,0,0-1.06-1.06h-48a1.06,1.06,0,1,0,0,2.12h48A1.054,1.054,0,0,0,843.561,577.428Z"/><polygon class="frame11-5" points="915.501 655.428 894.501 667.428 782.501 667.428 728.501 549.428 741.501 549.428 788.501 656.428 915.501 655.428"/><path d="M881.5,633.368a1.06,1.06,0,1,1,0,2.12h-84a1.06,1.06,0,1,1,0-2.12Z"/><path d="M871.5,617.368a1.06,1.06,0,1,1,0,2.12h-83a1.06,1.06,0,1,1,0-2.12Z"/><path d="M861.5,602.368a1.06,1.06,0,1,1,0,2.12h-83a1.06,1.06,0,1,1,0-2.12Z"/><path d="M853.5,592.368a1.06,1.06,0,1,1,0,2.12h-34a1.06,1.06,0,1,1,0-2.12Z"/><path d="M846.5,584.368a1.06,1.06,0,1,1,0,2.12h-27a1.06,1.06,0,1,1,0-2.12Z"/><path d="M842.5,576.368a1.06,1.06,0,1,1,0,2.12h-48a1.06,1.06,0,1,1,0-2.12Z"/><path class="frame11-3" d="M745.041,322.828a51.412,51.412,0,0,1,20.46,41.1v102a51.526,51.526,0,0,1-39.44,50.08l4.44-85.58-10-8-65.58-.3a115.869,115.869,0,0,0-30.8-57.05,58.712,58.712,0,0,0,11.24-34.65,59.605,59.605,0,0,0-.73-9.32,58.074,58.074,0,0,0-2.07-8.68h2.63a51.717,51.717,0,0,0,34.66,0H714A51.277,51.277,0,0,1,745.041,322.828Z"/><path class="frame11-8" d="M764.021,691.778c.8,1.89,1.27,5.37-.9,11.34h-.59a5.558,5.558,0,0,1-2.35-.49c-.8-.36-3.75-1.19-6.96-2.05,1.64-4,1.72-5.83,1.25-6.61,3.48-1.18,6.75-2.17,7.99-2.18Z"/><path class="frame11-9" d="M754.471,693.968c.47.78.39,2.61-1.25,6.61-4.14-1.11-8.71-2.27-9.63-2.5-.11-.03-.17-.04-.17-.04S749.191,695.778,754.471,693.968Z"/><path class="frame11-5" d="M740.111,317.178l4.93,5.65a51.277,51.277,0,0,0-31.04-10.4h-44.15a51.624,51.624,0,0,0,18.98-12h14.44A48.879,48.879,0,0,1,740.111,317.178Z"/><polygon class="frame11-5" points="716.501 700.428 684.501 713.428 266.501 713.428 287.001 673.928 287.321 673.918 288.501 700.428 716.501 700.428"/><path class="frame11-10" d="M688.831,300.428a51.624,51.624,0,0,1-18.98,12h-34.66c-.89-.31-1.76-.65-2.62-1.02,2.46-.72,69.06-20.7,65-71.1.09-.28.17-.56.24-.85a51.483,51.483,0,0,1-8.98,60.97Z"/><path class="frame11-10" d="M635.191,312.428h34.66a51.717,51.717,0,0,1-34.66,0Z"/><path class="frame11-11" d="M654.921,422.128,479,421.318v-.06c-14.68-18.37-23.58-63.26-26.64-81.02a57.889,57.889,0,0,0,87.07,36.15,58.954,58.954,0,0,0,84.69-11.31A115.869,115.869,0,0,1,654.921,422.128Z"/><path class="frame11-10" d="M632.571,311.408c.86.37,1.73.71,2.62,1.02h-2.63c-.12-.38-.24-.76-.37-1.13a.637.637,0,0,1-.02-.07c.01.02.03.02.04.03Z"/><path class="frame11-12" d="M623.571,180.458v31.47a14.949,14.949,0,0,1-3.12,8.98,10.718,10.718,0,0,0-14.89,7.63,1.62,1.62,0,0,1-.22.01l-.29-.05a100.6,100.6,0,0,0,1.36-16.57v-44.51h4.12A13.042,13.042,0,0,1,623.571,180.458Z"/><path class="frame11-13" d="M620.451,220.908a10.718,10.718,0,0,0-14.89,7.63,10.117,10.117,0,0,0-.22,2.15,10.72,10.72,0,1,0,15.11-9.78Z"/><path class="frame11-14" d="M554.6,300.348a100.543,100.543,0,0,1-36.42,12.08H492a100.5,100.5,0,0,1-29.59-8.54c-.3-.14-.61-.28-.91-.43a101.368,101.368,0,0,1-57.78-91.53v-87.94a100.6,100.6,0,0,1,.63-11.31l.44.05c63.27,15.01,144.78-11.8,144.78-37.54,9.65,0,56.84,55.77,56.84,84.72v52.02a101.313,101.313,0,0,1-50.63,87.75.355.355,0,0,0-.09-.04v.1C555.331,299.948,554.971,300.148,554.6,300.348Zm36.79-132.93A35.39,35.39,0,1,0,556,202.808,35.384,35.384,0,0,0,591.391,167.418Zm-39.47,87.01a1.42,1.42,0,1,0-2.84,0c0,9.62-15.42,13.86-29.85,14.62-21.96,1.15-48.3-5.05-49.32-14.77a1.418,1.418,0,1,0-2.82.3c1.25,11.91,26.41,17.44,46.8,17.44,1.88,0,3.72-.05,5.49-.14C539.751,270.808,551.921,264.288,551.921,254.428Zm-33,25a1.425,1.425,0,0,0-1.42-1.42h-24a1.42,1.42,0,1,0,0,2.84h24A1.425,1.425,0,0,0,518.921,279.428Zm-5.47-46.36a1.419,1.419,0,0,0-1.42-1.42,16.828,16.828,0,0,1-16.81-16.81,1.42,1.42,0,0,0-2.84,0,19.679,19.679,0,0,0,19.65,19.65A1.419,1.419,0,0,0,513.451,233.068Zm-21.79-65.65a35.39,35.39,0,1,0-35.39,35.39A35.39,35.39,0,0,0,491.661,167.418Z"/><path class="frame11-15" d="M556,132.028a35.39,35.39,0,1,1-35.39,35.39A35.384,35.384,0,0,1,556,132.028Zm11.8,45.04a10.725,10.725,0,1,0-10.72,10.73A10.721,10.721,0,0,0,567.8,177.068Z"/><path class="frame11-10" d="M571.091,312.428a33.4,33.4,0,0,0-15.31-12.75l-.09.06.14,12.69.17,14.83c0,1.37-.06,2.72-.18,4.06q5.385.675,10.61,1.83a57.469,57.469,0,0,1-10.73,28.07,33.264,33.264,0,0,0,15.39-48.79Z"/><path class="frame11-10" d="M557.081,166.348a10.725,10.725,0,1,1-10.73,10.72A10.721,10.721,0,0,1,557.081,166.348Z"/><path class="frame11-16" d="M555.821,331.318q5.385.675,10.61,1.83a57.469,57.469,0,0,1-10.73,28.07,33.448,33.448,0,0,1-16.59,2.22A47.027,47.027,0,0,0,555.821,331.318Z"/><path class="frame11-10" d="M550.5,253.008a1.425,1.425,0,0,1,1.42,1.42c0,9.86-12.17,16.38-32.54,17.45-1.77.09-3.61.14-5.49.14-20.39,0-45.55-5.53-46.8-17.44a1.418,1.418,0,1,1,2.82-.3c1.02,9.72,27.36,15.92,49.32,14.77,14.43-.76,29.85-5,29.85-14.62A1.425,1.425,0,0,1,550.5,253.008Z"/><path class="frame11-14" d="M555.831,312.428l-.14-12.69c-.36.21-.72.41-1.09.61-1.84,1.87-6.51,6.47-13.17,12.08a202.71,202.71,0,0,1-24.77,18c-15.05,9.2-32.91,16.86-50.59,16.84a47.217,47.217,0,0,0,65.41,21.39,58.585,58.585,0,0,1-7.43-11.01,33.339,33.339,0,0,0,7.98,4.12,32.488,32.488,0,0,0,7.08,1.67,47.027,47.027,0,0,0,16.71-32.12c.12-1.34.18-2.69.18-4.06Z"/><polygon class="frame11-17" points="471.501 533.428 471.501 538.428 471.501 597.428 535.501 597.428 535.501 538.428 535.501 533.428 471.501 533.428"/><path class="frame11-10" d="M634.631,321.108l-.96.15a126.64,126.64,0,0,1-26.04,29.92c-14.49,11.96-34.35,21.88-57.85,16.97a67.076,67.076,0,0,1-11.92-3.69c-1.92-.79-3.87-1.69-5.83-2.69a33.339,33.339,0,0,1-7.98-4.12,58.585,58.585,0,0,0,7.43,11.01,57.5,57.5,0,0,0,7.95,7.73,58.965,58.965,0,0,0,95.93-45.96A59.605,59.605,0,0,0,634.631,321.108Z"/><path class="frame11-16" d="M466.071,347.268a47.217,47.217,0,0,0,65.41,21.39,57.5,57.5,0,0,0,7.95,7.73,57.889,57.889,0,0,1-87.07-36.15c-.73-4.28-1.13-6.99-1.18-7.37a.175.175,0,0,1-.01-.05l-.19-1.34c3.47-.47,7-.79,10.56-.93a1.048,1.048,0,0,1,.25-.01l.05,1.26A46.843,46.843,0,0,0,466.071,347.268Z"/><path class="frame11-14" d="M492,312.428h26.18a103.384,103.384,0,0,1-13.12.84A100.415,100.415,0,0,1,492,312.428Z"/><path class="frame11-12" d="M517.5,278.008a1.42,1.42,0,1,1,0,2.84h-24a1.42,1.42,0,1,1,0-2.84Z"/><path class="frame11-10" d="M512.031,231.648a1.42,1.42,0,1,1,0,2.84,19.679,19.679,0,0,1-19.65-19.65,1.42,1.42,0,0,1,2.84,0A16.828,16.828,0,0,0,512.031,231.648Z"/><path class="frame11-12" d="M518.181,312.428a103.384,103.384,0,0,1-13.12.84,101.532,101.532,0,0,1-42.65-9.38c-.3-.14-.61-.28-.91-.43v25.97l.04,1.12a1.048,1.048,0,0,1,.25-.01l.05,1.26a46.843,46.843,0,0,0,4.23,15.47c17.68.02,35.54-7.64,50.59-16.84a202.71,202.71,0,0,0,24.77-18c6.66-5.61,11.33-10.21,13.17-12.08A100.543,100.543,0,0,1,518.181,312.428Z"/><path class="frame11-15" d="M456.271,132.028a35.39,35.39,0,1,1-35.39,35.39A35.39,35.39,0,0,1,456.271,132.028Zm11.79,45.04a10.725,10.725,0,1,0-10.72,10.73A10.721,10.721,0,0,0,468.061,177.068Z"/><path class="frame11-18" d="M452.421,394.578q2.52-1.455,4.91-3.09l-.02-.04a44.553,44.553,0,0,1-33.24-52.97,115.141,115.141,0,0,1,26.91-7l.19,1.34a.175.175,0,0,0,.01.05,59.268,59.268,0,0,0,1.18,7.37c3.06,17.76,11.96,62.65,26.64,81.02v.06l-125.62-.58a115.782,115.782,0,0,1,13.83-34.24,74.045,74.045,0,0,0,85.21,8.08Z"/><path class="frame11-10" d="M457.341,166.348a10.725,10.725,0,1,1-10.73,10.72A10.721,10.721,0,0,1,457.341,166.348Z"/><path class="frame11-10" d="M461.5,329.428v-25.41a44.573,44.573,0,0,0-37.43,34.46,115.141,115.141,0,0,1,26.91-7c3.47-.47,7-.79,10.56-.93Z"/><path class="frame11-19" d="M632.571,311.408c2.46-.72,69.06-20.7,65-71.1a26.805,26.805,0,0,1-25.74,19.34c-14.81,0-27.65-9.5-20.38-35.39,43.97-156.58-67.56-184.46-67.56-184.46-26.96-80.86-275.62-42.9-209.13,154.43,5.78,17.15,5.85,29.59,3.01,38.54-9.18,74.7-42.75,24.04-49.19,13.47-.53-.48-1.04-.99-1.53-1.52a50.4,50.4,0,0,0,23.44,50.35c-.95,1.75-1.83,3.53-2.63,5.36a65.357,65.357,0,0,0-2.39,6.1l.2.07s.61,2.17,1.97,5.83c4,10.76,14.52,34.42,35.29,53.62,16.27,15.04,38.84,27.34,69.49,28.53q2.52-1.455,4.91-3.09l-.02-.04a44.519,44.519,0,0,1,4.19-87.43v-.56a101.368,101.368,0,0,1-57.78-91.53v-87.94a100.6,100.6,0,0,1,.63-11.31l.44.05c63.27,15.01,144.78-11.8,144.78-37.54,9.65,0,56.84,55.77,56.84,84.72v7.51h4.12a13.042,13.042,0,0,1,13.04,13.04v31.47a14.949,14.949,0,0,1-3.12,8.98,10.724,10.724,0,1,1-15.11,9.78,10.117,10.117,0,0,1,.22-2.15,1.62,1.62,0,0,1-.22.01l-.29-.05a101.4,101.4,0,0,1-49.27,71.18,33.253,33.253,0,0,1-.08,61.54,33.448,33.448,0,0,1-16.59,2.22,32.488,32.488,0,0,1-7.08-1.67c1.96,1,3.91,1.9,5.83,2.69a67.076,67.076,0,0,0,11.92,3.69c23.5,4.91,43.36-5.01,57.85-16.97a126.64,126.64,0,0,0,26.04-29.92l.96-.15a58.074,58.074,0,0,0-2.07-8.68c-.12-.38-.24-.76-.37-1.13a.637.637,0,0,1-.02-.07c.01.02.03.02.04.03Z"/><path class="frame11-1" d="M656.381,430.428H276.5l3.74,84.22,1.06,23.78,6.02,135.49,1.18,26.51h428l8.4-162,1.16-22.42,4.44-85.58Zm-120.88,167h-64v-64h64v64Z"/><path class="frame11-10" d="M377.771,232.768c-9.18,74.7-42.75,24.04-49.19,13.47a29.852,29.852,0,0,0,20.44,8.05C356.081,254.288,372.311,249.988,377.771,232.768Z"/><polygon class="frame11-17" points="720.501 422.428 654.921 422.128 479.001 421.318 353.381 420.738 331.491 420.638 286.501 420.428 276.501 430.428 351.621 430.428 656.381 430.428 730.501 430.428 720.501 422.428"/><path class="frame11-5" d="M341.511,330.428a73.169,73.169,0,0,1,2.22-18q.735-3,1.74-5.9a65.357,65.357,0,0,1,2.39-6.1H317.7a67.4,67.4,0,0,0-41.48,14.28l-11.06,8.64.04.06a51.3,51.3,0,0,1,31.8-10.98h28.67v.17c1.83,48.83,18.83,77.83,18.83,77.83s-13,20.28-13,28l-.01,2.21,21.89.1a115.782,115.782,0,0,1,13.83-34.24A73.835,73.835,0,0,1,341.511,330.428Z"/><path class="frame11-10" d="M382.931,366.048c-20.77-19.2-31.29-42.86-35.29-53.62-1.36-3.66-1.97-5.83-1.97-5.83l-.2-.07q-1,2.895-1.74,5.9a74.015,74.015,0,0,0,108.69,82.15C421.771,393.388,399.2,381.088,382.931,366.048Z"/><path class="frame11-3" d="M344.5,390.428s-13,20.28-13,28l-.01,2.21-44.99-.21-10,10,3.74,84.22a51.55,51.55,0,0,1-34.74-48.72v-102a51.479,51.479,0,0,1,51.5-51.5h28.67v.17C327.5,361.428,344.5,390.428,344.5,390.428Z"/><path class="frame11-7" d="M267.5,580.428l-55,114c-9,0-10-33,0-33l50.91-101.81C262.241,568.2,263.6,580.428,267.5,580.428Z"/><path class="frame11-2" d="M157.191,581.678l24.31-30.25h86c-2.1,0-3.47,3.56-4.09,8.19L212.5,661.428l-116.48,1.93-.02-.43s-.1.15-.27.43l-4.23.07.97-1.21Zm86.73-5.46a10.218,10.218,0,0,0-9.14-14.79h-43.59a10.206,10.206,0,0,0-7.97,3.82l-56.93,70.85a10.222,10.222,0,0,0,8.14,16.62l65.64-1.09a10.213,10.213,0,0,0,8.97-5.64Z"/><path class="frame11-20" d="M234.781,561.428a10.218,10.218,0,0,1,9.14,14.79l-34.88,69.77a10.213,10.213,0,0,1-8.97,5.64l-65.64,1.09a10.222,10.222,0,0,1-8.14-16.62l56.93-70.85a10.206,10.206,0,0,1,7.97-3.82Z"/><path class="frame11-5" d="M212.5,694.428l-7,11H50.311L150.7,581.678h6.49l-64.72,80.54c-6.07,5.01-6.14,32.21,2.03,32.21h118Z"/><path class="frame11-21" d="M96.021,663.358l116.48-1.93c-10,0-9,33,0,33H97.331v-.17Z"/><path class="frame11-2" d="M97.331,694.258v.17H94.5c-8.17,0-8.1-27.2-2.03-32.21l-.97,1.21,4.23-.07C94.281,665.808,87.771,678.428,97.331,694.258Z"/><path class="frame11-21" d="M96.021,663.358l1.31,30.9c-9.56-15.83-3.05-28.45-1.6-30.9Z"/><path class="frame11-2" d="M96,662.928l.02.43h-.29C95.9,663.078,96,662.928,96,662.928Z"/><path class="frame11-4" d="M17.5,784.428v22h-.35c-8.68,0-15.17-4.75-16.77-10.49l.1-21.51.04-.01c1.82,5.52,8.19,10.01,16.63,10.01Z"/></g></g></g></svg>