<svg xmlns="http://www.w3.org/2000/svg" viewBox="0 0 853.789 1093.832"><defs></defs><title>svg-frame5</title><g id="grandma"><path class="frame5-1" d="M378.74,175.467l-17.34,6.27v-9.92a26.2,26.2,0,0,0,5.01-9.22v-.01a61.928,61.928,0,0,0,1.33-8.81,27.307,27.307,0,0,0-2.26-11.75c22.56-66.17-28.08-81.95-29.38-82.34a.077.077,0,0,0-.03-.01s.3-25.46-16.84-43.12c-18.43-18.99-57.04-28.97-137.89,11.45-91.62,45.81-76.41,127.42-63.21,163.12-.05.88-.09,1.77-.13,2.66l.85-.75c1.13,2.93,2.23,5.5,3.22,7.67-16.77,3.65-29.4,19.74-29.4,39.03,0,.18,0,.37.01.55A155.426,155.426,0,0,0,46,351.527l1.34,12.35,11.62,106.76,6.75,61.97-47.36,26.96-7.92,4.5A18.782,18.782,0,0,0,1,578.457c-.06.6-.1,1.2-.1,1.81L0,749.927a18.773,18.773,0,0,0,14.2,18.3l38.62,22.75a19.042,19.042,0,0,0,22.26,2.25l288.5-166.6a18.774,18.774,0,0,0,9.42-16.44l-1.8-166.9a18.7,18.7,0,0,0-11.8-17.2L322.15,404.5a19.166,19.166,0,0,0-19.6-6.02l-.05-.19c-5.27-12.29-4.71-43.76-3.34-67.75.67-11.92,1.55-22,2.02-26.96a89.6,89.6,0,0,0,60.22-84.65v-17.14l17.93-6.48a4.013,4.013,0,0,0,2.59-3.09l2.14-12.29A4.013,4.013,0,0,0,378.74,175.467Zm-17.4-37.46c-.17-1.04-.34-2.06-.53-3.06a5.162,5.162,0,0,1,.4.42C361.27,136.237,361.31,137.117,361.34,138.007Z"/><g id="_Group_" data-name="&lt;Group&gt;"><path class="frame5-2" d="M321.62,74.167c1.07.41,30.41,12.14,39.19,60.78a19.73,19.73,0,0,0-14.34-6.5c-11.74,0-21.26,11.34-21.26,25.33s9.52,25.34,21.26,25.34a17.87,17.87,0,0,0,5.43-.84,20.654,20.654,0,0,0,9.5-6.46v9.92l-15.13,5.47a4.032,4.032,0,0,0-2.59,3.09l-.53,3.05-18.64,6.86.04-.24a3,3,0,0,0-3.99-3.33l-32.72,11.93a3.009,3.009,0,0,0-1.92,2.3l-2.54,14.58a3,3,0,0,0,3.98,3.33l32.73-11.93a2.993,2.993,0,0,0,1.92-2.3l1.72-9.88,18.64-6.86-.83,4.77a4.024,4.024,0,0,0,5.32,4.47l14.54-5.26v17.14a89.6,89.6,0,0,1-60.22,84.65,87.906,87.906,0,0,1-17.66,4.17,90.289,90.289,0,0,1-11.7.76,89.4,89.4,0,0,1-70.9-34.84c-.52-7.4-1.48-25.06-1.48-54.74,0-152.05,122.15-144.77,122.15-144.77A.077.077,0,0,1,321.62,74.167Zm16.69,185.71c8.21-3.68,13.45-9.8,11.72-13.68s-9.8-4.03-18.01-.36-13.46,9.81-11.72,13.68S330.1,263.557,338.31,259.877Zm7.12-48.32a1.415,1.415,0,1,0-2.83,0,15.242,15.242,0,0,1-15.23,15.22,1.42,1.42,0,0,0,0,2.84A18.078,18.078,0,0,0,345.43,211.557Zm-31.01-33.1a33.954,33.954,0,0,0,.84-7.48c0-16.99-12.56-30.77-28.05-30.77s-28.05,13.78-28.05,30.77,12.56,30.76,28.05,30.76a25.68,25.68,0,0,0,6.17-.76C303.7,198.437,311.86,189.667,314.42,178.457Z"/><path class="frame5-3" d="M361.4,158.927a10.852,10.852,0,0,0-9.5,19.35,20.654,20.654,0,0,0,9.5-6.46,26.2,26.2,0,0,0,5.01-9.22v-.01A10.817,10.817,0,0,0,361.4,158.927Z"/><path class="frame5-4" d="M365.48,142.027a24.647,24.647,0,0,0-4.27-6.66c.06.87.1,1.75.13,2.64-.17-1.04-.34-2.06-.53-3.06a19.73,19.73,0,0,0-14.34-6.5c-11.74,0-21.26,11.34-21.26,25.33s9.52,25.34,21.26,25.34a17.87,17.87,0,0,0,5.43-.84,10.85,10.85,0,1,1,14.51-15.69,61.928,61.928,0,0,0,1.33-8.81A27.307,27.307,0,0,0,365.48,142.027Z"/><path class="frame5-5" d="M350.03,246.2c1.73,3.88-3.51,10-11.72,13.68s-16.27,3.52-18.01-.36,3.51-10,11.72-13.68S348.29,242.327,350.03,246.2Z"/><path class="frame5-3" d="M344.02,210.137a1.411,1.411,0,0,1,1.41,1.42,18.078,18.078,0,0,1-18.06,18.06,1.42,1.42,0,0,1,0-2.84,15.242,15.242,0,0,0,15.23-15.22A1.413,1.413,0,0,1,344.02,210.137Z"/><polygon class="frame5-6" points="343.15 193.347 342.37 197.807 323.73 204.667 324.51 200.207 343.15 193.347"/><path class="frame5-7" d="M371.2,443.287a18.7,18.7,0,0,0-11.8-17.2,18.925,18.925,0,0,0-16.71,1.13l-16.09,9.22L64.41,586.707l-7.51,4.3a18.778,18.778,0,0,0-9.42,14.84c-.04.45-.06.89-.06,1.34l-.79,148.64-.11,21.06a18.431,18.431,0,0,0,6.3,14.09,19.042,19.042,0,0,0,22.26,2.25l288.5-166.6a18.774,18.774,0,0,0,9.42-16.44Z"/><path class="frame5-8" d="M322.15,404.5a19.068,19.068,0,0,0-24.01-4.18l-58.95,33.55-83.46,47.5-23.62,13.45-42.06,23.94-24.34,13.85-47.36,26.96,46.06,27.14L326.6,436.437l16.09-9.22a18.925,18.925,0,0,1,16.71-1.13Z"/><path class="frame5-9" d="M378.74,175.467l-17.34,6.27-15.13,5.47a4.032,4.032,0,0,0-2.59,3.09l-.53,3.05-.78,4.46-.83,4.77a4.024,4.024,0,0,0,5.32,4.47l14.54-5.26,17.93-6.48a4.013,4.013,0,0,0,2.59-3.09l2.14-12.29A4.013,4.013,0,0,0,378.74,175.467Z"/><path class="frame5-9" d="M320.56,196.637l-32.72,11.93a3.009,3.009,0,0,0-1.92,2.3l-2.54,14.58a3,3,0,0,0,3.98,3.33l32.73-11.93a2.993,2.993,0,0,0,1.92-2.3l1.72-9.88.78-4.46.04-.24A3,3,0,0,0,320.56,196.637Z"/><path class="frame5-4" d="M315.26,170.977a33.954,33.954,0,0,1-.84,7.48,16,16,0,0,0-12.28-5.67,15.61,15.61,0,0,0-15.84,15.38,15.255,15.255,0,0,0,7.08,12.81,25.68,25.68,0,0,1-6.17.76c-15.49,0-28.05-13.77-28.05-30.76s12.56-30.77,28.05-30.77S315.26,153.987,315.26,170.977Z"/><path class="frame5-3" d="M302.14,172.787a16,16,0,0,1,12.28,5.67c-2.56,11.21-10.72,19.98-21.04,22.52a15.255,15.255,0,0,1-7.08-12.81A15.61,15.61,0,0,1,302.14,172.787Z"/><path class="frame5-8" d="M335.16,77.857a90.121,90.121,0,0,0-9.2-8.03l10.14-10.14a.077.077,0,0,0-.03-.01s.3-25.46-16.84-43.12l-.23.23S128.7-7,118.13,191.127c.24.65.48,1.29.72,1.91,1.13,2.93,2.23,5.5,3.22,7.67.48,1.04.94,1.99,1.36,2.84,7.92,15.85,25.08,32.85,41.27,46.57a419.159,419.159,0,0,0,36.55,27.63s-.13-1.33-.33-4.08c-.52-7.4-1.48-25.06-1.48-54.74,0-152.05,122.15-144.77,122.15-144.77a.077.077,0,0,1,.03.01c1.07.41,30.41,12.14,39.19,60.78a5.162,5.162,0,0,1,.4.42A89.236,89.236,0,0,0,335.16,77.857Z"/><path class="frame5-10" d="M336.1,59.687l-10.14,10.14a89.672,89.672,0,0,1,35.25,65.54,24.647,24.647,0,0,1,4.27,6.66C388.04,75.857,337.4,60.077,336.1,59.687Z"/><path class="frame5-10" d="M181.34,28.007c-91.62,45.81-76.41,127.42-63.21,163.12C128.7-7,319,16.787,319,16.787l.23-.23C300.8-2.433,262.19-12.413,181.34,28.007Z"/><path class="frame5-10" d="M123.43,203.547c-.42-.85-.88-1.8-1.36-2.84-16.77,3.65-29.4,19.74-29.4,39.03,0,.18,0,.37.01.55a41.932,41.932,0,0,0,6.96,22.82c6.66,9.97,17.47,16.45,29.67,16.45,16.93,0,31.19-12.48,35.39-29.44C148.51,236.4,131.35,219.4,123.43,203.547Z"/><path class="frame5-11" d="M200.92,273.667c.2,2.75.33,4.08.33,4.08a419.159,419.159,0,0,1-36.55-27.63c-4.2,16.96-18.46,29.44-35.39,29.44-12.2,0-23.01-6.48-29.67-16.45-4.38,4.05-47.53,45.85-26.64,105.68l-.47,2.25c5.32,1.1,11.31,2.11,17.92,2.88,3.43-29.5,7.27-50.96,7.66-53.09a22.666,22.666,0,0,1,26.35-18.26l-9.74,72.87L112,395.787l-.19,1.19a35.93,35.93,0,0,0,22.11-3.15c.68-6.69,1.4-13.11,2.14-19.13l.78-.06c53.15-4.32,94.93-64.19,100.75-72.91A89.81,89.81,0,0,1,200.92,273.667Z"/><path class="frame5-2" d="M132.11,494.817l-42.06,23.94a250.364,250.364,0,0,1-4.37-35.29c10.5,2.59,24.69,4.53,43.82,4.82.64.01,1.28,0,1.93-.03C131.63,490.487,131.85,492.667,132.11,494.817Z"/><path class="frame5-2" d="M131.43,488.257c-.65.03-1.29.04-1.93.03-19.13-.29-33.32-2.23-43.82-4.82-1.86-31.25.26-66.11,3.24-95.53,4.02,2.59,12.68,7.45,22.89,9.04a35.93,35.93,0,0,0,22.11-3.15C130.89,423.777,128.84,459.077,131.43,488.257Z"/><path class="frame5-8" d="M118.85,193.037l-.85.75c.04-.89.08-1.78.13-2.66C118.37,191.777,118.61,192.417,118.85,193.037Z"/><path class="frame5-12" d="M98.11,320.827c-.39,2.13-4.23,23.59-7.66,53.09-.53,4.5-1.04,9.19-1.53,14.02,4.02,2.59,12.68,7.45,22.89,9.04l.19-1.19,2.72-20.35,9.74-72.87A22.666,22.666,0,0,0,98.11,320.827Z"/><path class="frame5-12" d="M99.64,263.107a41.932,41.932,0,0,1-6.96-22.82A155.426,155.426,0,0,0,46,351.527l1.34,12.35a161.406,161.406,0,0,0,25.19,7.16l.47-2.25C52.11,308.957,95.26,267.157,99.64,263.107Z"/><path class="frame5-13" d="M283.52,307.747l.19,1.37S215.79,446.3,155.29,480.587c-8.15,4.62-16.17,7.38-23.86,7.67.2,2.23.42,4.41.68,6.56l23.62-13.45,83.46-47.5c32.85-27.7,54.36-86.62,59.97-103.33.67-11.92,1.55-22,2.02-26.96A87.906,87.906,0,0,1,283.52,307.747Z"/><path class="frame5-13" d="M58.96,470.637l6.75,61.97,24.34-13.85a250.364,250.364,0,0,1-4.37-35.29C69.73,479.527,62.28,474.1,58.96,470.637Z"/><path class="frame5-14" d="M302.5,398.287c-5.27-12.29-4.71-43.76-3.34-67.75-5.61,16.71-27.12,75.63-59.97,103.33l58.95-33.55a19.21,19.21,0,0,1,4.41-1.84Z"/><path class="frame5-14" d="M283.52,307.747a90.289,90.289,0,0,1-11.7.76,89.161,89.161,0,0,1-34.23-6.78c-5.82,8.72-47.6,68.59-100.75,72.91l-.78.06c-.74,6.02-1.46,12.44-2.14,19.13-3.03,29.95-5.08,65.25-2.49,94.43,7.69-.29,15.71-3.05,23.86-7.67,60.5-34.29,128.42-171.47,128.42-171.47Z"/><path class="frame5-14" d="M47.34,363.877l11.62,106.76c3.32,3.46,10.77,8.89,26.72,12.83-1.86-31.25.26-66.11,3.24-95.53.49-4.83,1-9.52,1.53-14.02-6.61-.77-12.6-1.78-17.92-2.88A161.406,161.406,0,0,1,47.34,363.877Z"/><path class="frame5-15" d="M64.41,586.707l-7.51,4.3a18.778,18.778,0,0,0-9.42,14.84L1,578.457a18.782,18.782,0,0,1,9.43-14.39l7.92-4.5Z"/><path class="frame5-8" d="M46.52,776.887l.11-21.06.79-148.64c0-.45.02-.89.06-1.34L1,578.457c-.06.6-.1,1.2-.1,1.81L0,749.927a18.773,18.773,0,0,0,14.2,18.3l38.62,22.75A18.431,18.431,0,0,1,46.52,776.887Z"/></g><path class="frame5-8" d="M153,268.787"/></g><g id="table"><path class="frame5-1" d="M839.42,792.327,728.5,728.077V586.287l-10-5-122.32,70.14-27.22-15.77a28.834,28.834,0,0,0-28.91.02l-390.46,226.6a28.652,28.652,0,0,0-14.09,28.78v27.23l1.22.09a28.407,28.407,0,0,0,12.95,15.79l270.42,155.82c.14.08.27.16.41.23h0a28.812,28.812,0,0,0,28-.03h0c.13-.07.27-.14.4-.22l390.5-225.76a28.4,28.4,0,0,0,13.74-18.82h.36v-24.01A28.667,28.667,0,0,0,839.42,792.327ZM155.85,888.3v3.91A6.68,6.68,0,0,1,155.85,888.3Z"/><g id="_Group_2" data-name="&lt;Group&gt;"><path class="frame5-16" d="M262.4,952.157v9.37a7.574,7.574,0,0,1-6.51-.49l-.23-.13v-9.44l.72.41A6.6,6.6,0,0,0,262.4,952.157Z"/><path class="frame5-1" d="M255.66,951.467v9.44l-99.81-57.6v-11.1a6.5,6.5,0,0,0,3.03,3.79Z"/><path class="frame5-1" d="M308.26,922.757V934.8L263.49,961a6.843,6.843,0,0,1-1.09.53v-9.37a5,5,0,0,0,.61-.31l42.08-24.64a6.521,6.521,0,0,0,3.16-4.45Z"/><path class="frame5-17" d="M305.86,916.317a6.614,6.614,0,0,1,2.39,6.44,6.521,6.521,0,0,1-3.16,4.45l-42.08,24.64a5,5,0,0,1-.61.31,6.6,6.6,0,0,1-6.02-.28l-.72-.41L158.88,896a6.5,6.5,0,0,1-3.03-3.79V888.3a6.565,6.565,0,0,1,2.92-3.71L199.75,860a6.635,6.635,0,0,1,6.66-.08l.47.27,98.13,55.56A6.3,6.3,0,0,1,305.86,916.317Zm-2.91,5.43a1.209,1.209,0,0,0-.6-1.3l-98.6-55.84a1.242,1.242,0,0,0-.6-.15,1.2,1.2,0,0,0-.62.17l-40.98,24.59a1.122,1.122,0,0,0-.59,1.05,1.141,1.141,0,0,0,.61,1.04l97.49,55.89a1.321,1.321,0,0,0,.61.16,1.221,1.221,0,0,0,.61-.17l42.09-24.63A1.167,1.167,0,0,0,302.95,921.747Z"/><path class="frame5-18" d="M302.35,920.447a1.209,1.209,0,0,1,.6,1.3,1.167,1.167,0,0,1-.58.81l-42.09,24.63a1.221,1.221,0,0,1-.61.17,1.321,1.321,0,0,1-.61-.16l-97.49-55.89a1.141,1.141,0,0,1-.61-1.04,1.122,1.122,0,0,1,.59-1.05l40.98-24.59a1.2,1.2,0,0,1,.62-.17,1.242,1.242,0,0,1,.6.15Z"/><path class="frame5-19" d="M448.5,1068.287v21.9a28.812,28.812,0,0,1-28,.03v-21.93l.03-.05a28.808,28.808,0,0,0,27.93-.02Z"/><path class="frame5-7" d="M256.64,973.807l-11.03-6.36-95.94-55.28a29.822,29.822,0,0,1-4.16-2.89,28.363,28.363,0,0,1-10.01-18.22v27.23l1.22.09a28.407,28.407,0,0,0,12.95,15.79l270.42,155.82c.14.08.27.16.41.23v-21.93l.03-.05c-.15-.08-.29-.17-.44-.25Z"/><path class="frame5-7" d="M839.4,842.207l-390.5,225.76c-.15.08-.29.17-.44.25l.04.07v21.9c.13-.07.27-.14.4-.22l390.5-225.76a28.4,28.4,0,0,0,13.74-18.82h.36v-24.01A28.467,28.467,0,0,1,839.4,842.207Z"/><polygon class="frame5-17" points="433.45 968.697 433.32 939.487 432.74 802.277 432.65 781.787 432.52 749.787 432.5 745.287 442.5 750.287 442.5 988.287 433.98 981.667 433.5 981.287 433.45 968.697"/><polygon class="frame5-17" points="433.5 981.287 433.98 981.667 433.5 982.287 217.5 857.287 217.5 847.287 433.45 968.697 433.5 981.287"/><polygon class="frame5-16" points="522.63 693.607 596.18 651.427 605.5 656.817 442.5 750.287 432.5 745.287 522.63 693.607"/><polygon class="frame5-1" points="314.5 872.287 430.5 802.287 432.74 802.277 432.65 781.787 387.5 808.287 343.5 784.287 415.5 741.287 431.5 749.787 432.52 749.787 432.5 745.287 522.63 693.607 502.5 682.287 217.5 847.287 433.45 968.697 433.32 939.487 314.5 872.287"/><path class="frame5-1" d="M605.5,656.817l-163,93.47v238l285.2-166.53.8-.47v-235Zm0,141.47-41,24v-49l41-24Z"/><polygon class="frame5-16" points="728.5 586.287 605.5 656.817 596.18 651.427 718.5 581.287 728.5 586.287"/><polygon class="frame5-16" points="430.5 802.287 314.5 872.287 433.32 939.487 432.74 802.277 430.5 802.287"/><polygon class="frame5-16" points="432.65 781.787 432.52 749.787 431.5 749.787 415.5 741.287 343.5 784.287 387.5 808.287 432.65 781.787"/><polygon class="frame5-16" points="564.5 773.287 564.5 822.287 605.5 798.287 605.5 749.287 564.5 773.287"/><path class="frame5-19" d="M839.42,792.327,728.5,728.077v93.21l-.8.47-7.7,25.03-269,159-145.14-89.47a6.614,6.614,0,0,1,2.39,6.44h.01v13.49l-10.76,13.04-40.86,24.52,163.45,94.18c.15.08.29.17.44.25a28.808,28.808,0,0,0,27.93-.02c.15-.08.29-.17.44-.25l390.5-225.76a28.812,28.812,0,0,0,.02-49.88Z"/><path class="frame5-19" d="M522.63,693.607l73.55-42.18-27.22-15.77a28.834,28.834,0,0,0-28.91.02l-390.46,226.6a28.652,28.652,0,0,0-14.09,28.78,28.363,28.363,0,0,0,10.01,18.22l1.49-.49,8.85-4.91v-11.67a6.68,6.68,0,0,1,0-3.91,6.565,6.565,0,0,1,2.92-3.71L199.75,860a6.635,6.635,0,0,1,6.66-.08l.47.27,10.62-2.9v-10l285-165Z"/><path class="frame5-7" d="M262.4,961.527a6.843,6.843,0,0,0,1.09-.53l44.77-26.2v1.45l-10.76,13.04-40.86,24.52-11.03-6.36,10.05-5.58v-.96l.23.13A7.574,7.574,0,0,0,262.4,961.527Z"/><path class="frame5-7" d="M442.5,988.287l-8.52-6.62-.48.62-216-125-10.62,2.9,98.13,55.56a6.3,6.3,0,0,1,.85.57L451,1005.787l269-159,7.7-25.03Z"/><path class="frame5-7" d="M155.85,903.877l-8.85,4.91-1.49.49a29.822,29.822,0,0,0,4.16,2.89l95.94,55.28,10.05-5.58v-.96l-99.81-57.6Z"/></g></g>
<g id="wrongPosture"><path class="frame5-1" d="M465.32,569.427l-.13-.01c.21-2.51.31-5.06.31-7.63v-33.11c9.96-4.34,11.9-14.93,11.99-27.89a53.458,53.458,0,0,0,1.01-7.5,30.081,30.081,0,0,0-2.73-13.5l.08-.04c0-64.53-32.35-91.46-32.35-91.46s.63-53.4-49.37-64.11c-25.33-5.42-63.65.12-121.63,29.11-116,58-75,166-60,191,1.94,3.23,4.55,7.61,7.24,12.64,1.46,2.71,2.93,5.62,4.33,8.63l-.39.18a172.229,172.229,0,0,0-87.18,149.83l8,149.72.459-.225.041.725,97.72-48.7c34.84,57.25,88.48,90.9,157.01,97.99.94.09,1.88.14,2.8.14a26.931,26.931,0,0,0,2.74-53.72q-31.551-3.264-56.884-16.076L302.4,808.337A168.708,168.708,0,0,1,288.44,788.6l105.61-65.82-.05,4.01.054-4.012L423.5,704.427v-.14l22.67-12.28c-9.11-24.24-15.67-50.83-16.88-55.84q2.445-1.92,4.76-4l.01.01c60.44,14.11,67.44-38.89,67.44-38.89S465.32,605.287,465.32,569.427Z"/><g id="_Group_3" data-name="&lt;Group&gt;"><path class="frame5-20" d="M450.5,596.287c0,5.8-10.28,16-20.5,16s-18.5-4.7-18.5-10.5,8.28-10.5,18.5-10.5S450.5,590.487,450.5,596.287Z"/><path class="frame5-3" d="M446.28,547.717a1.419,1.419,0,0,1,1.42,1.42,19.837,19.837,0,0,1-19.81,19.81,1.415,1.415,0,1,1,0-2.83,17,17,0,0,0,16.98-16.98A1.417,1.417,0,0,1,446.28,547.717Z"/><path class="frame5-3" d="M477.04,503.027c0,.01-.01.03-.01.04a26.986,26.986,0,0,1-11.53,15.27v-19.88a11.953,11.953,0,0,1,11.54,4.57Z"/><path class="frame5-21" d="M465.32,569.427c0,35.86,36.18,23.86,36.18,23.86s-7,53-67.44,38.89l-.01-.01a94.185,94.185,0,0,0,31.14-62.75Z"/><path class="frame5-4" d="M477.49,500.787c-.23,1.19-.41,2.06-.45,2.24a11.953,11.953,0,0,0-11.54-4.57v-30.27a25.856,25.856,0,0,1,10.27,11.6,30.081,30.081,0,0,1,2.73,13.5A53.458,53.458,0,0,1,477.49,500.787Z"/><path class="frame5-22" d="M477.04,503.027c.04-.18.22-1.05.45-2.24-.09,12.96-2.03,23.55-11.99,27.89v-10.34a26.986,26.986,0,0,0,11.53-15.27.031.031,0,0,1,.01-.02Z"/><path class="frame5-3" d="M254.43,668.287v-.18c0-.53-.02-1.06-.06-1.58.05-1.43.13-2.24.13-2.24s-.11.14-.32.38a26.916,26.916,0,0,0-26.68-23.31h-.13a26.887,26.887,0,0,0-21.74,11.22c-15.73-16.93-14.13-41.29-14.13-41.29s10,17,33,0c12.73-9.41,7.28-29.17-.43-45.73-1.4-3.01-2.87-5.92-4.33-8.63l.26-.14c-27.5-174.5,174-232,174-232l.13-.61c50,10.71,49.37,64.11,49.37,64.11s32.35,26.93,32.35,91.46l-.08.04a25.856,25.856,0,0,0-10.27-11.6v-1.3a94.5,94.5,0,0,0-94.5-94.5h-9a94.5,94.5,0,0,0-94.5,94.5v94.9a94.5,94.5,0,0,0,94.5,94.5h9c1.8,0,3.59-.05,5.36-.15-12.16,17.85-58.24,77.19-113.67,43.99a59.5,59.5,0,0,1-7.84-23.66C254.52,671.917,254.45,669.027,254.43,668.287Z"/><path class="frame5-2" d="M429.29,636.167q-3,2.37-6.21,4.48a94.112,94.112,0,0,1-44.57,15.34c.7-2.96.99-4.7.99-4.7s-87,10-87-87,135-160,135-160,25.01,25.1,25.01,61.05l.02.1c-11.82,1.48-21.03,13.38-21.03,27.85,0,1.01.04,2.01.13,2.99l-.13.01c0,24.35,10.37,34.5,22,34.5a29.876,29.876,0,0,0,12-2.11v33.11c0,2.57-.1,5.12-.31,7.63a94.185,94.185,0,0,1-31.14,62.75Q431.74,634.252,429.29,636.167Zm18.41-87.03a1.415,1.415,0,1,0-2.83,0,17,17,0,0,1-16.98,16.98,1.415,1.415,0,1,0,0,2.83A19.837,19.837,0,0,0,447.7,549.137ZM430,612.287c10.22,0,20.5-10.2,20.5-16s-10.28-5-20.5-5-18.5,4.7-18.5,10.5S419.78,612.287,430,612.287Zm-15.96-102.21a35.626,35.626,0,0,0,.46-5.79c0-18.78-13.88-34-31-34s-31,15.22-31,34c0,.67.02,1.34.05,2h-.05c0,38,13.26,47.51,34,45.17C405.17,549.347,413.76,532,414.04,510.077Z"/><path class="frame5-22" d="M465.5,518.337v10.34a29.876,29.876,0,0,1-12,2.11c-11.63,0-22-10.15-22-34.5l.13-.01c1.26,14.06,11.24,25.01,23.37,25.01a20.059,20.059,0,0,0,6-.92A20.437,20.437,0,0,0,465.5,518.337Z"/><path class="frame5-3" d="M465.5,498.457v19.88a20.437,20.437,0,0,1-4.5,2.03,11.993,11.993,0,0,1,4.5-21.91Z"/><path class="frame5-4" d="M465.5,468.187v30.27a11.993,11.993,0,0,0-4.5,21.91,20.059,20.059,0,0,1-6,.92c-12.13,0-22.11-10.95-23.37-25.01-.09-.98-.13-1.98-.13-2.99,0-14.47,9.21-26.37,21.03-27.85a20.1,20.1,0,0,1,2.47-.15A20.732,20.732,0,0,1,465.5,468.187Z"/><path class="frame5-3" d="M465.5,466.887v1.3a20.732,20.732,0,0,0-10.5-2.9,20.1,20.1,0,0,0-2.47.15l-.02-.1c0-35.95-25.01-61.05-25.01-61.05s-135,63-135,160,87,87,87,87-1.09,1.83-3.14,4.85c-1.77.1-3.56.15-5.36.15h-9a94.5,94.5,0,0,1-94.5-94.5v-94.9a94.5,94.5,0,0,1,94.5-94.5h9A94.5,94.5,0,0,1,465.5,466.887Z"/><path class="frame5-16" d="M446.17,692.007l-22.67,12.28v-63l-.42-.64q3.21-2.115,6.21-4.48C430.5,641.177,437.06,667.767,446.17,692.007Z"/><path class="frame5-2" d="M405.27,861.5a26.929,26.929,0,0,1,17.75,44.23l-1.02-.94c-89.54.9-138.73-53.82-163.67-97.42l30.11-18.77C314.58,831.687,353.76,856.167,405.27,861.5Z"/><path class="frame5-23" d="M423.5,704.287v.14l-29.45,18.35.93-69.57a93.652,93.652,0,0,0,28.1-12.56l.42.64Z"/><path class="frame5-22" d="M422,904.787l1.02.94a26.912,26.912,0,0,1-20.49,9.49c-.92,0-1.86-.05-2.8-.14-68.53-7.09-122.17-40.74-157.01-97.99l15.61-9.72C283.27,850.967,332.46,905.687,422,904.787Z"/><path class="frame5-4" d="M414.04,510.077c-.12.84-.28,1.66-.47,2.48a17.673,17.673,0,0,0-13.57-6.27,17.258,17.258,0,0,0-17.5,17,16.845,16.845,0,0,0,7.83,14.16,28.58,28.58,0,0,1-6.83.84c-16.51,0-30-14.15-30.95-32-.03-.66-.05-1.33-.05-2,0-18.78,13.88-34,31-34s31,15.22,31,34A35.626,35.626,0,0,1,414.04,510.077Z"/><path class="frame5-22" d="M413.57,512.557c.19-.82.35-1.64.47-2.48-.28,21.92-8.87,39.27-27.54,41.38-20.74,2.34-34-7.17-34-45.17h.05c.95,17.85,14.44,32,30.95,32a28.58,28.58,0,0,0,6.83-.84C401.72,534.637,410.75,524.947,413.57,512.557Z"/><path class="frame5-3" d="M400,506.287a17.673,17.673,0,0,1,13.57,6.27c-2.82,12.39-11.85,22.08-23.24,24.89a16.845,16.845,0,0,1-7.83-14.16A17.258,17.258,0,0,1,400,506.287Z"/><path class="frame5-23" d="M394.98,653.207l-.93,69.57L288.44,788.6a203.87,203.87,0,0,1-13.25-26.03c-2.47-5.82-4.65-11.63-6.57-17.35a112.01,112.01,0,0,0,18.88-11.93l-7.13-16.28c6.8,3.73,15.36,6.38,26.13,7.28,51.03,4.25,68.06-51.53,72.01-68.3A93.037,93.037,0,0,0,394.98,653.207Z"/><path class="frame5-21" d="M394.13,324.177l-.13.61s-201.5,57.5-174,232l-.26.14c-2.69-5.03-5.3-9.41-7.24-12.64-15-25-56-133,60-191C330.48,324.3,368.8,318.757,394.13,324.177Z"/><path class="frame5-21" d="M280.37,717.007a46.461,46.461,0,0,1-17.68-16.88c55.43,33.2,101.51-26.14,113.67-43.99.72-.04,1.44-.09,2.15-.15-3.95,16.77-20.98,72.55-72.01,68.3C295.73,723.387,287.17,720.737,280.37,717.007Z"/><path class="frame5-2" d="M288.44,788.6l-30.11,18.77c-15.27-26.69-21.45-49.21-22.24-52.23a101.379,101.379,0,0,0,32.53-9.92c1.92,5.72,4.1,11.53,6.57,17.35A203.87,203.87,0,0,0,288.44,788.6Z"/><path class="frame5-16" d="M262.69,700.127a46.461,46.461,0,0,0,17.68,16.88l7.13,16.28a112.01,112.01,0,0,1-18.88,11.93,289.124,289.124,0,0,1-13.77-68.75A59.5,59.5,0,0,0,262.69,700.127Z"/><path class="frame5-22" d="M258.33,807.367l-15.61,9.72a257.883,257.883,0,0,1-17.82-35.18c-3.71-8.9-6.86-17.72-9.52-26.3a100.117,100.117,0,0,0,20.71-.47C236.88,758.157,243.06,780.677,258.33,807.367Z"/><path class="frame5-23" d="M237,675.8a37.49,37.49,0,0,0,13.3-7.34c1.32-.03,2.67-.08,4.05-.16a69.377,69.377,0,0,0,.5,8.17,289.124,289.124,0,0,0,13.77,68.75,101.379,101.379,0,0,1-32.53,9.92,100.117,100.117,0,0,1-20.71.47c-14.42-46.36-14.8-85.27-14.81-87.19q0-1.17.09-2.31C215.25,677.937,227.74,678.6,237,675.8Z"/><path class="frame5-3" d="M254.18,664.667a35.254,35.254,0,0,1-3.88,3.79c-22.19.44-36.03-6.6-44.67-15.88a26.887,26.887,0,0,1,21.74-11.22h.13A26.916,26.916,0,0,1,254.18,664.667Z"/><path class="frame5-21" d="M237,675.8c-9.26,2.8-21.75,2.14-36.34-9.69a26.656,26.656,0,0,1,4.97-13.53c8.64,9.28,22.48,16.32,44.67,15.88A37.49,37.49,0,0,1,237,675.8Z"/><path class="frame5-16" d="M242.72,817.087,145,865.787l-8.5-150.22a172.229,172.229,0,0,1,87.18-149.83l.39-.18c7.71,16.56,13.16,36.32.43,45.73-23,17-33,0-33,0s-15.15,28.52,3.35,49.38c-14.34,26.31,2.65,91.62,2.65,91.62a76.542,76.542,0,0,0,17.88,3.32c2.66,8.58,5.81,17.4,9.52,26.3A257.883,257.883,0,0,0,242.72,817.087Z"/><path class="frame5-23" d="M200.57,668.417c.01,1.92.39,40.83,14.81,87.19a76.542,76.542,0,0,1-17.88-3.32s-16.99-65.31-2.65-91.62a39.05,39.05,0,0,0,3.65,3.62c.72.63,1.44,1.24,2.16,1.82Q200.57,667.247,200.57,668.417Z"/><path class="frame5-21" d="M194.85,660.667c-18.5-20.86-3.35-49.38-3.35-49.38s-1.6,24.36,14.13,41.29a26.656,26.656,0,0,0-4.97,13.53c-.72-.58-1.44-1.19-2.16-1.82A39.05,39.05,0,0,1,194.85,660.667Z"/><path class="frame5-24" d="M376.36,656.137c-1.77.1-3.56.15-5.36.15h-9a94.5,94.5,0,0,1-94.5-94.5v-94.9a94.5,94.5,0,0,1,94.5-94.5h9a94.5,94.5,0,0,1,94.5,94.5v94.9c0,2.57-.1,5.12-.31,7.63a94.185,94.185,0,0,1-31.14,62.75q-2.31,2.085-4.76,4-3,2.37-6.21,4.48a94.112,94.112,0,0,1-44.57,15.34C377.8,656.047,377.08,656.1,376.36,656.137Z"/><path class="frame5-24" d="M427.89,568.947a1.415,1.415,0,1,1,0-2.83,17,17,0,0,0,16.98-16.98,1.415,1.415,0,1,1,2.83,0A19.837,19.837,0,0,1,427.89,568.947Z"/><path class="frame5-24" d="M450.5,596.287c0,5.8-10.28,16-20.5,16s-18.5-4.7-18.5-10.5,8.28-10.5,18.5-10.5S450.5,590.487,450.5,596.287Z"/><path class="frame5-24" d="M413.57,512.557c.19-.82.35-1.64.47-2.48a35.626,35.626,0,0,0,.46-5.79c0-18.78-13.88-34-31-34s-31,15.22-31,34c0,.67.02,1.34.05,2,.95,17.85,14.44,32,30.95,32a28.58,28.58,0,0,0,6.83-.84"/><path class="frame5-24" d="M413.57,512.557a17.673,17.673,0,0,0-13.57-6.27,17.258,17.258,0,0,0-17.5,17,16.845,16.845,0,0,0,7.83,14.16C401.72,534.637,410.75,524.947,413.57,512.557Z"/><path class="frame5-24" d="M477.04,503.027c.04-.18.22-1.05.45-2.24a53.458,53.458,0,0,0,1.01-7.5,30.081,30.081,0,0,0-2.73-13.5,25.856,25.856,0,0,0-10.27-11.6,20.732,20.732,0,0,0-10.5-2.9,20.1,20.1,0,0,0-2.47.15c-11.82,1.48-21.03,13.38-21.03,27.85,0,1.01.04,2.01.13,2.99,1.26,14.06,11.24,25.01,23.37,25.01a20.059,20.059,0,0,0,6-.92"/><path class="frame5-24" d="M477.04,503.027v.02a.031.031,0,0,0-.01.02"/><path class="frame5-24" d="M477.04,503.027A11.992,11.992,0,1,0,461,520.367a20.437,20.437,0,0,0,4.5-2.03,26.986,26.986,0,0,0,11.53-15.27C477.03,503.057,477.04,503.037,477.04,503.027Z"/><path class="frame5-24" d="M414.06,508.9c0,.39,0,.79-.02,1.18-.28,21.92-8.87,39.27-27.54,41.38-20.74,2.34-34-7.17-34-45.17"/><path class="frame5-24" d="M431.5,496.287c0,24.35,10.37,34.5,22,34.5a29.876,29.876,0,0,0,12-2.11c9.96-4.34,11.9-14.93,11.99-27.89.01-.37.01-.74.01-1.12"/><path class="frame5-24" d="M465.32,569.427c0,35.86,36.18,23.86,36.18,23.86s-7,53-67.44,38.89"/><path class="frame5-24" d="M452.51,465.337c0-35.95-25.01-61.05-25.01-61.05s-135,63-135,160,87,87,87,87-.29,1.74-.99,4.7c-3.95,16.77-20.98,72.55-72.01,68.3-10.77-.9-19.33-3.55-26.13-7.28a46.461,46.461,0,0,1-17.68-16.88,59.5,59.5,0,0,1-7.84-23.66,69.377,69.377,0,0,1-.5-8.17c0-.66.01-1.26.02-1.77.05-1.43.13-2.24.13-2.24s-.11.14-.32.38a35.254,35.254,0,0,1-3.88,3.79A37.49,37.49,0,0,1,237,675.8c-9.26,2.8-21.75,2.14-36.34-9.69-.72-.58-1.44-1.19-2.16-1.82a39.05,39.05,0,0,1-3.65-3.62c-18.5-20.86-3.35-49.38-3.35-49.38s10,17,33,0c12.73-9.41,7.28-29.17-.43-45.73-1.4-3.01-2.87-5.92-4.33-8.63-2.69-5.03-5.3-9.41-7.24-12.64-15-25-56-133,60-191,57.98-28.99,96.3-34.53,121.63-29.11,50,10.71,49.37,64.11,49.37,64.11s32.35,26.93,32.35,91.46"/><path class="frame5-24" d="M423.5,641.287v63.14l-29.45,18.35L288.44,788.6l-30.11,18.77-15.61,9.72-98.22,48.2-8-149.72a172.229,172.229,0,0,1,87.18-149.83"/><path class="frame5-24" d="M423.02,905.727a26.912,26.912,0,0,1-20.49,9.49c-.92,0-1.86-.05-2.8-.14-68.53-7.09-122.17-40.74-157.01-97.99a257.883,257.883,0,0,1-17.82-35.18c-3.71-8.9-6.86-17.72-9.52-26.3-14.42-46.36-14.8-85.27-14.81-87.19q0-1.17.09-2.31a26.933,26.933,0,0,1,26.71-24.75h.13a26.916,26.916,0,0,1,26.68,23.31c.09.61.15,1.23.19,1.86.04.52.06,1.05.06,1.58v.18c.02.74.09,3.63.42,8.18a289.124,289.124,0,0,0,13.77,68.75c1.92,5.72,4.1,11.53,6.57,17.35a203.87,203.87,0,0,0,13.25,26.03c26.14,43.09,65.32,67.57,116.83,72.9a26.929,26.929,0,0,1,17.75,44.23Z"/><path class="frame5-24" d="M429.09,635.327s.07.29.2.84c1.21,5.01,7.77,31.6,16.88,55.84l-22.67,12.28"/><path class="frame5-24" d="M280.14,716.477l.23.53,7.13,16.28a112.01,112.01,0,0,1-18.88,11.93,101.379,101.379,0,0,1-32.53,9.92,100.117,100.117,0,0,1-20.71.47,76.542,76.542,0,0,1-17.88-3.32s-16.99-65.31-2.65-91.62c.04-.07.07-.13.11-.2"/><path class="frame5-24" d="M237,675.787v.01c4.5,34.5,18.5,71.49,18.5,71.49"/><polyline class="frame5-24" points="395 651.787 394.98 653.207 394.05 722.777 394 726.787"/><path class="frame5-24" d="M254.5,668.287h-.07a.22.22,0,0,1-.08.01c-1.38.08-2.73.13-4.05.16-22.19.44-36.03-6.6-44.67-15.88-15.73-16.93-14.13-41.29-14.13-41.29"/><path class="frame5-24" d="M379.5,651.287s-1.09,1.83-3.14,4.85c-12.16,17.85-58.24,77.19-113.67,43.99q-1.83-1.095-3.69-2.34"/><path class="frame5-24" d="M394,324.787s-201.5,57.5-174,232"/><path class="frame5-24" d="M236,754.787s.03.12.09.35c.79,3.02,6.97,25.54,22.24,52.23,24.94,43.6,74.13,98.32,163.67,97.42"/></g></g>
<g id="correctPosture"><path class="frame5-1" d="M406.27,859.5c-46.8-4.84-83.42-25.49-109.33-61.55a177.175,177.175,0,0,1-9.584-14.92L397.2,721.467l11.3-9.04v-73.14s0-14.92-27.72-51.12c49.65,5.08,55.72-40.88,55.72-40.88s-36.18,12-36.18-23.86l-.13-.01c.21-2.51.31-5.06.31-7.63v-43.45a26.986,26.986,0,0,0,11.53-15.27c0-.01.01-.03.01-.04.04-.18.22-1.04.45-2.24a53.458,53.458,0,0,0,1.01-7.5,30.081,30.081,0,0,0-2.73-13.5l.08-.04c0-64.53-32.35-91.46-32.35-91.46s.93-79.1-89.62-64.05c-21.54,3.57-48.25,12.48-81.38,29.05-116,58-75,166-60,191,3.71,6.18,9.9,16.6,14.34,27.63,6.02,14.99,8.8,31.14-2.34,39.37-23,17-33,0-33,0s-17,32,7,53c9.26,8.1,17.71,11.68,25.09,12.62a171.543,171.543,0,0,0-21.09,82.66l6,153.72,98.028-55.882q4.575,7.822,9.592,15.092c34.84,50.32,85.76,79.97,149.61,86.58.94.09,1.88.14,2.8.14a26.931,26.931,0,0,0,2.74-53.72Zm-93.36-249.47a45.545,45.545,0,0,0,1.58-4.69c-.05.32-.35,1.99-.98,4.65C313.31,610.007,313.11,610.027,312.91,610.027ZM225.9,779.907q3.129,7.51,6.607,14.6C230.7,791.157,228.888,787.079,225.9,779.907Z"/><g id="_Group_4" data-name="&lt;Group&gt;"><path class="frame5-16" d="M190.46,634.487a57.575,57.575,0,0,0,7.23,19.64c-11.53,28.88.81,96.16.81,96.16a76.542,76.542,0,0,0,17.88,3.32c2.66,8.58,5.81,17.4,9.52,26.3,7.12,17.09,7.55,16.63,17.22,30.59l-99.62,56.79-6-153.72a171.543,171.543,0,0,1,21.09-82.66c19.04,2.45,30.91-12.62,30.91-12.62A63.543,63.543,0,0,0,190.46,634.487Z"/><path class="frame5-16" d="M270.73,673.307l17.77,57.98a112.01,112.01,0,0,1-18.88,11.93,288.536,288.536,0,0,1-13.49-65.41A53.416,53.416,0,0,0,270.73,673.307Z"/><path class="frame5-23" d="M256.13,677.807a60.561,60.561,0,0,1-14.63.48c-19.37-1.62-31.59-8.91-39.28-17.9a46.948,46.948,0,0,1-4.53-6.26c-11.53,28.88.81,96.16.81,96.16a76.542,76.542,0,0,0,17.88,3.32,99.888,99.888,0,0,0,23.61-.89,101.339,101.339,0,0,0,29.63-9.5A288.536,288.536,0,0,1,256.13,677.807Z"/><path class="frame5-23" d="M380.78,588.167a92.425,92.425,0,0,1-11.72-1.99l-.01-.01a88.407,88.407,0,0,1-7.56,6.1,93.8,93.8,0,0,1-47.98,17.72c-3.07,13.04-14.05,49.67-42.78,63.32l17.77,57.98a112.01,112.01,0,0,1-18.88,11.93c1.92,5.72,4.1,11.53,6.57,17.35,5.91,13.89,1.89,12.2,9.81,23.22l111.2-62.32,11.3-9.04v-73.14S408.5,624.367,380.78,588.167Z"/><path class="frame5-20" d="M385.5,550.287c0,5.8-10.28,16-20.5,16s-18.5-4.7-18.5-10.5,8.28-10.5,18.5-10.5S385.5,544.487,385.5,550.287Z"/><path class="frame5-3" d="M382.7,503.137a19.837,19.837,0,0,1-19.81,19.81,1.415,1.415,0,1,1,0-2.83,17,17,0,0,0,16.98-16.98,1.415,1.415,0,1,1,2.83,0Z"/><path class="frame5-4" d="M349.04,464.077c-.12.84-.28,1.66-.47,2.48a17.673,17.673,0,0,0-13.57-6.27,17.258,17.258,0,0,0-17.5,17,16.845,16.845,0,0,0,7.83,14.16,28.58,28.58,0,0,1-6.83.84c-16.51,0-30-14.15-30.95-32-.03-.66-.05-1.33-.05-2,0-18.78,13.88-34,31-34s31,15.22,31,34A35.626,35.626,0,0,1,349.04,464.077Z"/><path class="frame5-4" d="M412.49,454.787c-.23,1.2-.41,2.06-.45,2.24a11.953,11.953,0,0,0-11.54-4.57v-30.27a25.856,25.856,0,0,1,10.27,11.6,30.081,30.081,0,0,1,2.73,13.5A53.458,53.458,0,0,1,412.49,454.787Z"/><path class="frame5-4" d="M390.5,464.287a11.98,11.98,0,0,0,5.5,10.08,20.059,20.059,0,0,1-6,.92c-12.13,0-22.11-10.95-23.37-25.01-.09-.98-.13-1.98-.13-2.99,0-14.47,9.21-26.37,21.03-27.85a20.1,20.1,0,0,1,2.47-.15,20.732,20.732,0,0,1,10.5,2.9v30.27A11.99,11.99,0,0,0,390.5,464.287Z"/><path class="frame5-3" d="M400.5,452.457v19.88a20.437,20.437,0,0,1-4.5,2.03,11.993,11.993,0,0,1,4.5-21.91Z"/><path class="frame5-3" d="M400.5,452.457a11.953,11.953,0,0,1,11.54,4.57c0,.01-.01.03-.01.04a26.986,26.986,0,0,1-11.53,15.27Z"/><path class="frame5-3" d="M335,460.287a17.673,17.673,0,0,1,13.57,6.27c-2.82,12.39-11.85,22.08-23.24,24.89a16.845,16.845,0,0,1-7.83-14.16A17.258,17.258,0,0,1,335,460.287Z"/><path class="frame5-21" d="M165.74,619.017a110.077,110.077,0,0,0,23.76-.73s-11.87,15.07-30.91,12.62Q161.935,624.8,165.74,619.017Z"/><path class="frame5-21" d="M126.5,565.287s-11.69,49.1,39.24,53.73q-3.8,5.79-7.15,11.89c-7.38-.94-15.83-4.52-25.09-12.62C109.5,597.287,126.5,565.287,126.5,565.287Z"/><path class="frame5-21" d="M197.69,654.127a57.575,57.575,0,0,1-7.23-19.64,203.462,203.462,0,0,0,22.97,9.48,26.954,26.954,0,0,0-11.21,16.42A46.948,46.948,0,0,1,197.69,654.127Z"/><path class="frame5-21" d="M228.5,639.357a26.926,26.926,0,0,1,22.22,11.7c-10.65-.13-23-2.22-37.29-7.09a26.852,26.852,0,0,1,14.94-4.61Z"/><path class="frame5-21" d="M255.43,666.107c.01.24.07,4.54.7,11.7a60.561,60.561,0,0,1-14.63.48c-19.37-1.62-31.59-8.91-39.28-17.9a26.954,26.954,0,0,1,11.21-16.42c14.29,4.87,26.64,6.96,37.29,7.09A26.826,26.826,0,0,1,255.43,666.107Z"/><path class="frame5-21" d="M270.73,673.307a53.416,53.416,0,0,1-14.6,4.5c-.63-7.16-.69-11.46-.7-11.7a26.826,26.826,0,0,0-4.71-15.05c41.84.53,57.59-29.23,62.19-41.03.2,0,.4-.02.6-.04C310.44,623.027,299.46,659.657,270.73,673.307Z"/><path class="frame5-21" d="M380.78,588.167a92.425,92.425,0,0,1-11.72-1.99l-.01-.01a94.185,94.185,0,0,0,31.14-62.75l.13.01c0,35.86,36.18,23.86,36.18,23.86S430.43,593.247,380.78,588.167Z"/><path class="frame5-21" d="M288.88,278.237c-34.83,14.45-175.11,83.84-127.04,247.68-4.44-11.03-10.63-21.45-14.34-27.63-15-25-56-133,60-191C240.63,290.717,267.34,281.807,288.88,278.237Z"/><path class="frame5-3" d="M378.5,342.287s.93-79.1-89.62-64.05c-34.83,14.45-175.11,83.84-127.04,247.68,6.02,14.99,8.8,31.14-2.34,39.37-23,17-33,0-33,0s-11.69,49.1,39.24,53.73a110.077,110.077,0,0,0,23.76-.73,63.543,63.543,0,0,0,.96,16.2,203.462,203.462,0,0,0,22.97,9.48,26.852,26.852,0,0,1,14.94-4.61h.13a26.926,26.926,0,0,1,22.22,11.7c41.84.53,57.59-29.23,62.19-41.03a45.545,45.545,0,0,0,1.58-4.69.175.175,0,0,0,.01-.05s-87,10-87-87,135-160,135-160,25.01,25.1,25.01,61.05l.02.1a20.1,20.1,0,0,1,2.47-.15,20.732,20.732,0,0,1,10.5,2.9,25.856,25.856,0,0,1,10.27,11.6l.08-.04C410.85,369.217,378.5,342.287,378.5,342.287Z"/><path class="frame5-22" d="M268.12,815.9c-21.65-32.74-28.12-63.11-28.12-63.11l-.01-.07a99.888,99.888,0,0,1-23.61.89c2.66,8.58,5.81,17.4,9.52,26.3a251.231,251.231,0,0,0,25.22,46.59c34.84,50.32,85.76,79.97,149.61,86.58.94.09,1.88.14,2.8.14a26.947,26.947,0,0,0,25.24-17.61C342.73,898.6,294.32,855.517,268.12,815.9Z"/><path class="frame5-22" d="M400.5,472.337v10.34a29.876,29.876,0,0,1-12,2.11c-11.63,0-22-10.15-22-34.5l.13-.01c1.26,14.06,11.24,25.01,23.37,25.01a20.059,20.059,0,0,0,6-.92A20.437,20.437,0,0,0,400.5,472.337Z"/><path class="frame5-22" d="M348.57,466.557c.19-.82.35-1.64.47-2.48-.28,21.92-8.87,39.27-27.54,41.38-20.74,2.34-34-7.17-34-45.17h.05c.95,17.85,14.44,32,30.95,32a28.58,28.58,0,0,0,6.83-.84C336.72,488.637,345.75,478.947,348.57,466.557Z"/><path class="frame5-2" d="M406.27,859.5c-46.8-4.84-83.42-25.49-109.33-61.55a193.852,193.852,0,0,1-20.75-37.38c-2.47-5.82-4.65-11.63-6.57-17.35a101.339,101.339,0,0,1-29.63,9.5l.01.07s6.47,30.37,28.12,63.11c26.2,39.62,74.61,82.7,160.65,79.71a26.937,26.937,0,0,0-22.5-36.11Z"/><path class="frame5-2" d="M361.49,592.267a93.8,93.8,0,0,1-47.98,17.72c.63-2.66.93-4.33.98-4.65a.175.175,0,0,0,.01-.05s-87,10-87-87,135-160,135-160,25.01,25.1,25.01,61.05l.02.1c-11.82,1.48-21.03,13.38-21.03,27.85,0,1.01.04,2.01.13,2.99l-.13.01c0,24.35,10.37,34.5,22,34.5a29.876,29.876,0,0,0,12-2.11v33.11c0,2.57-.1,5.12-.31,7.63a94.185,94.185,0,0,1-31.14,62.75A88.407,88.407,0,0,1,361.49,592.267Zm21.21-89.13a1.415,1.415,0,1,0-2.83,0,17,17,0,0,1-16.98,16.98,1.415,1.415,0,1,0,0,2.83A19.837,19.837,0,0,0,382.7,503.137ZM365,566.287c10.22,0,20.5-10.2,20.5-16s-10.28-5-20.5-5-18.5,4.7-18.5,10.5S354.78,566.287,365,566.287Zm-15.96-102.21a35.626,35.626,0,0,0,.46-5.79c0-18.78-13.88-34-31-34s-31,15.22-31,34c0,.67.02,1.34.05,2h-.05c0,38,13.26,47.51,34,45.17C340.17,503.347,348.76,486,349.04,464.077Z"/></g></g></svg>