<svg id="screens" xmlns="http://www.w3.org/2000/svg" viewBox="0 0 1820.96 1020"><defs><style>.frame1-1{fill:#c7cedd;}.frame1-2{opacity:0.22;}.frame1-3{fill:#232323;}.frame1-4{fill:#023f3c;}</style></defs><title>frame1Svg-01</title><g id="phoneBodies"><g id="tableTop"><rect class="frame1-1" width="1820.96" height="1020" rx="100.12" ry="100.12"/></g><g class="frame1-2"><rect class="frame1-3" x="743.29" y="387.94" width="365.91" height="556" rx="61.66" ry="61.66"/></g><rect class="frame1-3" x="781.99" y="386.38" width="330.73" height="521.55" rx="31.66" ry="31.66"/><g class="frame1-2"><rect class="frame1-3" x="437.87" y="526.38" width="273.37" height="404.91" rx="61.66" ry="61.66"/></g><rect class="frame1-3" x="466.79" y="523.78" width="247.08" height="379.82" rx="31.66" ry="31.66"/><g class="frame1-2"><rect class="frame1-3" x="109.96" y="96.24" width="604.98" height="403.32" rx="61.66" ry="61.66"/></g><rect class="frame1-3" x="148.75" y="92.36" width="567.49" height="364.54" rx="31.66" ry="31.66"/><g class="frame1-2"><rect class="frame1-3" x="1427.4" y="216.64" width="223.97" height="364.25" rx="61.66" ry="61.66"/></g><rect class="frame1-3" x="1451.09" y="217.24" width="202.43" height="341.68" rx="31.66" ry="31.66"/><g class="frame1-2"><rect class="frame1-3" x="1152.52" y="615.2" width="494.7" height="329.8" rx="61.66" ry="61.66"/></g><rect class="frame1-3" x="1184.23" y="612.03" width="464.04" height="298.09" rx="31.66" ry="31.66"/><g class="frame1-2"><rect class="frame1-3" x="745.67" y="114.35" width="366.27" height="244.18" rx="61.66" ry="61.66"/></g><rect class="frame1-3" x="769.15" y="112" width="343.57" height="220.7" rx="31.66" ry="31.66"/><g class="frame1-2"><rect class="frame1-3" x="1143.01" y="122.93" width="257.51" height="457.95" rx="61.66" ry="61.66"/></g><rect class="frame1-3" x="1170.24" y="121.97" width="232.75" height="429.58" rx="31.66" ry="31.66"/><g class="frame1-2"><rect class="frame1-3" x="133.32" y="526.38" width="273.37" height="404.91" rx="61.66" ry="61.66"/></g><rect class="frame1-3" x="95.87" y="590.15" width="379.82" height="247.08" rx="31.66" ry="31.66" transform="translate(999.47 427.91) rotate(90)"/></g><g id="screens-2" data-name="screens"><rect class="frame1-4" x="805.45" y="410.14" width="283.82" height="474.03" rx="32.29" ry="32.29"/><rect class="frame1-4" x="484.31" y="541.08" width="212.04" height="345.21" rx="32.29" ry="32.29"/><rect class="frame1-4" x="174.6" y="118.21" width="515.78" height="312.83" rx="32.29" ry="32.29"/><rect class="frame1-4" x="1465.44" y="232.81" width="173.72" height="310.54" rx="32.29" ry="32.29"/><rect class="frame1-4" x="1205.38" y="633.17" width="421.76" height="255.81" rx="32.29" ry="32.29"/><rect class="frame1-4" x="784.8" y="127.65" width="312.27" height="189.4" rx="32.29" ry="32.29"/><rect class="frame1-4" x="1186.75" y="141.54" width="199.74" height="390.44" rx="32.29" ry="32.29"/><rect class="frame1-4" x="179.76" y="541.08" width="212.04" height="345.21" rx="32.29" ry="32.29"/></g></svg>