<svg id="Layer_1" data-name="Layer 1" xmlns="http://www.w3.org/2000/svg" viewBox="0 0 657 813.529"><defs><style>.coverPage-1{opacity:0;}.coverPage-2{fill:#31343c;}.coverPage-3{fill:#48505e;}.coverPage-4{fill:#023f3c;}.coverPage-5{fill:#7b8699;}.coverPage-6{fill:#7a8082;}.coverPage-7{fill:#9fa9ad;}.coverPage-8{fill:#160606;}.coverPage-9{fill:#29343d;}.coverPage-10{fill:#465168;}.coverPage-11{fill:#f2c599;}.coverPage-12{fill:#230b0a;}.coverPage-13{fill:#c4d2d6;}.coverPage-14{fill:#c08154;}.coverPage-15{fill:#fff;}.coverPage-16{fill:#f2faf6;}.coverPage-17{fill:#46526d;}.coverPage-18{fill:#677291;}.coverPage-19{fill:#c4d1d8;}.coverPage-20{fill:#8795b2;}.coverPage-21{fill:#bfc4d1;}.coverPage-22{fill:#3c121b;}.coverPage-23{fill:#213233;}.coverPage-24{fill:#d2edfe;}.coverPage-25{fill:#979d9e;}.coverPage-26{fill:#a6a3c1;}.coverPage-27{fill:#661f2a;}</style></defs><title>svg-coverPageTry3</title><g id="coverPageBrother" class="coverPage-1"><g id="_Group_" data-name="&lt;Group&gt;"><path class="coverPage-2" d="M867.01,33.8l3.35,1.785a9.514,9.514,0,0,0-2.271-.35A8.688,8.688,0,0,0,867.01,33.8Z" transform="translate(-561 -30.471)"/><path class="coverPage-3" d="M868.089,35.233a9.514,9.514,0,0,1,2.271.35l3.9,2.081a9.814,9.814,0,0,1,3.434,7.52V242.19a9.965,9.965,0,0,1-4.938,8.6L585.292,418.481a9.82,9.82,0,0,1-7.581,1.025l-4.831-2.947a9.662,9.662,0,0,1-1.656-2.507,9.868,9.868,0,0,1-.9-4.17v-197a9.951,9.951,0,0,1,4.938-8.6l.927-.54L862.726,36.585A9.757,9.757,0,0,1,868.089,35.233Zm-.874,206.661V46.1L580.8,213.18V408.971Z" transform="translate(-561 -30.471)"/><path class="coverPage-2" d="M868.089,35.233a9.757,9.757,0,0,0-5.363,1.352L576.185,203.738l-.046-.076-9.769-5.423L854.613,31.815a9.812,9.812,0,0,1,6.343-1.246L867.01,33.8A8.688,8.688,0,0,1,868.089,35.233Z" transform="translate(-561 -30.471)"/><polygon class="coverPage-4" points="306.215 15.625 306.215 211.423 19.796 378.5 19.796 182.71 306.215 15.625"/><path class="coverPage-5" d="M576.139,203.662l.046.076-.927.54a9.951,9.951,0,0,0-4.938,8.6v.106l-9.312-6.206a9.939,9.939,0,0,1,4.975-8.31l.387-.228Z" transform="translate(-561 -30.471)"/><path class="coverPage-2" d="M572.88,416.559l-4.831-2.947a9.5,9.5,0,0,0,3.175.44A9.662,9.662,0,0,0,572.88,416.559Z" transform="translate(-561 -30.471)"/><path class="coverPage-2" d="M571.224,414.052a9.5,9.5,0,0,1-3.175-.44l-4.238-2.59A9.778,9.778,0,0,1,561,404.094V207.088c0-.106,0-.2.008-.311l9.312,6.206v196.9A9.868,9.868,0,0,0,571.224,414.052Z" transform="translate(-561 -30.471)"/><path class="coverPage-2" d="M563.811,411.022l4.238,2.59A10.008,10.008,0,0,1,563.811,411.022Z" transform="translate(-561 -30.471)"/></g><path class="coverPage-2" d="M1142.113,459.61l.061-.14-28.5-13.305a19.4,19.4,0,0,0-22.77-2.416l-71.275,41a53.566,53.566,0,0,0-36.534-48.456c10-16.793,27.12-52.6,10.577-78.784a45.711,45.711,0,0,0-8.482-9.876c-16.072-14.177-31.381-17.455-44.736-18.408-14.518-1.042-26.719.652-35.111-5.935a8.054,8.054,0,0,0-12.533,3.269c-3.93,9.955-6.888,23.761,2.015,31.912l.01.009-.01-.009a46.177,46.177,0,0,0-4.391,19.671q0,1.459.09,2.948l.2,3.128a14.563,14.563,0,0,0-6.838,16.182l.712,8.753c.441,7.088,4,13.034,8.813,15.751a46.01,46.01,0,0,0,5.223,15.7c.231.431.461.842.712,1.263a46.565,46.565,0,0,0,20.8,18.708,52.232,52.232,0,0,0-6.356,20.193q-.136,1.331-.2,2.677t-.068,2.707h0q0-1.362.068-2.707t.2-2.677l-.512-.05c-1.734,19.24-12.743,54.241-20.453,76.959h0L788.586,617.64l30.769,18.238h0L788.586,617.64l-.963.552a19.491,19.491,0,0,0-9.765,17.1l.02,1.564L811.2,654.145,777.878,636.86l.2,19.551h0l-38.069,22.107A25.494,25.494,0,0,0,727.2,700.786a26.1,26.1,0,0,0,1.633,9.071,26.1,26.1,0,0,1-1.633-9.071h-.421V747.5h.421a25.5,25.5,0,0,0,13.054,22.409L815.7,812.657a1.093,1.093,0,0,0,.15.08h0a25.744,25.744,0,0,0,25.476-.221l.061-.03,300.6-171.535a25.349,25.349,0,0,0,10.748-12.192V579.922a19.565,19.565,0,0,1-3.337,6.709,19.44,19.44,0,0,0,4.029-11.862V477.3A19.346,19.346,0,0,0,1142.113,459.61ZM958.437,434.1q-1.338-.988-2.589-1.994,1.248,1,2.589,1.994Zm-1.9.316.492-.089Zm-2.1-3.481c-.552-.471-1.088-.941-1.588-1.408C953.348,430,953.884,430.468,954.436,430.939Zm-6.076-10.21a3.018,3.018,0,0,1,.421-.6.458.458,0,0,0,.081-.01A5.727,5.727,0,0,1,948.36,420.729ZM928.465,449.42a52.731,52.731,0,0,1,4.09-3.775A52.731,52.731,0,0,0,928.465,449.42Zm6.281-5.5a52.47,52.47,0,0,1,5.528-3.58A52.47,52.47,0,0,0,934.746,443.922Zm11.138-6.323c.6-.249,1.2-.491,1.8-.718C947.081,437.108,946.481,437.35,945.884,437.6Zm2.342-39.766a5.952,5.952,0,0,1,1.227,3.265l.9,14.367-.9-14.367A5.969,5.969,0,0,0,947,396.64,6.01,6.01,0,0,1,948.226,397.833Zm-2.217-1.775a5.91,5.91,0,0,0-1.675-.5A5.91,5.91,0,0,1,946.009,396.058Zm-4.767-.424,1.885-.12-1.885.12s-1.085-.817-2.949-2.236C940.157,394.817,941.242,395.634,941.242,395.634Zm-15.567-11.95c4.687,3.65,8.8,6.8,11.623,8.956-2.82-2.15-6.936-5.306-11.623-8.956q-1.758-1.37-3.611-2.822Q923.912,382.311,925.675,383.684Zm-14.736,34.742a19.649,19.649,0,0,0,1.186-2.928,19.649,19.649,0,0,1-1.186,2.928A17.621,17.621,0,0,1,909.357,421,17.621,17.621,0,0,0,910.939,418.426Zm2.14-11.052c.03.5.05.993.05,1.474a22.478,22.478,0,0,1-.573,5.074,22.478,22.478,0,0,0,.573-5.074C913.129,408.367,913.109,407.876,913.079,407.374ZM907.665,385.9a14.567,14.567,0,0,0-3.941-2.487,14.42,14.42,0,0,1,6.607,5.64A14.617,14.617,0,0,0,907.665,385.9Zm.766,36.239a14.5,14.5,0,0,1-1.6,1.514A14.5,14.5,0,0,0,908.431,422.138Zm-10.176,4.3a11.417,11.417,0,0,1-1.677-.279,12.006,12.006,0,0,1-1.62-.517,12.006,12.006,0,0,0,1.62.517,11.28,11.28,0,0,0,6.109-.2,11.94,11.94,0,0,0,2.5-1.123,11.94,11.94,0,0,1-2.5,1.123,11.224,11.224,0,0,1-4.432.481Zm28.319,25.025a52.813,52.813,0,0,0-3.449,4.377A52.813,52.813,0,0,1,926.574,451.463Zm-112.7,190.414a19.433,19.433,0,0,1,1.294-1.929,19.433,19.433,0,0,0-1.294,1.929,19.723,19.723,0,0,0-1.055,2.069A19.723,19.723,0,0,1,813.869,641.877ZM786.586,748.248a19.8,19.8,0,0,1-1.852-1.587,19.4,19.4,0,0,1-2.825-3.477,19.4,19.4,0,0,0,2.825,3.477A19.8,19.8,0,0,0,786.586,748.248Zm-6.537-8.822a19.246,19.246,0,0,1-.948-3.78A19.246,19.246,0,0,0,780.049,739.426Zm1.358,2.922q-.273-.48-.52-.978Q781.133,741.868,781.407,742.348ZM729.321,711.08a25.177,25.177,0,0,0,2.006,3.775A25.177,25.177,0,0,1,729.321,711.08Zm11.621,12.5-.692-.391a26.133,26.133,0,0,1-5.711-4.353,25.136,25.136,0,0,1-2.244-2.6,25.136,25.136,0,0,0,2.244,2.6,26.133,26.133,0,0,0,5.711,4.353l.692.391,47.243,26.77Zm402.745-131.952L841.453,766.266c-.04.02-.09.05-.131.07a19.616,19.616,0,0,1-4.031,1.742,18.851,18.851,0,0,1-4.1.765,25.761,25.761,0,0,1-17.284-2.777h0a25.761,25.761,0,0,0,17.284,2.777,18.851,18.851,0,0,0,4.1-.765,19.616,19.616,0,0,0,4.031-1.742c.041-.02.091-.05.131-.07l302.234-174.633a19.41,19.41,0,0,0,4.486-3.562A19.41,19.41,0,0,1,1143.687,591.633Z" transform="translate(-561 -30.471)"/><g id="_Group_2" data-name="&lt;Group&gt;"><path class="coverPage-6" d="M1152.731,579.922v48.837a25.349,25.349,0,0,1-10.748,12.192l-300.6,171.535-.061.03v-46.18c.041-.02.091-.05.131-.07l302.235-174.633A19.489,19.489,0,0,0,1152.731,579.922Z" transform="translate(-561 -30.471)"/><path class="coverPage-7" d="M1142.113,459.61a19.235,19.235,0,0,0-17.886.8l-4.131,2.376-100.42,57.76-73.571,42.32L820.95,634.855q-.828.482-1.6,1.023a19.513,19.513,0,0,0-8.171,16.081l.02,2.186.993,93.112.02,2.346a19.509,19.509,0,0,0,20.974,19.24,19.2,19.2,0,0,0,8.131-2.507c.041-.02.091-.05.131-.07l302.235-174.633a19.457,19.457,0,0,0,9.735-16.864V477.3A19.346,19.346,0,0,0,1142.113,459.61Z" transform="translate(-561 -30.471)"/><path class="coverPage-8" d="M993.668,357.505c-1.925,13.9-5.414,24.714-9.625,33.136-13.264,26.509-33.728,29.306-35.181,29.476a5.727,5.727,0,0,1-.5.612c-1.784,3.309,3.55,8.552,10.077,13.375a52.48,52.48,0,0,1,7.69-.562A53.441,53.441,0,0,1,982.188,436c.3.09.6.19.9.29C993.086,419.5,1010.211,383.693,993.668,357.505Z" transform="translate(-561 -30.471)"/><path class="coverPage-9" d="M1004,449.223a53.567,53.567,0,0,0-20.9-12.934c-.3-.1-.6-.2-.9-.29a53.441,53.441,0,0,0-16.061-2.457,52.48,52.48,0,0,0-7.69.562c-1.093.16-2.176.351-3.249.581,2.3,3.379,7.359,10.969,12.793,20.1,9.314,15.661,19.732,35.833,19.17,47.023l.7,1.213,31.772-18.278A53.416,53.416,0,0,0,1004,449.223Z" transform="translate(-561 -30.471)"/><path class="coverPage-10" d="M987.151,501.81c.562-11.19-9.856-31.362-19.17-47.023-5.434-9.133-10.5-16.723-12.793-20.1a52.549,52.549,0,0,0-41.668,51.464v59.625l74.333-42.751Z" transform="translate(-561 -30.471)"/><path class="coverPage-11" d="M913.059,396.847h-.451a14.587,14.587,0,0,0-21.887-12.633l-.2-3.128q-.09-1.488-.09-2.948a46.177,46.177,0,0,1,4.391-19.671c.061.061.111.111.171.161,15.4,13.766,46.25,37.006,46.25,37.006l1.885-.12a5.973,5.973,0,0,1,6.326,5.584l.9,14.367a6.954,6.954,0,0,1-1.494,4.652.458.458,0,0,1-.081.01,3.018,3.018,0,0,0-.421.6c-1.784,3.309,3.55,8.552,10.077,13.375-1.093.16-2.176.351-3.249.581a52.653,52.653,0,0,0-35.041,25.887,46.565,46.565,0,0,1-20.8-18.708.954.954,0,0,0,.291.07l13.866,1.434a1.149,1.149,0,1,0,.23-2.286l-13.866-1.434a1.133,1.133,0,0,0-1.233.953,45.988,45.988,0,0,1-5.223-15.7,11.858,11.858,0,0,0,6.567,1.564c7.479-.471,13.154-8.221,13.154-17.616,0-.481-.02-.972-.05-1.474Z" transform="translate(-561 -30.471)"/><path class="coverPage-12" d="M985.186,347.629c-16.072-14.177-31.381-17.455-44.736-18.408-14.518-1.042-26.719.652-35.111-5.935a8.054,8.054,0,0,0-12.533,3.269c-3.93,9.955-6.888,23.761,2.015,31.912.061.061.111.111.171.161,15.4,13.766,46.25,37.006,46.25,37.006l1.885-.12a5.973,5.973,0,0,1,6.326,5.584l.9,14.367a6.954,6.954,0,0,1-1.494,4.652c1.453-.17,21.917-2.967,35.181-29.476,4.211-8.422,7.7-19.24,9.625-33.136A45.711,45.711,0,0,0,985.186,347.629Z" transform="translate(-561 -30.471)"/><path class="coverPage-12" d="M913.73,441.082a1.149,1.149,0,1,1-.23,2.286l-13.866-1.434a.954.954,0,0,1-.291-.07c-.251-.421-.481-.832-.712-1.263a1.133,1.133,0,0,1,1.233-.953Z" transform="translate(-561 -30.471)"/><path class="coverPage-9" d="M913.279,480.715l.512.05a53.031,53.031,0,0,0-.271,5.384v59.625l-20.694,11.9C900.536,534.956,911.545,499.955,913.279,480.715Z" transform="translate(-561 -30.471)"/><path class="coverPage-13" d="M1113.67,446.165a19.4,19.4,0,0,0-22.77-2.416l-71.275,41-31.772,18.278L913.52,545.774l-20.694,11.9L788.586,617.64l30.769,18.238q.768-.541,1.6-1.023l125.155-71.987,73.571-42.32,100.42-57.76,4.131-2.376a19.235,19.235,0,0,1,17.886-.8l.061-.14Z" transform="translate(-561 -30.471)"/><path class="coverPage-14" d="M913.079,407.374l-.02-10.527h-.451a14.582,14.582,0,0,1-28.725,3.549l.712,8.753c.441,7.088,4,13.034,8.813,15.751a11.858,11.858,0,0,0,6.567,1.564c7.479-.471,13.154-8.221,13.154-17.616C913.129,408.367,913.109,407.876,913.079,407.374Z" transform="translate(-561 -30.471)"/><path class="coverPage-15" d="M907.665,385.9a14.578,14.578,0,0,0-16.944-1.685,14.59,14.59,0,0,0-2.346,23.561,14.583,14.583,0,1,0,19.29-21.876Zm-13.586,13.735a4.364,4.364,0,0,1-2.306,1.384,4.418,4.418,0,1,1-.551-8.693,4.339,4.339,0,0,1,2.466,1.073A4.413,4.413,0,0,1,894.079,399.634Z" transform="translate(-561 -30.471)"/><path class="coverPage-12" d="M893.688,393.4a4.439,4.439,0,0,0-6.236.391,4.422,4.422,0,0,0,4.321,7.229,4.364,4.364,0,0,0,2.306-1.384A4.413,4.413,0,0,0,893.688,393.4Z" transform="translate(-561 -30.471)"/><path class="coverPage-16" d="M841.322,766.336v46.18a25.744,25.744,0,0,1-25.476.221V766.176l.061-.11a25.761,25.761,0,0,0,17.284,2.777A19.2,19.2,0,0,0,841.322,766.336Z" transform="translate(-561 -30.471)"/><path class="coverPage-16" d="M788.586,617.64l30.769,18.238a19.513,19.513,0,0,0-8.171,16.081l.02,2.186L777.878,636.86l-.02-1.564a19.491,19.491,0,0,1,9.765-17.1Z" transform="translate(-561 -30.471)"/><path class="coverPage-13" d="M812.217,749.6l-.02-2.346-.993-93.112L777.878,636.86l.2,19.551.812,76.529a19.294,19.294,0,0,0,9.726,16.653l-.431.762,27.511,15.59.211.121a25.761,25.761,0,0,0,17.284,2.777A19.509,19.509,0,0,1,812.217,749.6Z" transform="translate(-561 -30.471)"/><path class="coverPage-16" d="M788.616,749.593l-.431.762-47.243-26.77-.692-.391a25.758,25.758,0,0,1-.241-44.676l38.069-22.107.812,76.529A19.294,19.294,0,0,0,788.616,749.593Z" transform="translate(-561 -30.471)"/><path class="coverPage-7" d="M815.7,765.945l-27.511-15.59-47.243-26.77-.692-.391A25.5,25.5,0,0,1,727.2,700.786h-.421V747.5h.421a25.5,25.5,0,0,0,13.054,22.409L815.7,812.657a1.093,1.093,0,0,0,.15.08V766.176l.061-.11Z" transform="translate(-561 -30.471)"/></g></g><g id="coverPageGrandma" class="coverPage-1"><path class="coverPage-17" d="M1047.782,453.327a10.71,10.71,0,0,0-.3-2.664,11.4,11.4,0,0,0-5.395-7.308l-6.534-3.78h0l-111.047-64.23c-1.251,3.448-2.311,6.131-2.931,7.659-.124.305-.23.565-.317.775.087-.21.193-.47.317-.775.62-1.528,1.68-4.211,2.931-7.659,1.415-3.925,3.084-8.844,4.621-14.184,6.931,6.346,17.036,7.684,24.619,2.643a18.455,18.455,0,0,0,6.91-8.557,20.248,20.248,0,0,0,1.47-7.639,22.476,22.476,0,0,0-3.681-12.293,1.967,1.967,0,0,0-.155-.255c-5.749-8.633-16.2-12.083-24.8-8.722-.2-1.26-.476-2.742-.841-4.389-.077-.353-.154-.707-.243-1.072-4.72-19.91-22.22-60.991-76.887-54.214-48.244,5.981-62.561,21.955-65.148,35.951-2.421,13.012,5.3,24.321,5.3,24.321v.011h-.011c-.464.564-18.44,22.707,11.375,45.624h0a14.65,14.65,0,0,0,2.488,5.926,31.8,31.8,0,0,0,3.217,3.548v.011a14.125,14.125,0,0,0,5,2.631h0l2.951,4.445-9.629,2.354A2.161,2.161,0,0,0,810,395.067l4.621,4.864a2.147,2.147,0,0,0,2.078.619l9.961-2.443,5.108,7.672a47.872,47.872,0,0,0,19.158,16.7v28.488C849.19,461.386,846.4,477.04,842.878,493c-5.959,27.03-11.077,41.5-14.681,49.195l-69.116,40.727a4.858,4.858,0,0,0-2.41,4.146l-17.114,9.518a34.414,34.414,0,0,0-14.1,15.51A35.729,35.729,0,0,0,720.6,630.13V779.582A17.049,17.049,0,0,0,736.33,796.53l-12.426,11.1a13.288,13.288,0,0,0-1.061,18.727l4.963,5.572a14.241,14.241,0,0,0,1.625,1.537,13.325,13.325,0,0,0,17.113-.476l4.82-4.3a12.517,12.517,0,0,0,1.659,2.343l7.639,8.557c.121.133.243.265.364.387a13.322,13.322,0,0,0,18.374.674l29.815-26.631a13.3,13.3,0,0,0,1.736-17.9,17.076,17.076,0,0,0,13.056-16.539l.1-2.819L826,720.306l1.16-34.514-.674-.376.708-.453-.034.829h0L826,720.306l34.845,20.186,3.626,2.1a15.355,15.355,0,0,0,15.367-.077l5.085-3.04V704.11l137.027-81.044a15.1,15.1,0,0,0,6.7-8.033,15.1,15.1,0,0,1-6.7,8.033L884.92,704.11v35.365l144.5-86.539V611.745a15.22,15.22,0,0,0-.221-5.151l17.434-10.215ZM850.926,537.2c-.2-.7-.351-1.262-.462-1.7.111.434.261,1,.462,1.7Zm5.063,17.578h0l1.006-.564h0Zm-.243,38.261h0c.343.067.7.133,1.05.188C856.442,593.173,856.089,593.107,855.746,593.04Zm107.344,5.528.339.191-.339-.191a16.7,16.7,0,0,1-3.593,2.808A16.7,16.7,0,0,0,963.09,598.568ZM919.92,382.5h0q.274.485.476.846Q920.194,382.983,919.92,382.5Zm-77.208,3.913,1.669,1.769h0Zm-1.968-12.746a18.559,18.559,0,0,1-1.369-1.453,16.968,16.968,0,0,1-1.229-1.643,18.206,18.206,0,0,1-1.593-2.945,17.707,17.707,0,0,1-.875-2.653,17.707,17.707,0,0,0,.875,2.653,18.206,18.206,0,0,0,1.593,2.945,16.968,16.968,0,0,0,1.229,1.643,18.559,18.559,0,0,0,1.369,1.453,17.53,17.53,0,0,0,2.695,2.1,16.8,16.8,0,0,0,2.964,1.492,16.8,16.8,0,0,1-2.964-1.492A17.53,17.53,0,0,1,840.744,373.665Zm8.911,4.467c-.395-.063-.787-.136-1.178-.229C848.868,378,849.261,378.069,849.655,378.132Zm16.569-13.6a16.021,16.021,0,0,1-.46,3A16.021,16.021,0,0,0,866.224,364.532Zm-2.961-10.667a17.766,17.766,0,0,0-5.886-5.558,17.766,17.766,0,0,1,5.886,5.558,17.979,17.979,0,0,1,2.161,4.471A18.014,18.014,0,0,0,863.263,353.865Zm.773,17.79a13.951,13.951,0,0,1-2.931,3.407A13.951,13.951,0,0,0,864.036,371.655Zm-10.6-24.983a16.42,16.42,0,0,1,2.552.918A16.42,16.42,0,0,0,853.44,346.672Zm-9.184.363a13.9,13.9,0,0,0-6.887,5.736,14.641,14.641,0,0,0-1.289,2.689,14.641,14.641,0,0,1,1.289-2.689,13.909,13.909,0,0,1,6.887-5.736,14.663,14.663,0,0,1,8.6-.514A14.663,14.663,0,0,0,844.256,347.035Zm6.245,52.574a.753.753,0,0,1-.172.7A.754.754,0,0,0,850.5,399.609Zm-.32-.447a.762.762,0,0,0-.56-.118A.762.762,0,0,1,850.181,399.162Zm-26.845-38.24A14.7,14.7,0,0,1,824.977,362,14.7,14.7,0,0,0,823.336,360.922Zm3.5,2.744.013.013Zm-4.626-3.322a13.384,13.384,0,0,0-1.769-.676A13.384,13.384,0,0,1,822.208,360.344Zm-4.1-1.125a10.94,10.94,0,0,0-2.311.029A10.94,10.94,0,0,1,818.109,359.219Zm7.843,24.685a9.8,9.8,0,0,1-1.347.621A9.8,9.8,0,0,0,825.952,383.9ZM834,390.656h0l-.84-.879Zm11.544,9.842a8.124,8.124,0,0,1-1.575-.011A8.2,8.2,0,0,0,845.544,400.5Zm5.382,134.194-.586.321h0l.586-.32Zm0,22.961h0l-.63.354.63.376h0l-.63-.376Zm44.286,45.525c-.464.265-.917.519-1.393.751h0C894.3,603.7,894.748,603.443,895.212,603.178Zm57.406-187.213a79.811,79.811,0,0,0-7.032-8.13A79.811,79.811,0,0,1,952.618,415.965ZM806.96,368.314h0c.011-.1.033-.2.055-.31a11.976,11.976,0,0,1,.566-2.133,11.976,11.976,0,0,0-.566,2.133c.21.509.443,1.018.675,1.526C807.435,369.121,807.192,368.723,806.96,368.314Zm4.544-7.5a9.914,9.914,0,0,0-1.285,1.04,9.914,9.914,0,0,1,1.285-1.04,9.705,9.705,0,0,1,3.167-1.371A9.705,9.705,0,0,0,811.5,360.819Zm9.356,24.34-.036,0Zm15.771,12a.756.756,0,0,0,.026.374A.756.756,0,0,1,836.631,397.161Zm6.383,4.723a9.748,9.748,0,0,1-1.026-.245A9.748,9.748,0,0,0,843.014,401.884Zm1.685.17c.017,0,.033,0,.049,0C844.732,402.057,844.716,402.054,844.7,402.054Z" transform="translate(-561 -30.471)"/><g id="_Group_3" data-name="&lt;Group&gt;"><path class="coverPage-11" d="M912.8,371.631l-4.986,2.2A11.413,11.413,0,0,1,912.8,371.631Z" transform="translate(-561 -30.471)"/><path class="coverPage-7" d="M821.785,550.888l-3.162,1.757A7.677,7.677,0,0,1,821.785,550.888Z" transform="translate(-561 -30.471)"/><path class="coverPage-7" d="M821.785,550.888l1.857-1.029a7.623,7.623,0,0,1-.829.8A6.317,6.317,0,0,0,821.785,550.888Z" transform="translate(-561 -30.471)"/><polygon class="coverPage-7" points="289.926 527.183 289.926 527.912 289.296 527.536 289.926 527.183"/><path class="coverPage-18" d="M850.926,534.692V537.2c-.288-1-.476-1.746-.586-2.188Z" transform="translate(-561 -30.471)"/><path class="coverPage-18" d="M857.669,555.763l-1.68-.984,1.006-.564C857.205,554.724,857.437,555.243,857.669,555.763Z" transform="translate(-561 -30.471)"/><path class="coverPage-7" d="M856.8,593.228l-.652.376q-.216-.282-.4-.564C856.088,593.107,856.442,593.173,856.8,593.228Z" transform="translate(-561 -30.471)"/><path class="coverPage-17" d="M896.384,603.929h-2.565c.476-.232.929-.486,1.393-.751C895.6,603.432,895.986,603.675,896.384,603.929Z" transform="translate(-561 -30.471)"/><path class="coverPage-18" d="M963.09,598.568l.531.3a25.243,25.243,0,0,1-4.124,2.51A16.7,16.7,0,0,0,963.09,598.568Z" transform="translate(-561 -30.471)"/><path class="coverPage-19" d="M979.031,439.077l-18.838-10.889a79.622,79.622,0,0,0-41.4-38.173,48.013,48.013,0,0,0,1.128-7.517c.73,1.293,1.072,1.923,1.072,1.923s1.515-3.56,3.516-9.076l111.047,64.23-27.538,16.284Z" transform="translate(-561 -30.471)"/><path class="coverPage-7" d="M1029.42,611.745v41.191l-144.5,86.539V704.11l137.027-81.044A15.13,15.13,0,0,0,1029.42,611.745Z" transform="translate(-561 -30.471)"/><path class="coverPage-7" d="M1047.484,450.663l-1.073.265L1016.6,468.55l-1.05,124.413-.133,15.709a11.216,11.216,0,0,1-3.316,7.949l17.1-10.027,17.434-10.215,1.149-143.052A10.71,10.71,0,0,0,1047.484,450.663Z" transform="translate(-561 -30.471)"/><path class="coverPage-16" d="M1042.089,443.355l-6.534-3.78-27.538,16.284-28.986-16.782c.509,10.226,4.312,88.949,4.135,135.612-.056,16.417-.608,28.876-1.979,32.977l-.951.575L998.411,618.5a11.372,11.372,0,0,0,13.686-1.879,11.216,11.216,0,0,0,3.316-7.949l.133-15.709,1.05-124.413,29.815-17.622,1.073-.265A11.4,11.4,0,0,0,1042.089,443.355Z" transform="translate(-561 -30.471)"/><path class="coverPage-18" d="M973.736,569.371l-.4-8.1c-.409.575-1.935,2.421-6.069,4.455a49.011,49.011,0,0,1-9.375,3.372c-7.429,1.957-18.274,3.549-34.038,3.748-.509.906-1.04,1.8-1.581,2.686-6.434,10.58-14.35,19.556-24.012,25.814-1.006.652-2.023,1.26-3.051,1.835.387.254.774.5,1.172.751a74.194,74.194,0,0,0,41.036,11.4L959.453,601.4a.083.083,0,0,1,.044-.022,16.7,16.7,0,0,0,3.593-2.808l.531.3a25.843,25.843,0,0,0,10.546-20.794Z" transform="translate(-561 -30.471)"/><path class="coverPage-20" d="M968.507,463.332a78.179,78.179,0,0,0-8.314-35.144,79.624,79.624,0,0,0-41.4-38.173,48.169,48.169,0,0,1-4.378,11.685,49.453,49.453,0,0,1-2.554,4.278,45.306,45.306,0,0,1-2.719,3.649l.187.154c12.094,3.018,21.989,3.859,29.893,8.093,12.326,6.611,19.8,21.513,23.171,65.976l.023.287c4.256-.353,6.8-.619,6.8-.619l.288-.011Z" transform="translate(-561 -30.471)"/><path class="coverPage-20" d="M951.5,442.438a16.994,16.994,0,0,0-17-17,17.181,17.181,0,0,0-5.086.774c.255.52.719,1.526,1.327,2.974a123.433,123.433,0,0,1,8.015,29.716,120.243,120.243,0,0,1,.807,26.808,108.752,108.752,0,0,1-4.665,23.658,25.194,25.194,0,0,0,9.717-.42,20.717,20.717,0,0,0,9.717-5.594l-.862-18.506Z" transform="translate(-561 -30.471)"/><path class="coverPage-13" d="M958.447,335.315a1.89,1.89,0,0,0-.155-.254c-5.749-8.634-16.2-12.084-24.8-8.723-.2-1.26-.476-2.742-.841-4.389-.077-.353-.154-.707-.243-1.072-63.743-85.566-141.869-18.23-141.869-18.23l-.166-.033c-2.421,13.012,5.3,24.321,5.3,24.321v.011l7.55,1.526a48.281,48.281,0,0,0,3.737,39.842c.011-.1.033-.2.055-.31-10.557-24.4-.906-38.383-.553-38.891,0-.011.012-.011.012-.011S859,289.459,904.288,357.546c3.659,5.5,6.611,10.116,8.977,13.886a.448.448,0,0,1,.066.121c3.328,5.307,5.439,8.922,6.589,10.945.73,1.293,1.072,1.923,1.072,1.923s1.515-3.56,3.516-9.076L920.451,373q-.432-.25-.871-.459.44.209.871.459l4.057,2.344c1.415-3.925,3.084-8.844,4.621-14.184,2.808-9.75,5.2-20.894,4.864-29.892l.221-.011c.155,4.908,2.156,42.948,25.968,23.8l.476.188a20.248,20.248,0,0,0,1.47-7.639A22.476,22.476,0,0,0,958.447,335.315Z" transform="translate(-561 -30.471)"/><path class="coverPage-11" d="M934.9,509.365a40.163,40.163,0,0,1-10.912-3.306q-1.143,10.63-2.929,20.054-1.178,6.3-2.642,12.039a123.719,123.719,0,0,1-10.9,29.053c-1,1.835-2.045,3.582-3.128,5.229a51.738,51.738,0,0,1-14.869,15.432,38.015,38.015,0,0,1-8.081,3.958c-7.23,2.554-15.466,3.018-24.642,1.4l-.652.376-18.86,10.922q15.986,5.756,29.87,5.76a56.5,56.5,0,0,0,26.665-6.357c.476-.232.929-.486,1.393-.751,1.028-.575,2.045-1.183,3.051-1.835,9.662-6.258,17.578-15.234,24.012-25.814.541-.884,1.072-1.78,1.581-2.686a147,147,0,0,0,11.254-25.272c.42-1.216.829-2.421,1.216-3.648a243.423,243.423,0,0,0,8.291-34.978A25.194,25.194,0,0,1,934.9,509.365Z" transform="translate(-561 -30.471)"/><path class="coverPage-19" d="M1029.2,606.594l-17.1,10.027a11.372,11.372,0,0,1-13.686,1.879l-18.175-10.259-140.52,84.748,21.126,12.105v35.4l3.626,2.1a15.355,15.355,0,0,0,15.367-.077l5.085-3.04V704.11l137.027-81.044a15.352,15.352,0,0,0,7.252-16.472Z" transform="translate(-561 -30.471)"/><path class="coverPage-21" d="M962.393,483.85c-3.371-44.463-10.845-59.365-23.171-65.976-7.9-4.234-17.8-5.075-29.893-8.093l-.187-.154a48.06,48.06,0,0,1-36.969,17.654,46.385,46.385,0,0,1-6.566-.42c.464,1.084,1.957,4.5,4.256,9.176.707,1.415,1.47,2.941,2.31,4.555,9.165,17.688,26.455,45.756,43.922,45.756.807,0,1.614,0,2.432-.011l.4,17.014a38.021,38.021,0,0,0,5.063,2.708,40.163,40.163,0,0,0,10.912,3.306,108.752,108.752,0,0,0,4.665-23.658,120.243,120.243,0,0,0-.807-26.808,123.433,123.433,0,0,0-8.015-29.716c-.608-1.448-1.072-2.454-1.327-2.974a17.181,17.181,0,0,1,5.086-.774,16.994,16.994,0,0,1,17,17l1.968,42.407c3.449-.254,6.478-.5,8.944-.708Z" transform="translate(-561 -30.471)"/><path class="coverPage-17" d="M969.5,483.507l-.288.011s-2.542.266-6.8.619c-2.466.21-5.5.454-8.944.708l.862,18.506a20.717,20.717,0,0,1-9.717,5.594,243.423,243.423,0,0,1-8.291,34.978c-.387,1.227-.8,2.432-1.216,3.648a147,147,0,0,1-11.254,25.272c15.764-.2,26.609-1.791,34.038-3.748a49.011,49.011,0,0,0,9.375-3.372c4.134-2.034,5.66-3.88,6.069-4.455Z" transform="translate(-561 -30.471)"/><path class="coverPage-17" d="M918.925,503.351l-.4-17.014c-.818.011-1.625.011-2.432.011-17.467,0-34.757-28.068-43.922-45.756-.84-1.614-1.6-3.14-2.31-4.555-2.3-4.676-3.792-8.092-4.256-9.176a47.96,47.96,0,0,1-14.681-4.377v81.961c.453,4.655,1.138,9.6,2.133,14.6a113.783,113.783,0,0,0,3.262,12.647,77.76,77.76,0,0,0,8.379,18.141c7.993,12.393,20.264,21.6,38.991,22.564l.7.033c1.083-1.647,2.133-3.394,3.128-5.229a123.719,123.719,0,0,0,10.9-29.053q1.458-5.738,2.642-12.039,1.774-9.419,2.929-20.054A38.021,38.021,0,0,1,918.925,503.351Z" transform="translate(-561 -30.471)"/><path class="coverPage-15" d="M863.263,353.865c5.063,7.606,3.538,17.511-3.394,22.121a14.059,14.059,0,0,1-3,1.5,8.2,8.2,0,0,0-.641-7.849,8.4,8.4,0,0,0-11.674-2.167,8.6,8.6,0,0,0-3.814,6.191,17.774,17.774,0,0,1-2.6-3.1c-5.063-7.606-3.548-17.522,3.394-22.132S858.2,346.259,863.263,353.865Z" transform="translate(-561 -30.471)"/><path class="coverPage-7" d="M979.031,439.077l-18.838-10.889a78.179,78.179,0,0,1,8.314,35.144l1,20.175,3.836,77.761.4,8.1.431,8.7a25.843,25.843,0,0,1-10.546,20.794,25.243,25.243,0,0,1-4.124,2.51.083.083,0,0,0-.044.022L937.42,615.327,827.191,684.963l-.034.829h0L826,720.306l34.845,20.186v-35.4l-21.126-12.105,140.52-84.748.951-.575c1.371-4.1,1.923-16.56,1.979-32.977C983.343,528.026,979.54,449.3,979.031,439.077Z" transform="translate(-561 -30.471)"/><path class="coverPage-12" d="M856.232,369.641a8.2,8.2,0,0,1,.641,7.849,15.845,15.845,0,0,1-16.129-3.825,8.6,8.6,0,0,1,3.814-6.191A8.4,8.4,0,0,1,856.232,369.641Z" transform="translate(-561 -30.471)"/><path class="coverPage-11" d="M913.265,371.432c-2.366-3.77-5.318-8.391-8.977-13.886C859,289.459,806.474,329.1,806.474,329.1s-.012,0-.012.011c-.353.508-10,14.493.553,38.891a10.619,10.619,0,0,1,4.489-7.185c5.251-3.494,12.89-1.25,17.057,5.019s3.284,14.172-1.967,17.677a9.7,9.7,0,0,1-2.687,1.238,11.05,11.05,0,0,1-6.168-.067l2.951,4.445,8.4-2.057a2.17,2.17,0,0,1,2.079.608l1.149,1.216,10.392-2.487-.1-.088a1.627,1.627,0,0,1,.8-2.687l18.208-4.4a1.639,1.639,0,0,1,1.548.454l5.472,5.77a1.236,1.236,0,0,1,.144.177,1.619,1.619,0,0,1-.929,2.51l-6.9,1.669-11.31,2.731a1.612,1.612,0,0,1-1.547-.454l-3.715-3.913L834,390.656l1.79,1.891a2.159,2.159,0,0,1-1.05,3.581l-8.081,1.979,5.108,7.672a48.1,48.1,0,0,0,33.839,21.082,46.385,46.385,0,0,0,6.566.42,48.231,48.231,0,0,0,36.969-17.654,45.306,45.306,0,0,0,2.719-3.649,49.453,49.453,0,0,0,2.554-4.278,47.988,47.988,0,0,0,5.5-19.2c-1.15-2.023-3.261-5.638-6.589-10.945Zm-53.4,4.554a14.059,14.059,0,0,1-3,1.5,15.845,15.845,0,0,1-16.129-3.825,17.774,17.774,0,0,1-2.6-3.1c-5.063-7.606-3.548-17.522,3.394-22.132s16.66-2.178,21.723,5.428S866.8,371.376,859.869,375.986ZM836.72,397.731a.8.8,0,0,1-.044-.784.67.67,0,0,1,.254-.277.766.766,0,0,1,1.061.21,8.189,8.189,0,0,0,11.354,2.278.763.763,0,0,1,.984,1.149.769.769,0,0,1-.144.122A9.716,9.716,0,0,1,836.72,397.731ZM854.3,417.243a16.238,16.238,0,0,1-3.371.233c-3.217-.089-5.66-1.172-5.948-2.864-.32-1.923,2.233-4.024,5.97-5.074a17.321,17.321,0,0,1,1.99-.453c4.765-.8,8.943.376,9.319,2.631S859.073,416.448,854.3,417.243Z" transform="translate(-561 -30.471)"/><path class="coverPage-22" d="M862.257,411.716c-.376-2.255-4.554-3.427-9.319-2.631a17.321,17.321,0,0,0-1.99.453c-3.737,1.05-6.29,3.151-5.97,5.074.288,1.692,2.731,2.775,5.948,2.864a16.238,16.238,0,0,0,3.371-.233C859.073,416.448,862.633,413.971,862.257,411.716Z" transform="translate(-561 -30.471)"/><path class="coverPage-18" d="M903.691,572.4c-18.727-.962-31-10.171-38.991-22.564a77.76,77.76,0,0,1-8.379-18.141,113.783,113.783,0,0,1-3.262-12.647c-1-5.008-1.68-9.949-2.133-14.6V526.6q-1.593,5.372-3.151,9.839c-1.459,4.234-2.9,7.882-4.3,11.021l7.451,4.356,5.063,2.963,1.006-.564c.21.509.442,1.028.674,1.548l24.509,14.349a4.88,4.88,0,0,1-.022,8.435l-8.214,4.754a101.351,101.351,0,0,0,7.5,8.523,38.015,38.015,0,0,0,8.081-3.958,51.738,51.738,0,0,0,14.869-15.432ZM850.34,535.012l.586-.32V537.2C850.638,536.206,850.45,535.455,850.34,535.012Z" transform="translate(-561 -30.471)"/><path class="coverPage-22" d="M850.4,399.379a.749.749,0,0,1-.066.928.769.769,0,0,1-.144.122,9.716,9.716,0,0,1-13.465-2.7.8.8,0,0,1-.044-.784.677.677,0,0,1,.254-.277.766.766,0,0,1,1.061.21,8.189,8.189,0,0,0,11.354,2.278A.755.755,0,0,1,850.4,399.379Z" transform="translate(-561 -30.471)"/><path class="coverPage-11" d="M842.878,493c-5.959,27.03-11.077,41.5-14.681,49.195l.663-.387a4.878,4.878,0,0,1,4.953-.011l2.1,1.227h0l7.562,4.433c1.4-3.139,2.841-6.787,4.3-11.021h0q1.558-4.478,3.151-9.839V450.972C849.19,461.386,846.4,477.04,842.878,493Z" transform="translate(-561 -30.471)"/><polygon class="coverPage-23" points="281.712 355.941 283.381 357.709 273.001 360.186 271.32 358.428 281.712 355.941"/><path class="coverPage-24" d="M868.78,385.637a1.236,1.236,0,0,0-.144-.177l-5.472-5.77a1.639,1.639,0,0,0-1.548-.454l-18.208,4.4a1.627,1.627,0,0,0-.8,2.687l.1.088,1.669,1.769,3.715,3.913a1.612,1.612,0,0,0,1.547.454l11.31-2.731,6.9-1.669A1.619,1.619,0,0,0,868.78,385.637Z" transform="translate(-561 -30.471)"/><path class="coverPage-24" d="M834,390.656,832.32,388.9l-1.149-1.216a2.17,2.17,0,0,0-2.079-.608l-8.4,2.057-9.629,2.354A2.161,2.161,0,0,0,810,395.067l4.621,4.864a2.147,2.147,0,0,0,2.078.619l9.961-2.443,8.081-1.979a2.159,2.159,0,0,0,1.05-3.581Z" transform="translate(-561 -30.471)"/><path class="coverPage-15" d="M828.561,365.838c4.168,6.268,3.284,14.172-1.967,17.677a9.714,9.714,0,0,1-2.687,1.238,5.831,5.831,0,0,0-8.578-7.186,5.981,5.981,0,0,0-1.438,1.349,5.819,5.819,0,0,0-1.149,3.128,31.8,31.8,0,0,1-3.217-3.548,14.65,14.65,0,0,1-2.488-5.926,13.142,13.142,0,0,1-.077-4.256c.232.409.475.807.73,1.216-.233-.508-.465-1.017-.675-1.526a10.619,10.619,0,0,1,4.489-7.185C816.755,357.325,824.394,359.57,828.561,365.838Z" transform="translate(-561 -30.471)"/><path class="coverPage-12" d="M823.421,379.192a5.826,5.826,0,0,1,.486,5.561,11.05,11.05,0,0,1-6.168-.067,14.125,14.125,0,0,1-5-2.631v-.011a5.819,5.819,0,0,1,1.149-3.128,5.981,5.981,0,0,1,1.438-1.349A5.828,5.828,0,0,1,823.421,379.192Z" transform="translate(-561 -30.471)"/><path class="coverPage-25" d="M960.182,355.059c-23.812,19.147-25.813-18.893-25.968-23.8l-.221.011c.332,9-2.056,20.142-4.864,29.892,6.931,6.346,17.036,7.684,24.619,2.643a18.461,18.461,0,0,0,6.91-8.557Z" transform="translate(-561 -30.471)"/><path class="coverPage-25" d="M855.525,266.663c-48.244,5.981-62.561,21.955-65.148,35.951l.166.033s78.126-67.336,141.869,18.23C927.692,300.967,910.192,259.886,855.525,266.663Z" transform="translate(-561 -30.471)"/><path class="coverPage-25" d="M806.96,368.314a48.281,48.281,0,0,1-3.737-39.842l-7.55-1.526h-.011c-.465.564-18.44,22.707,11.375,45.624A13.142,13.142,0,0,1,806.96,368.314Z" transform="translate(-561 -30.471)"/><polygon class="coverPage-4" points="301.091 534.457 289.926 527.912 289.296 527.536 279.987 522.086 270.347 516.448 255.556 525.16 202.094 556.666 213.547 563.543 219.494 567.113 247.718 584.05 266.876 572.961 269.551 571.414 287.737 560.878 292.247 558.269 309.548 548.253 317.154 543.854 301.091 534.457"/><path class="coverPage-7" d="M882.178,570.112l-24.509-14.349-1.68-.984-5.063-2.963-7.451-4.356-7.562-4.433-2.1-1.227a4.878,4.878,0,0,0-4.953.011l-.663.387-69.116,40.727a4.883,4.883,0,0,0-.033,8.4l4.477,2.686,11.3,6.777L806.2,619.616a4.871,4.871,0,0,0,4.964.034L829.557,609l7.716-4.478h.011l18.86-10.922q-.216-.282-.4-.564c.343.067.7.133,1.05.188l17.146-9.927,8.214-4.754A4.88,4.88,0,0,0,882.178,570.112Zm-11.63,8.612-17.3,10.016-4.51,2.609-18.186,10.535-2.675,1.548L808.718,614.52l-28.224-16.936-5.947-3.571-11.453-6.876,53.462-31.507,14.791-8.711,9.64,5.638,9.309,5.45.63-.354v.73l11.165,6.544,16.063,9.4Z" transform="translate(-561 -30.471)"/><path class="coverPage-18" d="M771.683,796.585h35.332a18.263,18.263,0,0,0,3.936-.464,17.076,17.076,0,0,0,13.056-16.539l.1-2.819c-65.943.586-96.83-104.06-103.508-130.161v132.98A17.049,17.049,0,0,0,736.33,796.53a12.149,12.149,0,0,0,1.271.055h34.082" transform="translate(-561 -30.471)"/><path class="coverPage-5" d="M810.951,796.121a14.7,14.7,0,0,1-1.714.309c-1.99,2.311-10.646,10.978-48.045,43.391l-.166.155a13.322,13.322,0,0,0,18.374.674l29.815-26.631A13.3,13.3,0,0,0,810.951,796.121Z" transform="translate(-561 -30.471)"/><path class="coverPage-5" d="M767.858,796.585c-5.383,5.229-16.615,16.074-38.427,36.88a13.325,13.325,0,0,0,17.113-.476l4.82-4.3a13.32,13.32,0,0,1,2.72-16.395l17.6-15.709Z" transform="translate(-561 -30.471)"/><path class="coverPage-3" d="M807.015,796.585H771.683l-17.6,15.709a13.32,13.32,0,0,0-2.72,16.395,12.517,12.517,0,0,0,1.659,2.343l7.639,8.557c.121.133.243.265.364.387l.166-.155c37.4-32.413,46.055-41.08,48.045-43.391A14.743,14.743,0,0,1,807.015,796.585Z" transform="translate(-561 -30.471)"/><path class="coverPage-3" d="M737.6,796.585a12.149,12.149,0,0,1-1.271-.055l-12.426,11.1a13.289,13.289,0,0,0-1.062,18.727l4.964,5.572a14.241,14.241,0,0,0,1.625,1.537c21.812-20.806,33.044-31.651,38.427-36.88Z" transform="translate(-561 -30.471)"/><path class="coverPage-17" d="M881.438,591.824a101.351,101.351,0,0,1-7.5-8.523L856.8,593.228C865.972,594.842,874.208,594.378,881.438,591.824Z" transform="translate(-561 -30.471)"/><path class="coverPage-17" d="M937.42,615.327a74.194,74.194,0,0,1-41.036-11.4h-2.565a56.5,56.5,0,0,1-26.665,6.357q-13.861,0-29.87-5.76h-.011L829.557,609l-18.4,10.646a4.871,4.871,0,0,1-4.964-.034L774.823,600.79l-11.3-6.777-4.477-2.686a4.868,4.868,0,0,1-2.377-4.256l-17.113,9.518a34.41,34.41,0,0,0-14.1,15.51A35.729,35.729,0,0,0,720.6,630.13V646.6c6.678,26.1,37.565,130.747,103.508,130.161L826,720.306l1.16-34.514-.674-.376.708-.453Z" transform="translate(-561 -30.471)"/></g></g><g id="coverPageDesk"><path class="coverPage-13" d="M938.259,387.569a10.84,10.84,0,0,0-6.84-9.97l-21.593-12.515a11.051,11.051,0,0,0-13.918-2.423l-34.171,19.447-48.379,27.535-13.692,7.8-24.381,13.877-14.109,8.029-27.453,15.628-4.591,2.608a10.886,10.886,0,0,0-5.466,8.342,10.419,10.419,0,0,0-.058,1.049l-.522,98.346a10.882,10.882,0,0,0,8.231,10.608L753.7,589.114a11.039,11.039,0,0,0,12.9,1.3l167.234-96.573a10.882,10.882,0,0,0,5.46-9.53Z" transform="translate(-561 -30.471)"/><g id="_Group_4" data-name="&lt;Group&gt;"><path class="coverPage-7" d="M938.259,387.569a10.84,10.84,0,0,0-6.84-9.97,10.97,10.97,0,0,0-9.687.655l-9.326,5.344L760.422,470.705l-4.353,2.492a10.886,10.886,0,0,0-5.46,8.6c-.024.261-.035.516-.035.777l-.458,86.161-.064,12.208a10.688,10.688,0,0,0,3.652,8.168,11.037,11.037,0,0,0,12.9,1.3l167.235-96.573a10.882,10.882,0,0,0,5.46-9.529Z" transform="translate(-561 -30.471)"/><path class="coverPage-13" d="M909.826,365.084a11.052,11.052,0,0,0-13.918-2.423l-34.171,19.447-48.379,27.535-13.692,7.8-24.381,13.877-14.109,8.029-27.453,15.628,26.7,15.732L912.406,383.6l9.326-5.344a10.97,10.97,0,0,1,9.687-.655Z" transform="translate(-561 -30.471)"/><path class="coverPage-16" d="M760.422,470.705l-4.353,2.493a10.883,10.883,0,0,0-5.46,8.6l-26.943-15.877a10.886,10.886,0,0,1,5.466-8.342l4.591-2.608Z" transform="translate(-561 -30.471)"/><path class="coverPage-13" d="M750.052,580.946l.064-12.208.458-86.161c0-.261.011-.516.035-.777l-26.943-15.877a10.419,10.419,0,0,0-.058,1.049l-.522,98.346a10.882,10.882,0,0,0,8.231,10.608L753.7,589.114A10.688,10.688,0,0,1,750.052,580.946Z" transform="translate(-561 -30.471)"/></g><path class="coverPage-9" d="M1209.671,589.9l-64.3-37.243V470.461l-5.8-2.9-70.906,40.658-15.778-9.141a16.715,16.715,0,0,0-16.758.011L809.8,630.444a16.608,16.608,0,0,0-8.168,16.683v15.784l.707.052a16.467,16.467,0,0,0,7.507,9.153L966.6,762.44c.081.047.156.093.237.133h0a16.7,16.7,0,0,0,16.231-.018h0c.075-.04.157-.081.232-.127l226.36-130.866a16.464,16.464,0,0,0,7.965-10.91h.209V606.736A16.62,16.62,0,0,0,1209.671,589.9ZM901.774,665.5Zm-.643-2.951a3.747,3.747,0,0,1,.48.924A3.747,3.747,0,0,0,901.131,662.551Zm73.212,29.581h0L849.164,621.755Zm-160.916-46.6v2.266A3.871,3.871,0,0,1,813.427,645.527Zm58.425,49.567,23.685-14.213-23.685,14.213Zm95,54.738h0a16.633,16.633,0,0,0,2.933,1.274A16.633,16.633,0,0,1,966.854,749.832Zm7.052,2.056c.348.022.7.032,1.045.032C974.6,751.92,974.254,751.91,973.906,751.888Z" transform="translate(-561 -30.471)"/><g id="_Group_5" data-name="&lt;Group&gt;"><path class="coverPage-5" d="M875.191,682.545v5.431a4.391,4.391,0,0,1-3.774-.284l-.133-.075v-5.472l.417.237A3.825,3.825,0,0,0,875.191,682.545Z" transform="translate(-561 -30.471)"/><path class="coverPage-2" d="M871.284,682.145v5.472l-57.857-33.389v-6.435a3.76,3.76,0,0,0,1.757,2.2Z" transform="translate(-561 -30.471)"/><path class="coverPage-2" d="M901.774,665.5v6.98l-25.951,15.187a3.955,3.955,0,0,1-.632.307v-5.431a3.005,3.005,0,0,0,.353-.18l24.393-14.283a3.781,3.781,0,0,0,1.832-2.58Z" transform="translate(-561 -30.471)"/><path class="coverPage-3" d="M900.383,661.769a3.835,3.835,0,0,1,1.386,3.733,3.781,3.781,0,0,1-1.832,2.58l-24.393,14.283a3.005,3.005,0,0,1-.353.18,3.825,3.825,0,0,1-3.49-.163l-.417-.237-56.1-32.155a3.76,3.76,0,0,1-1.757-2.2v-2.266a3.808,3.808,0,0,1,1.693-2.151l23.755-14.254a3.846,3.846,0,0,1,3.86-.046l.273.157,56.883,32.206A3.672,3.672,0,0,1,900.383,661.769Zm-1.687,3.148a.7.7,0,0,0-.347-.754l-57.156-32.368a.718.718,0,0,0-.347-.087.7.7,0,0,0-.36.1L816.731,646.06a.653.653,0,0,0-.342.609.663.663,0,0,0,.354.6l56.512,32.4a.765.765,0,0,0,.353.093.716.716,0,0,0,.354-.1l24.4-14.278A.673.673,0,0,0,898.7,664.917Z" transform="translate(-561 -30.471)"/><path class="coverPage-4" d="M898.349,664.163a.7.7,0,0,1,.347.754.673.673,0,0,1-.336.469l-24.4,14.278a.716.716,0,0,1-.354.1.765.765,0,0,1-.353-.093l-56.512-32.4a.663.663,0,0,1-.354-.6.653.653,0,0,1,.342-.609l23.755-14.254a.7.7,0,0,1,.36-.1.718.718,0,0,1,.347.087Z" transform="translate(-561 -30.471)"/><path class="coverPage-19" d="M983.067,749.861v12.7a16.7,16.7,0,0,1-16.231.018V749.861l.018-.029a16.7,16.7,0,0,0,16.19-.011Z" transform="translate(-561 -30.471)"/><path class="coverPage-7" d="M871.852,695.094l-6.394-3.686-55.613-32.044a17.258,17.258,0,0,1-2.411-1.676,16.438,16.438,0,0,1-5.8-10.561v15.784l.707.052a16.467,16.467,0,0,0,7.507,9.153L966.6,762.44c.081.047.156.093.237.134V749.861l.018-.029c-.087-.046-.168-.1-.255-.144Z" transform="translate(-561 -30.471)"/><path class="coverPage-7" d="M1209.659,618.81,983.3,749.676c-.087.046-.168.1-.255.145l.023.04v12.7c.075-.04.157-.081.232-.127l226.36-130.866a16.464,16.464,0,0,0,7.965-10.91h.209V606.736A16.5,16.5,0,0,1,1209.659,618.81Z" transform="translate(-561 -30.471)"/><polygon class="coverPage-3" points="413.343 661.662 413.268 644.73 412.932 565.193 412.879 553.316 412.804 534.767 412.792 532.158 418.589 535.056 418.589 673.017 413.65 669.18 413.372 668.96 413.343 661.662"/><polygon class="coverPage-3" points="413.372 668.96 413.65 669.18 413.372 669.539 288.164 597.081 288.164 591.284 413.343 661.662 413.372 668.96"/><polygon class="coverPage-5" points="465.038 502.201 507.672 477.75 513.075 480.875 418.589 535.056 412.792 532.158 465.038 502.201"/><polygon class="coverPage-2" points="344.392 605.776 411.633 565.199 412.932 565.193 412.879 553.316 386.707 568.677 361.202 554.765 402.938 529.839 412.213 534.767 412.804 534.767 412.792 532.158 465.038 502.201 453.369 495.639 288.164 591.284 413.343 661.662 413.268 644.73 344.392 605.776"/><path class="coverPage-2" d="M1074.075,511.345l-94.486,54.182V703.488l165.321-96.532.464-.273V470.461Zm0,82.006-23.766,13.912v-28.4l23.766-13.912Z" transform="translate(-561 -30.471)"/><polygon class="coverPage-5" points="584.374 439.991 513.075 480.875 507.672 477.75 578.577 437.093 584.374 439.991"/><polygon class="coverPage-5" points="411.633 565.199 344.392 605.776 413.268 644.73 412.932 565.193 411.633 565.199"/><polygon class="coverPage-5" points="412.879 553.316 412.804 534.767 412.213 534.767 402.938 529.839 361.202 554.765 386.707 568.677 412.879 553.316"/><polygon class="coverPage-5" points="489.309 548.389 489.309 576.793 513.075 562.881 513.075 534.477 489.309 548.389"/><path class="coverPage-19" d="M1209.671,589.9l-64.3-37.243v54.03l-.464.273-4.463,14.509L984.516,713.632l-84.133-51.863a3.835,3.835,0,0,1,1.386,3.733h0v7.82l-6.237,7.559-23.685,14.213L966.6,749.688c.087.046.168.1.255.144a16.7,16.7,0,0,0,16.19-.011c.087-.047.168-.1.255-.145l226.36-130.866a16.7,16.7,0,0,0,.012-28.914Z" transform="translate(-561 -30.471)"/><path class="coverPage-19" d="M1026.038,532.671l42.634-24.45-15.778-9.141a16.715,16.715,0,0,0-16.758.011L809.8,630.444a16.608,16.608,0,0,0-8.168,16.683,16.438,16.438,0,0,0,5.8,10.561l.863-.284,5.13-2.846v-6.765a3.871,3.871,0,0,1,0-2.266,3.808,3.808,0,0,1,1.693-2.151l23.755-14.254a3.846,3.846,0,0,1,3.86-.046l.273.157,6.156-1.682v-5.8l165.205-95.645Z" transform="translate(-561 -30.471)"/><path class="coverPage-7" d="M875.191,687.976a3.955,3.955,0,0,0,.632-.307l25.951-15.187v.84l-6.237,7.559-23.685,14.213-6.394-3.686,5.826-3.235v-.556l.133.075A4.391,4.391,0,0,0,875.191,687.976Z" transform="translate(-561 -30.471)"/><path class="coverPage-7" d="M979.589,703.488l-4.939-3.837-.278.359L849.164,627.551l-6.156,1.682,56.883,32.206a3.672,3.672,0,0,1,.492.33l84.133,51.863,155.931-92.167,4.463-14.509Z" transform="translate(-561 -30.471)"/><path class="coverPage-7" d="M813.427,654.558,808.3,657.4l-.863.284a17.258,17.258,0,0,0,2.411,1.676l55.613,32.044,5.826-3.235v-.556l-57.857-33.389Z" transform="translate(-561 -30.471)"/></g><g id="characterDesk"><path class="coverPage-2" d="M955.274,631.042c-27.128-2.806-48.356-14.776-63.375-35.679q-2.94-4.091-5.556-8.649l63.674-35.684,6.55-5.24v-42.4s0-8.649-16.069-29.633c28.781,2.945,32.3-23.7,32.3-23.7s-20.973,6.956-20.973-13.831l-.075-.006c.121-1.455.179-2.933.179-4.423V406.617a15.644,15.644,0,0,0,6.684-8.851c0-.006.006-.018.006-.023.023-.105.127-.6.261-1.3a31.1,31.1,0,0,0,.585-4.347,17.432,17.432,0,0,0-1.582-7.826l.046-.023c0-37.406-18.752-53.016-18.752-53.016s.539-45.852-51.95-37.128h0c-12.486,2.069-27.969,7.234-47.174,16.839-67.241,33.621-43.475,96.225-34.78,110.717a116.678,116.678,0,0,1,8.313,16.016h0c3.489,8.689,5.1,18.051-1.357,22.822-13.332,9.854-19.129,0-19.129,0s-9.854,18.549,4.058,30.722c5.368,4.695,10.266,6.77,14.544,7.315a99.437,99.437,0,0,0-12.225,47.916l3.478,89.106,56.823-32.393q2.652,4.534,5.561,8.749c20.195,29.168,49.712,46.356,86.724,50.187.545.052,1.089.081,1.623.081a15.611,15.611,0,0,0,1.588-31.139ZM836.993,515.624q-.753-.874-1.407-1.786.656.909,1.407,1.786a26.648,26.648,0,0,0,4.7,4.307A26.648,26.648,0,0,1,836.993,515.624Zm28.114-5.408h0a15.519,15.519,0,0,0-1.144-1.468,15.519,15.519,0,0,1,1.144,1.468c9.853.124,17.21-2.649,22.651-6.444C882.317,507.567,874.96,510.34,865.107,510.216ZM900.4,483.8c1.075-.05,1.678-.12,1.678-.12h0s-.6.07-1.678.12c-.614.028-1.382.05-2.279.05C899.018,483.854,899.786,483.832,900.4,483.8Zm-26.713,72.055c.705,2.544,1.489,5.142,2.375,7.779h0C875.176,561,874.392,558.4,873.687,555.859Zm3.019-32.746h0l10.3,33.609Zm24.45-36.681a40.224,40.224,0,0,1-5.392,9.608,36.185,36.185,0,0,1-6.784,6.839,36.185,36.185,0,0,0,6.784-6.839,40.224,40.224,0,0,0,5.392-9.608,26.283,26.283,0,0,0,.916-2.719c-.029.186-.2,1.154-.568,2.7C901.388,486.42,901.272,486.432,901.156,486.432Zm29.431-11.264c1.066-.819,2.111-1.666,3.112-2.567C932.7,473.5,931.653,474.349,930.587,475.168Zm22.649-96.738a14.33,14.33,0,0,1,1.334,1.127A14.33,14.33,0,0,0,953.236,378.43Zm-4.228-2.128a12.1,12.1,0,0,1,1.5.528,12.548,12.548,0,0,1,1.423.717c.114.066.221.143.333.213-.112-.07-.219-.147-.333-.213a12.548,12.548,0,0,0-1.423-.717,12.1,12.1,0,0,0-1.5-.528,11.779,11.779,0,0,0-2.357-.408A11.779,11.779,0,0,1,949.008,376.3ZM944.4,375.9l.012.058a11.654,11.654,0,0,1,1.432-.087h0a11.654,11.654,0,0,0-1.432.087l-.012-.058a46.576,46.576,0,0,0-1.337-11A46.576,46.576,0,0,1,944.4,375.9Zm-1.777-12.686q-.465-1.659-1.018-3.221C941.97,361.029,942.312,362.1,942.622,363.209Zm-2.184-6.239q-.614-1.457-1.272-2.805Q939.821,355.512,940.438,356.97Zm-9.585-15.43a53.379,53.379,0,0,1,3.636,4.669c.85,1.219,1.756,2.616,2.662,4.177.453.78.906,1.6,1.352,2.461-.446-.86-.9-1.681-1.352-2.461-.906-1.561-1.812-2.958-2.662-4.177a53.379,53.379,0,0,0-3.636-4.669c-.6-.679-.951-1.034-.951-1.034h0S930.256,340.861,930.853,341.54ZM822.216,491.818q1.717-.048,3.567-.2Q823.933,491.77,822.216,491.818Zm7.4-.6q-.993.127-1.952.227.96-.1,1.952-.227Zm0,4.844c.035.533.084,1.1.148,1.695C829.7,497.164,829.65,496.6,829.615,496.064Zm13.876,10.042q1.553.529,3.054.984-1.5-.456-3.054-.984a118.033,118.033,0,0,1-13.315-5.5A118.033,118.033,0,0,0,843.491,506.106Zm3.006,16.61q-.7-.324-1.367-.672Q845.795,522.392,846.5,522.716Zm4.222,62.19q1.815,4.353,3.83,8.465C853.5,591.427,852.451,589.063,850.719,584.906Z" transform="translate(-561 -30.471)"/><g id="_Group_6" data-name="&lt;Group&gt;"><path class="coverPage-5" d="M830.176,500.611A33.379,33.379,0,0,0,834.367,512c-6.684,16.741.469,55.741.469,55.741a44.413,44.413,0,0,0,10.365,1.925c1.542,4.973,3.368,10.086,5.518,15.245,4.128,9.906,4.377,9.64,9.982,17.732l-57.746,32.919-3.478-89.106A99.437,99.437,0,0,1,811.7,498.535c11.037,1.421,17.917-7.315,17.917-7.315A36.845,36.845,0,0,0,830.176,500.611Z" transform="translate(-561 -30.471)"/><path class="coverPage-5" d="M876.706,523.113l10.3,33.609a64.938,64.938,0,0,1-10.945,6.916,167.219,167.219,0,0,1-7.819-37.916A30.943,30.943,0,0,0,876.706,523.113Z" transform="translate(-561 -30.471)"/><path class="coverPage-26" d="M868.243,525.722a35.13,35.13,0,0,1-8.481.278c-11.228-.939-18.312-5.165-22.769-10.376A27.11,27.11,0,0,1,834.367,512c-6.684,16.741.469,55.741.469,55.741a44.413,44.413,0,0,0,10.365,1.925,57.923,57.923,0,0,0,13.686-.516,58.746,58.746,0,0,0,17.175-5.507A167.219,167.219,0,0,1,868.243,525.722Z" transform="translate(-561 -30.471)"/><path class="coverPage-26" d="M940.5,473.76a53.523,53.523,0,0,1-6.793-1.153l-.006-.006a51.385,51.385,0,0,1-4.382,3.536A54.383,54.383,0,0,1,901.5,486.409c-1.78,7.559-8.144,28.792-24.8,36.7l10.3,33.609a64.938,64.938,0,0,1-10.945,6.916c1.113,3.316,2.377,6.683,3.809,10.057,3.426,8.052,1.1,7.072,5.686,13.46l64.459-36.125,6.551-5.24v-42.4S956.567,494.744,940.5,473.76Z" transform="translate(-561 -30.471)"/><path class="coverPage-27" d="M943.234,451.8c0,3.362-5.959,9.274-11.883,9.274s-10.724-2.724-10.724-6.086,4.8-6.087,10.724-6.087S943.234,448.44,943.234,451.8Z" transform="translate(-561 -30.471)"/><path class="coverPage-12" d="M941.611,424.471a11.5,11.5,0,0,1-11.483,11.483.82.82,0,1,1,0-1.64,9.856,9.856,0,0,0,9.843-9.843.82.82,0,1,1,1.64,0Z" transform="translate(-561 -30.471)"/><path class="coverPage-15" d="M922.1,401.829c-.07.487-.163.963-.273,1.438a10.246,10.246,0,0,0-7.866-3.635,10,10,0,0,0-10.144,9.855,9.764,9.764,0,0,0,4.539,8.208,16.573,16.573,0,0,1-3.959.487c-9.571,0-17.39-8.2-17.941-18.55-.017-.382-.029-.771-.029-1.159,0-10.886,8.046-19.709,17.97-19.709s17.969,8.823,17.969,19.709A20.719,20.719,0,0,1,922.1,401.829Z" transform="translate(-561 -30.471)"/><path class="coverPage-15" d="M958.88,396.444c-.134.7-.238,1.194-.261,1.3a6.925,6.925,0,0,0-6.69-2.649V377.547a14.991,14.991,0,0,1,5.954,6.724,17.446,17.446,0,0,1,1.582,7.826A31.1,31.1,0,0,1,958.88,396.444Z" transform="translate(-561 -30.471)"/><path class="coverPage-15" d="M946.133,401.951a6.943,6.943,0,0,0,3.188,5.843,11.621,11.621,0,0,1-3.478.533c-7.031,0-12.817-6.347-13.547-14.5-.052-.568-.075-1.148-.075-1.733,0-8.388,5.338-15.286,12.19-16.144a11.654,11.654,0,0,1,1.432-.087,12.016,12.016,0,0,1,6.086,1.681v17.547A6.949,6.949,0,0,0,946.133,401.951Z" transform="translate(-561 -30.471)"/><path class="coverPage-12" d="M951.929,395.094v11.523a11.819,11.819,0,0,1-2.608,1.177,6.952,6.952,0,0,1,2.608-12.7Z" transform="translate(-561 -30.471)"/><path class="coverPage-12" d="M951.929,395.094a6.925,6.925,0,0,1,6.69,2.649s-.006.017-.006.023a15.644,15.644,0,0,1-6.684,8.851Z" transform="translate(-561 -30.471)"/><path class="coverPage-12" d="M913.961,399.632a10.246,10.246,0,0,1,7.866,3.635c-1.634,7.182-6.869,12.8-13.471,14.428a9.764,9.764,0,0,1-4.539-8.208A10,10,0,0,1,913.961,399.632Z" transform="translate(-561 -30.471)"/><path class="coverPage-8" d="M815.847,491.643a63.787,63.787,0,0,0,13.772-.423s-6.88,8.736-17.917,7.315Q813.642,495,815.847,491.643Z" transform="translate(-561 -30.471)"/><path class="coverPage-8" d="M793.1,460.5s-6.776,28.461,22.747,31.145q-2.2,3.357-4.145,6.892c-4.278-.545-9.176-2.62-14.544-7.315C783.246,479.047,793.1,460.5,793.1,460.5Z" transform="translate(-561 -30.471)"/><path class="coverPage-8" d="M834.367,512a33.379,33.379,0,0,1-4.191-11.384,117.957,117.957,0,0,0,13.315,5.5,15.623,15.623,0,0,0-6.5,9.518A27.11,27.11,0,0,1,834.367,512Z" transform="translate(-561 -30.471)"/><path class="coverPage-8" d="M867.837,518.94c.006.139.041,2.631.406,6.782a35.13,35.13,0,0,1-8.481.278c-11.228-.939-18.312-5.165-22.769-10.376a15.623,15.623,0,0,1,6.5-9.518,69.918,69.918,0,0,0,21.616,4.11A15.549,15.549,0,0,1,867.837,518.94Z" transform="translate(-561 -30.471)"/><path class="coverPage-8" d="M876.706,523.113a30.943,30.943,0,0,1-8.463,2.609c-.365-4.151-.4-6.643-.406-6.782a15.549,15.549,0,0,0-2.73-8.724c24.253.307,33.383-16.944,36.049-23.784.116,0,.232-.012.348-.023C899.724,493.968,893.36,515.2,876.706,523.113Z" transform="translate(-561 -30.471)"/><path class="coverPage-8" d="M940.5,473.76a53.523,53.523,0,0,1-6.793-1.153l-.006-.006a54.6,54.6,0,0,0,18.051-36.374l.075.006c0,20.787,20.972,13.831,20.972,13.831S969.279,476.705,940.5,473.76Z" transform="translate(-561 -30.471)"/><path class="coverPage-8" d="M887.227,294.1c-20.19,8.376-101.506,48.6-73.641,143.572a116.678,116.678,0,0,0-8.313-16.016c-8.7-14.492-32.461-77.1,34.78-110.717C859.258,301.338,874.741,296.173,887.227,294.1Z" transform="translate(-561 -30.471)"/><path class="coverPage-12" d="M939.177,331.232s.539-45.852-51.95-37.128c-20.19,8.376-101.506,48.6-73.641,143.572,3.489,8.689,5.1,18.051-1.357,22.822-13.332,9.854-19.129,0-19.129,0s-6.776,28.461,22.747,31.145a63.787,63.787,0,0,0,13.772-.423,36.845,36.845,0,0,0,.557,9.391,118.033,118.033,0,0,0,13.315,5.5,69.918,69.918,0,0,0,21.616,4.11,15.7,15.7,0,0,0-5.5-4.928,15.7,15.7,0,0,1,5.5,4.928c24.253.307,33.383-16.944,36.049-23.784a26.283,26.283,0,0,0,.916-2.719.1.1,0,0,0,.006-.029s-50.431,5.8-50.431-50.431S929.9,340.506,929.9,340.506s14.5,14.55,14.5,35.389l.012.058a11.654,11.654,0,0,1,1.432-.087,12.016,12.016,0,0,1,6.086,1.681,14.991,14.991,0,0,1,5.954,6.724l.046-.023C957.929,346.842,939.177,331.232,939.177,331.232Z" transform="translate(-561 -30.471)"/><path class="coverPage-14" d="M875.193,605.768a118.717,118.717,0,0,1-16.3-36.583l-.006-.04a57.923,57.923,0,0,1-13.686.516c1.542,4.973,3.368,10.086,5.518,15.245a145.688,145.688,0,0,0,14.62,27.007c20.195,29.168,49.712,46.356,86.724,50.187.545.052,1.089.081,1.623.081a15.621,15.621,0,0,0,14.631-10.208C918.442,653.707,890.38,628.735,875.193,605.768Z" transform="translate(-561 -30.471)"/><path class="coverPage-14" d="M951.929,406.617v5.994a17.319,17.319,0,0,1-6.956,1.223c-6.741,0-12.752-5.883-12.752-20l.075-.006c.73,8.15,6.516,14.5,13.547,14.5a11.621,11.621,0,0,0,3.478-.533A11.819,11.819,0,0,0,951.929,406.617Z" transform="translate(-561 -30.471)"/><path class="coverPage-14" d="M921.827,403.267c.11-.475.2-.951.273-1.438-.163,12.707-5.142,22.764-15.964,23.987-12.023,1.356-19.709-4.156-19.709-26.184h.029c.551,10.347,8.37,18.55,17.941,18.55a16.573,16.573,0,0,0,3.959-.487C914.958,416.066,920.193,410.449,921.827,403.267Z" transform="translate(-561 -30.471)"/><path class="coverPage-11" d="M955.274,631.042c-27.128-2.806-48.356-14.776-63.375-35.679A112.366,112.366,0,0,1,879.871,573.7c-1.432-3.374-2.7-6.741-3.809-10.057a58.746,58.746,0,0,1-17.175,5.507l.006.04a118.717,118.717,0,0,0,16.3,36.583c15.187,22.967,43.249,47.939,93.124,46.2a15.614,15.614,0,0,0-13.043-20.931Z" transform="translate(-561 -30.471)"/><path class="coverPage-11" d="M929.317,476.137A54.383,54.383,0,0,1,901.5,486.409c.365-1.542.539-2.51.568-2.7a.1.1,0,0,0,.006-.029s-50.431,5.8-50.431-50.431S929.9,340.506,929.9,340.506s14.5,14.55,14.5,35.389l.011.058c-6.852.858-12.19,7.756-12.19,16.144,0,.585.023,1.165.075,1.733l-.075.006c0,14.115,6.011,20,12.752,20a17.319,17.319,0,0,0,6.956-1.223V431.8c0,1.49-.058,2.968-.179,4.423A54.6,54.6,0,0,1,933.7,472.6,51.385,51.385,0,0,1,929.317,476.137Zm12.294-51.666a.82.82,0,1,0-1.64,0,9.856,9.856,0,0,1-9.843,9.843.82.82,0,1,0,0,1.64A11.5,11.5,0,0,0,941.611,424.471Zm-10.26,36.606c5.924,0,11.883-5.912,11.883-9.274s-5.959-2.9-11.883-2.9-10.724,2.725-10.724,6.087S925.427,461.077,931.351,461.077ZM922.1,401.829a20.719,20.719,0,0,0,.266-3.356c0-10.886-8.045-19.709-17.969-19.709s-17.97,8.823-17.97,19.709c0,.388.012.777.029,1.159h-.029c0,22.028,7.686,27.54,19.709,26.184C916.958,424.593,921.937,414.536,922.1,401.829Z" transform="translate(-561 -30.471)"/></g></g></g></svg>