<svg xmlns="http://www.w3.org/2000/svg" viewBox="0 0 377.5 612.428"><defs></defs><title>svg-frame7</title><g id="Line"><g id="_Group_" data-name="&lt;Group&gt;"><path class="frame7-1" d="M326.02,315.418a51.484,51.484,0,0,0,45.29-75.96c-.09.34-.18.68-.28,1.01a26.832,26.832,0,0,1-25.7,19.18c-14.81,0-27.65-9.5-20.38-35.39C368.92,67.678,257.39,39.8,257.39,39.8,230.43-41.062-18.23-3.1,48.26,194.228c16.89,50.14-15.01,60.06-25.74,60.06a29.909,29.909,0,0,1-21.97-9.57,50.4,50.4,0,0,0,23.44,50.35A74.048,74.048,0,0,0,40.71,386.5,115.7,115.7,0,0,0,24,446.558V471.6l-.35.93c5.22,2,10.97,3.9,17.21,5.67l5.64,134.23H314.17l2.63-132.77q7.095-1.86,13.42-3.91l.78-2.15v-27.04a115.759,115.759,0,0,0-33.38-81.48,59.1,59.1,0,0,0,8.29-53.11c-.07-.22-.14-.45-.22-.67a.637.637,0,0,1-.02-.07c.01.02.03.02.04.03.12.05.23.1.35.15h0A51.393,51.393,0,0,0,326.02,315.418ZM295.79,217.8a14.883,14.883,0,0,0,.8-2.26A14.883,14.883,0,0,1,295.79,217.8Zm-1.84,3.107a10.777,10.777,0,0,0-2.112-.695,10.777,10.777,0,0,1,2.112.695Zm-8.077-.289a10.735,10.735,0,0,0-6.813,7.919,1.62,1.62,0,0,1-.22.01h0a1.62,1.62,0,0,0,.22-.01,10.729,10.729,0,0,1,6.813-7.919ZM229.19,299.738v-.1a.355.355,0,0,1,.09.04Zm19.944-15.084q-2.979,2.891-6.188,5.533Q246.152,287.547,249.134,284.654Zm7.51-8.126q-1.765,2.133-3.645,4.166Q254.877,278.662,256.644,276.528ZM278.55,228.5a100.587,100.587,0,0,1-11.008,31.968A100.587,100.587,0,0,0,278.55,228.5Zm-16.869,41.417q2.385-3.411,4.491-7.022Q264.069,266.5,261.681,269.915Zm25.981-49.78a10.788,10.788,0,0,1,1.9-.167h0A10.788,10.788,0,0,0,287.662,220.135Zm9.408-39.677v31.47a13.929,13.929,0,0,1-.215,2.435,13.929,13.929,0,0,0,.215-2.435v-31.47a12.978,12.978,0,0,0-2.227-7.29A12.978,12.978,0,0,1,297.07,180.458Zm-2.978-8.294a13.186,13.186,0,0,0-1.768-1.768A13.186,13.186,0,0,1,294.092,172.164Zm-3.847-3.172a12.985,12.985,0,0,0-2.338-.988A12.985,12.985,0,0,1,290.245,168.992ZM272,441.428a5.139,5.139,0,0,1,1.73,1.54C272.64,441.978,272,441.428,272,441.428Zm84.809-164.919q1.909-2.259,3.641-4.653-1.725,2.394-3.641,4.653-1.274,1.5-2.617,2.949Q355.533,278.014,356.809,276.509Zm-24.62,21.079q-1.485.969-2.94,1.871Q330.7,298.556,332.189,297.588Zm-4.384,2.758q-1.434.869-2.823,1.673Q326.369,301.215,327.805,300.346Z"/><path class="frame7-1" d="M371.31,239.458a51.5,51.5,0,0,1-65.25,71.95c2.14-.85,65.91-26.35,64.97-70.94C371.13,240.138,371.22,239.8,371.31,239.458Z"/><path class="frame7-2" d="M273.73,442.968a5.139,5.139,0,0,0-1.73-1.54S272.64,441.978,273.73,442.968ZM63.57,483.718c-5.77-1.19-11.28-2.47-16.49-3.82-16.58-41.12,13.42-79.97,13.42-79.97l.42-1.02a73.937,73.937,0,0,0,69.91-7.42l-.02-.04a44.553,44.553,0,0,1-33.24-52.97,115.141,115.141,0,0,1,26.91-7l.19,1.34a57.878,57.878,0,0,0,88.26,43.57,58.954,58.954,0,0,0,84.69-11.31A115.759,115.759,0,0,1,331,446.558V473.6l-.78,2.15q-6.33,2.04-13.42,3.91c-2.69.72-5.46,1.4-8.3,2.07-2.92.68-5.93,1.34-9.01,1.98-.58-16.43-19.79-35.27-25.75-40.73,6.26,8.33,6.26,41.45,6.26,41.45v128H259.15C75.24,589.478,92,441.428,92,441.428c-8,9-12,45-12,45v.33Q71.465,485.363,63.57,483.718Z"/><path class="frame7-3" d="M316.8,479.658l-2.63,132.77h-7.59c.3-6.75,1.48-38.18,1.92-130.7C311.34,481.058,314.11,480.378,316.8,479.658Z"/><path class="frame7-4" d="M299.49,483.708c3.08-.64,6.09-1.3,9.01-1.98-.44,92.52-1.62,123.95-1.92,130.7H280V487.238C286.78,486.168,293.29,484.988,299.49,483.708Z"/><path class="frame7-3" d="M297.07,180.458v31.47a14.949,14.949,0,0,1-3.12,8.98,10.718,10.718,0,0,0-14.89,7.63,1.62,1.62,0,0,1-.22.01l-.29-.05a100.6,100.6,0,0,0,1.36-16.57v-44.51h4.12A13.042,13.042,0,0,1,297.07,180.458Z"/><path class="frame7-5" d="M293.95,220.908a10.718,10.718,0,0,0-14.89,7.63,10.117,10.117,0,0,0-.22,2.15,10.72,10.72,0,1,0,15.11-9.78Z"/><path class="frame7-6" d="M273.74,442.978c5.96,5.46,25.17,24.3,25.75,40.73-6.2,1.28-12.71,2.46-19.49,3.53v-2.81S280,451.308,273.74,442.978Z"/><path class="frame7-4" d="M264.93,172.878l-.45-.07a35.391,35.391,0,1,0-70.37-5.39,35.156,35.156,0,0,0,1.22,9.24l1.17,12.6c0,6.26,3.69,11.93,9.66,16.03s14.22,6.64,23.34,6.64c18.23,0,33-10.15,33-22.67Zm14.98-5.46v44.51a101.313,101.313,0,0,1-50.63,87.75.355.355,0,0,0-.09-.04v.1a101.566,101.566,0,0,1-93.28,4.15c-.04-.02-.09-.04-.13-.06a101.373,101.373,0,0,1-58.56-91.9v-87.94a100.6,100.6,0,0,1,.63-11.31l.44.05c63.27,15.01,144.78-11.8,144.78-37.54,9.65,0,56.84,55.77,56.84,84.72Zm-48.55,85.22a3.5,3.5,0,0,0-.14-2.94,1.421,1.421,0,0,0-2.64.73c0,.51-.01,1.02-.03,1.51-1.07,1.75-7.63,7.07-47.29,7.07-39.26,0-40.83-8.58-40.84-8.58a1.42,1.42,0,0,0-2.84,0c0,27.71,26.78,30.92,46.92,30.92C204.09,281.348,229.96,278.318,231.36,252.638Zm-44.41-19.57a1.419,1.419,0,0,0-1.42-1.42,16.828,16.828,0,0,1-16.81-16.81,1.42,1.42,0,0,0-2.84,0,19.679,19.679,0,0,0,19.65,19.65A1.419,1.419,0,0,0,186.95,233.068ZM164,176.428a35.391,35.391,0,1,0-67.84,2.09l1.34,11.9c0,6.21,3.69,11.84,9.66,15.92s14.22,6.59,23.34,6.59c18.23,0,33-10.08,33-22.51l.5-13.97Z"/><path class="frame7-3" d="M264.93,172.878l-2.43,16.38c0,12.52-14.77,22.67-33,22.67-9.12,0-17.36-2.54-23.34-6.64s-9.66-9.77-9.66-16.03l-1.17-12.6a35.4,35.4,0,0,0,69.15-3.85Z"/><path class="frame7-7" d="M195.33,176.658a35.393,35.393,0,1,1,69.56-9.24,35.394,35.394,0,0,1-69.56,9.24Zm45.97.41a10.725,10.725,0,1,0-10.72,10.73A10.721,10.721,0,0,0,241.3,177.068Z"/><path class="frame7-6" d="M80,486.758v-.33s4-36,12-45c0,0-16.76,148.05,167.15,171H80Z"/><path class="frame7-1" d="M230.58,166.348a10.725,10.725,0,1,1-10.73,10.72A10.721,10.721,0,0,1,230.58,166.348Z"/><path class="frame7-8" d="M231.22,249.7a3.5,3.5,0,0,1,.14,2.94c-1.4,25.68-27.27,28.71-46.86,28.71-20.14,0-46.92-3.21-46.92-30.92a1.42,1.42,0,0,1,2.84,0c.01,0,1.58,8.58,40.84,8.58,39.66,0,46.22-5.32,47.29-7.07.02-.49.03-1,.03-1.51a1.421,1.421,0,0,1,2.64-.73Zm-46.72,28.81c27.41,0,41.17-7,43.66-22.53-6.53,3.9-22.25,5.87-46.9,5.87-25.46,0-36.12-3.57-40.56-6.77C142.81,271.238,156.56,278.508,184.5,278.508Z"/><path class="frame7-3" d="M229.19,299.738a101.566,101.566,0,0,1-93.28,4.15c-.04-.02-.09-.04-.13-.06l-.05.1a100.619,100.619,0,0,0,9.14,26.5c8.91,17.48,25.78,37.22,56.63,37.5l1.27,1.87c.75-.36,1.49-.74,2.21-1.14a58.585,58.585,0,0,1-7.43-11.01c.07.05.14.1.21.14l.24-.36q8.325,3.03,15.83,4.94a46.958,46.958,0,0,0,15.49-31.05c.12-1.34.18-2.69.18-4.06Z"/><path class="frame7-9" d="M228.16,255.978c-2.49,15.53-16.25,22.53-43.66,22.53-27.94,0-41.69-7.27-43.8-23.43,4.44,3.2,15.1,6.77,40.56,6.77C205.91,261.848,221.63,259.878,228.16,255.978Z"/><path class="frame7-1" d="M305.91,311.968c-.67,3.69-5.27,25.61-23.06,40.43-11.97,9.96-29.9,16.71-56.61,12.56-2.35-.37-4.78-.82-7.27-1.36-1.68-.37-3.4-.77-5.14-1.23q-7.515-1.92-15.83-4.94l-.24.36c-.07-.04-.14-.09-.21-.14a58.585,58.585,0,0,0,7.43,11.01,57.5,57.5,0,0,0,7.95,7.73,58.993,58.993,0,0,0,92.98-64.42Z"/><path class="frame7-6" d="M204.98,368.658a57.5,57.5,0,0,0,7.95,7.73,57.878,57.878,0,0,1-88.26-43.57l-.19-1.34c1.54-.21,3.09-.39,4.66-.53q3.075-.3,6.21-.41l-.01,1.26a47.218,47.218,0,0,0,67.43,38C203.52,369.438,204.26,369.058,204.98,368.658Z"/><path class="frame7-8" d="M185.53,231.648a1.42,1.42,0,0,1,0,2.84,19.679,19.679,0,0,1-19.65-19.65,1.42,1.42,0,0,1,2.84,0A16.828,16.828,0,0,0,185.53,231.648Z"/><path class="frame7-7" d="M96.16,178.518a35.389,35.389,0,1,1,67.84-2.09v.02a35.4,35.4,0,0,1-67.84,2.07Zm45.4-1.45a10.725,10.725,0,1,0-10.72,10.73A10.721,10.721,0,0,0,141.56,177.068Z"/><path class="frame7-3" d="M164,176.448l-.5,13.97c0,12.43-14.77,22.51-33,22.51-9.12,0-17.36-2.52-23.34-6.59s-9.66-9.71-9.66-15.92l-1.34-11.9a35.4,35.4,0,0,0,67.84-2.07Z"/><path class="frame7-4" d="M201.5,367.928c-30.85-.28-47.72-20.02-56.63-37.5a100.619,100.619,0,0,1-9.14-26.5l-.23.03-.15,26.58-.01,1.26a47.218,47.218,0,0,0,67.43,38Z"/><path class="frame7-1" d="M130.84,166.348a10.725,10.725,0,1,1-10.73,10.72A10.721,10.721,0,0,1,130.84,166.348Z"/><path class="frame7-10" d="M345.33,259.648c-14.81,0-27.65-9.5-20.38-35.39C368.92,67.678,257.39,39.8,257.39,39.8,230.43-41.062-18.23-3.1,48.26,194.228c16.89,50.14-15.01,60.06-25.74,60.06a29.909,29.909,0,0,1-21.97-9.57,50.4,50.4,0,0,0,23.44,50.35s-1.34,46.64,27.21,76.81c14.15,14.97,35.65,25.88,68.3,25.05l.36.78a73.957,73.957,0,0,0,10.97-6.22l-.02-.04a44.518,44.518,0,0,1-1.81-86.19,43.736,43.736,0,0,1,6.5-1.3l.23-.03.05-.1a101.373,101.373,0,0,1-58.56-91.9v-87.94a100.6,100.6,0,0,1,.63-11.31l.44.05c63.27,15.01,144.78-11.8,144.78-37.54,9.65,0,56.84,55.77,56.84,84.72v7.51h4.12a13.042,13.042,0,0,1,13.04,13.04v31.47a14.949,14.949,0,0,1-3.12,8.98,10.724,10.724,0,1,1-15.11,9.78,10.117,10.117,0,0,1,.22-2.15,1.62,1.62,0,0,1-.22.01l-.29-.05a101.4,101.4,0,0,1-49.27,71.18l-.09.06.31,27.52c0,1.37-.06,2.72-.18,4.06a46.958,46.958,0,0,1-15.49,31.05c1.74.46,3.46.86,5.14,1.23,2.49.54,4.92.99,7.27,1.36,26.71,4.15,44.64-2.6,56.61-12.56,17.79-14.82,22.39-36.74,23.06-40.43-.07-.22-.14-.45-.22-.67a.637.637,0,0,1-.02-.07c.01.02.03.02.04.03.12.05.23.1.35.15,2.14-.85,65.91-26.35,64.97-70.94A26.832,26.832,0,0,1,345.33,259.648Z"/><path class="frame7-1" d="M129,305.258a44.587,44.587,0,0,0-31.43,33.22,115.141,115.141,0,0,1,26.91-7c1.54-.21,3.09-.39,4.66-.53q3.075-.3,6.21-.41l.15-26.58A43.736,43.736,0,0,0,129,305.258Z"/><path class="frame7-4" d="M80,486.758v125.67H68.48l-4.91-128.71Q71.46,485.353,80,486.758Z"/><path class="frame7-3" d="M47.08,479.9c5.21,1.35,10.72,2.63,16.49,3.82l4.91,128.71H46.5L40.86,478.2Q43.89,479.068,47.08,479.9Z"/><path class="frame7-6" d="M40.86,478.2c-6.24-1.77-11.99-3.67-17.21-5.67l.35-.93v-25.04A115.7,115.7,0,0,1,40.71,386.5a73.955,73.955,0,0,0,20.21,12.41l-.42,1.02s-30,38.85-13.42,79.97Q43.885,479.073,40.86,478.2Z"/><path class="frame7-1" d="M119.5,396.928c-32.65.83-54.15-10.08-68.3-25.05-28.55-30.17-27.21-76.81-27.21-76.81a74.028,74.028,0,0,0,95.87,102.64Z"/></g></g>
<g id="sweatDrop"><path class="frame7-11" d="M309.05,95.928l.72.39c-3.08,5.49-8.41,9.11-14.47,9.11-9.53,0-17.25-8.95-17.25-20,0-4.14,2.42-11.07,5.45-18.13C282.97,71.088,279.44,102.508,309.05,95.928Z"/><path class="frame7-12" d="M295.3,43.428s-6.63,11.9-11.68,23.58a1.686,1.686,0,0,1-.12.28v.01c-.53,3.79-4.06,35.21,25.55,28.63l.72.39a22.212,22.212,0,0,0,2.78-10.89C312.55,74.378,295.3,43.428,295.3,43.428Z"/><path class="frame7-12" d="M283.62,67.008a1.686,1.686,0,0,1-.12.28c.03-.23.05-.36.05-.36Z"/></g></svg>